<?xml version="1.0" encoding="UTF-8"?>
<svg id="Layer_1" data-name="Layer 1" xmlns="http://www.w3.org/2000/svg" viewBox="0 0 595.28 106">
  <defs>
    <style>
      .cls-1 {
        fill: #fff;
      }
    </style>
  </defs>
  <g id="surface1">
    <path class="cls-1" d="M258.41,36.34c-9.4,0-11.21,1.25-11.54,1.63-.45,.52-1.48,2.88-1.48,13.61,0,7.74,1.17,9.61,1.67,10.05,.52,.46,2.7,1.54,11.61,1.54,8.43,0,10.45-1.18,10.92-1.68,.48-.52,1.61-2.71,1.61-11.87s-1.05-11.27-1.5-11.74c-.34-.36-2.18-1.54-11.29-1.54"/>
    <path class="cls-1" d="M287.29,26.32h-3.35v-3.35h3.35v3.35Zm0,62.33h-3.35v-3.35h3.35v3.35Zm-7.48-20c-2.27,1.96-6.59,3.2-13.04,3.77,.32-.57,.61-1.07,.83-1.46,1.08-1.55,.7-3.68-.84-4.76-1.5-1.05-3.74-.62-4.72,.79-2.01,2.2-3.71,4.11-5.18,5.79-10.26-.05-16.82-1.39-20.02-4.07-3.34-2.8-4.96-8.56-4.96-17.6,0-10.66,1.59-17.25,4.86-20.14,3.22-2.86,10.58-4.24,22.5-4.24,10.65,0,17.39,1.37,20.61,4.19,3.27,2.87,4.86,8.84,4.86,18.27,0,10.27-1.6,16.64-4.89,19.47m-29.25,15.49s.04-.07,.05-.11c.04-.08,.09-.17,.14-.27,.03-.05,.06-.11,.09-.16,.06-.11,.13-.22,.21-.34,.04-.06,.07-.12,.12-.18,.1-.15,.21-.31,.33-.48,.03-.04,.05-.07,.08-.12,.15-.21,.32-.45,.5-.69,.05-.07,.12-.16,.18-.23,.13-.17,.26-.35,.4-.54,.08-.11,.17-.22,.26-.33,.13-.17,.27-.34,.4-.52,.1-.12,.2-.25,.3-.38,.15-.19,.31-.38,.46-.58,.1-.12,.2-.25,.3-.38,.25-.3,.5-.62,.77-.95,.13-.16,.27-.32,.4-.48,.16-.2,.32-.39,.49-.59,.15-.18,.3-.36,.46-.54,.16-.19,.33-.39,.5-.58,.16-.2,.33-.39,.5-.58,.17-.2,.35-.41,.53-.61,.16-.19,.33-.38,.5-.57,.33-.38,.66-.76,1.01-1.15h.01c1.24-1.42,2.57-2.91,3.97-4.44l.13-.15c.26-.38,.7-.6,1.16-.6,.29,0,.56,.09,.8,.25,.64,.45,.79,1.32,.3,2.04-.5,.89-1.02,1.8-1.54,2.71h0c-.43,.75-.86,1.51-1.29,2.27l-.15,.27c-.17,.29-.34,.58-.5,.87-.09,.16-.18,.32-.27,.47-.14,.25-.29,.49-.43,.74-.11,.2-.23,.39-.34,.59-.13,.22-.27,.45-.39,.67-.12,.2-.23,.4-.35,.6s-.24,.4-.35,.6c-.15,.25-.29,.49-.43,.73-.09,.14-.17,.29-.25,.43-.23,.38-.45,.75-.66,1.11-.02,.04-.04,.07-.06,.1-.2,.32-.39,.64-.57,.95-.05,.09-.11,.18-.16,.27-.14,.24-.29,.47-.42,.69-.06,.1-.12,.19-.18,.29-.12,.2-.24,.39-.35,.57-.06,.09-.12,.18-.18,.27-.11,.17-.21,.32-.31,.48-.05,.08-.11,.16-.16,.24-.09,.14-.18,.27-.26,.39-.05,.07-.09,.14-.13,.2-.08,.12-.16,.21-.23,.31-.03,.04-.07,.09-.09,.13-.09,.12-.18,.22-.24,.29-.27,.29-.72,.35-1.04,.35-.81,0-1.69-.36-2.16-.69-.78-.55-1.75-1.52-1.9-2.35,.01-.07,.05-.17,.09-.28m-17.12,4.5h-3.35v-3.35h3.35v3.35Zm-3.35-65.68h3.35v3.35h-3.35v-3.35Zm57.75-2.79h-58.3c-1.48,0-2.68,1.21-2.68,2.71V88.18c0,1.49,1.2,2.71,2.68,2.71h58.3c1.48,0,2.68-1.21,2.68-2.71V22.88c0-1.5-1.2-2.71-2.68-2.71"/>
    <path class="cls-1" d="M159.34,31.2c-3.29-2.82-10.18-4.19-21.07-4.19-1.79,0-15.5,.03-17.09,.09v9.62c1.21-.06,14.63-.1,16.24-.1,9.3,0,11.18,1.18,11.54,1.54,.38,.38,1.17,1.87,1.44,7.47h-28.6v8.68h28.59c-.3,5.51-1.14,7.05-1.54,7.47-.48,.51-2.55,1.69-11.17,1.69-1.71,0-15.23-.04-16.5-.11v9.68c1.05,.03,14.18,.05,15.32,.05,12.04,0,19.5-1.36,22.81-4.14,3.37-2.84,5-9.21,5-19.48,0-9.43-1.62-15.41-4.97-18.27"/>
    <path class="cls-1" d="M308.68,80.78l-1.86,4.36c-.45,1.09-1.1,2.69-1.36,3.43h-.05c-.26-.79-.76-2-1.05-2.75l-2.09-5.04h-2.57l-.86,10.01h1.93l.29-4.73c.07-1.1,.14-2.42,.19-3.6h.1c.29,.93,.79,2.38,1.14,3.33l2.04,4.94h1.53l2.21-5.04c.64-1.53,.95-2.34,1.26-3.25h.07c.05,1.22,.14,2.5,.21,3.58l.26,4.78h2l-.81-10.01h-2.59Z"/>
    <path class="cls-1" d="M326.96,90.79h2.07v-10.01h-2.07v10.01Z"/>
    <path class="cls-1" d="M320.11,89.61c-.59,0-1.05-.04-1.45-.08v-4.05c.43-.06,.95-.1,1.55-.1,1.57,0,3.23,.5,3.23,2.11s-1.73,2.13-3.33,2.13m.43-5.54c-.76,0-1.43,.04-1.88,.12v-3.41h-2.07v9.96c.86,.08,1.93,.14,3.09,.14,1.52,0,3.38-.23,4.64-1.16,.74-.54,1.19-1.26,1.19-2.32,0-2.46-2.5-3.35-4.98-3.35"/>
    <path class="cls-1" d="M348.97,89.4h-5.31c.36-.56,.69-1.18,.93-1.86,.38-1.12,.6-2.4,.6-3.72v-1.65h3.79v7.23Zm2.05-8.62h-7.69v2.61c0,1.41-.21,2.75-.66,3.99-.26,.72-.64,1.41-1.14,2.05l-.98,.02,.1,4.53h1.64l.09-3.18h7.98l.09,3.18h1.64l.12-4.53-1.19-.02v-8.64Z"/>
    <path class="cls-1" d="M357.64,84.81c.17-1.26,1.09-2.96,3.21-2.96,2.36,0,2.93,1.8,2.9,2.96h-6.12Zm3.38-4.26c-3.36,0-5.4,2.38-5.4,5.39s2.12,5.04,5.67,5.04c1.83,0,3.09-.33,3.83-.62l-.36-1.3c-.79,.29-1.69,.52-3.19,.52-2.1,0-3.91-1.01-3.95-3.47h8.09c.02-.18,.07-.47,.07-.84,0-1.84-1-4.71-4.76-4.71"/>
    <path class="cls-1" d="M370.97,84.81c0,2.23-.12,3.64-1.19,4.32-.29,.21-.74,.35-1.14,.41l.21,1.43c1.07,0,1.71-.23,2.29-.62,1.5-.85,1.81-2.73,1.81-5.54v-2.61h3.95v8.58h2.07v-10.01h-8v4.03Z"/>
    <path class="cls-1" d="M390.3,87.42c0,.18-.05,.39-.12,.58-.34,.85-1.29,1.68-2.79,1.68-1.07,0-1.98-.56-1.98-1.74,0-1.94,2.59-2.29,4.88-2.25v1.74Zm2.02-2.77c0-2.01-.86-4.09-4.38-4.09-1.45,0-2.83,.35-3.79,.89l.48,1.2c.81-.45,1.93-.74,3-.74,2.36,0,2.62,1.49,2.62,2.32v.2c-4.45-.02-6.93,1.3-6.93,3.72,0,1.45,1.19,2.88,3.52,2.88,1.64,0,2.88-.7,3.52-1.49h.07l.16,1.26h1.91c-.14-.68-.19-1.53-.19-2.4v-3.74Z"/>
    <path class="cls-1" d="M398.74,84.81c.16-1.26,1.09-2.96,3.21-2.96,2.36,0,2.93,1.8,2.91,2.96h-6.12Zm3.38-4.26c-3.36,0-5.4,2.38-5.4,5.39s2.12,5.04,5.66,5.04c1.83,0,3.09-.33,3.83-.62l-.36-1.3c-.79,.29-1.69,.52-3.19,.52-2.09,0-3.9-1.01-3.95-3.47h8.09c.03-.18,.07-.47,.07-.84,0-1.84-1-4.71-4.76-4.71"/>
    <path class="cls-1" d="M420.4,80.78l-1.86,4.36c-.45,1.09-1.09,2.69-1.36,3.43h-.05c-.26-.79-.76-2-1.05-2.75l-2.09-5.04h-2.57l-.86,10.01h1.93l.29-4.73c.07-1.1,.14-2.42,.19-3.6h.09c.29,.93,.79,2.38,1.14,3.33l2.05,4.94h1.52l2.21-5.04c.64-1.53,.95-2.34,1.26-3.25h.07c.05,1.22,.14,2.5,.21,3.58l.26,4.78h2l-.81-10.01h-2.59Z"/>
    <path class="cls-1" d="M440.79,89.65c-2.29,0-3.21-2.38-3.21-4.03,0-.81,.19-1.53,.57-2.13,.48-.8,1.36-1.36,2.59-1.36,2.48,0,3.21,2.11,3.21,3.74,0,1.84-.86,3.79-3.17,3.79m.38-8.87c-1.64,0-3.27,.81-4,2.25h-.07c.09-1.05,.52-2.4,1.26-3.31,.88-1.09,2.24-1.63,4.1-1.88,.76-.1,1.81-.27,2.4-.45l.09-1.51c-.79,.25-1.93,.41-2.86,.54-2.24,.33-3.83,.97-4.95,2.36-1.23,1.41-1.79,3.27-1.79,5.54,0,3.33,1.34,6.7,5.38,6.7,3.38,0,5.33-2.03,5.33-5.29s-2.07-4.94-4.9-4.94"/>
    <path class="cls-1" d="M455.13,86.65c-.29,.72-.52,1.49-.74,2.09h-.05c-.19-.6-.48-1.38-.74-2.05l-2.52-5.91h-2.29l4.26,9.22c.09,.23,.14,.37,.14,.48s-.07,.25-.16,.43c-.48,.93-1.19,1.63-1.76,2.03-.62,.45-1.31,.74-1.84,.89l.52,1.53c.52-.08,1.55-.39,2.57-1.18,1.43-1.07,2.45-2.83,3.95-6.26l3.14-7.13h-2.21l-2.29,5.87Z"/>
    <path class="cls-1" d="M469.77,89.4h-5.31c.36-.56,.69-1.18,.93-1.86,.38-1.12,.6-2.4,.6-3.72v-1.65h3.79v7.23Zm2.05-8.62h-7.69v2.61c0,1.41-.21,2.75-.67,3.99-.26,.72-.64,1.41-1.14,2.05l-.98,.02,.1,4.53h1.64l.09-3.18h7.97l.1,3.18h1.64l.12-4.53-1.19-.02v-8.64Z"/>
    <path class="cls-1" d="M482.08,86.65c-.29,.72-.52,1.49-.74,2.09h-.05c-.19-.6-.48-1.38-.74-2.05l-2.52-5.91h-2.29l4.26,9.22c.1,.23,.14,.37,.14,.48s-.07,.25-.17,.43c-.47,.93-1.19,1.63-1.76,2.03-.62,.45-1.31,.74-1.83,.89l.52,1.53c.52-.08,1.55-.39,2.57-1.18,1.43-1.07,2.45-2.83,3.95-6.26l3.14-7.13h-2.21l-2.29,5.87Z"/>
    <path class="cls-1" d="M504.48,80.78h-2.07v8.58h-4.02v-8.58h-2.05v8.58h-4.02v-8.58h-2.05v10.01h13.55l.09,3.18h1.62l.12-4.53-1.17-.02v-8.64Z"/>
    <path class="cls-1" d="M511.09,84.81c.16-1.26,1.1-2.96,3.21-2.96,2.36,0,2.93,1.8,2.9,2.96h-6.12Zm3.38-4.26c-3.36,0-5.41,2.38-5.41,5.39s2.12,5.04,5.66,5.04c1.84,0,3.1-.33,3.83-.62l-.36-1.3c-.79,.29-1.69,.52-3.19,.52-2.09,0-3.9-1.01-3.95-3.47h8.09c.02-.18,.07-.47,.07-.84,0-1.84-1-4.71-4.76-4.71"/>
    <path class="cls-1" d="M524.85,84.81c.17-1.26,1.1-2.96,3.21-2.96,2.36,0,2.93,1.8,2.9,2.96h-6.12Zm3.38-4.26c-3.36,0-5.4,2.38-5.4,5.39s2.12,5.04,5.66,5.04c1.83,0,3.09-.33,3.83-.62l-.36-1.3c-.79,.29-1.69,.52-3.19,.52-2.09,0-3.91-1.01-3.95-3.47h8.09c.02-.18,.07-.47,.07-.84,0-1.84-1-4.71-4.76-4.71"/>
    <path class="cls-1" d="M533.15,27.74c-4.92-.18-9.55-.16-13.59-.12-.02,.02-.3,.14-.64,.44-4.72,4.05-9.43,8.12-14.13,12.2l-5.34,4.61c-.35,.3-.72,.59-1.19,.96l-3.68,2.9V27.68h-11.64v44.87h11.66v-.76c0-2.46,0-4.88,.01-7.3,0-.89,.01-2.11,.88-2.93,1.92-1.81,3.84-3.52,5.88-5.34l3.34-3,1.64,2.26c.27,.37,.49,.68,.71,.99l2.64,3.81c2.74,3.95,5.48,7.91,8.25,11.84,.15,.21,.34,.39,.46,.48,4.59,.07,9.16,.06,14.01,.05h.71l-19.61-27.35,19.63-17.57Z"/>
    <path class="cls-1" d="M376.44,71.37l12.38-14.35,10.76-12.89v28.53h12.06V28.69c0-.12-.01-.2-.02-.29-.07-.25-.34-.57-1.26-.56-.06,0-5.68,.12-9.51,0-.75-.02-1.3,.02-1.7,.09-.79,.22-1.11,.66-2.3,2.04h-.01c-.21,.26-.43,.52-.67,.79h.02s-16.83,19.26-16.83,19.26c-1.38,1.61-5.01,5.73-5.01,5.73v-22.04h0c-.01-3.07-.02-5.4-.02-5.85,0-.11-.02-.16-.02-.16,0,.01-.12-.01-.19-.01h-11.86v44.96h9.24c2.05,0,3.39,0,4.93-1.29"/>
    <path class="cls-1" d="M208.09,47.2c-.88,.93-2.31,1.64-4.65,1.7-2.91,.07-5.86,.07-8.7,.06-1.19,0-2.38,0-3.57,0-1.04,0-2.07,0-3.13,0h-3.46v-11.18h3.46c1.07,0,2.1,0,3.13,0,1.19,0,2.38,0,3.57,0,2.85,0,5.79,0,8.7,.07,2.34,.05,3.77,.77,4.65,1.7,.86,.99,1.3,2.3,1.32,3.83-.01,1.52-.46,2.84-1.32,3.83m4.34-18.35c-2.62-.7-5.38-1.09-8-1.13-7.8-.11-15.75-.1-23.44-.08-2.57,0-5.13,0-7.7,0v45.02h11.24v-13.55c2.69,0,5.39,0,8.11,0,.23,0,.46,0,.68,.02v-.02c3.7,0,7.41-.03,11.1-.08,2.62-.04,5.39-.43,8-1.13,4.23-1.13,6.9-3.91,7.93-8.25,.46-1.94,.71-3.78,.76-5.54,0-.05,0-.11,0-.16,0-.08,0-.16,0-.24,.05-2.08-.2-4.27-.76-6.6-1.03-4.34-3.7-7.12-7.93-8.26"/>
    <path class="cls-1" d="M326.97,62.54h-11.42c3.96-10.18,9.47-24.4,9.47-24.4h2.85l9.48,24.39c-3.48,0-6.95,0-10.38,0m7.86-34.89c-.03-.06-.05-.11-.07-.14-.05,0-.14-.02-.26-.01-2.36,.02-5.12,.04-8.06,.04s-5.7-.02-8.06-.04c-.12,0-.21,0-.26,.01-.02,.03-.04,.08-.07,.14-5.07,11.78-10.16,23.54-15.25,35.31l-4.2,9.7h.65c1.55,0,3.06,0,4.56,0h0s43.87,0,43.87,0h0c1.95,0,3.92,0,5.94,0h.65l-4.2-9.7c-5.09-11.77-10.18-23.53-15.25-35.31"/>
    <path class="cls-1" d="M448.19,39.28c.48,.02,1,.02,1.55,0h.06c.56,.02,1.07,.02,1.55,0,5.61,.13,8.98,1.93,10.87,4.43h0l12.46-7.9c-6.79-9.23-24.45-9-24.45-9l-.47,.04-.47-.04s-22.14-.3-26.37,12.74c-.62,1.4-1.73,4.75-1.55,10.46-.18,5.71,.93,9.05,1.55,10.45,4.23,13.04,26.37,12.74,26.37,12.74l.47-.04,.47,.04s17.17,.23,24.16-8.62l-12.62-7.74c-1.96,2.21-5.23,3.77-10.42,3.89-.48-.02-1-.02-1.55,0h-.06c-.56-.02-1.07-.02-1.55,0-9.3-.22-12.48-5.03-12.85-9.98-.02-.25-.03-.5-.04-.75,0-.25,.02-.5,.04-.75,.37-4.95,3.55-9.75,12.85-9.98"/>
    <path class="cls-1" d="M77.52,55.84l7.53-17.5,7.66,17.5h-15.18Zm-1.51-28.48l-19.87,45.31h14.22l3.5-8.18h22.49l3.58,8.18h14.02l-20.18-45.31h-17.76Z"/>
  </g>
</svg>