<?xml version="1.0" encoding="utf-8"?>
<!-- Generator: Adobe Illustrator 26.5.0, SVG Export Plug-In . SVG Version: 6.00 Build 0)  -->
<svg version="1.1" id="Слой_1" xmlns="http://www.w3.org/2000/svg" xmlns:xlink="http://www.w3.org/1999/xlink" x="0px" y="0px"
	 viewBox="0 0 350.2 75.1" style="enable-background:new 0 0 350.2 75.1;" xml:space="preserve">
<style type="text/css">
	.st0{fill:#2F3947;}
	.st1{fill:#FFFFFF;}
	.st2{fill:#5779A1;}
</style>
<path class="st0" d="M47.4,48.6c-1.7,0-3.1,1.4-3.1,3.1l0,3.8c0,1.7,1.4,3.1,3.1,3.1c1.7,0,3.1-1.4,3.1-3.1v-3.8
	C50.6,50,49.2,48.6,47.4,48.6L47.4,48.6L47.4,48.6z M2,44.6l0,18.5l6.2,0l0-18.5L2,44.6L2,44.6z M12.6,44.6v18.5l6.2,0l0-18.5
	L12.6,44.6L12.6,44.6z M36.9,40.8c-1.7,0-3.1,1.4-3.1,3.1l0,20c0,1.7,1.4,3.1,3.1,3.1c1.7,0,3.1-1.4,3.1-3.1l0-20
	C40,42.2,38.6,40.8,36.9,40.8L36.9,40.8L36.9,40.8z M26.3,33.9c-1.7,0-3.1,1.4-3.1,3.1l0,33.9c0,1.7,1.4,3.1,3.1,3.1
	c1.7,0,3.1-1.4,3.1-3.1l0-33.9C29.4,35.2,28,33.9,26.3,33.9L26.3,33.9L26.3,33.9z"/>
<path class="st1" d="M122.8,12h-8.9v30.8c0,1-0.1,2-0.3,3c-0.2,1-0.6,2-1.2,3c-0.5,1-1.2,1.8-2.1,2.6c-0.9,0.8-1.9,1.4-3.2,1.8
	c-1.3,0.5-2.7,0.7-4.4,0.7c-1.7,0-3.2-0.2-4.4-0.7c-1.3-0.4-2.3-1.1-3.2-1.8c-0.9-0.8-1.6-1.7-2.1-2.6c-0.5-1-0.9-2-1.1-3
	c-0.2-1-0.3-2-0.3-3V12h-8.9v31.1c0,3,0.5,5.6,1.5,8c1,2.4,2.4,4.4,4.2,6.1c1.8,1.7,3.9,3,6.4,3.9c2.4,0.9,5.1,1.3,8,1.3
	c2.9,0,5.5-0.5,8-1.3c2.4-0.9,4.6-2.2,6.4-3.9c1.8-1.7,3.2-3.7,4.2-6.1c1-2.4,1.5-5,1.5-8L122.8,12L122.8,12z M209.3,35.3
	c-0.2-0.1-0.5-0.1-0.8-0.1c-0.7-0.1-1.3-0.2-2-0.2c-1.6,0-2.9,0.2-4,0.7c-1.1,0.5-2,1-2.6,1.7c-0.7,0.7-1.2,1.5-1.6,2.2
	c-0.4,0.8-0.6,1.5-0.7,2.2c-0.1,0.7-0.2,1.2-0.2,1.6v17.8H189V27.9h8.5v5.3h0.1c0.6-1.3,1.4-2.4,2.4-3.3c1-0.9,2.1-1.6,3.4-2.1
	c1.3-0.5,2.7-0.7,4.2-0.7c0.5,0,1,0,1.5,0.1c0.5,0.1,1.1,0.2,1.6,0.4c0.2-0.5,0.3-1,0.5-1.4c1.3-3.2,3.1-5.9,5.5-8.2
	c2.3-2.3,5.1-4,8.3-5.3c3.2-1.2,6.7-1.8,10.6-1.9c2.6,0,5,0.2,7.3,0.6c2.3,0.4,4.5,1.1,6.6,2c2.1,0.9,4,2.1,5.7,3.6l-6.6,6.5
	c-1.1-1-2.3-1.9-3.7-2.6c-1.4-0.7-2.9-1.3-4.5-1.6c-1.6-0.4-3.2-0.6-4.9-0.6c-2.6,0-4.9,0.5-7,1.4c-2.1,0.9-3.9,2.1-5.4,3.7
	c-1.5,1.6-2.7,3.5-3.5,5.6c-0.8,2.1-1.2,4.4-1.2,6.9c0,2.6,0.4,5.1,1.2,7.3c0.8,2.2,2,4.1,3.5,5.8c1.5,1.6,3.3,2.9,5.4,3.8
	c2.1,0.9,4.4,1.4,7,1.4c2.3,0,4.4-0.2,6.4-0.6c2-0.4,3.8-1.1,5.3-1.9V40.4h-10.2v-7.9h19.1v25.1c-3,1.6-6.3,2.8-9.7,3.6
	c-3.5,0.8-7.1,1.2-10.9,1.2c-3.9,0-7.4-0.6-10.6-1.9c-3.2-1.2-6-2.9-8.3-5.2c-2.4-2.3-4.2-5-5.5-8.1c-1.3-3.1-1.9-6.6-2-10.5
	C209.3,36.3,209.3,35.8,209.3,35.3L209.3,35.3L209.3,35.3z M150.6,32.1c-0.9-1.2-2-2.2-3.3-2.9c-1.3-0.7-2.7-1.3-4.2-1.6
	c-1.5-0.3-3-0.5-4.5-0.5c-1.7,0-3.4,0.2-5,0.6c-1.6,0.4-3.1,1.1-4.4,2c-1.3,0.9-2.3,2-3.1,3.4c-0.8,1.4-1.1,3-1.2,4.8
	c0,1.8,0.4,3.3,1,4.4c0.7,1.2,1.5,2.1,2.6,2.7c1.1,0.7,2.3,1.2,3.6,1.6c1.3,0.4,2.6,0.7,3.9,1c1.3,0.3,2.5,0.5,3.6,0.9
	c1.1,0.3,1.9,0.8,2.6,1.3c0.7,0.5,1,1.3,1,2.3c0,0.7-0.2,1.2-0.5,1.7c-0.4,0.5-0.8,0.9-1.4,1.2c-0.6,0.3-1.2,0.5-1.8,0.7
	c-0.7,0.2-1.3,0.2-1.9,0.2c-1.2,0-2.3-0.2-3.2-0.5c-0.9-0.4-1.8-0.8-2.6-1.5c-0.8-0.6-1.5-1.3-2.3-2.1l-5.6,5.2
	c1.2,1.3,2.4,2.3,3.8,3c1.4,0.8,2.8,1.3,4.4,1.6c1.6,0.3,3.2,0.5,5,0.5c1.4,0,2.8-0.1,4.2-0.4c1.4-0.2,2.7-0.6,3.9-1.1
	c1.2-0.5,2.4-1.2,3.3-2c1-0.8,1.7-1.8,2.3-3c0.6-1.2,0.8-2.6,0.9-4.2c0-1.8-0.4-3.4-1-4.6c-0.7-1.2-1.5-2.2-2.6-2.9
	c-1.1-0.7-2.3-1.3-3.6-1.7c-1.3-0.4-2.6-0.7-3.9-1c-1.3-0.3-2.5-0.5-3.6-0.8c-1.1-0.3-2-0.7-2.6-1.2c-0.7-0.5-1-1.2-1-2
	c0-0.8,0.3-1.5,0.8-2c0.5-0.5,1.1-0.9,1.9-1.2c0.8-0.2,1.5-0.4,2.3-0.4c1.4,0,2.7,0.3,3.8,0.9c1.1,0.6,2,1.4,2.8,2.5L150.6,32.1
	L150.6,32.1L150.6,32.1z M186.3,47.5v-2.3c0-2.9-0.4-5.5-1.2-7.7c-0.8-2.3-1.8-4.1-3.2-5.7c-1.4-1.5-3.1-2.7-5-3.5
	c-1.9-0.8-4.1-1.2-6.5-1.2c-2.6,0-5,0.4-7.2,1.3c-2.2,0.8-4.2,2-5.8,3.6c-1.7,1.5-3,3.4-3.9,5.5c-0.9,2.1-1.4,4.5-1.4,7.2
	c0,2.6,0.5,5,1.4,7.2c1,2.1,2.3,4,3.9,5.5c1.7,1.5,3.6,2.7,5.8,3.6c2.2,0.8,4.6,1.2,7.2,1.3c1.8,0,3.5-0.2,5.2-0.7
	c1.7-0.4,3.3-1.2,4.8-2.2c1.5-1,3-2.3,4.3-3.8l-6.1-4.5c-0.7,0.9-1.5,1.6-2.4,2.3c-0.9,0.7-1.9,1.2-3,1.6c-1.1,0.4-2.4,0.6-3.8,0.6
	c-1.6,0-3-0.3-4.3-1c-1.3-0.6-2.4-1.5-3.2-2.7c-0.8-1.2-1.4-2.6-1.6-4.2L186.3,47.5L186.3,47.5L186.3,47.5L186.3,47.5L186.3,47.5z
	 M160.5,41.2c0.2-1.6,0.7-3,1.4-4.2c0.7-1.2,1.7-2.1,3-2.8c1.2-0.7,2.7-1,4.3-1c1.8,0,3.3,0.3,4.6,1c1.3,0.6,2.3,1.6,2.9,2.7
	c0.7,1.2,1.1,2.6,1.1,4.2L160.5,41.2L160.5,41.2L160.5,41.2z M281.9,61.2h7.6V42c0-0.8,0-1.7-0.1-2.8c0-1-0.2-2.1-0.5-3.2
	c-0.2-1.1-0.7-2.2-1.3-3.3c-0.6-1.1-1.4-2-2.5-2.9c-1.1-0.9-2.4-1.5-4.1-2.1c-1.7-0.5-3.7-0.8-6.1-0.8c-1.8,0-3.6,0.2-5.3,0.6
	c-1.7,0.4-3.4,1-4.9,1.7c-1.5,0.8-2.9,1.8-4.2,3.1l4.4,4.4c1.1-1.1,2.5-1.9,4-2.5c1.5-0.6,3.2-0.9,5-1c1.5,0,2.9,0.2,4,0.7
	c1.2,0.5,2.1,1.2,2.7,2.1c0.7,0.9,1,2.1,1,3.4v0.9h-2.1c-1.4,0-2.9,0-4.5,0.1c-1.6,0.1-3.2,0.2-4.8,0.5c-1.6,0.2-3.1,0.6-4.5,1.1
	c-1.4,0.5-2.7,1.2-3.8,2c-1.1,0.9-2,1.9-2.7,3.2c-0.6,1.3-1,2.8-1,4.6c0,1.7,0.4,3.1,1,4.3c0.7,1.3,1.6,2.3,2.8,3.1
	c1.2,0.8,2.5,1.5,4,1.9c1.5,0.4,3,0.6,4.6,0.6c1.5,0,2.9-0.2,4.3-0.6c1.4-0.4,2.6-1,3.7-1.8c1.1-0.8,2.1-1.8,2.9-3.1h0.2L281.9,61.2
	L281.9,61.2L281.9,61.2z M281.4,48.1c0,1.6-0.3,2.9-0.9,4c-0.6,1.1-1.6,2-2.8,2.6c-1.3,0.6-2.9,0.9-4.8,0.9c-0.7,0-1.4-0.1-2.1-0.3
	c-0.7-0.2-1.3-0.4-1.9-0.8c-0.6-0.4-1-0.8-1.4-1.4c-0.4-0.5-0.5-1.2-0.5-2c0-1,0.3-1.7,0.9-2.4c0.6-0.6,1.3-1.1,2.3-1.5
	c0.9-0.4,2-0.7,3.1-0.8c1.1-0.2,2.2-0.3,3.4-0.4c1.1,0,2.2-0.1,3.1-0.1h1.8L281.4,48.1L281.4,48.1L281.4,48.1z M296.4,35v15.3
	c0,2,0.1,3.7,0.5,5.2c0.3,1.5,0.9,2.7,1.7,3.7c0.8,1,1.9,1.7,3.4,2.2c1.4,0.5,3.3,0.7,5.5,0.7c0.7,0,1.4,0,2.2-0.1
	c0.8-0.1,1.6-0.2,2.4-0.3c0.8-0.2,1.5-0.4,2.1-0.7v-7c-0.4,0.3-0.8,0.5-1.3,0.6c-0.5,0.2-1.1,0.3-1.6,0.3c-0.6,0.1-1.1,0.1-1.6,0.1
	c-1.2,0-2.2-0.2-2.9-0.7c-0.7-0.4-1.2-1.1-1.4-1.9c-0.3-0.8-0.4-1.8-0.4-2.9V35h9.3v-7.1h-9.3v-9.6h-8.5v9.6h-6V35H296.4L296.4,35z
	 M348.2,47.5v-2.3c0-2.9-0.4-5.5-1.2-7.7c-0.7-2.3-1.8-4.1-3.2-5.7c-1.4-1.5-3.1-2.7-5-3.5c-1.9-0.8-4.1-1.2-6.5-1.2
	c-2.6,0-5,0.4-7.2,1.3c-2.2,0.8-4.2,2-5.8,3.6c-1.7,1.5-3,3.4-3.9,5.5c-0.9,2.1-1.4,4.5-1.4,7.2c0,2.6,0.5,5,1.4,7.2
	c0.9,2.1,2.3,4,3.9,5.5c1.7,1.5,3.6,2.7,5.8,3.6c2.2,0.8,4.6,1.2,7.2,1.3c1.8,0,3.5-0.2,5.2-0.7c1.7-0.4,3.3-1.2,4.8-2.2
	c1.5-1,3-2.3,4.3-3.8l-6.1-4.5c-0.7,0.9-1.5,1.6-2.4,2.3c-0.9,0.7-1.9,1.2-3,1.6c-1.1,0.4-2.4,0.6-3.8,0.6c-1.6,0-3-0.3-4.3-1
	c-1.3-0.6-2.4-1.5-3.2-2.7c-0.9-1.2-1.4-2.6-1.6-4.2L348.2,47.5L348.2,47.5L348.2,47.5L348.2,47.5L348.2,47.5z M322.4,41.2
	c0.2-1.6,0.7-3,1.4-4.2c0.7-1.2,1.7-2.1,3-2.8c1.2-0.7,2.7-1,4.3-1c1.8,0,3.3,0.3,4.6,1c1.3,0.6,2.3,1.6,2.9,2.7
	c0.7,1.2,1.1,2.6,1.1,4.2L322.4,41.2L322.4,41.2L322.4,41.2z"/>
<path class="st2" d="M26.3,26.5c1.7,0,3.1-1.4,3.1-3.1l0-3.8c0-1.7-1.4-3.1-3.1-3.1c-1.7,0-3.1,1.4-3.1,3.1v3.8
	C23.2,25.2,24.6,26.5,26.3,26.5L26.3,26.5L26.3,26.5z M71.7,30.5l0-18.5l-6.2,0l0,18.5L71.7,30.5L71.7,30.5z M61.1,30.5l0-18.5
	l-6.2,0l0,18.5L61.1,30.5L61.1,30.5z M36.9,34.3c1.7,0,3.1-1.4,3.1-3.1l0-20c0-1.7-1.4-3.1-3.1-3.1c-1.7,0-3.1,1.4-3.1,3.1l0,20
	C33.8,33,35.2,34.3,36.9,34.3L36.9,34.3L36.9,34.3z M47.5,41.3c1.7,0,3.1-1.4,3.1-3.1l0-33.9c0-1.7-1.4-3.1-3.1-3.1
	c-1.7,0-3.1,1.4-3.1,3.1l0,33.9C44.3,39.9,45.7,41.3,47.5,41.3L47.5,41.3L47.5,41.3z"/>
</svg>
