<?xml version="1.0" encoding="UTF-8"?>
<svg id="Layer_1" data-name="Layer 1" xmlns="http://www.w3.org/2000/svg" viewBox="0 0 512 146">
  <defs>
    <style>
      .cls-1 {
        fill: #d71a20;
      }
    </style>
  </defs>
  <path class="cls-1" d="M115.03,48.47c7.83-13.51,22.3-22.54,37.67-24.58,11.32-2.05,22.98,.47,33.36,5.09-.05,9.05,.01,18.11-.03,27.16-4.76-4.7-10.52-8.69-17.17-10.05-9.53-2.2-20.33,.15-27.43,7.07-11.85,11.22-13.28,31.66-2.81,44.24,9.17,10.98,26.43,13.92,38.75,6.66,3.16-1.76,5.92-4.12,8.65-6.49,.06,9.01,.01,18.02,.02,27.03-12.62,6.77-27.8,6.8-41.34,3.03-13.62-3.8-25.32-13.68-31.54-26.35-8.27-16.43-7.65-37.03,1.87-52.81Z"/>
  <path class="cls-1" d="M45.25,25.61c12.71,.01,25.42,0,38.13,.02-.03,34.07,0,68.14-.02,102.22-7.79,.03-15.59-.04-23.39,.02-.09-11.82,.13-23.64-.37-35.45,.93-12.99-.27-26,.34-38.98-.02-2.63-.28-5.25-.42-7.87-4.75,.04-9.5,.07-14.25-.07-.06-6.63-.02-13.26-.02-19.89Z"/>
  <path class="cls-1" d="M244.35,25.6c19.24,.06,38.49-.02,57.73,.03,.02,6.56,.02,13.11,0,19.66-11.36,.65-22.75,.14-34.11,.31,0,6.52,.02,13.04,0,19.56,10.78,.03,21.56,0,32.34,0,.03,6.65,.01,13.3,0,19.95-10.77,0-21.53-.01-32.3,0-.05,7.59-.03,15.18-.03,22.78,11.37,.02,22.74-.05,34.11,.03-.02,6.62,.01,13.25-.03,19.87-19.23,.07-38.47,.03-57.71,.03-.03-34.08-.01-68.16-.01-102.24Z"/>
  <path class="cls-1" d="M319.56,25.65c12.41-.05,24.82-.06,37.24,0,8.7,0,17.73,2.49,24.32,8.4,6.64,6.13,9.6,15.45,9.25,24.34-.03,7.23-2.59,14.67-7.94,19.7-3.84,3.88-8.89,6.2-13.97,7.99,10.16,14.08,20.76,27.83,31.16,41.73-9.62,.07-19.23,.04-28.84,.02-9.17-13.43-18.36-26.84-27.52-40.28-.12,13.42-.03,26.85-.04,40.28-7.89,.02-15.78,.05-23.67-.01,0-34.06,0-68.11,.01-102.17Zm23.66,46.37c5.64-.01,11.66,.47,16.77-2.39,8.02-4.43,8.92-17.65,1.23-22.81-5.33-3.41-11.96-2.8-17.99-2.83-.06,9.35-.01,18.69-.01,28.03Z"/>
  <path class="cls-1" d="M411.1,25.62c12.57,0,25.14-.04,37.71,.03,7.17-.03,14.53,1.3,20.7,5.12,7.39,4.41,12.62,12.22,13.72,20.77,.94,8.58,.7,17.81-3.76,25.46-3.37,6.12-9.12,10.78-15.76,12.91-9.39,3.17-19.42,1.67-29.13,2.07-.01,11.95,0,23.91-.01,35.86-7.82,.02-15.64,.01-23.46,0-.03-34.07-.02-68.15-.01-102.22Zm23.46,19.28c.03,9.26,.02,18.52,.01,27.77,5.95-.15,12.24,.77,17.87-1.64,8.48-3.82,9.54-17.07,2.7-22.9-5.88-4.51-13.71-2.97-20.58-3.23Z"/>
  <path class="cls-1" d="M210.3,57.43c7.76-2.01,16.29,3.99,16.93,12.01,1.29,8.19-6.1,16.28-14.41,15.54-8.37,.14-15.06-8.67-13.13-16.7,1.06-5.29,5.33-9.69,10.61-10.85Z"/>
  <path class="cls-1" d="M210.52,102.46c8.01-1.93,16.67,4.63,16.78,12.92,.77,7.99-6.61,15.47-14.62,14.7-8.32,.05-14.96-8.77-12.98-16.76,1.09-5.33,5.47-9.79,10.82-10.86Z"/>
</svg>