<?xml version="1.0" encoding="UTF-8"?>
<svg id="Layer_1" data-name="Layer 1" xmlns="http://www.w3.org/2000/svg" viewBox="0 0 399.43 112.75">
  <defs>
    <style>
      .cls-1 {
        fill: #fff;
      }

      .cls-2 {
        fill: #017e7a;
      }
    </style>
  </defs>
  <g>
    <path class="cls-2" d="M69.01,9.19C81.48,.46,97.6-1.36,112.34,.87c10.99,1.67,21.83,7.18,28.02,16.68,10.66,16.23,9.96,39.09-1.88,54.54,9.8,1.55,20.27,6.57,23.83,16.51-6.59-6.14-15.78-8.05-24.44-9.1-14.07-1.68-29.05,.8-42.31-5.28-4.93-2.17-7.62-7.22-8.34-12.36,2.55,2.54,5.61,4.54,9.07,5.6,11.22,3.68,23.19,3.59,34.86,3.84,6.18-13.09,7.02-28.57,2.69-42.35-2.68-8.8-8.1-17.12-16.37-21.54-13.17-7.1-31.03-6.46-42.46,3.72-8.27,7.48-11.23,19.05-11.45,29.83-.35,14.32,4.41,29.37,15.33,39.09,2.83,3.03,7.02,4.21,9.85,7.21,2.74,2.86,6.62,4.12,10.31,5.21,10.06,2.66,20.55,2.84,30.89,2.93,8.73,.32,17.87,2.06,24.99,7.43,3.4,2.48,5.8,6.05,7.38,9.92-5.28-4.93-12.36-7.15-19.33-8.36-14.77-2.75-30.3,.17-44.7-4.83-4.27-1.37-7.83-4.4-9.83-8.42-10.1-1.59-19.99-6.16-26.53-14.21-8.92-11.01-12.3-26.13-9.55-39.98,1.77-10.9,7.46-21.39,16.64-27.76Z"/>
    <path class="cls-2" d="M87.26,73.8c2.45,2.69,5.56,4.68,9.04,5.74,11.14,3.65,23.02,3.61,34.62,3.83,9.12,.45,18.8,2.53,25.75,8.84,2.6,2.25,4.23,5.32,5.63,8.4-6.22-5.72-14.74-7.71-22.87-8.85-14.57-2.03-30.12,.81-43.89-5.48-5-2.15-7.62-7.31-8.28-12.48Z"/>
  </g>
  <g>
    <path class="cls-1" d="M373.11,32.95c7.21-4.26,16.28-2.94,23.75-.04-.44,3.05-.73,6.12-.82,9.2-.55,0-1.66,0-2.21-.02-.4-2.27,.66-5.67-1.92-6.91-4.79-2.48-11.18-3.08-15.81,.04-4.57,3.03-5.01,10.92-.05,13.79,6.19,2.73,13.57,.95,19.63,4.14,3.76,2.17,4.01,7,3.61,10.85-.26,4.92-4.12,8.73-8.18,11-7.4,3.77-16.21,2.76-23.79,.09,.3-3.41,.45-6.83,.45-10.25,.57,0,1.72-.01,2.29-.02,.36,2.36-.7,5.65,1.8,7.13,5.11,3.32,12.27,3.63,17.63,.69,5.13-2.77,6.57-11.3,1.26-14.61-6.5-3.22-14.9-.42-20.83-5.13-5.55-5.64-3.48-16.06,3.19-19.95Z"/>
    <path class="cls-1" d="M155.42,30.81c6.33,.5,12.7,.51,19.03,0,0,.55,0,1.66,0,2.22-1.95,.14-4.02-.13-5.85,.69-1.21,4.97-.77,10.16-.87,15.23,.11,6.09-.42,12.3,.96,18.29,2.13,4.97,8.25,6.27,13.14,6.03,4.79-.18,10.78-1.8,12.22-7.05,1.41-6.31,.88-12.84,.99-19.26-.11-4.37,.34-8.91-1-13.12-1.73-.93-3.77-.66-5.66-.83,.01-.56,.02-1.66,.03-2.21,5.26,.47,10.57,.51,15.84,0,.01,.55,.02,1.65,.02,2.19-1.96,.27-5.43-.53-5.8,2.27-1.17,10.24,.38,20.63-1.05,30.85-.9,5.69-6.13,9.68-11.56,10.71-6.46,1.24-13.63,.83-19.39-2.59-3.18-1.92-4.58-5.68-4.77-9.25-.5-10.45,.34-20.94-.49-31.38-1.91-.37-3.85-.54-5.8-.61v-2.2Z"/>
    <path class="cls-1" d="M204.29,72.42c6.62-13.75,12.58-27.83,18.64-41.84l2.08-.04c6.19,13.72,11.85,27.71,18.01,41.46,.72,2.25,3.1,2.62,5.13,2.88-.01,.47-.02,1.41-.03,1.88-5.87-.27-11.75-.23-17.61,.03-.02-.51-.04-1.55-.06-2.07,1.99-.15,3.98-.32,5.97-.55-1.11-4.43-3.14-8.54-4.67-12.83-6.19-.07-12.39-.03-18.58-.03-1.54,4.19-4.17,8.14-4.23,12.72,1.82,.24,3.65,.45,5.48,.66-.02,.53-.06,1.58-.08,2.11-5.05-.34-10.12-.29-15.18-.01-.03-.49-.08-1.47-.1-1.96,1.98-.29,4.5-.06,5.23-2.41Zm18.28-32.94c-2.92,6.3-5.42,12.78-8.21,19.13,5.38-.02,10.76-.02,16.14,0-2.68-6.36-5.47-12.68-7.93-19.13Z"/>
    <path class="cls-1" d="M251.24,30.82c7.93,.88,15.88-.17,23.82,0,3.91,.16,8.33,.94,10.82,4.29,2.99,4.28,1.85,10.56-1.94,14-2.41,2.53-5.85,3.55-9.09,4.56,4.7,6.38,9.51,12.69,14.42,18.91,.91,1.29,2.28,2.04,3.76,2.48l.03,1.65c-2.92-.13-5.84-.16-8.75,.02-6.21-8.09-11.88-16.6-18.68-24.22,3.68-.82,7.87-.07,11.05-2.48,4.97-3.28,5.54-11.91,.38-15.26-4-2.38-9-1.65-13.24-.31-.48,10.84-.16,21.7-.25,32.55,.15,2.4-.21,5.02,1.02,7.2,1.83,.57,3.77,.43,5.67,.53-.02,.51-.05,1.53-.07,2.04-6.31-.31-12.63-.23-18.94,.01-.03-.51-.09-1.52-.12-2.03,1.93-.42,4.96,.71,5.83-1.67,.7-6.67,.34-13.39,.44-20.08-.1-6.07,.26-12.17-.44-18.21-.72-2.45-3.89-1.34-5.74-1.8,0-.55,.02-1.64,.02-2.18Z"/>
    <path class="cls-1" d="M295.43,30.82c6.15,.61,12.34,.2,18.51,.32,.96,2.92-3.86,1.69-5.6,2.26-1.02,7.16-.46,14.4-.6,21.6,.13,6.2-.42,12.47,.68,18.61,1.34,1.56,3.83,.83,5.65,1.17l-.04,1.96c-6.19-.22-12.39-.27-18.57,.06l-.12-2.04c1.91-.33,4.61,.49,5.7-1.6,.7-4.33,.45-8.75,.54-13.12-.11-8.78,.29-17.59-.45-26.35-1.88-.47-3.81-.62-5.72-.69,0-.54,0-1.63,.02-2.18Z"/>
    <path class="cls-1" d="M317.03,30.81c6.23,.49,12.5,.51,18.74,0,.01,.55,.02,1.66,.03,2.22-1.8,.09-3.63-.04-5.37,.47-1.56,2.11-.83,5-1.12,7.45,.13,8-.4,16.03,.36,24.01,.3,5.53,6.28,8.14,11.12,8.27,5.02,.19,11.35-.53,14.07-5.39,1.84-3.99,1.45-8.53,1.62-12.82-.1-6.53,.29-13.09-.41-19.6-.29-3.98-6.69-.45-6.58-4.61,5.28,.43,10.58,.43,15.87,.09l.48,2.08c-1.77,.23-3.72-.13-5.32,.82-1.29,2.88-.92,6.12-1.04,9.19-.12,7.32,.35,14.67-.37,21.97-.43,5.36-4.66,9.76-9.68,11.28-6.44,1.96-13.68,1.64-19.85-1.1-3.61-1.54-6.06-5.18-6.27-9.08-.62-10.07,.2-20.19-.43-30.26,.28-3.43-3.69-2.57-5.85-2.77v-2.23Z"/>
    <path class="cls-1" d="M5.23,72.9c6.62-13.75,12.58-27.83,18.64-41.84l2.08-.04c6.19,13.72,11.85,27.71,18.01,41.46,.72,2.25,3.1,2.62,5.13,2.88-.01,.47-.02,1.41-.03,1.88-5.87-.27-11.75-.23-17.61,.03-.02-.51-.04-1.55-.06-2.07,1.99-.15,3.98-.32,5.97-.55-1.11-4.43-3.14-8.54-4.67-12.83-6.19-.07-12.39-.03-18.58-.03-1.54,4.19-4.17,8.14-4.23,12.72,1.82,.24,3.65,.45,5.48,.66-.02,.53-.06,1.58-.08,2.11-5.05-.34-10.12-.29-15.18-.01-.03-.49-.08-1.47-.1-1.96,1.98-.29,4.5-.06,5.23-2.41ZM23.51,39.96c-2.92,6.3-5.42,12.78-8.21,19.13,5.38-.02,10.76-.02,16.14,0-2.68-6.36-5.47-12.68-7.93-19.13Z"/>
  </g>
</svg>