<?xml version="1.0" encoding="UTF-8"?>
<svg xmlns="http://www.w3.org/2000/svg" xmlns:xlink="http://www.w3.org/1999/xlink" viewBox="0 0 435.61 321.33">
  <defs>
    <style>
      .cls-1 {
        fill: #a86120;
      }

      .cls-2 {
        filter: url(#drop-shadow-14);
      }

      .cls-3 {
        filter: url(#drop-shadow-5);
      }

      .cls-3, .cls-4, .cls-5, .cls-6, .cls-7, .cls-8, .cls-9 {
        fill: #c97926;
      }

      .cls-10 {
        fill: #93572e;
      }

      .cls-11 {
        filter: url(#drop-shadow-4);
      }

      .cls-12 {
        isolation: isolate;
      }

      .cls-13 {
        filter: url(#drop-shadow-8);
      }

      .cls-14, .cls-15, .cls-16, .cls-17, .cls-18 {
        fill: #6b3310;
      }

      .cls-19 {
        filter: url(#drop-shadow-15);
      }

      .cls-20 {
        filter: url(#drop-shadow-17);
      }

      .cls-21 {
        fill: url(#linear-gradient);
        mix-blend-mode: overlay;
        opacity: .5;
      }

      .cls-15 {
        filter: url(#drop-shadow-11);
      }

      .cls-4 {
        filter: url(#drop-shadow-6);
      }

      .cls-5 {
        filter: url(#drop-shadow-2);
      }

      .cls-22 {
        fill: #e6a240;
        opacity: .7;
      }

      .cls-7 {
        filter: url(#drop-shadow-3);
      }

      .cls-23 {
        filter: url(#drop-shadow-16);
      }

      .cls-24 {
        filter: url(#drop-shadow-18);
      }

      .cls-25 {
        filter: url(#drop-shadow-9);
      }

      .cls-16 {
        filter: url(#drop-shadow-12);
      }

      .cls-17 {
        filter: url(#drop-shadow-13);
      }

      .cls-18 {
        filter: url(#drop-shadow-10);
      }

      .cls-8 {
        filter: url(#drop-shadow-1);
      }

      .cls-9 {
        filter: url(#drop-shadow-7);
      }
    </style>
    <filter id="drop-shadow-1" filterUnits="userSpaceOnUse">
      <feOffset dx="2.23" dy="2.23"/>
      <feGaussianBlur result="blur" stdDeviation="0"/>
      <feFlood flood-color="#341159" flood-opacity=".3"/>
      <feComposite in2="blur" operator="in"/>
      <feComposite in="SourceGraphic"/>
    </filter>
    <filter id="drop-shadow-2" filterUnits="userSpaceOnUse">
      <feOffset dx="2.23" dy="2.23"/>
      <feGaussianBlur result="blur-2" stdDeviation="0"/>
      <feFlood flood-color="#341159" flood-opacity=".3"/>
      <feComposite in2="blur-2" operator="in"/>
      <feComposite in="SourceGraphic"/>
    </filter>
    <filter id="drop-shadow-3" filterUnits="userSpaceOnUse">
      <feOffset dx="2.23" dy="2.23"/>
      <feGaussianBlur result="blur-3" stdDeviation="0"/>
      <feFlood flood-color="#341159" flood-opacity=".3"/>
      <feComposite in2="blur-3" operator="in"/>
      <feComposite in="SourceGraphic"/>
    </filter>
    <filter id="drop-shadow-4" filterUnits="userSpaceOnUse">
      <feOffset dx="2.23" dy="2.23"/>
      <feGaussianBlur result="blur-4" stdDeviation="0"/>
      <feFlood flood-color="#341159" flood-opacity=".3"/>
      <feComposite in2="blur-4" operator="in"/>
      <feComposite in="SourceGraphic"/>
    </filter>
    <filter id="drop-shadow-5" filterUnits="userSpaceOnUse">
      <feOffset dx="2.23" dy="2.23"/>
      <feGaussianBlur result="blur-5" stdDeviation="0"/>
      <feFlood flood-color="#341159" flood-opacity=".3"/>
      <feComposite in2="blur-5" operator="in"/>
      <feComposite in="SourceGraphic"/>
    </filter>
    <filter id="drop-shadow-6" filterUnits="userSpaceOnUse">
      <feOffset dx="2.23" dy="2.23"/>
      <feGaussianBlur result="blur-6" stdDeviation="0"/>
      <feFlood flood-color="#341159" flood-opacity=".3"/>
      <feComposite in2="blur-6" operator="in"/>
      <feComposite in="SourceGraphic"/>
    </filter>
    <filter id="drop-shadow-7" filterUnits="userSpaceOnUse">
      <feOffset dx="2.23" dy="2.23"/>
      <feGaussianBlur result="blur-7" stdDeviation="0"/>
      <feFlood flood-color="#341159" flood-opacity=".3"/>
      <feComposite in2="blur-7" operator="in"/>
      <feComposite in="SourceGraphic"/>
    </filter>
    <filter id="drop-shadow-8" filterUnits="userSpaceOnUse">
      <feOffset dx="2.23" dy="2.23"/>
      <feGaussianBlur result="blur-8" stdDeviation="0"/>
      <feFlood flood-color="#341159" flood-opacity=".3"/>
      <feComposite in2="blur-8" operator="in"/>
      <feComposite in="SourceGraphic"/>
    </filter>
    <filter id="drop-shadow-9" filterUnits="userSpaceOnUse">
      <feOffset dx="11.15" dy="2.23"/>
      <feGaussianBlur result="blur-9" stdDeviation="0"/>
      <feFlood flood-color="#341159" flood-opacity=".3"/>
      <feComposite in2="blur-9" operator="in"/>
      <feComposite in="SourceGraphic"/>
    </filter>
    <filter id="drop-shadow-10" filterUnits="userSpaceOnUse">
      <feOffset dx="2.23" dy="2.23"/>
      <feGaussianBlur result="blur-10" stdDeviation="0"/>
      <feFlood flood-color="#341159" flood-opacity=".3"/>
      <feComposite in2="blur-10" operator="in"/>
      <feComposite in="SourceGraphic"/>
    </filter>
    <filter id="drop-shadow-11" filterUnits="userSpaceOnUse">
      <feOffset dx="2.23" dy="2.23"/>
      <feGaussianBlur result="blur-11" stdDeviation="0"/>
      <feFlood flood-color="#341159" flood-opacity=".3"/>
      <feComposite in2="blur-11" operator="in"/>
      <feComposite in="SourceGraphic"/>
    </filter>
    <filter id="drop-shadow-12" filterUnits="userSpaceOnUse">
      <feOffset dx="2.23" dy="2.23"/>
      <feGaussianBlur result="blur-12" stdDeviation="0"/>
      <feFlood flood-color="#341159" flood-opacity=".3"/>
      <feComposite in2="blur-12" operator="in"/>
      <feComposite in="SourceGraphic"/>
    </filter>
    <filter id="drop-shadow-13" filterUnits="userSpaceOnUse">
      <feOffset dx="2.23" dy="2.23"/>
      <feGaussianBlur result="blur-13" stdDeviation="0"/>
      <feFlood flood-color="#341159" flood-opacity=".3"/>
      <feComposite in2="blur-13" operator="in"/>
      <feComposite in="SourceGraphic"/>
    </filter>
    <filter id="drop-shadow-14" filterUnits="userSpaceOnUse">
      <feOffset dx="2.23" dy="2.23"/>
      <feGaussianBlur result="blur-14" stdDeviation="0"/>
      <feFlood flood-color="#341159" flood-opacity=".3"/>
      <feComposite in2="blur-14" operator="in"/>
      <feComposite in="SourceGraphic"/>
    </filter>
    <filter id="drop-shadow-15" filterUnits="userSpaceOnUse">
      <feOffset dx="2.23" dy="2.23"/>
      <feGaussianBlur result="blur-15" stdDeviation="0"/>
      <feFlood flood-color="#341159" flood-opacity=".3"/>
      <feComposite in2="blur-15" operator="in"/>
      <feComposite in="SourceGraphic"/>
    </filter>
    <filter id="drop-shadow-16" filterUnits="userSpaceOnUse">
      <feOffset dx="2.23" dy="2.23"/>
      <feGaussianBlur result="blur-16" stdDeviation="0"/>
      <feFlood flood-color="#341159" flood-opacity=".3"/>
      <feComposite in2="blur-16" operator="in"/>
      <feComposite in="SourceGraphic"/>
    </filter>
    <filter id="drop-shadow-17" filterUnits="userSpaceOnUse">
      <feOffset dx="2.23" dy="2.23"/>
      <feGaussianBlur result="blur-17" stdDeviation="0"/>
      <feFlood flood-color="#341159" flood-opacity=".3"/>
      <feComposite in2="blur-17" operator="in"/>
      <feComposite in="SourceGraphic"/>
    </filter>
    <filter id="drop-shadow-18" filterUnits="userSpaceOnUse">
      <feOffset dx="2.23" dy="2.23"/>
      <feGaussianBlur result="blur-18" stdDeviation="0"/>
      <feFlood flood-color="#341159" flood-opacity=".3"/>
      <feComposite in2="blur-18" operator="in"/>
      <feComposite in="SourceGraphic"/>
    </filter>
    <linearGradient id="linear-gradient" x1="231.05" y1="70.85" x2="366.08" y2="304.73" gradientUnits="userSpaceOnUse">
      <stop offset="0" stop-color="#f2a6ac"/>
      <stop offset="1" stop-color="#3b688b"/>
    </linearGradient>
  </defs>
  <g class="cls-12">
    <g id="OBJECTS">
      <g>
        <path class="cls-8" d="M54.97,159.43c-7.29,0-2.08,10.87,2.4,8.95,4.47-1.92,4.79-8.95-2.4-8.95Z"/>
        <path class="cls-5" d="M131.37,0c-7.29,0-2.08,10.87,2.4,8.95,4.48-1.92,4.79-8.95-2.4-8.95Z"/>
        <path class="cls-7" d="M1.97,148.42c-5.58,4.48,2.09,14.88,5.93,10,3.84-4.88-.35-14.47-5.93-10Z"/>
        <g class="cls-11">
          <path class="cls-6" d="M49.29,87.21c-8.59,5.88-17.53,19.18-11.64,24.29,5.89,5.11,25.39,9.59,29.7,0,4.32-9.59-9.14-30.4-18.06-24.29Z"/>
          <path class="cls-1" d="M43.73,114.84c8.18,3.1,20.32,3.99,23.62-3.33,2.37-5.28-.64-13.95-5.31-19.67,5.53,20.56-16.84,22.87-18.31,23Z"/>
        </g>
      </g>
      <g>
        <path class="cls-3" d="M190.22,177.6c-7.29,0-2.08,10.87,2.4,8.95,4.48-1.92,4.79-8.95-2.4-8.95Z"/>
        <path class="cls-4" d="M166.13,83.15c-5.58,4.48,2.09,14.88,5.93,10,3.84-4.88-.35-14.47-5.93-10Z"/>
        <path class="cls-9" d="M61.63,124.29c-5.58,4.48,2.09,14.88,5.93,10,3.84-4.88-.35-14.47-5.93-10Z"/>
        <g class="cls-13">
          <path class="cls-6" d="M164.77,123.02c-4.3-6.39-21.61,1.03-24.16,6.14-2.56,5.12-3.32,20.08,4.61,22.12,7.93,2.04,33.5-7.55,19.55-28.26Z"/>
          <path class="cls-1" d="M164.77,123.02c-.38,25.06-25.48,20.37-25.48,20.37,.76,3.8,2.55,7.02,5.92,7.89,7.93,2.04,33.5-7.55,19.55-28.26Z"/>
        </g>
      </g>
      <g>
        <g class="cls-25">
          <path class="cls-6" d="M233.89,74.28c-14.47,9.83-47.03,25.67-61.25,49.11-14.22,23.45-21.31,63.26-13.55,82.63,7.76,19.37,26.27,59.13,35.5,66.22,9.23,7.08,30.22,33.25,53.73,40.82,23.52,7.57,79.3,13.51,101.38,1.12,22.08-12.39,49.74-45.59,59.48-54.46,9.74-8.87,18.29-33.77,24.57-59.96,6.27-26.19-4-59.22-21.37-81.35-17.37-22.13-34.48-47.7-50.9-57.08-16.42-9.37-60.41-20.54-87.09-12.53-26.68,8.02-31.61,19.44-40.51,25.48Z"/>
          <path class="cls-22" d="M177.81,137.41c-17.63,22.97-7.15,75.38,7.22,98.15,14.38,22.76,36.86,33.32,52.02,45.79,15.15,12.47,31.74,15.98,43.73,13.45,12-2.53,29.14-19.96,42.51-26.46,13.37-6.5,15.92-26.75,21.76-43.64,5.84-16.89,22.3-32.33,25.45-46.26s9.73-37.79,4.54-50.15c-5.18-12.36-22.75-46.79-41.25-57.64-18.5-10.84-56.72-11.27-69.77-4.1-13.04,7.17-27.9,27.62-36.59,31.84-8.69,4.23-39.51,25.82-49.63,39.01Z"/>
          <path class="cls-22" d="M392.45,163.63c-3.33,5.17-24.35,50.68-21.76,57.69,2.58,7.01,12.77,17.76,19.83,10.19,7.06-7.57,5.57-22.54,11.68-33.78,6.11-11.24-2.99-44.61-9.75-34.11Z"/>
          <path class="cls-1" d="M349.71,314.18c22.08-12.39,49.74-45.59,59.48-54.46,9.74-8.87,18.29-33.77,24.57-59.96,6.27-26.19-4-59.22-21.37-81.35-2.32-2.96-4.64-5.97-6.95-9.01h0c19.21,31.18,30.11,70.97,17.69,88.91-12.42,17.94-16.87,52.01-30.27,61.83-13.41,9.82-22.21,24.02-50.34,42.66s-94.19,10.26-124.23-8.42v.02c8.87,7.71,19.18,15.17,30.04,18.66,23.52,7.57,79.3,13.51,101.38,1.12Z"/>
          <path class="cls-18" d="M248.99,99.39c-7,2.81-9.64,14.6-6.17,16.64,3.47,2.03,14.29,4.52,16.95,.44,2.66-4.08-3.52-19.99-10.78-17.07Z"/>
          <path class="cls-15" d="M280.43,182.97c-6.19,1.04-7.05,22.03-2.84,24.32,4.21,2.29,12.95,3.93,14.54-.25,1.59-4.18-1.01-25.85-11.7-24.07Z"/>
          <path class="cls-16" d="M301.17,256.89c-5.71,3.7,1.36,10.28,4.35,8.94s1.37-12.65-4.35-8.94Z"/>
          <path class="cls-17" d="M341.28,174.46c-5.65,3.07-2.25,11.94,1.13,11.23,3.37-.71,10.21-2,7.97-5.96-2.25-3.95-3.71-8.2-9.1-5.27Z"/>
          <g class="cls-2">
            <path class="cls-14" d="M308.86,85.47c-8.04,5.21-20.3,20.72-17.52,28.35,2.78,7.64,15.35,20.74,21.46,20.56,6.11-.18,20.89-6.75,24.97-14.31,4.07-7.56,7.77-14.62,3.11-22.28-4.65-7.66-25.21-16.74-32.03-12.32Z"/>
            <path class="cls-10" d="M304.25,98.25c-5.67,2.76-8.58,13.64-4.8,18.23,3.78,4.58,14.5,14.56,18.42,9.86,3.92-4.7-5.84-31.88-13.63-28.09Z"/>
          </g>
          <g class="cls-19">
            <path class="cls-14" d="M203.3,150.74c-6.2,7.97-15.57,32.36-6.55,39.45s29.66,12.55,35.96,6.38c6.3-6.16,12.8-27.21,9.06-34.27-3.74-7.06-32.39-19.38-38.47-11.56Z"/>
            <path class="cls-10" d="M208.86,155.79c-6.47-.08-12.86,23.3-7.69,29.46,5.17,6.17,15.72,10.02,18.66,3.95,2.93-6.08-2.29-33.3-10.97-33.41Z"/>
          </g>
          <g class="cls-23">
            <path class="cls-14" d="M226.29,247.11c-11.39,9.55-12.16,27.9-4.98,33.1,7.18,5.2,32.11,16.32,37.57,7.16,5.46-9.16,9.42-16.36,2.88-22.78-6.54-6.43-25.78-25.59-35.47-17.47Z"/>
            <path class="cls-10" d="M229.96,253.39c-7.54,1.88-6.34,20.11-1.64,23.41,4.71,3.3,20.07-.78,18.05-8.78-2.03-7.99-5.95-17.24-16.41-14.63Z"/>
          </g>
          <g class="cls-20">
            <path class="cls-14" d="M332.58,233.69c-6.74,5.91-5.17,33.99,3.89,37.33,9.06,3.34,31.12-6.76,33.92-12.46,2.81-5.7,5.94-19.01-2.2-26.2-8.15-7.2-21.71-10.86-35.61,1.34Z"/>
            <path class="cls-10" d="M338.1,237.38c-5.15,3.51-6.81,18.51-1.29,20.94,5.52,2.42,15.5-8.54,18.23-13.32,2.73-4.78-1.11-18.41-16.94-7.62Z"/>
          </g>
          <g class="cls-24">
            <path class="cls-14" d="M377.35,123.05c-9.41,1.16-16.72,16.28-12.02,24.84,4.7,8.56,16.76,25.61,23.83,22.03s15.06-6.9,12.33-18.25c-2.73-11.35-12.44-30.05-24.14-28.62Z"/>
            <path class="cls-10" d="M370.81,133.18c-6.91,9.08,2.57,24.41,7.07,23.47,4.5-.94,8.29-16.73,4.49-22s-5.53-9.39-11.56-1.47Z"/>
          </g>
        </g>
        <path class="cls-21" d="M233.89,74.28c-14.47,9.83-47.03,25.67-61.25,49.11-14.22,23.45-21.31,63.26-13.55,82.63,7.76,19.37,26.27,59.13,35.5,66.22,9.23,7.08,30.22,33.25,53.73,40.82,23.52,7.57,79.3,13.51,101.38,1.12,22.08-12.39,49.74-45.59,59.48-54.46,9.74-8.87,18.29-33.77,24.57-59.96,6.27-26.19-4-59.22-21.37-81.35-17.37-22.13-34.48-47.7-50.9-57.08-16.42-9.37-60.41-20.54-87.09-12.53-26.68,8.02-31.61,19.44-40.51,25.48Z"/>
      </g>
    </g>
  </g>
</svg>