<?xml version="1.0" encoding="UTF-8"?>
<svg xmlns="http://www.w3.org/2000/svg" xmlns:xlink="http://www.w3.org/1999/xlink" viewBox="0 0 292.82 225">
  <defs>
    <style>
      .cls-1 {
        fill: #8c28da;
      }

      .cls-1, .cls-2 {
        opacity: .5;
      }

      .cls-3 {
        fill: #c07fff;
      }

      .cls-3, .cls-4, .cls-5, .cls-2, .cls-6, .cls-7, .cls-8, .cls-9, .cls-10, .cls-11, .cls-12, .cls-13, .cls-14, .cls-15 {
        mix-blend-mode: screen;
      }

      .cls-16 {
        fill: #ffca38;
      }

      .cls-17 {
        fill: url(#_Áåçûìÿííûé_ãðàäèåíò_1846-3);
      }

      .cls-18 {
        fill: url(#_Áåçûìÿííûé_ãðàäèåíò_1833-3);
      }

      .cls-19 {
        fill: #8e701f;
      }

      .cls-20 {
        fill: #252734;
      }

      .cls-4 {
        fill: url(#_Áåçûìÿííûé_ãðàäèåíò_237-2);
      }

      .cls-5 {
        fill: url(#_Áåçûìÿííûé_ãðàäèåíò_237);
      }

      .cls-21 {
        fill: url(#_Áåçûìÿííûé_ãðàäèåíò_1832-2);
      }

      .cls-22 {
        fill: #cb89f0;
      }

      .cls-23 {
        fill: #8b3dce;
      }

      .cls-24 {
        fill: #3e99e5;
      }

      .cls-25, .cls-2 {
        fill: #7514c9;
      }

      .cls-26 {
        fill: url(#_Áåçûìÿííûé_ãðàäèåíò_1832-3);
      }

      .cls-27, .cls-28 {
        opacity: .6;
      }

      .cls-29 {
        fill: #fff462;
      }

      .cls-30 {
        fill: url(#_Áåçûìÿííûé_ãðàäèåíò_1844);
      }

      .cls-31 {
        fill: #ffe457;
      }

      .cls-32 {
        clip-path: url(#clippath-2);
      }

      .cls-33 {
        isolation: isolate;
      }

      .cls-34 {
        fill: url(#_Áåçûìÿííûé_ãðàäèåíò_1832-5);
      }

      .cls-35 {
        fill: url(#_Áåçûìÿííûé_ãðàäèåíò_1832-6);
      }

      .cls-36 {
        fill: url(#_Áåçûìÿííûé_ãðàäèåíò_1842);
      }

      .cls-37 {
        fill: #15171f;
      }

      .cls-38 {
        fill: #f0ff6d;
      }

      .cls-39 {
        fill: url(#_Áåçûìÿííûé_ãðàäèåíò_1846);
      }

      .cls-6 {
        fill: url(#_Áåçûìÿííûé_ãðàäèåíò_237-3);
      }

      .cls-40 {
        fill: #3e31a4;
      }

      .cls-7 {
        fill: #6687ff;
      }

      .cls-41 {
        clip-path: url(#clippath-1);
      }

      .cls-42 {
        fill: #b833ff;
      }

      .cls-43 {
        fill: #0e0304;
      }

      .cls-44 {
        fill: #ca8ff1;
      }

      .cls-45 {
        fill: url(#_Áåçûìÿííûé_ãðàäèåíò_1846-2);
      }

      .cls-46 {
        fill: url(#_Áåçûìÿííûé_ãðàäèåíò_1833);
      }

      .cls-47 {
        fill: #010000;
      }

      .cls-48 {
        fill: #c0ff79;
      }

      .cls-49 {
        fill: #221b07;
      }

      .cls-50 {
        fill: #ffd54c;
      }

      .cls-51 {
        fill: url(#_Áåçûìÿííûé_ãðàäèåíò_1841);
      }

      .cls-28 {
        fill: #55128a;
      }

      .cls-28, .cls-52 {
        mix-blend-mode: multiply;
      }

      .cls-8 {
        fill: url(#_Áåçûìÿííûé_ãðàäèåíò_240);
      }

      .cls-10 {
        fill: #a421ea;
      }

      .cls-52 {
        fill: #530a99;
        opacity: .4;
      }

      .cls-11 {
        fill: url(#_Áåçûìÿííûé_ãðàäèåíò_240-2);
      }

      .cls-53 {
        clip-path: url(#clippath);
      }

      .cls-54 {
        fill: #541582;
      }

      .cls-12 {
        fill: url(#_Áåçûìÿííûé_ãðàäèåíò_1845-3);
      }

      .cls-55 {
        fill: none;
      }

      .cls-56 {
        fill: #85ff91;
      }

      .cls-57 {
        fill: url(#_Áåçûìÿííûé_ãðàäèåíò_1832);
      }

      .cls-58 {
        clip-path: url(#clippath-3);
      }

      .cls-59 {
        fill: url(#_Áåçûìÿííûé_ãðàäèåíò_1843);
      }

      .cls-60 {
        fill: url(#_Áåçûìÿííûé_ãðàäèåíò_1833-4);
      }

      .cls-13 {
        fill: url(#_Áåçûìÿííûé_ãðàäèåíò_1845);
      }

      .cls-61 {
        fill: #493a10;
      }

      .cls-62 {
        fill: url(#_Áåçûìÿííûé_ãðàäèåíò_1821);
      }

      .cls-63 {
        fill: #050101;
      }

      .cls-64 {
        fill: url(#_Áåçûìÿííûé_ãðàäèåíò_1833-2);
      }

      .cls-65 {
        fill: url(#_Áåçûìÿííûé_ãðàäèåíò_1840);
      }

      .cls-66 {
        fill: #181a23;
      }

      .cls-67 {
        fill: url(#_Áåçûìÿííûé_ãðàäèåíò_1832-4);
      }

      .cls-14 {
        fill: url(#_Áåçûìÿííûé_ãðàäèåíò_1845-2);
      }

      .cls-15 {
        fill: url(#_Áåçûìÿííûé_ãðàäèåíò_240-3);
      }

      .cls-68 {
        fill: #44e0f0;
      }

      .cls-69 {
        fill: #fffff7;
      }
    </style>
    <clipPath id="clippath">
      <rect class="cls-25" width="292.82" height="225"/>
    </clipPath>
    <linearGradient id="_Áåçûìÿííûé_ãðàäèåíò_1832" data-name="Áåçûìÿííûé ãðàäèåíò 1832" x1="155.15" y1="101.8" x2="163.65" y2="101.8" gradientUnits="userSpaceOnUse">
      <stop offset="0" stop-color="#8b3dce"/>
      <stop offset="1" stop-color="#cb89f0"/>
    </linearGradient>
    <linearGradient id="_Áåçûìÿííûé_ãðàäèåíò_1821" data-name="Áåçûìÿííûé ãðàäèåíò 1821" x1="127.3" y1="57.06" x2="195.7" y2="57.06" gradientUnits="userSpaceOnUse">
      <stop offset="0" stop-color="#f5abff"/>
      <stop offset=".46" stop-color="#ffc5ff"/>
      <stop offset="1" stop-color="#ffdeff"/>
    </linearGradient>
    <linearGradient id="_Áåçûìÿííûé_ãðàäèåíò_1833" data-name="Áåçûìÿííûé ãðàäèåíò 1833" x1="177.96" y1="75.97" x2="179.07" y2="75.97" gradientUnits="userSpaceOnUse">
      <stop offset="0" stop-color="#b578d7"/>
      <stop offset="1" stop-color="#cb89f0"/>
    </linearGradient>
    <linearGradient id="_Áåçûìÿííûé_ãðàäèåíò_1833-2" data-name="Áåçûìÿííûé ãðàäèåíò 1833" x1="217.44" y1="110.44" x2="218.39" y2="110.44" xlink:href="#_Áåçûìÿííûé_ãðàäèåíò_1833"/>
    <linearGradient id="_Áåçûìÿííûé_ãðàäèåíò_1833-3" data-name="Áåçûìÿííûé ãðàäèåíò 1833" x1="192.48" y1="124.85" x2="193.43" y2="124.85" xlink:href="#_Áåçûìÿííûé_ãðàäèåíò_1833"/>
    <linearGradient id="_Áåçûìÿííûé_ãðàäèåíò_1840" data-name="Áåçûìÿííûé ãðàäèåíò 1840" x1="190.06" y1="105.38" x2="220.02" y2="105.38" gradientUnits="userSpaceOnUse">
      <stop offset="0" stop-color="#e7a7ff"/>
      <stop offset=".55" stop-color="#ffbeff"/>
      <stop offset="1" stop-color="#ffd4ff"/>
    </linearGradient>
    <linearGradient id="_Áåçûìÿííûé_ãðàäèåíò_1833-4" data-name="Áåçûìÿííûé ãðàäèåíò 1833" x1="204.82" y1="108.96" x2="205.93" y2="108.96" xlink:href="#_Áåçûìÿííûé_ãðàäèåíò_1833"/>
    <linearGradient id="_Áåçûìÿííûé_ãðàäèåíò_1832-2" data-name="Áåçûìÿííûé ãðàäèåíò 1832" x1="90.29" y1="146.92" x2="138.17" y2="146.92" xlink:href="#_Áåçûìÿííûé_ãðàäèåíò_1832"/>
    <linearGradient id="_Áåçûìÿííûé_ãðàäèåíò_1846" data-name="Áåçûìÿííûé ãðàäèåíò 1846" x1="89.36" y1="137.3" x2="138.72" y2="137.3" gradientUnits="userSpaceOnUse">
      <stop offset="0" stop-color="#ffd4ff"/>
      <stop offset="1" stop-color="#ffe9ff"/>
    </linearGradient>
    <linearGradient id="_Áåçûìÿííûé_ãðàäèåíò_1845" data-name="Áåçûìÿííûé ãðàäèåíò 1845" x1="114.57" y1="132.42" x2="130.25" y2="132.42" gradientUnits="userSpaceOnUse">
      <stop offset="0" stop-color="#003b49"/>
      <stop offset=".48" stop-color="#009bb9"/>
      <stop offset=".79" stop-color="#00d7ff"/>
      <stop offset="1" stop-color="#00faff"/>
    </linearGradient>
    <linearGradient id="_Áåçûìÿííûé_ãðàäèåíò_1832-3" data-name="Áåçûìÿííûé ãðàäèåíò 1832" x1="90.29" y1="133.36" x2="138.17" y2="133.36" xlink:href="#_Áåçûìÿííûé_ãðàäèåíò_1832"/>
    <linearGradient id="_Áåçûìÿííûé_ãðàäèåíò_1846-2" data-name="Áåçûìÿííûé ãðàäèåíò 1846" y1="123.74" y2="123.74" xlink:href="#_Áåçûìÿííûé_ãðàäèåíò_1846"/>
    <linearGradient id="_Áåçûìÿííûé_ãðàäèåíò_1845-2" data-name="Áåçûìÿííûé ãðàäèåíò 1845" y1="118.86" y2="118.86" xlink:href="#_Áåçûìÿííûé_ãðàäèåíò_1845"/>
    <linearGradient id="_Áåçûìÿííûé_ãðàäèåíò_1832-4" data-name="Áåçûìÿííûé ãðàäèåíò 1832" x1="90.29" y1="119.8" x2="138.17" y2="119.8" xlink:href="#_Áåçûìÿííûé_ãðàäèåíò_1832"/>
    <linearGradient id="_Áåçûìÿííûé_ãðàäèåíò_1846-3" data-name="Áåçûìÿííûé ãðàäèåíò 1846" y1="110.17" y2="110.17" xlink:href="#_Áåçûìÿííûé_ãðàäèåíò_1846"/>
    <linearGradient id="_Áåçûìÿííûé_ãðàäèåíò_1845-3" data-name="Áåçûìÿííûé ãðàäèåíò 1845" y1="105.29" y2="105.29" xlink:href="#_Áåçûìÿííûé_ãðàäèåíò_1845"/>
    <linearGradient id="_Áåçûìÿííûé_ãðàäèåíò_1832-5" data-name="Áåçûìÿííûé ãðàäèåíò 1832" x1="90.29" y1="106.23" x2="138.17" y2="106.23" xlink:href="#_Áåçûìÿííûé_ãðàäèåíò_1832"/>
    <linearGradient id="_Áåçûìÿííûé_ãðàäèåíò_1844" data-name="Áåçûìÿííûé ãðàäèåíò 1844" x1="100.89" y1="93.82" x2="132.84" y2="100.59" gradientUnits="userSpaceOnUse">
      <stop offset=".31" stop-color="#ffd4ff"/>
      <stop offset=".33" stop-color="#fff"/>
      <stop offset="1" stop-color="#ffe9ff"/>
    </linearGradient>
    <linearGradient id="_Áåçûìÿííûé_ãðàäèåíò_1843" data-name="Áåçûìÿííûé ãðàäèåíò 1843" x1="59.38" y1="111.1" x2="132.21" y2="90.31" gradientUnits="userSpaceOnUse">
      <stop offset="0" stop-color="#ffd8ff"/>
      <stop offset="1" stop-color="#ffe9ff"/>
    </linearGradient>
    <linearGradient id="_Áåçûìÿííûé_ãðàäèåíò_1832-6" data-name="Áåçûìÿííûé ãðàäèåíò 1832" x1="100.76" y1="95.46" x2="127.52" y2="95.46" xlink:href="#_Áåçûìÿííûé_ãðàäèåíò_1832"/>
    <linearGradient id="_Áåçûìÿííûé_ãðàäèåíò_1842" data-name="Áåçûìÿííûé ãðàäèåíò 1842" x1="100.25" y1="89.23" x2="127.83" y2="89.23" gradientUnits="userSpaceOnUse">
      <stop offset="0" stop-color="#fdf"/>
      <stop offset="1" stop-color="#ffe9ff"/>
    </linearGradient>
    <linearGradient id="_Áåçûìÿííûé_ãðàäèåíò_1841" data-name="Áåçûìÿííûé ãðàäèåíò 1841" x1="108.22" y1="88.61" x2="119.85" y2="88.61" gradientUnits="userSpaceOnUse">
      <stop offset="0" stop-color="#cb89f0"/>
      <stop offset="1" stop-color="#b578d7"/>
    </linearGradient>
    <radialGradient id="_Áåçûìÿííûé_ãðàäèåíò_237" data-name="Áåçûìÿííûé ãðàäèåíò 237" cx="128.78" cy="115.63" fx="128.78" fy="115.63" r="30.15" gradientTransform="translate(212.2 -36.01) rotate(76.89)" gradientUnits="userSpaceOnUse">
      <stop offset="0" stop-color="#00faff"/>
      <stop offset=".08" stop-color="#00c0e0"/>
      <stop offset=".16" stop-color="#008ec5"/>
      <stop offset=".23" stop-color="#006eb5"/>
      <stop offset=".26" stop-color="#0063af"/>
      <stop offset=".34" stop-color="#004d89"/>
      <stop offset=".45" stop-color="#00355f"/>
      <stop offset=".55" stop-color="#00223c"/>
      <stop offset=".66" stop-color="#001322"/>
      <stop offset=".77" stop-color="#00080f"/>
      <stop offset=".88" stop-color="#000203"/>
      <stop offset="1" stop-color="#000"/>
    </radialGradient>
    <radialGradient id="_Áåçûìÿííûé_ãðàäèåíò_237-2" data-name="Áåçûìÿííûé ãðàäèåíò 237" cy="129.49" fy="129.49" r="30.15" gradientTransform="translate(225.7 -25.29) rotate(76.89)" xlink:href="#_Áåçûìÿííûé_ãðàäèåíò_237"/>
    <radialGradient id="_Áåçûìÿííûé_ãðàäèåíò_237-3" data-name="Áåçûìÿííûé ãðàäèåíò 237" cy="143.35" fy="143.35" gradientTransform="translate(239.2 -14.58) rotate(76.89)" xlink:href="#_Áåçûìÿííûé_ãðàäèåíò_237"/>
    <radialGradient id="_Áåçûìÿííûé_ãðàäèåíò_240" data-name="Áåçûìÿííûé ãðàäèåíò 240" cx="149.71" cy="50.89" fx="149.71" fy="50.89" r="22.19" gradientUnits="userSpaceOnUse">
      <stop offset="0" stop-color="#00faff"/>
      <stop offset=".04" stop-color="#00c0e0"/>
      <stop offset=".08" stop-color="#008ec5"/>
      <stop offset=".12" stop-color="#006eb5"/>
      <stop offset=".13" stop-color="#0063af"/>
      <stop offset=".17" stop-color="#00589c"/>
      <stop offset=".26" stop-color="#004173"/>
      <stop offset=".36" stop-color="#002d4f"/>
      <stop offset=".46" stop-color="#001c32"/>
      <stop offset=".57" stop-color="#000f1c"/>
      <stop offset=".69" stop-color="#00060c"/>
      <stop offset=".82" stop-color="#000102"/>
      <stop offset="1" stop-color="#000"/>
    </radialGradient>
    <radialGradient id="_Áåçûìÿííûé_ãðàäèåíò_240-2" data-name="Áåçûìÿííûé ãðàäèåíò 240" cx="147.18" cy="54.77" fx="147.18" fy="54.77" r="22.19" xlink:href="#_Áåçûìÿííûé_ãðàäèåíò_240"/>
    <radialGradient id="_Áåçûìÿííûé_ãðàäèåíò_240-3" data-name="Áåçûìÿííûé ãðàäèåíò 240" cx="140.32" cy="56.31" fx="140.32" fy="56.31" r="22.19" gradientTransform="translate(86.9 -85.13) rotate(47.44)" xlink:href="#_Áåçûìÿííûé_ãðàäèåíò_240"/>
    <clipPath id="clippath-1">
      <ellipse class="cls-55" cx="147" cy="166.06" rx="18.22" ry="10.52"/>
    </clipPath>
    <clipPath id="clippath-2">
      <ellipse class="cls-55" cx="196.99" cy="162.01" rx="18.22" ry="10.52"/>
    </clipPath>
    <clipPath id="clippath-3">
      <ellipse class="cls-55" cx="189.67" cy="147.8" rx="18.22" ry="10.52"/>
    </clipPath>
  </defs>
  <g class="cls-33">
    <g id="_0" data-name="0">
      <g>
        <rect class="cls-25" width="292.82" height="225"/>
        <g class="cls-53">
          <g class="cls-27">
            <polygon class="cls-2" points="369.86 159.52 8.81 -.66 8.81 -20.5 369.86 139.67 369.86 159.52"/>
            <polygon class="cls-2" points="192.73 90.97 91.7 46.15 91.7 5.75 192.73 50.57 192.73 90.97"/>
            <polygon class="cls-2" points="266.02 164.61 2.35 47.64 2.35 37.76 266.02 154.73 266.02 164.61"/>
            <polygon class="cls-10" points="226.3 18.8 169.92 -6.21 169.92 -16.09 226.3 8.92 226.3 18.8"/>
            <polygon class="cls-10" points="79.95 101.22 23.57 76.21 23.57 66.34 79.95 91.35 79.95 101.22"/>
            <polygon class="cls-2" points="263.18 61.05 242.42 51.83 242.42 41.96 263.18 51.17 263.18 61.05"/>
            <polygon class="cls-2" points="36.38 213.92 15.61 204.71 15.61 194.83 36.38 204.05 36.38 213.92"/>
            <polygon class="cls-2" points="184.14 192.74 4.42 113.02 4.42 103.14 184.14 182.87 184.14 192.74"/>
            <polygon class="cls-2" points="309.31 198.64 49.84 83.53 49.84 63.69 309.31 178.8 309.31 198.64"/>
          </g>
        </g>
      </g>
      <ellipse class="cls-52" cx="147.46" cy="148.13" rx="84.34" ry="48.69"/>
      <ellipse class="cls-54" cx="147.46" cy="135.88" rx="84.34" ry="48.69"/>
      <g>
        <polygon class="cls-28" points="149.13 125.64 114.71 128.12 125.62 147.8 159.97 147.8 149.13 125.64"/>
        <g>
          <g>
            <g class="cls-33">
              <path class="cls-57" d="M194.64,57.25l-32.66,19.01c-1.42,.83-3.73,.83-5.17,0l-28.43-16.41c-.72-.42-1.08-.96-1.08-1.51l-.02,70.95c0,.55,.36,1.09,1.08,1.51l28.43,16.41c1.43,.83,3.74,.83,5.17,0l32.66-19.01c.71-.41,1.06-.95,1.06-1.49l.02-70.95c0,.54-.36,1.08-1.06,1.49Z"/>
              <path class="cls-62" d="M194.62,54.26l-28.43-16.41c-1.43-.83-3.75-.83-5.17,0l-32.66,19.01c-1.42,.83-1.41,2.17,.02,2.99l28.43,16.41c1.43,.83,3.74,.83,5.17,0l32.66-19.01c1.42-.83,1.42-2.16-.02-2.99Z"/>
            </g>
            <polygon class="cls-24" points="135.79 73.78 147.61 80.61 147.61 77.41 135.79 70.58 135.79 73.78"/>
            <g>
              <path class="cls-40" d="M163.39,50.3l-20.47,11.82c-.32,.18-.71,.18-1.03,0l-7.02-4.05c-.29-.17-.29-.59,0-.76l20.47-11.82c.32-.18,.71-.18,1.03,0l7.02,4.05c.29,.17,.29,.59,0,.76Z"/>
              <path class="cls-68" d="M143.46,55.1l-5.24,3.03-1.05-.61,5.24-3.03,1.05,.61Zm7.63-5.62l-3.82,2.2,1.05,.61,3.82-2.2-1.05-.61Zm-8.39,7.19l-3.5,2.02,1.05,.61,3.5-2.02-1.05-.61Zm7.38-4.26l-6,3.47,1.05,.61,6-3.47-1.05-.61Zm-4.2,.08l-2.09,1.21,1.05,.61,2.09-1.21-1.05-.61Z"/>
            </g>
          </g>
          <g>
            <polygon class="cls-23" points="163.89 80.84 193.52 63.73 193.52 103.17 163.89 120.28 163.89 80.84"/>
            <polygon class="cls-66" points="193.2 102.77 193.16 83.34 164.34 99.61 164.33 119.44 193.2 102.77"/>
            <g>
              <g id="Axonometric_Cube" data-name="Axonometric Cube">
                <polygon id="Cube_face_-_right" data-name="Cube face - right" class="cls-22" points="193.17 83.45 164.25 100.15 164.25 81.04 193.17 64.34 193.17 83.45"/>
              </g>
              <g>
                <path class="cls-20" d="M182.37,77.54l-7.69,4.44c-.48,.28-.88,.11-.88-.37v-3.31c0-.48,.39-1.1,.88-1.38l7.69-4.44c.48-.28,.88-.11,.88,.37v3.31c0,.48-.39,1.1-.88,1.38Z"/>
                <path class="cls-37" d="M182.38,77.04l-7.71,4.45c-.23,.13-.41,.05-.41-.17v-1.6l8.53-4.92v1.6c0,.23-.18,.51-.41,.64Z"/>
                <g id="Axonometric_Cylinder" data-name="Axonometric Cylinder">
                  <path id="Cylinder_face" data-name="Cylinder face" class="cls-46" d="M177.96,76.29c0,.35,.25,.49,.55,.32,.3-.18,.55-.6,.55-.96s-.25-.49-.55-.32c-.3,.18-.55,.6-.55,.96Z"/>
                </g>
              </g>
            </g>
            <polygon class="cls-20" points="191.22 101.6 167.08 115.54 191.61 129.76 216.9 112.56 191.22 101.6"/>
            <g>
              <g id="Axonometric_Cube-2" data-name="Axonometric Cube">
                <polygon id="Cube_face_-_left" data-name="Cube face - left" class="cls-66" points="191.22 89.55 217.44 104.69 217.44 116.74 191.22 101.6 191.22 89.55"/>
                <polygon id="Cube_face_-_right-2" data-name="Cube face - right" class="cls-64" points="218.39 116.19 217.44 116.74 217.44 104.69 218.39 104.14 218.39 116.19"/>
                <polygon id="Cube_face_-_top" data-name="Cube face - top" class="cls-20" points="217.44 104.69 191.22 89.55 192.17 89.01 218.39 104.14 217.44 104.69"/>
              </g>
              <g>
                <g>
                  <polygon class="cls-3" points="193.92 102.88 169.84 116.78 169.84 105.61 193.92 91.71 193.92 102.88"/>
                  <polygon class="cls-42" points="193.92 91.83 169.84 105.73 169.84 103.42 193.92 89.51 193.92 91.83"/>
                  <g>
                    <polygon class="cls-1" points="190.46 93.21 189.27 93.89 189.27 92.7 190.46 92.02 190.46 93.21"/>
                    <polygon class="cls-1" points="191.93 92.35 190.74 93.04 190.74 91.85 191.93 91.16 191.93 92.35"/>
                    <path class="cls-69" d="M190.93,91.93v.81l.81-.47v-.81l-.81,.47Zm.67,.28l-.53,.31v-.53l.53-.31v.53Z"/>
                    <polygon class="cls-1" points="193.41 91.5 192.22 92.19 192.22 91 193.41 90.31 193.41 91.5"/>
                    <polygon class="cls-69" points="192.41 91.18 192.73 91.32 192.41 91.82 192.51 91.86 192.83 91.36 193.15 91.49 193.25 91.33 192.93 91.2 193.25 90.7 193.15 90.65 192.83 91.15 192.51 91.02 192.41 91.18"/>
                    <polygon class="cls-69" points="190.25 93.14 189.49 93.58 189.49 93.43 190.25 92.99 190.25 93.14"/>
                  </g>
                </g>
                <g id="Axonometric_Cube-3" data-name="Axonometric Cube">
                  <polygon id="Cube_face_-_left-2" data-name="Cube face - left" class="cls-66" points="171.9 117.91 171.15 117.47 171.15 106.01 171.9 106.44 171.9 117.91"/>
                  <polygon id="Cube_face_-_right-3" data-name="Cube face - right" class="cls-66" points="195.68 104.18 171.9 117.91 171.9 106.44 195.68 92.71 195.68 104.18"/>
                  <polygon id="Cube_face_-_top-2" data-name="Cube face - top" class="cls-20" points="171.9 106.44 171.15 106.01 194.93 92.28 195.68 92.71 171.9 106.44"/>
                </g>
              </g>
              <g>
                <g>
                  <polygon class="cls-3" points="198.12 105.3 174.04 119.2 174.04 108.03 198.12 94.13 198.12 105.3"/>
                  <polygon class="cls-42" points="198.12 94.25 174.04 108.15 174.04 105.84 198.12 91.94 198.12 94.25"/>
                  <g>
                    <polygon class="cls-1" points="194.65 95.63 193.46 96.31 193.46 95.12 194.65 94.44 194.65 95.63"/>
                    <polygon class="cls-1" points="196.13 94.78 194.94 95.46 194.94 94.27 196.13 93.59 196.13 94.78"/>
                    <path class="cls-69" d="M195.12,94.35v.81l.81-.47v-.81l-.81,.47Zm.67,.28l-.53,.31v-.53l.53-.31v.53Z"/>
                    <polygon class="cls-1" points="197.6 93.92 196.41 94.61 196.41 93.42 197.6 92.73 197.6 93.92"/>
                    <polygon class="cls-69" points="196.61 93.6 196.92 93.74 196.61 94.24 196.71 94.28 197.03 93.78 197.34 93.91 197.45 93.75 197.13 93.62 197.45 93.12 197.34 93.08 197.03 93.58 196.71 93.44 196.61 93.6"/>
                    <polygon class="cls-69" points="194.44 95.56 193.68 96 193.68 95.85 194.44 95.42 194.44 95.56"/>
                  </g>
                </g>
                <g id="Axonometric_Cube-4" data-name="Axonometric Cube">
                  <polygon id="Cube_face_-_left-3" data-name="Cube face - left" class="cls-66" points="176.1 120.33 175.34 119.89 175.34 108.43 176.1 108.86 176.1 120.33"/>
                  <polygon id="Cube_face_-_right-4" data-name="Cube face - right" class="cls-66" points="199.88 106.6 176.1 120.33 176.1 108.86 199.88 95.14 199.88 106.6"/>
                  <polygon id="Cube_face_-_top-3" data-name="Cube face - top" class="cls-20" points="176.1 108.86 175.34 108.43 199.12 94.7 199.88 95.14 176.1 108.86"/>
                </g>
              </g>
              <g>
                <g>
                  <polygon class="cls-7" points="202.29 103.17 178.21 117.07 178.21 86.79 202.29 72.89 202.29 103.17"/>
                  <polygon class="cls-42" points="202.29 73.01 178.21 86.91 178.21 84.6 202.29 70.7 202.29 73.01"/>
                  <path class="cls-69" d="M191.32,82.38l3.59-2.07v.27l-3.59,2.07v-.27Zm-.54,1.39v.27l2.98-1.72v-.27l-2.98,1.72Zm-.28,.43v-.27l-3.56,2.06v.27l3.56-2.06Zm-1.05-.47l1.59-.92v-.27l-1.59,.92v.27Zm-.28,.16v-.27l-1.98,1.14v.27l1.98-1.14Zm4.84-3.88l1.59-.92v-.27l-1.59,.92v.27Zm1.18,.13v.27l3.31-1.91v-.27l-3.31,1.91Zm2.12-.14l-3.27,1.89v.27l3.27-1.89v-.27Zm-10.65,6.42v-.27l-5.09,2.94v.27l5.09-2.94Zm.26-2.31l3.56-2.06v-.27l-3.56,2.06v.27Zm3.84-2.22l2.98-1.72v-.27l-2.98,1.72v.27Zm-4.12,2.38v-.27l-5.05,2.92v.27l5.05-2.92Zm9.25-5.34l2.26-1.31v-.27l-2.26,1.31v.27Zm-8.97,5.99l-5.35,3.09v.27l5.35-3.09v-.27Zm3.87,.59v.27l2.98-1.72v-.27l-2.98,1.72Zm-.28,.43v-.27l-3.56,2.06v.27l3.56-2.06Zm.02,.8v.27l1.98-1.14v-.27l-1.98,1.14Zm2.26-1.3v.27l1.59-.92v-.27l-1.59,.92Zm.1,1.02v.27l2.98-1.72v-.27l-2.98,1.72Zm-3.57,3.14v.27l1.98-1.14v-.27l-1.98,1.14Zm3.29-2.98l-3.56,2.06v.27l3.56-2.06v-.27Zm.56,.75l-1.59,.92v.27l1.59-.92v-.27Zm5.07-5.09l-3.59,2.07v.27l3.59-2.07v-.27Zm-9.48,6.83v-.27l-7.19,4.15v.27l7.19-4.15Zm-3.36,.86v-.27l-3.83,2.21v.27l3.83-2.21Zm11.9-8.22l-3.27,1.89v.27l3.27-1.89v-.27Zm-10.65,6.42v-.27l-5.09,2.94v.27l5.09-2.94Zm6.79-.95v.27l3.59-2.07v-.27l-3.59,2.07Zm2.69-2.63v.27l1.59-.92v-.27l-1.59,.92Zm-11.94,8.25v-.27l-2.58,1.49v.27l2.58-1.49Zm4.84-3.07l-4.56,2.63v.27l4.56-2.63v-.27Zm8.55-8.17v.27l1.91-1.1v-.27l-1.91,1.1Zm-7.34,5.59v-.27l-4.56,2.63v.27l4.56-2.63Zm7.77-3.68v.27l.98-.57v-.27l-.98,.57Zm.38,.86l-1.07,.62v.27l1.07-.62v-.27Zm-9.07,6.85v.27l1.98-1.14v-.27l-1.98,1.14Zm3.85-2.22l-1.59,.92v.27l1.59-.92v-.27Zm.28-.16v.27l3.59-2.07v-.27l-3.59,2.07Zm-9.25,5.61v-.27l-2.58,1.49v.27l2.58-1.49Zm4.84-3.07l-4.56,2.63v.27l4.56-2.63v-.27Zm9.35-5.4l-1.07,.62v.27l1.07-.62v-.27Z"/>
                  <g>
                    <polygon class="cls-1" points="198.82 74.39 197.63 75.08 197.63 73.89 198.82 73.2 198.82 74.39"/>
                    <polygon class="cls-1" points="200.3 73.54 199.11 74.23 199.11 73.04 200.3 72.35 200.3 73.54"/>
                    <path class="cls-69" d="M199.29,73.12v.81l.81-.47v-.81l-.81,.47Zm.67,.28l-.53,.31v-.53l.53-.31v.53Z"/>
                    <polygon class="cls-1" points="201.77 72.69 200.58 73.37 200.58 72.18 201.77 71.5 201.77 72.69"/>
                    <polygon class="cls-69" points="200.78 72.37 201.09 72.5 200.78 73 200.88 73.04 201.2 72.54 201.51 72.68 201.62 72.52 201.3 72.38 201.62 71.88 201.51 71.84 201.2 72.34 200.88 72.2 200.78 72.37"/>
                    <polygon class="cls-69" points="198.61 74.32 197.85 74.76 197.85 74.62 198.61 74.18 198.61 74.32"/>
                  </g>
                </g>
                <g id="Axonometric_Cube-5" data-name="Axonometric Cube">
                  <polygon id="Cube_face_-_left-4" data-name="Cube face - left" class="cls-66" points="180.29 122.75 179.54 122.32 179.54 110.85 180.29 111.29 180.29 122.75"/>
                  <polygon id="Cube_face_-_right-5" data-name="Cube face - right" class="cls-66" points="204.07 109.02 180.29 122.75 180.29 111.29 204.07 97.56 204.07 109.02"/>
                  <polygon id="Cube_face_-_top-4" data-name="Cube face - top" class="cls-20" points="180.29 111.29 179.54 110.85 203.32 97.12 204.07 97.56 180.29 111.29"/>
                </g>
              </g>
              <g>
                <g>
                  <polygon class="cls-3" points="206.51 110.14 182.43 124.05 182.43 112.88 206.51 98.97 206.51 110.14"/>
                  <polygon class="cls-42" points="206.51 99.09 182.43 112.99 182.43 110.68 206.51 96.78 206.51 99.09"/>
                  <g>
                    <polygon class="cls-1" points="203.04 100.47 201.85 101.16 201.85 99.97 203.04 99.28 203.04 100.47"/>
                    <polygon class="cls-1" points="204.52 99.62 203.33 100.31 203.33 99.12 204.52 98.43 204.52 99.62"/>
                    <path class="cls-69" d="M203.52,99.2v.81l.81-.47v-.81l-.81,.47Zm.67,.28l-.53,.31v-.53l.53-.31v.53Z"/>
                    <polygon class="cls-1" points="205.99 98.77 204.8 99.46 204.8 98.27 205.99 97.58 205.99 98.77"/>
                    <polygon class="cls-69" points="205 98.45 205.31 98.58 205 99.08 205.1 99.13 205.42 98.63 205.73 98.76 205.84 98.6 205.52 98.46 205.84 97.96 205.73 97.92 205.42 98.42 205.1 98.29 205 98.45"/>
                    <polygon class="cls-69" points="202.83 100.4 202.07 100.84 202.07 100.7 202.83 100.26 202.83 100.4"/>
                  </g>
                </g>
                <g id="Axonometric_Cube-6" data-name="Axonometric Cube">
                  <polygon id="Cube_face_-_left-5" data-name="Cube face - left" class="cls-66" points="184.49 125.17 183.73 124.74 183.73 113.27 184.49 113.71 184.49 125.17"/>
                  <polygon id="Cube_face_-_right-6" data-name="Cube face - right" class="cls-66" points="208.27 111.45 184.49 125.17 184.49 113.71 208.27 99.98 208.27 111.45"/>
                  <polygon id="Cube_face_-_top-5" data-name="Cube face - top" class="cls-20" points="184.49 113.71 183.73 113.27 207.51 99.54 208.27 99.98 184.49 113.71"/>
                </g>
              </g>
              <g>
                <g>
                  <polygon class="cls-3" points="210.71 112.57 186.62 126.47 186.62 115.3 210.71 101.4 210.71 112.57"/>
                  <polygon class="cls-42" points="210.71 101.51 186.62 115.42 186.62 113.1 210.71 99.2 210.71 101.51"/>
                  <g>
                    <polygon class="cls-1" points="207.24 102.89 206.05 103.58 206.05 102.39 207.24 101.7 207.24 102.89"/>
                    <polygon class="cls-1" points="208.71 102.04 207.52 102.73 207.52 101.54 208.71 100.85 208.71 102.04"/>
                    <path class="cls-69" d="M207.71,101.62v.81l.81-.47v-.81l-.81,.47Zm.67,.28l-.53,.31v-.53l.53-.31v.53Z"/>
                    <polygon class="cls-1" points="210.19 101.19 209 101.88 209 100.69 210.19 100 210.19 101.19"/>
                    <polygon class="cls-69" points="209.19 100.87 209.51 101 209.19 101.51 209.29 101.55 209.61 101.05 209.93 101.18 210.03 101.02 209.71 100.89 210.03 100.38 209.93 100.34 209.61 100.84 209.29 100.71 209.19 100.87"/>
                    <polygon class="cls-69" points="207.03 102.83 206.27 103.27 206.27 103.12 207.03 102.68 207.03 102.83"/>
                  </g>
                </g>
                <g id="Axonometric_Cube-7" data-name="Axonometric Cube">
                  <polygon id="Cube_face_-_left-6" data-name="Cube face - left" class="cls-66" points="188.68 127.6 187.93 127.16 187.93 115.7 188.68 116.13 188.68 127.6"/>
                  <polygon id="Cube_face_-_right-7" data-name="Cube face - right" class="cls-66" points="212.46 113.87 188.68 127.6 188.68 116.13 212.46 102.4 212.46 113.87"/>
                  <polygon id="Cube_face_-_top-6" data-name="Cube face - top" class="cls-20" points="188.68 116.13 187.93 115.7 211.71 101.97 212.46 102.4 188.68 116.13"/>
                </g>
              </g>
              <g id="Axonometric_Cube-8" data-name="Axonometric Cube">
                <polygon id="Cube_face_-_left-7" data-name="Cube face - left" class="cls-66" points="166.26 103.96 192.48 119.1 192.48 131.15 166.26 116.01 166.26 103.96"/>
                <polygon id="Cube_face_-_right-8" data-name="Cube face - right" class="cls-18" points="193.43 130.6 192.48 131.15 192.48 119.1 193.43 118.55 193.43 130.6"/>
                <polygon id="Cube_face_-_top-7" data-name="Cube face - top" class="cls-20" points="192.48 119.1 166.26 103.96 167.21 103.42 193.43 118.55 192.48 119.1"/>
              </g>
            </g>
            <g>
              <g id="Axonometric_Cube-9" data-name="Axonometric Cube">
                <polygon id="Cube_face_-_left-8" data-name="Cube face - left" class="cls-23" points="191.1 133.14 190.06 132.53 190.06 113.43 191.1 114.03 191.1 133.14"/>
                <polygon id="Cube_face_-_right-9" data-name="Cube face - right" class="cls-22" points="220.02 116.44 191.1 133.14 191.1 114.03 220.02 97.33 220.02 116.44"/>
                <polygon id="Cube_face_-_top-8" data-name="Cube face - top" class="cls-65" points="191.1 114.03 190.06 113.43 218.98 96.73 220.02 97.33 191.1 114.03"/>
              </g>
              <g>
                <path class="cls-20" d="M209.23,110.52l-7.69,4.44c-.48,.28-.88,.11-.88-.37v-3.31c0-.48,.39-1.1,.88-1.38l7.69-4.44c.48-.28,.88-.11,.88,.37v3.31c0,.48-.39,1.1-.88,1.38Z"/>
                <path class="cls-37" d="M209.24,110.02l-7.71,4.45c-.23,.13-.41,.05-.41-.17v-1.6l8.53-4.92v1.6c0,.23-.18,.51-.41,.64Z"/>
                <g id="Axonometric_Cylinder-2" data-name="Axonometric Cylinder">
                  <path id="Cylinder_face-2" data-name="Cylinder face" class="cls-60" d="M204.82,109.28c0,.35,.25,.49,.55,.32,.3-.18,.55-.6,.55-.96s-.25-.49-.55-.32c-.3,.18-.55,.6-.55,.96Z"/>
                </g>
              </g>
            </g>
          </g>
        </g>
        <g id="_3" data-name="3">
          <path class="cls-28" d="M114.14,127.39c-12.27,0-20.53,0-20.6,0-6.48,0-12.96,1.43-17.9,4.28-9.88,5.71-9.88,14.96,0,20.67,4.94,2.85,11.42,4.28,17.9,4.28,.11,0,8.35,0,20.6,0v-29.23Z"/>
          <g id="_16" data-name="16">
            <g class="cls-33">
              <path class="cls-21" d="M89.36,137.23v5.03c-.02,3.68,2.41,7.37,7.27,10.18,9.67,5.58,25.28,5.58,34.9,0,4.77-2.77,7.16-6.4,7.17-10.03v-5.03s-49.34-.14-49.34-.14Z"/>
              <path class="cls-39" d="M131.43,127.19c-9.67-5.58-25.29-5.58-34.9,0-9.61,5.58-9.55,14.64,.11,20.22,9.67,5.58,25.28,5.58,34.9,0,9.6-5.58,9.55-14.63-.11-20.21Z"/>
            </g>
            <g>
              <path class="cls-40" d="M137.14,130.78c.32-3.67-1.93-7.4-6.78-10.2-9.07-5.24-23.73-5.24-32.74,0-4.49,2.61-6.73,6.03-6.73,9.45,0-.03-.02,4.69-.02,4.69,0,3.46,2.27,6.92,6.84,9.55,9.07,5.24,23.73,5.24,32.74,0,4.48-2.6,6.72-6.01,6.73-9.42v-4.72c.01,.22-.02,.43-.04,.65Z"/>
              <path class="cls-13" d="M114.57,116.67v31.5c5.68-.07,11.31-1.33,15.67-3.81v-23.85c-4.36-2.49-10-3.76-15.67-3.85Z"/>
              <g class="cls-33">
                <path class="cls-26" d="M89.36,123.66v5.03c-.02,3.68,2.41,7.37,7.27,10.18,9.67,5.58,25.28,5.58,34.9,0,4.77-2.77,7.16-6.4,7.17-10.03v-5.03s-49.34-.14-49.34-.14Z"/>
                <path class="cls-45" d="M131.43,113.63c-9.67-5.58-25.29-5.58-34.9,0-9.61,5.58-9.55,14.64,.11,20.22s25.28,5.58,34.9,0c9.6-5.58,9.55-14.63-.11-20.21Z"/>
              </g>
            </g>
            <g>
              <path class="cls-40" d="M137.14,117.21c.32-3.67-1.93-7.4-6.78-10.2-9.07-5.24-23.73-5.24-32.74,0-4.49,2.61-6.73,6.03-6.73,9.45,0-.03-.02,4.69-.02,4.69,0,3.46,2.27,6.92,6.84,9.55,9.07,5.24,23.73,5.24,32.74,0,4.48-2.6,6.72-6.01,6.73-9.42v-4.72c.01,.22-.02,.43-.04,.65Z"/>
              <path class="cls-14" d="M114.57,103.1v31.5c5.68-.07,11.31-1.33,15.67-3.81v-23.85c-4.36-2.49-10-3.76-15.67-3.85Z"/>
              <g class="cls-33">
                <path class="cls-67" d="M89.36,110.1v5.03c-.02,3.68,2.41,7.37,7.27,10.18,9.67,5.58,25.28,5.58,34.9,0,4.77-2.77,7.16-6.4,7.17-10.03v-5.03s-49.34-.14-49.34-.14Z"/>
                <path class="cls-17" d="M131.43,100.07c-9.67-5.58-25.29-5.58-34.9,0-9.61,5.58-9.55,14.64,.11,20.22,9.67,5.58,25.28,5.58,34.9,0,9.6-5.58,9.55-14.63-.11-20.21Z"/>
              </g>
            </g>
            <g>
              <path class="cls-40" d="M137.14,103.65c.32-3.67-1.93-7.4-6.78-10.2-9.07-5.24-23.73-5.24-32.74,0-4.49,2.61-6.73,6.03-6.73,9.45,0-.03-.02,4.69-.02,4.69,0,3.46,2.27,6.92,6.84,9.55,9.07,5.24,23.73,5.24,32.74,0,4.48-2.6,6.72-6.01,6.73-9.42v-4.72c.01,.22-.02,.43-.04,.65Z"/>
              <path class="cls-12" d="M114.57,89.54v31.5c5.68-.07,11.31-1.33,15.67-3.81v-23.85c-4.36-2.49-10-3.76-15.67-3.85Z"/>
              <g class="cls-33">
                <path class="cls-34" d="M89.36,96.54v5.03c-.02,3.68,2.41,7.37,7.27,10.18,9.67,5.58,25.28,5.58,34.9,0,4.77-2.77,7.16-6.4,7.17-10.03v-5.03s-49.34-.14-49.34-.14Z"/>
                <path class="cls-30" d="M131.43,86.5c-9.67-5.58-25.29-5.58-34.9,0-9.61,5.58-9.55,14.64,.11,20.22,9.67,5.58,25.28,5.58,34.9,0,9.6-5.58,9.55-14.63-.11-20.21Z"/>
                <path class="cls-59" d="M128.74,86.96c-8.17-4.72-21.37-4.72-29.49,0-8.12,4.72-8.07,12.37,.1,17.09,8.17,4.72,21.37,4.72,29.49,0,8.12-4.72,8.07-12.36-.1-17.08Z"/>
              </g>
            </g>
          </g>
          <path class="cls-44" d="M119.86,85.48c-6.8,0-11.37,0-11.41,0-14.82,0-22.24,16.19,0,16.19,.04,0,2.29,0,5.96,0,3.01,0,5.45-2.44,5.45-5.45v-10.74Z"/>
          <g class="cls-33">
            <path class="cls-35" d="M123.82,94.88c-5.37,3.12-14.1,3.12-19.5,0-2.72-1.57-4.08-3.63-4.07-5.69v4.52c-.01,2.06,1.34,4.12,4.06,5.69,5.4,3.12,14.13,3.12,19.5,0,2.67-1.55,4-3.58,4.01-5.61v-4.52c0,2.03-1.33,4.06-4,5.61Z"/>
            <path class="cls-36" d="M123.76,83.58c-5.4-3.12-14.14-3.12-19.5,0-5.37,3.12-5.34,8.18,.06,11.3,5.4,3.12,14.13,3.12,19.5,0,5.37-3.12,5.34-8.18-.06-11.3Z"/>
            <path class="cls-51" d="M118.13,86.23c-2.28-1.31-5.96-1.32-8.22,0-2.26,1.32-2.25,3.45,.03,4.76,2.28,1.31,5.96,1.31,8.22,0,2.26-1.31,2.25-3.45-.03-4.76Z"/>
          </g>
        </g>
        <g>
          <polygon class="cls-20" points="178.25 132.28 163.69 140.69 163.69 134.05 178.25 125.64 178.25 132.28"/>
          <g>
            <path class="cls-23" d="M183.77,175.05c-.06,0-.13-.02-.19-.05l-47.42-27.38c-.18-.1-.24-.33-.14-.51,.1-.18,.33-.24,.51-.14l47.24,27.27,25.41-14.67-27.45-15.85c-.12-.07-.19-.19-.19-.33v-10.15l-5.03-2.9c-.18-.1-.24-.33-.14-.51,.1-.18,.33-.24,.51-.14l5.22,3.01c.12,.07,.19,.19,.19,.33v10.15l27.83,16.06c.12,.07,.19,.19,.19,.33s-.07,.26-.19,.33l-26.16,15.11c-.06,.03-.12,.05-.19,.05Z"/>
            <path class="cls-23" d="M175.82,174.71c-.06,0-.13-.02-.19-.05l-42.09-24.3c-.18-.1-.24-.33-.14-.51,.1-.18,.33-.24,.51-.14l41.9,24.19,25.41-14.67-23.18-13.38c-.12-.07-.19-.19-.19-.33v-10.15l-5.03-2.9c-.18-.1-.24-.33-.14-.51,.1-.18,.33-.24,.51-.14l5.22,3.01c.12,.07,.19,.19,.19,.33v10.15l23.56,13.6c.12,.07,.19,.19,.19,.33s-.07,.26-.19,.33l-26.16,15.1c-.06,.03-.12,.05-.19,.05Z"/>
            <path class="cls-23" d="M167.33,174.06c-.06,0-.13-.02-.19-.05l-37.05-21.39c-.18-.1-.24-.33-.14-.51,.1-.18,.33-.24,.51-.14l36.86,21.28,25.41-14.67-18.37-10.61c-.12-.07-.19-.19-.19-.33v-10.15l-5.03-2.9c-.18-.1-.24-.33-.14-.51,.1-.18,.33-.24,.51-.14l5.22,3.01c.12,.07,.19,.19,.19,.33v10.15l18.74,10.82c.12,.07,.19,.19,.19,.33s-.07,.26-.19,.33l-26.16,15.1c-.06,.03-.12,.05-.19,.05Z"/>
            <path class="cls-23" d="M159.04,173.53c-.06,0-.13-.02-.19-.05l-33.05-19.08c-.18-.1-.24-.33-.14-.51,.1-.18,.33-.24,.51-.14l32.86,18.97,25.41-14.67-13.77-7.95c-.12-.07-.19-.19-.19-.33v-10.15l-5.03-2.9c-.18-.1-.24-.33-.14-.51,.1-.18,.33-.24,.51-.14l5.22,3.01c.12,.07,.19,.19,.19,.33v10.15l14.14,8.17c.12,.07,.19,.19,.19,.33s-.07,.26-.19,.33l-26.16,15.11c-.06,.03-.12,.05-.19,.05Z"/>
          </g>
          <circle class="cls-5" cx="128.78" cy="115.63" r="30.15" transform="translate(-13.04 214.84) rotate(-76.89)"/>
          <circle class="cls-4" cx="128.78" cy="129.49" r="30.15" transform="translate(-26.54 225.56) rotate(-76.89)"/>
          <circle class="cls-6" cx="128.78" cy="143.35" r="30.15" transform="translate(-40.04 236.27) rotate(-76.89)"/>
          <circle class="cls-8" cx="149.71" cy="50.89" r="22.19"/>
          <circle class="cls-11" cx="147.18" cy="54.77" r="22.19"/>
          <circle class="cls-15" cx="140.32" cy="56.31" r="22.19" transform="translate(3.93 121.58) rotate(-47.44)"/>
        </g>
        <g class="cls-9">
          <g class="cls-41">
            <rect x="127" y="154.51" width="40" height="23.09"/>
            <ellipse cx="147" cy="166.06" rx="18.22" ry="10.52"/>
            <ellipse cx="147" cy="166.06" rx="16.55" ry="9.56"/>
            <ellipse cx="147" cy="166.06" rx="14.88" ry="8.59"/>
            <path class="cls-47" d="M156.34,160.66c5.16,2.98,5.16,7.81,0,10.79-5.16,2.98-13.52,2.98-18.68,0-5.16-2.98-5.16-7.81,0-10.79,5.16-2.98,13.52-2.98,18.68,0Z"/>
            <path class="cls-63" d="M155.16,161.35c4.51,2.6,4.51,6.82,0,9.42-4.51,2.6-11.82,2.6-16.32,0-4.51-2.6-4.51-6.82,0-9.42,4.51-2.6,11.82-2.6,16.32,0Z"/>
            <path class="cls-43" d="M153.98,162.03c3.86,2.23,3.86,5.83,0,8.06-3.86,2.23-10.11,2.23-13.96,0-3.86-2.23-3.86-5.83,0-8.06,3.86-2.23,10.11-2.23,13.96,0Z"/>
            <path class="cls-49" d="M152.8,162.71c3.2,1.85,3.2,4.85,0,6.7-3.2,1.85-8.4,1.85-11.6,0-3.2-1.85-3.2-4.85,0-6.7,3.2-1.85,8.4-1.85,11.6,0Z"/>
            <path class="cls-61" d="M151.62,163.39c2.55,1.47,2.55,3.86,0,5.33-2.55,1.47-6.69,1.47-9.24,0-2.55-1.47-2.55-3.86,0-5.33,2.55-1.47,6.69-1.47,9.24,0Z"/>
            <path class="cls-19" d="M150.44,164.07c1.9,1.1,1.9,2.88,0,3.97-1.9,1.1-4.98,1.1-6.88,0-1.9-1.1-1.9-2.88,0-3.97,1.9-1.1,4.98-1.1,6.88,0Z"/>
            <path class="cls-16" d="M149.26,164.75c1.25,.72,1.25,1.89,0,2.61-1.25,.72-3.27,.72-4.52,0-1.25-.72-1.25-1.89,0-2.61,1.25-.72,3.27-.72,4.52,0Z"/>
            <path class="cls-16" d="M148.08,165.43c.6,.34,.6,.9,0,1.25-.6,.34-1.56,.34-2.16,0-.6-.34-.6-.9,0-1.25,.6-.34,1.56-.34,2.16,0Z"/>
            <path class="cls-50" d="M147.92,165.52c.51,.29,.51,.77,0,1.07-.51,.29-1.34,.29-1.85,0-.51-.29-.51-.77,0-1.07,.51-.29,1.34-.29,1.85,0Z"/>
            <path class="cls-31" d="M147.77,165.61c.43,.25,.43,.64,0,.89-.43,.25-1.12,.25-1.54,0-.43-.25-.43-.64,0-.89,.43-.25,1.12-.25,1.54,0Z"/>
            <path class="cls-29" d="M147.61,165.7c.34,.2,.34,.52,0,.71-.34,.2-.89,.2-1.23,0-.34-.2-.34-.52,0-.71,.34-.2,.89-.2,1.23,0Z"/>
            <path class="cls-38" d="M147.46,165.79c.26,.15,.26,.39,0,.53-.26,.15-.67,.15-.92,0-.26-.15-.26-.39,0-.53,.26-.15,.67-.15,.92,0Z"/>
            <path class="cls-48" d="M147.31,165.88c.17,.1,.17,.26,0,.36-.17,.1-.45,.1-.62,0-.17-.1-.17-.26,0-.36,.17-.1,.45-.1,.62,0Z"/>
            <path class="cls-56" d="M147.15,165.97c.09,.05,.09,.13,0,.18-.09,.05-.22,.05-.31,0-.09-.05-.09-.13,0-.18,.09-.05,.22-.05,.31,0Z"/>
          </g>
        </g>
        <g class="cls-9">
          <g class="cls-32">
            <rect x="176.99" y="150.46" width="40" height="23.09"/>
            <ellipse cx="196.99" cy="162.01" rx="18.22" ry="10.52"/>
            <ellipse cx="196.99" cy="162.01" rx="16.55" ry="9.56"/>
            <ellipse cx="196.99" cy="162.01" rx="14.88" ry="8.59"/>
            <path class="cls-47" d="M206.33,156.62c5.16,2.98,5.16,7.81,0,10.79-5.16,2.98-13.52,2.98-18.68,0-5.16-2.98-5.16-7.81,0-10.79,5.16-2.98,13.52-2.98,18.68,0Z"/>
            <path class="cls-63" d="M205.15,157.3c4.51,2.6,4.51,6.82,0,9.42-4.51,2.6-11.82,2.6-16.32,0-4.51-2.6-4.51-6.82,0-9.42,4.51-2.6,11.82-2.6,16.32,0Z"/>
            <ellipse class="cls-43" cx="196.99" cy="162.01" rx="9.87" ry="5.7"/>
            <ellipse class="cls-49" cx="196.99" cy="162.01" rx="8.2" ry="4.74"/>
            <ellipse class="cls-61" cx="196.99" cy="162.01" rx="6.53" ry="3.77"/>
            <path class="cls-19" d="M200.43,160.02c1.9,1.1,1.9,2.88,0,3.97-1.9,1.1-4.98,1.1-6.88,0s-1.9-2.88,0-3.97,4.98-1.1,6.88,0Z"/>
            <path class="cls-16" d="M199.25,160.71c1.25,.72,1.25,1.89,0,2.61-1.25,.72-3.27,.72-4.52,0-1.25-.72-1.25-1.89,0-2.61,1.25-.72,3.27-.72,4.52,0Z"/>
            <path class="cls-16" d="M198.06,161.39c.6,.34,.6,.9,0,1.25-.6,.34-1.56,.34-2.16,0-.6-.34-.6-.9,0-1.25s1.56-.34,2.16,0Z"/>
            <path class="cls-50" d="M197.91,161.48c.51,.29,.51,.77,0,1.07-.51,.29-1.34,.29-1.85,0-.51-.29-.51-.77,0-1.07,.51-.29,1.34-.29,1.85,0Z"/>
            <path class="cls-31" d="M197.76,161.57c.43,.25,.43,.64,0,.89-.43,.25-1.12,.25-1.54,0-.43-.25-.43-.64,0-.89,.43-.25,1.12-.25,1.54,0Z"/>
            <path class="cls-29" d="M197.6,161.65c.34,.2,.34,.52,0,.71-.34,.2-.89,.2-1.23,0s-.34-.52,0-.71,.89-.2,1.23,0Z"/>
            <path class="cls-38" d="M197.45,161.74c.26,.15,.26,.39,0,.53-.26,.15-.67,.15-.92,0s-.26-.39,0-.53,.67-.15,.92,0Z"/>
            <path class="cls-48" d="M197.29,161.83c.17,.1,.17,.26,0,.36-.17,.1-.45,.1-.62,0-.17-.1-.17-.26,0-.36,.17-.1,.45-.1,.62,0Z"/>
            <path class="cls-56" d="M197.14,161.92c.09,.05,.09,.13,0,.18-.09,.05-.22,.05-.31,0-.09-.05-.09-.13,0-.18,.09-.05,.22-.05,.31,0Z"/>
          </g>
        </g>
        <g class="cls-9">
          <g class="cls-58">
            <rect x="169.67" y="136.26" width="40" height="23.09"/>
            <ellipse cx="189.67" cy="147.8" rx="18.22" ry="10.52"/>
            <ellipse cx="189.67" cy="147.8" rx="16.55" ry="9.56"/>
            <ellipse cx="189.67" cy="147.8" rx="14.88" ry="8.59"/>
            <path class="cls-47" d="M199.01,142.41c5.16,2.98,5.16,7.81,0,10.79-5.16,2.98-13.52,2.98-18.68,0-5.16-2.98-5.16-7.81,0-10.79,5.16-2.98,13.52-2.98,18.68,0Z"/>
            <path class="cls-63" d="M197.83,143.09c4.51,2.6,4.51,6.82,0,9.42-4.51,2.6-11.82,2.6-16.32,0-4.51-2.6-4.51-6.82,0-9.42,4.51-2.6,11.82-2.6,16.32,0Z"/>
            <path class="cls-43" d="M196.65,143.77c3.86,2.23,3.86,5.83,0,8.06-3.86,2.23-10.11,2.23-13.96,0-3.86-2.23-3.86-5.83,0-8.06,3.86-2.23,10.11-2.23,13.96,0Z"/>
            <path class="cls-49" d="M195.47,144.46c3.2,1.85,3.2,4.85,0,6.7-3.2,1.85-8.4,1.85-11.6,0-3.2-1.85-3.2-4.85,0-6.7,3.2-1.85,8.4-1.85,11.6,0Z"/>
            <ellipse class="cls-61" cx="189.67" cy="147.8" rx="6.53" ry="3.77"/>
            <path class="cls-19" d="M193.11,145.82c1.9,1.1,1.9,2.88,0,3.97-1.9,1.1-4.98,1.1-6.88,0-1.9-1.1-1.9-2.88,0-3.97,1.9-1.1,4.98-1.1,6.88,0Z"/>
            <path class="cls-16" d="M191.93,146.5c1.25,.72,1.25,1.89,0,2.61-1.25,.72-3.27,.72-4.52,0-1.25-.72-1.25-1.89,0-2.61,1.25-.72,3.27-.72,4.52,0Z"/>
            <path class="cls-16" d="M190.75,147.18c.6,.34,.6,.9,0,1.25-.6,.34-1.56,.34-2.16,0s-.6-.9,0-1.25,1.56-.34,2.16,0Z"/>
            <path class="cls-50" d="M190.59,147.27c.51,.29,.51,.77,0,1.07s-1.34,.29-1.85,0c-.51-.29-.51-.77,0-1.07,.51-.29,1.34-.29,1.85,0Z"/>
            <ellipse class="cls-31" cx="189.67" cy="147.8" rx="1.09" ry=".63"/>
            <path class="cls-29" d="M190.28,147.45c.34,.2,.34,.52,0,.71-.34,.2-.89,.2-1.23,0-.34-.2-.34-.52,0-.71,.34-.2,.89-.2,1.23,0Z"/>
            <path class="cls-38" d="M190.13,147.54c.26,.15,.26,.39,0,.53-.26,.15-.67,.15-.92,0-.26-.15-.26-.39,0-.53,.26-.15,.67-.15,.92,0Z"/>
            <path class="cls-48" d="M189.98,147.63c.17,.1,.17,.26,0,.36-.17,.1-.45,.1-.62,0-.17-.1-.17-.26,0-.36,.17-.1,.45-.1,.62,0Z"/>
            <path class="cls-56" d="M189.82,147.72c.09,.05,.09,.13,0,.18-.09,.05-.22,.05-.31,0-.09-.05-.09-.13,0-.18,.09-.05,.22-.05,.31,0Z"/>
          </g>
        </g>
      </g>
    </g>
  </g>
</svg>