<?xml version="1.0" encoding="utf-8"?>
<!-- Generator: Adobe Illustrator 26.5.0, SVG Export Plug-In . SVG Version: 6.00 Build 0)  -->
<svg version="1.1"
	 id="svg2" xmlns:inkscape="http://www.inkscape.org/namespaces/inkscape" xmlns:cc="http://creativecommons.org/ns#" xmlns:rdf="http://www.w3.org/1999/02/22-rdf-syntax-ns#" xmlns:svg="http://www.w3.org/2000/svg" xmlns:dc="http://purl.org/dc/elements/1.1/"
	 xmlns="http://www.w3.org/2000/svg" xmlns:xlink="http://www.w3.org/1999/xlink" x="0px" y="0px" viewBox="0 0 637.8 276"
	 style="enable-background:new 0 0 637.8 276;" xml:space="preserve">
<style type="text/css">
	.st0{clip-path:url(#SVGID_00000036958960302906939650000016086380647156289443_);}
	.st1{fill:#0B904B;}
	.st2{fill:#FDDF40;}
	.st3{fill:#2156A3;}
	.st4{fill:#30949C;}
	.st5{fill:#2F6F98;}
	.st6{fill:#5F53AE;}
	.st7{fill:#32338A;}
	.st8{fill:#A8E3F8;}
	.st9{fill:#51C5D2;}
	.st10{fill:#FFFFFF;}
</style>
<g id="g10" transform="matrix(1.25,0,0,-1.25,0,531.5)">
	<g id="g12" transform="scale(0.1,0.1)">
		<g id="g14">
			<g>
				<defs>
					<path id="SVGID_1_" d="M3620.9,3604.8c0-289.6-234.8-524.4-524.4-524.4c-289.6,0-524.4,234.8-524.4,524.4
						c0,289.6,234.8,524.4,524.4,524.4C3386.1,4129.2,3620.9,3894.4,3620.9,3604.8"/>
				</defs>
				<clipPath id="SVGID_00000021804029372478468220000010583811026417013148_">
					<use xlink:href="#SVGID_1_"  style="overflow:visible;"/>
				</clipPath>
				<g id="g16" style="clip-path:url(#SVGID_00000021804029372478468220000010583811026417013148_);">
					<path id="path22" inkscape:connector-curvature="0" class="st1" d="M2667.8,3351.6l-59.7-34.5c-15.4-8.9-15.4-23.4,0-32.3
						l59.7-34.5c15.4-8.9,28-1.6,28,16.1v68.9C2695.8,3353.2,2683.2,3360.5,2667.8,3351.6"/>
					<path id="path24" inkscape:connector-curvature="0" class="st2" d="M2667.8,3806.1l-59.7-34.5c-15.4-8.9-15.4-23.4,0-32.3
						l59.7-34.5c15.4-8.9,28-1.6,28,16.2v68.9C2695.8,3807.7,2683.2,3815,2667.8,3806.1"/>
					<path id="path26" inkscape:connector-curvature="0" class="st3" d="M3398.6,3620.5l59.7,34.5c15.4,8.9,28,1.6,28-16.1v-69
						c0-17.8-12.6-25-28-16.1l-59.7,34.5C3383.2,3597.1,3383.2,3611.6,3398.6,3620.5"/>
					<path id="path28" inkscape:connector-curvature="0" class="st3" d="M2870.8,3620.5l59.7,34.5c15.4,8.9,28,1.6,28-16.1v-69
						c0-17.8-12.6-25-28-16.1l-59.7,34.5C2855.4,3597.1,2855.4,3611.6,2870.8,3620.5"/>
					<path id="path30" inkscape:connector-curvature="0" class="st1" d="M2734.5,3857.1l59.7,34.4c15.4,8.9,15.4,23.4,0,32.3
						l-59.7,34.5c-15.4,8.9-28,1.6-28-16.2v-68.9C2706.5,3855.5,2719.1,3848.2,2734.5,3857.1"/>
					<path id="path32" inkscape:connector-curvature="0" class="st4" d="M3129.7,4085.3l59.7,34.5c15.4,8.9,15.4,23.4,0,32.3
						l-59.7,34.5c-15.4,8.9-28,1.6-28-16.1v-69C3101.7,4083.7,3114.3,4076.4,3129.7,4085.3"/>
					<path id="path34" inkscape:connector-curvature="0" class="st2" d="M3063,4186.5l-59.7-34.5c-15.4-8.9-15.4-23.4,0-32.3
						l59.7-34.5c15.4-8.9,27.9-1.6,27.9,16.2v69C3091,4188.1,3078.4,4195.4,3063,4186.5"/>
					<path id="path36" inkscape:connector-curvature="0" class="st4" d="M3194.8,3806.1l-59.7-34.5c-15.4-8.9-15.4-23.4,0-32.3
						l59.7-34.5c15.4-8.9,28-1.6,28,16.2v68.9C3222.8,3807.7,3210.1,3815,3194.8,3806.1"/>
					<path id="path38" inkscape:connector-curvature="0" class="st2" d="M2931.3,3806.1l-59.7-34.5c-15.4-8.9-15.4-23.4,0-32.3
						l59.7-34.5c15.4-8.9,27.9-1.6,27.9,16.2v68.9C2959.3,3807.7,2946.7,3815,2931.3,3806.1"/>
					<path id="path40" inkscape:connector-curvature="0" class="st3" d="M3063,4034.4l-59.7-34.5c-15.4-8.9-15.4-23.4,0-32.3
						l59.7-34.5c15.4-8.9,27.9-1.6,27.9,16.2v68.9C3091,4036,3078.4,4043.3,3063,4034.4"/>
					<path id="path42" inkscape:connector-curvature="0" class="st5" d="M2970,3942.2v-68.9c0-17.8,12.6-25,28-16.1l59.7,34.4
						c15.4,8.9,15.4,23.4,0,32.3l-59.7,34.5C2982.5,3967.2,2970,3960,2970,3942.2"/>
					<path id="path44" inkscape:connector-curvature="0" class="st3" d="M2667.8,3958.3l-59.7-34.5c-15.4-8.9-15.4-23.4,0-32.3
						l59.7-34.5c15.4-8.9,27.9-1.6,27.9,16.1v68.9C2695.7,3960,2683.2,3967.2,2667.8,3958.3"/>
					<path id="path46" inkscape:connector-curvature="0" class="st5" d="M2574.7,3866.1v-68.9c0-17.8,12.6-25,28-16.2l59.7,34.5
						c15.4,8.9,15.4,23.4,0,32.3l-59.7,34.5C2587.3,3891.2,2574.7,3883.9,2574.7,3866.1"/>
					<path id="path48" inkscape:connector-curvature="0" class="st2" d="M2959.3,4094.3c0,17.8-12.6,25-28,16.1l-59.7-34.5
						c-15.4-8.9-15.4-23.4,0-32.3l59.7-34.5c15.4-8.9,28-1.6,28,16.2V4094.3"/>
					<path id="path50" inkscape:connector-curvature="0" class="st6" d="M2931.3,3958.4l-59.7-34.5c-15.4-8.9-15.4-23.4,0-32.3
						l59.7-34.5c15.4-8.9,28-1.6,28,16.1v68.9C2959.3,3960,2946.7,3967.2,2931.3,3958.4"/>
					<path id="path52" inkscape:connector-curvature="0" class="st7" d="M3057.6,4043.7c15.4,8.9,15.4,23.4,0,32.3l-59.7,34.5
						c-15.4,8.9-28,1.6-28-16.1v-68.9c0-17.8,12.6-25.1,28-16.2L3057.6,4043.7"/>
					<path id="path54" inkscape:connector-curvature="0" class="st1" d="M3266.9,3999.9c-15.4-8.9-15.4-23.4,0-32.3l59.7-34.5
						c15.4-8.9,28-1.6,28,16.2v68.9c0,17.8-12.6,25-28,16.1L3266.9,3999.9"/>
					<path id="path56" inkscape:connector-curvature="0" class="st1" d="M3194.8,4110.5l-59.7-34.5c-15.4-8.9-15.4-23.4,0-32.3
						l59.7-34.5c15.4-8.9,28-1.6,28,16.2v68.9C3222.8,4112.1,3210.2,4119.4,3194.8,4110.5"/>
					<path id="path58" inkscape:connector-curvature="0" class="st7" d="M3194.8,3958.4l-59.7-34.5c-15.4-8.9-15.4-23.4,0-32.3
						l59.7-34.5c15.4-8.9,28-1.6,28,16.1v68.9C3222.8,3960,3210.2,3967.2,3194.8,3958.4"/>
					<path id="path60" inkscape:connector-curvature="0" class="st6" d="M3261.5,4009.2l59.7,34.5c15.4,8.9,15.4,23.4,0,32.3
						l-59.7,34.5c-15.4,8.9-28,1.6-28-16.1v-68.9C3233.5,4007.6,3246.1,4000.3,3261.5,4009.2"/>
					<path id="path62" inkscape:connector-curvature="0" class="st6" d="M3583.8,3739.3c15.4,8.9,15.4,23.4,0,32.3l-59.7,34.5
						c-15.4,8.9-28,1.6-28-16.2V3721c0-17.8,12.6-25,28-16.2L3583.8,3739.3"/>
					<path id="path64" inkscape:connector-curvature="0" class="st5" d="M3590,3882.2l-59.7-34.5c-15.4-8.9-15.4-23.4,0-32.3
						l59.7-34.5c15.4-8.9,28-1.6,28,16.2v68.9C3618,3883.8,3605.4,3891,3590,3882.2"/>
					<path id="path66" inkscape:connector-curvature="0" class="st7" d="M3590,3730l-59.7-34.4c-15.4-8.9-15.4-23.4,0-32.4
						l59.7-34.4c15.4-8.9,28-1.6,28,16.1v69C3618,3731.7,3605.4,3738.9,3590,3730"/>
					<path id="path68" inkscape:connector-curvature="0" class="st2" d="M3458.3,3806.1l-59.7-34.5c-15.4-8.9-15.4-23.4,0-32.3
						l59.7-34.5c15.4-8.9,28-1.6,28,16.2v68.9C3486.3,3807.7,3473.7,3815,3458.3,3806.1"/>
					<path id="path70" inkscape:connector-curvature="0" class="st1" d="M3321.2,3739.3c15.4,8.9,15.4,23.4,0,32.3l-59.7,34.5
						c-15.4,8.9-28,1.6-28-16.2V3721c0-17.8,12.6-25,28-16.2L3321.2,3739.3"/>
					<path id="path72" inkscape:connector-curvature="0" class="st6" d="M3326.6,3882.2l-59.7-34.5c-15.4-8.9-15.4-23.4,0-32.3
						l59.7-34.5c15.4-8.9,28-1.6,28,16.2v68.9C3354.5,3883.8,3342,3891,3326.6,3882.2"/>
					<path id="path74" inkscape:connector-curvature="0" class="st7" d="M3393.2,3882.2c-15.4,8.9-28,1.6-28-16.1v-68.9
						c0-17.8,12.6-25.1,28-16.2l59.7,34.5c15.4,8.9,15.4,23.4,0,32.3L3393.2,3882.2"/>
					<path id="path76" inkscape:connector-curvature="0" class="st2" d="M3393.2,3933.2l59.7,34.5c15.4,8.9,15.4,23.4,0,32.3
						l-59.7,34.5c-15.4,8.9-28,1.6-28-16.1v-68.9C3365.2,3931.5,3377.8,3924.3,3393.2,3933.2"/>
					<path id="path78" inkscape:connector-curvature="0" class="st4" d="M3524.9,3857.1l59.7,34.4c15.4,8.9,15.4,23.4,0,32.3
						l-59.7,34.5c-15.4,8.9-28,1.6-28-16.2v-68.9C3496.9,3855.5,3509.5,3848.2,3524.9,3857.1"/>
					<path id="path80" inkscape:connector-curvature="0" class="st2" d="M2667.8,3402.6l-59.7,34.5c-15.4,8.9-15.4,23.4,0,32.3
						l59.7,34.5c15.4,8.9,28,1.6,28-16.2v-68.9C2695.8,3401,2683.2,3393.7,2667.8,3402.6"/>
					<path id="path82" inkscape:connector-curvature="0" class="st8" d="M2734.5,3351.6l59.7-34.4c15.4-8.9,15.4-23.4,0-32.3
						l-59.7-34.5c-15.4-8.9-28-1.6-28,16.2v68.9C2706.5,3353.2,2719.1,3360.5,2734.5,3351.6"/>
					<path id="path84" inkscape:connector-curvature="0" class="st4" d="M3129.7,3123.4l59.7-34.5c15.4-8.9,15.4-23.4,0-32.3
						l-59.7-34.5c-15.4-8.9-28-1.6-28,16.2v69C3101.7,3125,3114.3,3132.3,3129.7,3123.4"/>
					<path id="path86" inkscape:connector-curvature="0" class="st2" d="M3063,3022.2l-59.7,34.5c-15.4,8.9-15.4,23.4,0,32.3
						l59.7,34.5c15.4,8.9,27.9,1.6,27.9-16.2v-69C3091,3020.6,3078.4,3013.3,3063,3022.2"/>
					<path id="path88" inkscape:connector-curvature="0" class="st4" d="M3194.8,3402.6l-59.7,34.5c-15.4,8.9-15.4,23.4,0,32.3
						l59.7,34.5c15.4,8.9,28,1.6,28-16.2v-68.9C3222.8,3401,3210.1,3393.7,3194.8,3402.6"/>
					<path id="path90" inkscape:connector-curvature="0" class="st7" d="M2931.3,3402.6l-59.7,34.5c-15.4,8.9-15.4,23.4,0,32.3
						l59.7,34.5c15.4,8.9,27.9,1.6,27.9-16.2v-68.9C2959.3,3401,2946.7,3393.7,2931.3,3402.6"/>
					<path id="path92" inkscape:connector-curvature="0" class="st3" d="M3063,3174.3l-59.7,34.5c-15.4,8.9-15.4,23.4,0,32.3
						l59.7,34.5c15.4,8.9,27.9,1.6,27.9-16.2v-68.9C3091,3172.7,3078.4,3165.4,3063,3174.3"/>
					<path id="path94" inkscape:connector-curvature="0" class="st5" d="M2970,3266.5v68.9c0,17.8,12.6,25,28,16.1l59.7-34.4
						c15.4-8.9,15.4-23.4,0-32.3l-59.7-34.5C2982.5,3241.5,2970,3248.7,2970,3266.5"/>
					<path id="path96" inkscape:connector-curvature="0" class="st2" d="M2959.3,3114.4c0-17.8-12.6-25-28-16.2l-59.7,34.5
						c-15.4,8.9-15.4,23.4,0,32.3l59.7,34.5c15.4,8.9,28,1.6,28-16.2V3114.4"/>
					<path id="path98" inkscape:connector-curvature="0" class="st6" d="M2931.3,3250.3l-59.7,34.5c-15.4,8.9-15.4,23.4,0,32.3
						l59.7,34.5c15.4,8.9,28,1.6,28-16.1v-68.9C2959.3,3248.7,2946.7,3241.5,2931.3,3250.3"/>
					<path id="path100" inkscape:connector-curvature="0" class="st7" d="M3057.6,3165c15.4-8.9,15.4-23.4,0-32.3l-59.7-34.5
						c-15.4-8.9-28-1.6-28,16.2v68.9c0,17.8,12.6,25.1,28,16.2L3057.6,3165"/>
					<path id="path102" inkscape:connector-curvature="0" class="st1" d="M3266.9,3208.8c-15.4,8.9-15.4,23.4,0,32.3l59.7,34.5
						c15.4,8.9,28,1.6,28-16.2v-68.9c0-17.8-12.6-25-28-16.1L3266.9,3208.8"/>
					<path id="path104" inkscape:connector-curvature="0" class="st1" d="M3194.8,3098.2l-59.7,34.5c-15.4,8.9-15.4,23.4,0,32.3
						l59.7,34.5c15.4,8.9,28,1.6,28-16.2v-68.9C3222.8,3096.6,3210.2,3089.3,3194.8,3098.2"/>
					<path id="path106" inkscape:connector-curvature="0" class="st4" d="M3194.8,3250.3l-59.7,34.5c-15.4,8.9-15.4,23.4,0,32.3
						l59.7,34.5c15.4,8.9,28,1.6,28-16.1v-68.9C3222.8,3248.7,3210.2,3241.5,3194.8,3250.3"/>
					<path id="path108" inkscape:connector-curvature="0" class="st6" d="M3261.5,3199.5l59.7-34.5c15.4-8.9,15.4-23.4,0-32.3
						l-59.7-34.5c-15.4-8.9-28-1.6-28,16.2v68.9C3233.5,3201.1,3246.1,3208.4,3261.5,3199.5"/>
					<path id="path110" inkscape:connector-curvature="0" class="st6" d="M3584.6,3469.4c15.4-8.9,15.4-23.4,0-32.3l-59.7-34.5
						c-15.4-8.9-28-1.6-28,16.2v68.9c0,17.8,12.6,25,28,16.2L3584.6,3469.4"/>
					<path id="path112" inkscape:connector-curvature="0" class="st5" d="M3590,3326.5l-59.7,34.5c-15.4,8.9-15.4,23.4,0,32.3
						l59.7,34.5c15.4,8.9,28,1.6,28-16.2v-68.9C3618,3324.9,3605.4,3317.7,3590,3326.5"/>
					<path id="path114" inkscape:connector-curvature="0" class="st5" d="M3590,3478.7l-59.7,34.5c-15.4,8.9-15.4,23.4,0,32.4
						l59.7,34.4c15.4,8.9,28,1.6,28-16.1v-69C3618,3477,3605.4,3469.8,3590,3478.7"/>
					<path id="path116" inkscape:connector-curvature="0" class="st2" d="M3458.3,3402.6l-59.7,34.5c-15.4,8.9-15.4,23.4,0,32.3
						l59.7,34.5c15.4,8.9,28,1.6,28-16.2v-68.9C3486.3,3401,3473.7,3393.7,3458.3,3402.6"/>
					<path id="path118" inkscape:connector-curvature="0" class="st1" d="M3321.2,3469.4c15.4-8.9,15.4-23.4,0-32.3l-59.7-34.5
						c-15.4-8.9-28-1.6-28,16.2v68.9c0,17.8,12.6,25,28,16.2L3321.2,3469.4"/>
					<path id="path120" inkscape:connector-curvature="0" class="st6" d="M3326.6,3326.5l-59.7,34.5c-15.4,8.9-15.4,23.4,0,32.3
						l59.7,34.5c15.4,8.9,28,1.6,28-16.2v-68.9C3354.5,3324.9,3342,3317.7,3326.6,3326.5"/>
					<path id="path122" inkscape:connector-curvature="0" class="st7" d="M3393.2,3326.5c-15.4-8.9-28-1.6-28,16.2v68.9
						c0,17.8,12.6,25.1,28,16.2l59.7-34.5c15.4-8.9,15.4-23.4,0-32.3L3393.2,3326.5"/>
					<path id="path124" inkscape:connector-curvature="0" class="st2" d="M3393.2,3275.5l59.7-34.5c15.4-8.9,15.4-23.4,0-32.3
						l-59.7-34.5c-15.4-8.9-28-1.6-28,16.1v68.9C3365.2,3277.2,3377.8,3284.4,3393.2,3275.5"/>
					<path id="path126" inkscape:connector-curvature="0" class="st8" d="M2739.9,3208.8c-15.4,8.9-15.4,23.4,0,32.3l59.7,34.5
						c15.4,8.9,28,1.6,28-16.2v-68.9c0-17.8-12.6-25-28-16.1L2739.9,3208.8"/>
					<path id="path128" inkscape:connector-curvature="0" class="st8" d="M2866.2,3275.5l59.7-34.5c15.4-8.9,15.4-23.4,0-32.3
						l-59.7-34.5c-15.4-8.9-28-1.6-28,16.1v68.9C2838.2,3277.2,2850.8,3284.4,2866.2,3275.5"/>
					<path id="path130" inkscape:connector-curvature="0" class="st4" d="M3524.9,3351.6l59.7-34.4c15.4-8.9,15.4-23.4,0-32.3
						l-59.7-34.5c-15.4-8.9-28-1.6-28,16.2v68.9C3496.9,3353.2,3509.5,3360.5,3524.9,3351.6"/>
					<path id="path132" inkscape:connector-curvature="0" class="st9" d="M2662.4,3695.6l-59.7,34.5c-15.4,8.9-28,1.6-28-16.1v-69
						c0-17.8,12.6-25,28-16.1l59.7,34.4C2677.8,3672.1,2677.8,3686.7,2662.4,3695.6"/>
					<path id="path134" inkscape:connector-curvature="0" class="st9" d="M2793.4,3620.5l-59.7,34.5c-15.4,8.9-28,1.6-28-16.1v-69
						c0-17.8,12.6-25,28-16.1l59.7,34.5C2808.8,3597.1,2808.8,3611.6,2793.4,3620.5"/>
					<path id="path136" inkscape:connector-curvature="0" class="st9" d="M3057.7,3620.5l-59.7,34.5c-15.4,8.9-28,1.6-28-16.1v-69
						c0-17.8,12.6-25,28-16.1l59.7,34.5C3073,3597.1,3073,3611.6,3057.7,3620.5"/>
					<path id="path138" inkscape:connector-curvature="0" class="st9" d="M3321.2,3620.5l-59.7,34.5c-15.4,8.9-28,1.6-28-16.1v-69
						c0-17.8,12.6-25,28-16.1l59.7,34.5C3336.6,3597.1,3336.6,3611.6,3321.2,3620.5"/>
					<path id="path140" inkscape:connector-curvature="0" class="st9" d="M3583.7,3620.5L3524,3655c-15.4,8.9-28,1.6-28-16.1v-69
						c0-17.8,12.6-25,28-16.1l59.7,34.5C3599.1,3597.1,3599.1,3611.6,3583.7,3620.5"/>
					<path id="path142" inkscape:connector-curvature="0" class="st9" d="M2608.1,3620.5l59.7,34.5c15.4,8.9,28,1.6,28-16.1v-69
						c0-17.8-12.6-25-28-16.1l-59.7,34.5C2592.8,3597.1,2592.8,3611.6,2608.1,3620.5"/>
					<path id="path144" inkscape:connector-curvature="0" class="st9" d="M3135.1,3620.5l59.7,34.5c15.4,8.9,28,1.6,28-16.1v-69
						c0-17.8-12.6-25-28-16.1l-59.7,34.5C3119.7,3597.1,3119.7,3611.6,3135.1,3620.5"/>
					<path id="path146" inkscape:connector-curvature="0" class="st9" d="M2662.4,3393.3l-59.7,34.5c-15.4,8.9-28,1.6-28-16.1v-69
						c0-17.8,12.6-25,28-16.2l59.7,34.5C2677.8,3369.9,2677.8,3384.4,2662.4,3393.3"/>
					<path id="path148" inkscape:connector-curvature="0" class="st9" d="M3057.6,3739.3c15.4,8.9,15.4,23.4,0,32.3l-59.7,34.5
						c-15.4,8.9-28,1.6-28-16.2V3721c0-17.8,12.6-25,28-16.2L3057.6,3739.3"/>
					<path id="path150" inkscape:connector-curvature="0" class="st9" d="M3189.4,3695.6l-59.7,34.5c-15.4,8.9-28,1.6-28-16.1v-69
						c0-17.8,12.6-25,28-16.1l59.7,34.4C3204.8,3672.1,3204.8,3686.7,3189.4,3695.6"/>
					<path id="path152" inkscape:connector-curvature="0" class="st9" d="M3063,3882.2l-59.7-34.5c-15.4-8.9-15.4-23.4,0-32.3
						l59.7-34.5c15.4-8.9,27.9-1.6,27.9,16.2v68.9C3091,3883.8,3078.4,3891,3063,3882.2"/>
					<path id="path154" inkscape:connector-curvature="0" class="st9" d="M3063,3730l-59.7-34.4c-15.4-8.9-15.4-23.4,0-32.4
						l59.7-34.4c15.4-8.9,27.9-1.6,27.9,16.1v69C3091,3731.7,3078.4,3738.9,3063,3730"/>
					<path id="path156" inkscape:connector-curvature="0" class="st9" d="M3129.7,3780.9l59.7,34.5c15.4,8.9,15.4,23.4,0,32.3
						l-59.7,34.5c-15.4,8.9-28,1.6-28-16.1v-68.9C3101.7,3779.3,3114.3,3772,3129.7,3780.9"/>
					<path id="path158" inkscape:connector-curvature="0" class="st9" d="M2794.2,3771.6l-59.7,34.5c-15.4,8.9-28,1.6-28-16.2V3721
						c0-17.8,12.6-25,28-16.2l59.7,34.5C2809.6,3748.2,2809.6,3762.7,2794.2,3771.6"/>
					<path id="path160" inkscape:connector-curvature="0" class="st9" d="M2799.6,3882.2l-59.7-34.5c-15.4-8.9-15.4-23.4,0-32.3
						l59.7-34.5c15.4-8.9,28-1.6,28,16.2v68.9C2827.6,3883.8,2815,3891,2799.6,3882.2"/>
					<path id="path162" inkscape:connector-curvature="0" class="st9" d="M2926,3815.4c15.4,8.9,15.4,23.4,0,32.3l-59.7,34.5
						c-15.4,8.9-28,1.6-28-16.1v-68.9c0-17.8,12.6-25.1,28-16.2L2926,3815.4"/>
					<path id="path164" inkscape:connector-curvature="0" class="st9" d="M3101.8,4018.3v-68.9c0-17.8,12.6-25,28-16.2l59.7,34.5
						c15.4,8.9,15.4,23.4,0,32.3l-59.7,34.5C3114.4,4043.3,3101.8,4036,3101.8,4018.3"/>
					<path id="path166" inkscape:connector-curvature="0" class="st9" d="M3261.5,3857.1l59.7,34.4c15.4,8.9,15.4,23.4,0,32.3
						l-59.7,34.5c-15.4,8.9-28,1.6-28-16.2v-68.9C3233.5,3855.5,3246.1,3848.2,3261.5,3857.1"/>
					<path id="path168" inkscape:connector-curvature="0" class="st9" d="M3452.9,3695.6l-59.7,34.5c-15.4,8.9-28,1.6-28-16.1v-69
						c0-17.8,12.6-25,28-16.1l59.7,34.4C3468.3,3672.1,3468.3,3686.7,3452.9,3695.6"/>
					<path id="path170" inkscape:connector-curvature="0" class="st9" d="M3326.6,3730l-59.7-34.4c-15.4-8.9-15.4-23.4,0-32.4
						l59.7-34.4c15.4-8.9,28-1.6,28,16.1v69C3354.5,3731.7,3342,3738.9,3326.6,3730"/>
					<path id="path172" inkscape:connector-curvature="0" class="st9" d="M2734.6,3999.9c-15.4-8.9-15.4-23.4,0-32.3l59.7-34.5
						c15.4-8.9,28-1.6,28,16.2v68.9c0,17.8-12.6,25-28,16.1L2734.6,3999.9"/>
					<path id="path174" inkscape:connector-curvature="0" class="st9" d="M2860.9,3933.2l59.7,34.5c15.4,8.9,15.4,23.4,0,32.3
						l-59.7,34.5c-15.4,8.9-28,1.6-28-16.1v-68.9C2832.9,3931.5,2845.5,3924.3,2860.9,3933.2"/>
					<path id="path176" inkscape:connector-curvature="0" class="st9" d="M3486.2,3873.3v68.9c0,17.8-12.6,25-28,16.2l-59.7-34.5
						c-15.4-8.9-15.4-23.4,0-32.3l59.7-34.5C3473.6,3848.2,3486.2,3855.5,3486.2,3873.3"/>
					<path id="path178" inkscape:connector-curvature="0" class="st9" d="M2662.4,3513.1l-59.7-34.5c-15.4-8.9-28-1.6-28,16.2v69
						c0,17.8,12.6,25,28,16.1l59.7-34.4C2677.8,3536.6,2677.8,3522,2662.4,3513.1"/>
					<path id="path180" inkscape:connector-curvature="0" class="st9" d="M3057.6,3469.4c15.4-8.9,15.4-23.4,0-32.3l-59.7-34.5
						c-15.4-8.9-28-1.6-28,16.2v68.9c0,17.8,12.6,25,28,16.2L3057.6,3469.4"/>
					<path id="path182" inkscape:connector-curvature="0" class="st9" d="M3189.4,3513.1l-59.7-34.5c-15.4-8.9-28-1.6-28,16.2v69
						c0,17.8,12.6,25,28,16.1l59.7-34.4C3204.8,3536.6,3204.8,3522,3189.4,3513.1"/>
					<path id="path184" inkscape:connector-curvature="0" class="st9" d="M3063,3326.5l-59.7,34.5c-15.4,8.9-15.4,23.4,0,32.3
						l59.7,34.5c15.4,8.9,27.9,1.6,27.9-16.2v-68.9C3091,3324.9,3078.4,3317.7,3063,3326.5"/>
					<path id="path186" inkscape:connector-curvature="0" class="st9" d="M3063,3478.7l-59.7,34.5c-15.4,8.9-15.4,23.4,0,32.4
						l59.7,34.4c15.4,8.9,27.9,1.6,27.9-16.1v-69C3091,3477,3078.4,3469.8,3063,3478.7"/>
					<path id="path188" inkscape:connector-curvature="0" class="st9" d="M3129.7,3427.8l59.7-34.5c15.4-8.9,15.4-23.4,0-32.3
						l-59.7-34.5c-15.4-8.9-28-1.6-28,16.2v68.9C3101.7,3429.4,3114.3,3436.7,3129.7,3427.8"/>
					<path id="path190" inkscape:connector-curvature="0" class="st9" d="M2794.2,3437.1l-59.7-34.5c-15.4-8.9-28-1.6-28,16.2v68.9
						c0,17.8,12.6,25,28,16.2l59.7-34.5C2809.6,3460.5,2809.6,3446,2794.2,3437.1"/>
					<path id="path192" inkscape:connector-curvature="0" class="st9" d="M2799.6,3326.5l-59.7,34.5c-15.4,8.9-15.4,23.4,0,32.3
						l59.7,34.5c15.4,8.9,28,1.6,28-16.2v-68.9C2827.6,3324.9,2815,3317.7,2799.6,3326.5"/>
					<path id="path194" inkscape:connector-curvature="0" class="st9" d="M2926,3393.3c15.4-8.9,15.4-23.4,0-32.3l-59.7-34.5
						c-15.4-8.9-28-1.6-28,16.2v68.9c0,17.8,12.6,25.1,28,16.2L2926,3393.3"/>
					<path id="path196" inkscape:connector-curvature="0" class="st9" d="M3101.8,3190.4v68.9c0,17.8,12.6,25.1,28,16.2l59.7-34.5
						c15.4-8.9,15.4-23.4,0-32.3l-59.7-34.5C3114.4,3165.4,3101.8,3172.7,3101.8,3190.4"/>
					<path id="path198" inkscape:connector-curvature="0" class="st9" d="M3261.5,3351.6l59.7-34.4c15.4-8.9,15.4-23.4,0-32.3
						l-59.7-34.5c-15.4-8.9-28-1.6-28,16.2v68.9C3233.5,3353.2,3246.1,3360.5,3261.5,3351.6"/>
					<path id="path200" inkscape:connector-curvature="0" class="st9" d="M3452.9,3513.1l-59.7-34.5c-15.4-8.9-28-1.6-28,16.2v69
						c0,17.8,12.6,25,28,16.1l59.7-34.4C3468.3,3536.6,3468.3,3522,3452.9,3513.1"/>
					<path id="path202" inkscape:connector-curvature="0" class="st9" d="M3326.6,3478.7l-59.7,34.5c-15.4,8.9-15.4,23.4,0,32.4
						l59.7,34.4c15.4,8.9,28,1.6,28-16.1v-69C3354.5,3477,3342,3469.8,3326.6,3478.7"/>
					<path id="path204" inkscape:connector-curvature="0" class="st9" d="M3486.2,3335.4v-68.9c0-17.8-12.6-25-28-16.2l-59.7,34.5
						c-15.4,8.9-15.4,23.4,0,32.3l59.7,34.5C3473.6,3360.5,3486.2,3353.2,3486.2,3335.4"/>
					<path id="path206" inkscape:connector-curvature="0" class="st9" d="M2925.2,3695.6l-59.7,34.5c-15.4,8.9-28,1.6-28-16.1v-69
						c0-17.8,12.6-25,28-16.1l59.7,34.4C2940.5,3672.1,2940.5,3686.7,2925.2,3695.6"/>
					<path id="path208" inkscape:connector-curvature="0" class="st9" d="M2798.8,3730l-59.7-34.4c-15.4-8.9-15.4-23.4,0-32.4
						l59.7-34.4c15.4-8.9,28-1.6,28,16.1v69C2826.8,3731.7,2814.2,3738.9,2798.8,3730"/>
					<path id="path210" inkscape:connector-curvature="0" class="st9" d="M2925.2,3513.1l-59.7-34.5c-15.4-8.9-28-1.6-28,16.2v69
						c0,17.8,12.6,25,28,16.1l59.7-34.4C2940.5,3536.6,2940.5,3522,2925.2,3513.1"/>
					<path id="path212" inkscape:connector-curvature="0" class="st9" d="M2798.8,3478.7l-59.7,34.5c-15.4,8.9-15.4,23.4,0,32.4
						l59.7,34.4c15.4,8.9,28,1.6,28-16.1v-69C2826.8,3477,2814.2,3469.8,2798.8,3478.7"/>
					<path id="path214" inkscape:connector-curvature="0" class="st9" d="M2794.2,3317.1l-59.7,34.5c-15.4,8.9-28,1.6-28-16.2v-68.9
						c0-17.8,12.6-25,28-16.1l59.7,34.5C2809.6,3293.7,2809.6,3308.2,2794.2,3317.1"/>
					<path id="path216" inkscape:connector-curvature="0" class="st9" d="M2925.2,3241.1l-59.7,34.5c-15.4,8.9-28,1.6-28-16.2v-69
						c0-17.8,12.6-25,28-16.1l59.7,34.4C2940.5,3217.6,2940.5,3232.2,2925.2,3241.1"/>
					<path id="path218" inkscape:connector-curvature="0" class="st9" d="M2798.8,3275.5l-59.7-34.5c-15.4-8.9-15.4-23.4,0-32.3
						l59.7-34.4c15.4-8.9,28-1.6,28,16.1v69C2826.8,3277.2,2814.2,3284.4,2798.8,3275.5"/>
				</g>
			</g>
		</g>
		<path id="path220" inkscape:connector-curvature="0" class="st10" d="M3408.3,3604.8c0-172.2-139.6-311.8-311.8-311.8
			c-172.2,0-311.8,139.6-311.8,311.8c0,172.2,139.6,311.8,311.8,311.8C3268.7,3916.6,3408.3,3777,3408.3,3604.8"/>
		<path id="path278" inkscape:connector-curvature="0" class="st10" d="M1787,2703.1c25.7,24.1,38.6,56.2,38.6,96.3
			c0,40.1-12.7,72.3-38.1,96.8c-25.4,24.4-60,36.7-103.6,36.7h-78.2v-265.9h77.2C1726.6,2666.9,1761.3,2678.9,1787,2703.1
			L1787,2703.1z M1825.6,2930.9c17.6-16.3,30.7-35.4,39.3-57.2c8.6-21.8,13-46.6,13-74.3c0-52.1-16.6-95-49.9-128.6
			c-16.9-16.9-37-29.5-60.1-37.6c-23.1-8.1-49.2-12.2-78.2-12.2h-134.4v357.8h131c29,0,55.1-3.9,78.2-11.7
			C1787.7,2959.2,1808,2947.2,1825.6,2930.9"/>
		<path id="path280" inkscape:connector-curvature="0" class="st10" d="M2721,2704.5c26.7,26.7,40.1,58.5,40.1,95.3
			c0,36.8-13.4,68.6-40.1,95.3c-26.4,26.4-58.5,39.6-96.3,39.6c-38.1,0-70.4-13.2-96.8-39.6c-26.4-26.4-39.6-58.2-39.6-95.3
			c0-37.5,13-69.2,39.1-95.3c26.4-26.4,58.8-39.6,97.3-39.6C2662.5,2664.9,2694.6,2678.1,2721,2704.5z M2758.7,2930.9
			c36.5-35.5,54.7-79.2,54.7-131c0-51.5-18.2-95-54.7-130.5c-36.2-35.2-80.8-52.8-133.9-52.8c-53.8,0-98.6,17.4-134.4,52.3
			c-36.2,35.2-54.3,78.9-54.3,131c0,52.1,17.9,95.7,53.8,130.5c36.2,35.2,81.1,52.8,134.9,52.8
			C2677.5,2983.2,2722.2,2965.7,2758.7,2930.9"/>
		<path id="path282" inkscape:connector-curvature="0" class="st10" d="M2324.5,2837.5c5.5,4.6,9.9,10.1,12.9,16.6
			c3.1,6.5,4.6,14.5,4.6,23.9c0,8.8-1.5,16.4-4.4,23c-2.9,6.5-7.2,12.1-12.7,16.6c-6.2,4.9-13.4,8.6-21.8,11.2
			c-8.3,2.6-18.2,3.9-29.6,3.9h-54.8v-110h52.3C2295,2822.8,2312.8,2827.7,2324.5,2837.5z M2361.2,2953.3
			c11.1-8.8,19.3-19.6,24.7-32.5c5.4-12.9,8.1-27.3,8.1-43.3c0-15.6-2.8-29.8-8.3-42.5c-5.6-12.7-14-23.6-25.4-32.8
			c-21.8-16.9-51-25.4-87.5-25.4h-53.8v-155.9h-50.4v357.8h107.1c17.6,0,33.6-2.1,48.2-6.4
			C2338.3,2968.2,2350.7,2961.8,2361.2,2953.3"/>
		<path id="path284" inkscape:connector-curvature="0" class="st10" d="M2129.5,2666.9v-45.9h-210.7v357.8h207.3v-45.9h-156.9v-109
			h152.5v-45.9h-152.5v-111L2129.5,2666.9"/>
		<path id="path286" inkscape:connector-curvature="0" class="st6" d="M1532.3,2913.4c-27.9,16.1-50.8,2.9-50.8-29.3v-125
			c0-32.2,22.8-45.4,50.8-29.3l108.3,62.5c27.9,16.1,27.9,42.5,0,58.6L1532.3,2913.4"/>
		<path id="path288" inkscape:connector-curvature="0" class="st9" d="M2734.4,2813.2l60.5,34.9c15.6,9,15.6,23.8,0,32.7l-60.5,34.9
			c-15.6,9-28.4,1.6-28.4-16.4v-69.9C2706.1,2811.6,2718.8,2804.2,2734.4,2813.2"/>
		<path id="path290" inkscape:connector-curvature="0" class="st10" d="M1555.3,2321.4v229.2h52.6v-15.8h-32.7v-197.6h32.7v-15.8
			H1555.3"/>
		<path id="path292" inkscape:connector-curvature="0" class="st10" d="M1716.6,2388.9V2361c-12.4-7.1-24.5-10.7-36.2-10.7
			c-16,0-30,6-42,18c-12,12-18,25.9-18,41.7c0,17.9,6,32.8,17.9,44.7c12,11.8,27,17.7,45,17.7c10.8,0,21.8-2.8,33.2-8.4v-27.2
			c-12.2,7.9-23.8,11.8-34.8,11.8c-10.1,0-18.9-3.6-26.5-10.6c-7.6-7.1-11.4-15.4-11.4-24.9c0-10.8,3.6-19.8,10.7-27.1
			c7.1-7.3,15.8-11,26.1-11C1691.2,2374.9,1703.1,2379.5,1716.6,2388.9"/>
		<path id="path294" inkscape:connector-curvature="0" class="st10" d="M1834.2,2411.8c0,9.8-3.7,18.4-11.2,25.6
			c-7.5,7.3-16.3,10.9-26.6,10.9c-10.6,0-19.7-3.7-27.3-11c-7.6-7.4-11.4-16.1-11.4-26.3c0-9.7,3.9-18.3,11.6-25.6
			c7.7-7.3,16.8-11,27.1-11c10.1,0,18.9,3.7,26.5,11.2S1834.2,2401.9,1834.2,2411.8z M1733.8,2411.9c0,15.8,6.2,29.8,18.7,42.1
			c12.5,12.3,26.8,18.4,43,18.4c16.6,0,31.2-6.1,43.6-18.1c12.4-12.1,18.7-26.2,18.7-42.4c0-16.3-6.1-30.6-18.3-43
			c-12.2-12.4-26.3-18.6-42.3-18.6c-17.1,0-31.9,6.1-44.5,18.4C1740.1,2381,1733.8,2395.3,1733.8,2411.9"/>
		<path id="path296" inkscape:connector-curvature="0" class="st10" d="M1881.6,2353.6v115.7h24.1v-17.8c5.7,7.3,11.1,12.6,16.3,16
			c5.2,3.4,11.1,5.1,17.9,5.1c8.8,0,15.7-1.9,20.7-5.7c5-3.8,9.2-10,12.7-18.4c6.1,8.4,12,14.5,17.6,18.4c5.7,3.8,12.3,5.7,19.8,5.7
			c9.2,0,17.1-3.4,23.8-10.3c6.7-6.9,10-15,10-24.5v-84.1h-24.4v77.8c0,12.8-6.3,19.2-19,19.2c-7.2,0-13.3-3.3-18.4-9.8
			c-5-6.5-7.5-14.6-7.5-24.3v-62.9h-24.4v74.6c0,15.1-6.2,22.7-18.6,22.7c-7.4,0-13.7-3.1-18.8-9.2c-5.1-6.2-7.7-13.8-7.7-22.8
			v-65.2L1881.6,2353.6"/>
		<path id="path298" inkscape:connector-curvature="0" class="st10" d="M2176.8,2411.9c0,10.2-3.8,19.1-11.5,26.7
			c-7.6,7.6-16.6,11.4-27,11.4c-10.5,0-19.7-3.8-27.4-11.4c-7.7-7.6-11.5-16.5-11.5-26.8c0-10.6,3.8-19.7,11.4-27.5
			c7.6-7.8,16.6-11.6,26.9-11.6c10.7,0,19.9,3.8,27.6,11.5C2173,2391.9,2176.8,2401.1,2176.8,2411.9L2176.8,2411.9z M2102.8,2469.2
			V2446c11.7,17.7,26.6,26.5,44.8,26.5c14.9,0,27.8-6,38.6-17.9c10.8-11.9,16.2-26.1,16.2-42.7c0-16.7-5.5-31.2-16.4-43.3
			c-10.9-12.1-23.8-18.2-38.6-18.2c-8.6,0-16.8,2.2-24.7,6.7c-7.9,4.5-14.4,11-19.5,19.5v-77.2h-24.4v169.9H2102.8"/>
		<path id="path300" inkscape:connector-curvature="0" class="st10" d="M2229.6,2469.2h24.4V2404c0-20.1,8.8-30.1,26.5-30.1
			c7.9,0,14.1,2.7,18.6,8.1c4.6,5.4,6.9,12.7,6.9,22.1v65.2h24.1v-69.1c0-14.5-4.7-26.4-14.2-35.8c-9.4-9.4-21.5-14-36.2-14
			c-15,0-27.1,4.7-36.3,14c-9.2,9.3-13.9,21.5-13.9,36.6V2469.2"/>
		<path id="path302" inkscape:connector-curvature="0" class="st10" d="M2367.3,2502.9h24.4v-33.6h24.1v-22.3h-24.1v-93.4h-24.4
			v93.4h-19.2v22.6h19.2V2502.9"/>
		<path id="path304" inkscape:connector-curvature="0" class="st10" d="M2456.6,2426.2h70.6c-7.9,15.9-19.4,23.8-34.8,23.8
			C2475.8,2450,2463.8,2442.1,2456.6,2426.2z M2552.8,2406.7h-98.7c2.1-11.9,7-20.5,14.6-26c7.6-5.5,15.9-8.2,24.9-8.2
			c13.8,0,25.4,5.7,34.8,17.2l17.8-13.5c-13.4-17.3-31.3-25.9-53.7-25.9c-17.2,0-31.6,5.9-43.2,17.7c-11.6,11.8-17.4,26.4-17.4,43.9
			c0,16.4,5.9,30.5,17.6,42.5c11.7,12,26.1,18,43,18c16.6,0,30.9-6.1,42.8-18.3C2547.2,2442,2553,2426.1,2552.8,2406.7"/>
		<path id="path306" inkscape:connector-curvature="0" class="st10" d="M2608,2469.2v-23.8c5.4,9.5,10.7,16.4,15.9,20.7
			c5.2,4.2,11.9,6.4,20.3,6.4c2.3,0,5.7-0.6,10.1-1.7l-7.4-24.4c-4.7,0.9-7.8,1.4-9.2,1.4c-8.2,0-15.1-2.9-20.7-8.6
			c-5.6-5.8-8.4-12.9-8.4-21.5v-64.1h-24.4v115.7L2608,2469.2"/>
		<path id="path308" inkscape:connector-curvature="0" class="st10" d="M2746.3,2455.5l-16.3-14.3c-4.2,3-7.9,5.3-10.9,6.8
			c-3.1,1.5-6.7,2.3-10.9,2.3c-9.9,0-14.9-3.6-14.9-10.9c0-5.2,6.3-10.3,18.9-15.2c12.6-4.9,21.6-10.3,27.1-16.2
			c5.5-5.9,8.3-13,8.3-21.3c0-9.7-4-18.2-11.9-25.4c-7.9-7.2-17.3-10.9-28-10.9c-16.4,0-29.8,7.6-40.2,22.7l19.2,9.2
			c6.7-6.5,13.7-9.8,21-9.8c5.1,0,9.5,1.4,13.3,4.1c3.8,2.8,5.7,6,5.7,9.6c0,6.4-6.6,12.2-19.9,17.4c-13.3,5.1-22.5,10.4-27.6,15.6
			c-5.1,5.3-7.6,11.8-7.6,19.6c0,9.6,3.6,17.6,10.9,24c7.2,6.4,16.3,9.6,27.3,9.6C2720.5,2472.4,2732.7,2466.8,2746.3,2455.5"/>
		<path id="path310" inkscape:connector-curvature="0" class="st10" d="M2760.4,2535h51.9v-226.8H2761v17.5h31.7v191.8h-32.2V2535"
			/>
		<path id="path312" inkscape:connector-curvature="0" class="st1" d="M2593.2,3070.6l-108.3-62.5c-27.9-16.1-27.9-42.5,0-58.6
			l108.3-62.5c27.9-16.1,50.7-2.9,50.7,29.3v125C2643.9,3073.5,2621.1,3086.7,2593.2,3070.6"/>
	</g>
</g>
</svg>
