<?xml version="1.0" encoding="UTF-8"?>
<svg xmlns="http://www.w3.org/2000/svg" xmlns:xlink="http://www.w3.org/1999/xlink" viewBox="0 0 292.82 225">
  <defs>
    <style>
      .cls-1 {
        fill: #8c28da;
      }

      .cls-1, .cls-2, .cls-3 {
        opacity: .5;
      }

      .cls-4, .cls-5, .cls-2, .cls-6, .cls-7 {
        mix-blend-mode: screen;
      }

      .cls-4, .cls-8 {
        fill: #fffff7;
      }

      .cls-9 {
        fill: url(#_Áåçûìÿííûé_ãðàäèåíò_1833-3);
      }

      .cls-10 {
        fill: #fff;
      }

      .cls-11 {
        fill: #cb89f0;
      }

      .cls-12 {
        fill: url(#_Áåçûìÿííûé_ãðàäèåíò_4);
      }

      .cls-13 {
        fill: #2d303d;
      }

      .cls-14 {
        fill: #500393;
        opacity: .4;
      }

      .cls-14, .cls-15, .cls-3, .cls-16, .cls-17 {
        mix-blend-mode: multiply;
      }

      .cls-18 {
        fill: #8b3dce;
      }

      .cls-5 {
        fill: url(#_Áåçûìÿííûé_ãðàäèåíò_1838);
        opacity: .3;
      }

      .cls-19 {
        fill: #ffc7ff;
      }

      .cls-20 {
        fill: url(#_Áåçûìÿííûé_ãðàäèåíò_4-2);
      }

      .cls-21, .cls-2 {
        fill: #7514c9;
      }

      .cls-22, .cls-15, .cls-17 {
        opacity: .6;
      }

      .cls-23 {
        fill: #9f9f9f;
      }

      .cls-24 {
        fill: #750cbf;
      }

      .cls-25 {
        fill: #4a4a4a;
      }

      .cls-26 {
        clip-path: url(#clippath-2);
      }

      .cls-27 {
        fill: #232531;
      }

      .cls-28 {
        isolation: isolate;
      }

      .cls-29 {
        fill: url(#_Áåçûìÿííûé_ãðàäèåíò_110);
      }

      .cls-30 {
        fill: #442900;
      }

      .cls-31 {
        fill: #3e31a4;
      }

      .cls-32 {
        fill: #eca6f4;
      }

      .cls-6, .cls-33 {
        fill: #6687ff;
      }

      .cls-34 {
        clip-path: url(#clippath-1);
      }

      .cls-35 {
        fill: #b833ff;
      }

      .cls-36 {
        fill: url(#_Áåçûìÿííûé_ãðàäèåíò_24-2);
      }

      .cls-36, .cls-37 {
        opacity: .2;
      }

      .cls-37 {
        fill: url(#_Áåçûìÿííûé_ãðàäèåíò_24);
      }

      .cls-38 {
        fill: url(#_Áåçûìÿííûé_ãðàäèåíò_1833);
      }

      .cls-39 {
        fill: url(#_Áåçûìÿííûé_ãðàäèåíò_8);
      }

      .cls-40 {
        fill: url(#_Áåçûìÿííûé_ãðàäèåíò_1821-2);
      }

      .cls-41 {
        fill: #f9b6ff;
      }

      .cls-42 {
        fill: url(#_Áåçûìÿííûé_ãðàäèåíò_1821-4);
      }

      .cls-43, .cls-17 {
        fill: #b879d9;
      }

      .cls-15 {
        fill: #55128a;
      }

      .cls-44 {
        fill: url(#_Áåçûìÿííûé_ãðàäèåíò_1839);
      }

      .cls-7 {
        fill: #a421ea;
      }

      .cls-3 {
        fill: #cccece;
      }

      .cls-45 {
        clip-path: url(#clippath);
      }

      .cls-46 {
        fill: #3a1147;
      }

      .cls-47 {
        fill: #ffca8c;
      }

      .cls-48 {
        fill: url(#_Áåçûìÿííûé_ãðàäèåíò_48);
      }

      .cls-16 {
        fill: url(#_Áåçûìÿííûé_ãðàäèåíò_5);
      }

      .cls-49 {
        fill: none;
      }

      .cls-50 {
        fill: #222430;
      }

      .cls-51 {
        fill: #353535;
      }

      .cls-52 {
        fill: url(#_Áåçûìÿííûé_ãðàäèåíò_1833-4);
      }

      .cls-53 {
        fill: #fcb67c;
      }

      .cls-54 {
        fill: url(#_Áåçûìÿííûé_ãðàäèåíò_3-2);
      }

      .cls-55 {
        fill: url(#_Áåçûìÿííûé_ãðàäèåíò_1821);
      }

      .cls-56 {
        filter: url(#luminosity-noclip-2);
      }

      .cls-57 {
        fill: url(#_Áåçûìÿííûé_ãðàäèåíò_1833-2);
      }

      .cls-58 {
        mask: url(#mask-1);
      }

      .cls-59 {
        mask: url(#mask);
      }

      .cls-60 {
        fill: #ffc9ff;
      }

      .cls-61 {
        fill: #181a23;
      }

      .cls-62 {
        fill: #fdc0ff;
      }

      .cls-63 {
        fill: url(#_Áåçûìÿííûé_ãðàäèåíò_3);
      }

      .cls-64 {
        fill: url(#_Áåçûìÿííûé_ãðàäèåíò_101);
      }

      .cls-65 {
        fill: #a35dd4;
      }

      .cls-66 {
        fill: url(#_Áåçûìÿííûé_ãðàäèåíò_1821-3);
      }

      .cls-67 {
        fill: url(#_Áåçûìÿííûé_ãðàäèåíò_1821-5);
      }
    </style>
    <clipPath id="clippath">
      <rect class="cls-21" width="292.82" height="225"/>
    </clipPath>
    <clipPath id="clippath-1">
      <ellipse class="cls-49" cx="146.41" cy="129.02" rx="84.34" ry="48.69"/>
    </clipPath>
    <linearGradient id="_Áåçûìÿííûé_ãðàäèåíò_1839" data-name="Áåçûìÿííûé ãðàäèåíò 1839" x1="195.61" y1="128.65" x2="206.42" y2="121.12" gradientUnits="userSpaceOnUse">
      <stop offset="0" stop-color="#c685ea"/>
      <stop offset=".18" stop-color="#de98ff"/>
      <stop offset=".41" stop-color="#f5abff"/>
      <stop offset=".69" stop-color="#ffc5ff"/>
      <stop offset="1" stop-color="#ffdeff"/>
    </linearGradient>
    <clipPath id="clippath-2">
      <path class="cls-49" d="M195.39,119.19s1.72,.99,2.59,1.07c.31,.03,.56-.08,.62-.11,.21-.11,.34-.32,.26-.74l-.37-1.84s-1.66-1.46-2.4-.61-.95,1.67-.7,2.23Z"/>
    </clipPath>
    <linearGradient id="_Áåçûìÿííûé_ãðàäèåíò_1833" data-name="Áåçûìÿííûé ãðàäèåíò 1833" x1="196.09" y1="119.9" x2="198.63" y2="119.9" gradientUnits="userSpaceOnUse">
      <stop offset="0" stop-color="#b578d7"/>
      <stop offset="1" stop-color="#cb89f0"/>
    </linearGradient>
    <linearGradient id="_Áåçûìÿííûé_ãðàäèåíò_1821" data-name="Áåçûìÿííûé ãðàäèåíò 1821" x1="130.45" y1="119.65" x2="159.93" y2="119.65" gradientUnits="userSpaceOnUse">
      <stop offset="0" stop-color="#f5abff"/>
      <stop offset=".46" stop-color="#ffc5ff"/>
      <stop offset="1" stop-color="#ffdeff"/>
    </linearGradient>
    <linearGradient id="_Áåçûìÿííûé_ãðàäèåíò_1833-2" data-name="Áåçûìÿííûé ãðàäèåíò 1833" x1="139.14" y1="122.78" x2="160.15" y2="122.78" xlink:href="#_Áåçûìÿííûé_ãðàäèåíò_1833"/>
    <linearGradient id="_Áåçûìÿííûé_ãðàäèåíò_1833-3" data-name="Áåçûìÿííûé ãðàäèåíò 1833" x1="142.23" y1="108.36" x2="145.53" y2="114.06" xlink:href="#_Áåçûìÿííûé_ãðàäèåíò_1833"/>
    <linearGradient id="_Áåçûìÿííûé_ãðàäèåíò_1821-2" data-name="Áåçûìÿííûé ãðàäèåíò 1821" x1="99.16" y1="41.48" x2="187.33" y2="41.48" xlink:href="#_Áåçûìÿííûé_ãðàäèåíò_1821"/>
    <filter id="luminosity-noclip-2" data-name="luminosity-noclip" x="130.99" y="17.74" width="55.94" height="67.26" color-interpolation-filters="sRGB" filterUnits="userSpaceOnUse">
      <feFlood flood-color="#fff" result="bg"/>
      <feBlend in="SourceGraphic" in2="bg"/>
    </filter>
    <filter id="luminosity-noclip-3" x="8417" y="-8192" width="-32766" height="32766" color-interpolation-filters="sRGB" filterUnits="userSpaceOnUse">
      <feFlood flood-color="#fff" result="bg"/>
      <feBlend in="SourceGraphic" in2="bg"/>
    </filter>
    <mask id="mask-1" x="8417" y="-8192" width="-32766" height="32766" maskUnits="userSpaceOnUse"/>
    <linearGradient id="_Áåçûìÿííûé_ãðàäèåíò_5" data-name="Áåçûìÿííûé ãðàäèåíò 5" x1="190.3" y1="24.18" x2="152.27" y2="69.43" gradientUnits="userSpaceOnUse">
      <stop offset="0" stop-color="#fff"/>
      <stop offset=".29" stop-color="#fff"/>
      <stop offset=".65" stop-color="#fff"/>
      <stop offset="1" stop-color="#fff"/>
    </linearGradient>
    <mask id="mask" x="130.99" y="17.74" width="55.94" height="67.26" maskUnits="userSpaceOnUse">
      <g class="cls-56">
        <g class="cls-58">
          <polygon class="cls-16" points="130.99 50.04 165.95 85 186.93 72.89 186.94 17.74 130.99 50.04"/>
        </g>
      </g>
    </mask>
    <linearGradient id="_Áåçûìÿííûé_ãðàäèåíò_1838" data-name="Áåçûìÿííûé ãðàäèåíò 1838" x1="190.3" y1="24.18" x2="152.27" y2="69.43" gradientUnits="userSpaceOnUse">
      <stop offset="0" stop-color="#000"/>
      <stop offset=".29" stop-color="#00000c"/>
      <stop offset=".65" stop-color="#1a124c"/>
      <stop offset="1" stop-color="#3e31a4"/>
    </linearGradient>
    <linearGradient id="_Áåçûìÿííûé_ãðàäèåíò_4" data-name="Áåçûìÿííûé ãðàäèåíò 4" x1="139.28" y1="139.9" x2="136.37" y2="139.9" gradientUnits="userSpaceOnUse">
      <stop offset="0" stop-color="#b879d9"/>
      <stop offset="1" stop-color="#8b3dce"/>
    </linearGradient>
    <linearGradient id="_Áåçûìÿííûé_ãðàäèåíò_1821-3" data-name="Áåçûìÿííûé ãðàäèåíò 1821" x1="120.51" y1="139.49" x2="188.52" y2="139.49" xlink:href="#_Áåçûìÿííûé_ãðàäèåíò_1821"/>
    <linearGradient id="_Áåçûìÿííûé_ãðàäèåíò_1833-4" data-name="Áåçûìÿííûé ãðàäèåíò 1833" x1="124.34" y1="139.56" x2="183.72" y2="139.56" xlink:href="#_Áåçûìÿííûé_ãðàäèåíò_1833"/>
    <linearGradient id="_Áåçûìÿííûé_ãðàäèåíò_1821-4" data-name="Áåçûìÿííûé ãðàäèåíò 1821" x1="102.97" y1="138.4" x2="123.11" y2="138.4" xlink:href="#_Áåçûìÿííûé_ãðàäèåíò_1821"/>
    <linearGradient id="_Áåçûìÿííûé_ãðàäèåíò_4-2" data-name="Áåçûìÿííûé ãðàäèåíò 4" x1="104.03" y1="138.4" x2="122.05" y2="138.4" xlink:href="#_Áåçûìÿííûé_ãðàäèåíò_4"/>
    <linearGradient id="_Áåçûìÿííûé_ãðàäèåíò_3" data-name="Áåçûìÿííûé ãðàäèåíò 3" x1="102.97" y1="149.67" x2="123.11" y2="149.67" gradientUnits="userSpaceOnUse">
      <stop offset="0" stop-color="#8b3dce"/>
      <stop offset="1" stop-color="#b879d9"/>
    </linearGradient>
    <linearGradient id="_Áåçûìÿííûé_ãðàäèåíò_24" data-name="Áåçûìÿííûé ãðàäèåíò 24" x1="110.41" y1="149.65" x2="122.39" y2="149.65" gradientUnits="userSpaceOnUse">
      <stop offset="0" stop-color="#9246d0"/>
      <stop offset=".31" stop-color="#bd78e2"/>
      <stop offset=".62" stop-color="#e0a1f2"/>
      <stop offset=".86" stop-color="#f6bbfb"/>
      <stop offset="1" stop-color="#ffc5ff"/>
    </linearGradient>
    <linearGradient id="_Áåçûìÿííûé_ãðàäèåíò_24-2" data-name="Áåçûìÿííûé ãðàäèåíò 24" x1="113.85" y1="148.37" x2="123.15" y2="148.37" xlink:href="#_Áåçûìÿííûé_ãðàäèåíò_24"/>
    <linearGradient id="_Áåçûìÿííûé_ãðàäèåíò_3-2" data-name="Áåçûìÿííûé ãðàäèåíò 3" x1="102.68" y1="157.73" x2="107.03" y2="137.55" xlink:href="#_Áåçûìÿííûé_ãðàäèåíò_3"/>
    <linearGradient id="_Áåçûìÿííûé_ãðàäèåíò_8" data-name="Áåçûìÿííûé ãðàäèåíò 8" x1="105.16" y1="143.16" x2="100.63" y2="153.03" gradientUnits="userSpaceOnUse">
      <stop offset="0" stop-color="#f6afff"/>
      <stop offset="1" stop-color="#b879d9"/>
    </linearGradient>
    <linearGradient id="_Áåçûìÿííûé_ãðàäèåíò_48" data-name="Áåçûìÿííûé ãðàäèåíò 48" x1="104.2" y1="157.27" x2="106.49" y2="146.19" gradientUnits="userSpaceOnUse">
      <stop offset="0" stop-color="#b26ddb"/>
      <stop offset="1" stop-color="#d490eb"/>
    </linearGradient>
    <linearGradient id="_Áåçûìÿííûé_ãðàäèåíò_101" data-name="Áåçûìÿííûé ãðàäèåíò 101" x1="-525.41" y1="140.77" x2="-524.32" y2="142.66" gradientTransform="translate(710.73)" gradientUnits="userSpaceOnUse">
      <stop offset="0" stop-color="#1c1e29"/>
      <stop offset=".52" stop-color="#252734"/>
      <stop offset=".76" stop-color="#1c1e28"/>
      <stop offset=".85" stop-color="#181a23"/>
    </linearGradient>
    <linearGradient id="_Áåçûìÿííûé_ãðàäèåíò_1821-5" data-name="Áåçûìÿííûé ãðàäèåíò 1821" x1="188.23" y1="137.65" x2="194.06" y2="137.65" xlink:href="#_Áåçûìÿííûé_ãðàäèåíò_1821"/>
    <linearGradient id="_Áåçûìÿííûé_ãðàäèåíò_110" data-name="Áåçûìÿííûé ãðàäèåíò 110" x1="-267.75" y1="148.53" x2="-267.03" y2="149.66" gradientTransform="translate(434.54)" gradientUnits="userSpaceOnUse">
      <stop offset="0" stop-color="#f4d2f5"/>
      <stop offset="1" stop-color="#d8a5e4"/>
    </linearGradient>
  </defs>
  <g class="cls-28">
    <g id="_0" data-name="0">
      <g>
        <rect class="cls-21" width="292.82" height="225"/>
        <g class="cls-45">
          <g class="cls-22">
            <polygon class="cls-2" points="369.86 159.52 8.81 -.66 8.81 -20.5 369.86 139.67 369.86 159.52"/>
            <polygon class="cls-2" points="192.73 90.97 91.7 46.15 91.7 5.75 192.73 50.57 192.73 90.97"/>
            <polygon class="cls-2" points="266.02 164.61 2.35 47.64 2.35 37.76 266.02 154.73 266.02 164.61"/>
            <polygon class="cls-7" points="226.3 18.8 169.92 -6.21 169.92 -16.09 226.3 8.92 226.3 18.8"/>
            <polygon class="cls-7" points="79.95 101.22 23.57 76.21 23.57 66.34 79.95 91.35 79.95 101.22"/>
            <polygon class="cls-2" points="263.18 61.05 242.42 51.83 242.42 41.96 263.18 51.17 263.18 61.05"/>
            <polygon class="cls-2" points="36.38 213.92 15.61 204.71 15.61 194.83 36.38 204.05 36.38 213.92"/>
            <polygon class="cls-2" points="184.14 192.74 4.42 113.02 4.42 103.14 184.14 182.87 184.14 192.74"/>
            <polygon class="cls-2" points="309.31 198.64 49.84 83.53 49.84 63.69 309.31 178.8 309.31 198.64"/>
          </g>
        </g>
      </g>
      <ellipse class="cls-14" cx="146.41" cy="141.26" rx="84.34" ry="48.69"/>
      <ellipse class="cls-24" cx="146.41" cy="129.02" rx="84.34" ry="48.69"/>
      <g>
        <g class="cls-34">
          <g>
            <path class="cls-15" d="M173.17,94.39l-63.81,.08L31.33,139.52l3.16,.85h59.04l27.61-15.94,1.54-.36c2.55-.6,5.24-.2,7.51,1.11l7.17,4.14c.17,.1,.36,.15,.56,.15h1.29l2.48-6.27-2.91-8.95,34.39-19.86Z"/>
            <path class="cls-15" d="M188.2,131l-50.27,28.88c-.09,.05-.19,.08-.3,.08-.42,0-1.54,.01-1.89-.19l-15.98-9.22c-.43-.25-.43-.65,0-.9l49.83-28.77c.72-.42,1.91-.42,2.63,0l15.98,9.22c.43,.25,.43,.65,0,.9Z"/>
            <path class="cls-15" d="M204.61,119.07c-3.49-1.16-10.04-1.5-12.8,.2-4.45,2.75-1.53,5.34,2.09,7.55,8.96,5.48,11.92,5.71,16.91,3.42,1.48-.68,2.36-1.76,2.35-2.83,0-1.07-2.39-6.3-8.55-8.34Z"/>
            <path class="cls-15" d="M114.18,149.21h-12.99c-4.23,0-14.17,9.65-10.47,11.46v.07c-.14,.91,.57,1.73,1.49,1.73h7.06c1.51,0,3-.4,4.31-1.15l.61-.35h9.99v-11.76Z"/>
            <path class="cls-15" d="M193.5,133.7l-.38-.22-1.96,1.13-22.54,13.05-.44,.26s-1.26,.73-1.26,.73c-.02,.01-.04,.02-.06,.03-.11,.05-.21,.12-.26,.17l-1.79,1.61s-.36,.33-.36,.33c-.02,.02,.01,.04,.04,.03l.57-.21s2.78-1.01,2.78-1.01c0,0,.31-.18,.31-.18,0,0,23.65-13.69,23.65-13.69,0,0,1.97-1.14,1.97-1.14v-.43s-.26-.46-.26-.46Z"/>
            <path class="cls-15" d="M196.39,136.8c-.08-.94-.89-1.51-1.36-1.24-.62,.16-13.7,8.16-16.37,9.91-1.97,1.29-2.85,1.95-3.4,2.41,0,0-.04,.04-.07,.07l-.51,.4s.03-.01,.05-.02c-.02,0-.04,0-.05,.02-.05,.04-.07,.09-.08,.15-.14,.13-.39,.37-.45,.43-.05,.05-.09,.08-.1,.12-.02,.07,.04,.1,.04,.11,.05,.03,.1,0,.18-.02,.08-.02,.42-.13,.6-.19,.07,.02,.12,.02,.15,0,.06-.02,.06-.02,0,0l.6-.25s.07-.02,.09-.03c.1-.04,.21-.08,.36-.14,.48-.19,1.26-.54,2.79-1.34,1.44-.75,3.56-1.9,6.71-3.69,.3-.17,10.57-6.03,10.73-6.34,.04-.08,.07-.14,.09-.38,0,0,0,0,0,0Z"/>
          </g>
        </g>
        <g>
          <g>
            <path class="cls-44" d="M213.05,125.83c-.75-1.92-3.6-5.63-7.89-7.26-3.44-1.31-7.78-2.65-12.93,.33-.2,.12-.39,.24-.56,.37-1.86,1.37-1.81,3.67,.18,5.06,3.65,2.56,8.09,4.97,8.09,4.97,1.1,.59,2.26,1.07,3.47,1.38,2.96,.75,5.58,.48,7.81-.81,1.4-.82,2.1-1.89,2.1-2.96,0-.22-.09-.6-.28-1.08Z"/>
            <path class="cls-17" d="M198.61,119.42l-1.45-.79c-.42-.21-1.05-.25-1.64,.25-.36,.31-.2,.44,.23,.64l1.46,.68c.42,.21,1.13,.27,1.52,0,.39-.26,.31-.59-.12-.79Z"/>
            <g class="cls-26">
              <g class="cls-28">
                <path class="cls-19" d="M197.66,118.25c-.49-.28-.97-.29-1.43-.05l2.1,3.33c1.02-.78,.51-2.57-.67-3.29Z"/>
                <path class="cls-18" d="M198.3,119.89c-.26-.67-.73-1.23-1.21-1.51-.24-.14-.48-.21-.7-.19-.11,0-.21,.04-.3,.09-.13,.08-.46,.29-.61,.81-.36,1.26,1.11,3.4,2.6,2.61,.44-.25,.54-.98,.22-1.81Z"/>
                <path class="cls-3" d="M197.26,120.27c-.16-.42-.45-.77-.76-.94-.15-.09-.3-.13-.44-.12-.42,.04-.56,.57-.32,1.19,.16,.42,.45,.77,.76,.94,.15,.09,.3,.13,.44,.12,.42-.04,.57-.57,.32-1.19Z"/>
                <path class="cls-38" d="M198.45,119.8s-.04-.09-.06-.14c-.14-.32-.33-.61-.54-.85-.19-.22-.4-.4-.62-.52-.24-.14-.48-.21-.7-.19-.11,0-.21,.04-.3,.09l-.15,.08c.09-.05,.19-.08,.3-.09,.22-.02,.46,.05,.7,.19,.21,.12,.42,.3,.62,.52,.21,.24,.4,.53,.54,.85,.02,.05,.04,.09,.06,.14,.32,.83,.21,1.56-.22,1.81l.15-.08c.43-.25,.54-.98,.22-1.81Z"/>
              </g>
            </g>
            <path class="cls-17" d="M211.5,128.92c-2.22,1.29-4.85,1.56-7.81,.81-1.21-.31-2.37-.79-3.47-1.38,0,0-4.44-2.4-8.09-4.97-1.1-.77-1.61-1.83-1.53-2.85-.61,1.27-.2,2.78,1.26,3.8,3.65,2.56,8.09,4.97,8.09,4.97,1.1,.59,2.26,1.07,3.47,1.38,2.96,.75,5.58,.48,7.81-.81,1.31-.76,2-1.74,2.08-2.74-.32,.65-.93,1.27-1.81,1.79Z"/>
            <path class="cls-17" d="M211.37,129.37c-2.22,1.29-4.85,1.56-7.81,.81-1.21-.31-2.37-.79-3.47-1.38,0,0-4.44-2.4-8.09-4.97-1.18-.83-1.68-1.97-1.5-3.06-.45,1.22,0,2.6,1.37,3.55,3.65,2.56,8.09,4.97,8.09,4.97,1.1,.59,2.26,1.07,3.47,1.38,2.96,.75,5.58,.48,7.81-.81,1.21-.71,1.89-1.6,2.05-2.52-.28,.74-.92,1.45-1.91,2.03Z"/>
          </g>
          <g>
            <g class="cls-28">
              <polygon class="cls-55" points="151.24 111.1 130.45 123.17 139.14 128.19 159.93 116.12 151.24 111.1"/>
              <path class="cls-57" d="M160.05,116.28s-.04-.08-.06-.11c-.02-.02-.03-.03-.05-.05l-20.79,12.07s.04,.03,.05,.05c.02,.03,.05,.06,.06,.11,.14,.32,.13,1.01-.03,1.1l20.79-12.07c.16-.09,.17-.78,.03-1.1Z"/>
              <path class="cls-9" d="M149.55,109.1c-.39-.88-.46-1.72-.19-2.3l5.65-12.5-20.79,12.07-5.65,12.5c-.27,.58-.2,1.42,.18,2.29,.21,.48,.48,.9,.79,1.26,.27,.31,.57,.56,.89,.75l20.79-12.07c-.32-.19-.62-.44-.89-.75-.31-.36-.58-.78-.79-1.25Z"/>
              <path class="cls-18" d="M139.14,128.19l-8.69-5.02c-.7-.4-1.3-1.13-1.69-2-.39-.87-.46-1.72-.19-2.3l5.65-12.5,.04-.22,.03-12.17c0-.36-.23-.76-.54-.94-.29-.17-.52-.04-.53,.32l-.03,12.06-5.63,12.4c-.39,.89-.28,2.21,.3,3.52,.56,1.31,1.53,2.47,2.58,3.07l8.69,5.02c.29,.17,.29-1.08,0-1.25Z"/>
              <path class="cls-18" d="M155,81.49c-.05-.11-.12-.22-.2-.31-.07-.08-.16-.15-.25-.21-.14-.08-.27-.09-.37-.04l-20.79,12.07c.09-.05,.22-.05,.37,.04,.09,.05,.17,.12,.25,.21,.08,.09,.15,.2,.2,.31,.06,.14,.09,.28,.09,.42l-.03,12.17-.04,.22,20.79-12.07,.04-.22,.03-12.17c0-.14-.03-.28-.09-.42Z"/>
            </g>
            <g id="_1" data-name="1">
              <polygon class="cls-18" points="100.85 131.93 99.18 130.97 99.16 65.97 100.82 66.94 100.85 131.93"/>
              <polygon class="cls-40" points="100.82 66.94 99.16 65.97 185.67 16.03 187.33 16.99 100.82 66.94"/>
              <polygon class="cls-11" points="187.33 16.99 187.36 81.99 100.85 131.93 100.82 66.94 187.33 16.99"/>
              <polygon class="cls-31" points="101.2 67.24 186.94 17.74 186.93 72.89 101.19 122.39 101.2 67.24"/>
              <g>
                <g>
                  <g>
                    <g>
                      <polygon class="cls-10" points="153.87 65.37 136.93 75.15 136.93 55.94 153.87 46.16 153.87 65.37"/>
                      <g>
                        <path class="cls-51" d="M150.96,59.62l-.68,7.84,2.63-1.52c0-6.03-1.95-6.32-1.95-6.32Z"/>
                        <path class="cls-51" d="M139.76,66.08l.68,7.05-2.63,1.51c0-6.03,1.95-8.57,1.95-8.57Z"/>
                        <g>
                          <path class="cls-47" d="M142.84,63.42s1.92-1.61,5.05-2.92c.35,1.06,.23,2.28,.23,2.28,0,0-2.46,2.51-2.5,2.53s-1.93,.07-1.99,.08c-.06,.01-.55-.86-.56-.89,0-.02-.93,.08-.93,.08l.71-1.17Z"/>
                          <path class="cls-53" d="M143.37,60.66v2.38c0,1.72,3.81-.48,3.81-2.2v-3.11l-3.81,2.93Z"/>
                          <path class="cls-47" d="M148.23,55.94c0,2.03-1.35,5.68-3.02,6.64s-3.02-1.13-3.02-3.16,1.35-4.45,3.02-5.41,3.02-.1,3.02,1.93Z"/>
                          <path class="cls-25" d="M147.88,60.5c-.17,2.58-4.51,6.02-5.06,2.92,0,0-3.08,2.67-3.08,2.67v7.45l11.21-6.47v-7.45l-3.08,.88Z"/>
                          <path class="cls-30" d="M146.01,53.27c1.57-.71,2.15,.24,2.25,.84,.23,1.39-.04,3.11-.38,4.02,.08-.68,.17-2.13-.04-2.53-.08-.16-.26-.22-.46-.17-.97,.26-1.96,.65-2.95,1.15-.71,.36-1.5,.75-1.81,1.89-.31,1.13-.14,2.3,0,2.93,0,0-.95-1.14-.22-4.31,.08-.33,.22-.67,.4-.97,.1-.16,.21-.31,.32-.45,.07-.08,.36-.29,.39-.36,.38-.84,1.36-1.52,2.49-2.03Z"/>
                        </g>
                      </g>
                    </g>
                    <path class="cls-10" d="M136.71,75.53v-19.71l17.38-10.03v19.71l-17.38,10.03Zm.44-19.46v18.69l16.5-9.52v-18.69l-16.5,9.52Z"/>
                  </g>
                  <g>
                    <g>
                      <path class="cls-10" d="M153.05,75.35l-15.09,8.71c-.78,.45-1.41,.18-1.41-.59s.63-1.77,1.41-2.22l15.09-8.71c.78-.45,1.41-.18,1.41,.59s-.63,1.77-1.41,2.22Z"/>
                      <path class="cls-10" d="M153.05,80.26l-15.09,8.71c-.78,.45-1.41,.18-1.41-.59s.63-1.77,1.41-2.22l15.09-8.71c.78-.45,1.41-.18,1.41,.59s-.63,1.77-1.41,2.22Z"/>
                      <path class="cls-31" d="M148.74,87.69l-4.28,2.47c-.78,.45-1.41,.18-1.41-.59s.63-1.77,1.41-2.22l4.28-2.47c.78-.45,1.41-.18,1.41,.59s-.63,1.77-1.41,2.22Z"/>
                    </g>
                    <path class="cls-23" d="M138.28,87.38c0,.19-.15,.43-.34,.54-.19,.11-.34,.04-.34-.15s.15-.43,.34-.54c.19-.11,.34-.04,.34,.15Z"/>
                    <path class="cls-23" d="M139.7,86.56c0,.19-.15,.43-.34,.54-.19,.11-.34,.04-.34-.15s.15-.43,.34-.54c.19-.11,.34-.04,.34,.15Z"/>
                    <path class="cls-23" d="M141.12,85.74c0,.19-.15,.43-.34,.54-.19,.11-.34,.04-.34-.15s.15-.43,.34-.54c.19-.11,.34-.04,.34,.15Z"/>
                    <path class="cls-23" d="M142.54,84.92c0,.19-.15,.43-.34,.54-.19,.11-.34,.04-.34-.15s.15-.43,.34-.54c.19-.11,.34-.04,.34,.15Z"/>
                    <path class="cls-23" d="M143.96,84.1c0,.19-.15,.43-.34,.54-.19,.11-.34,.04-.34-.15s.15-.43,.34-.54c.19-.11,.34-.04,.34,.15Z"/>
                    <path class="cls-23" d="M145.38,83.28c0,.19-.15,.43-.34,.54-.19,.11-.34,.04-.34-.15s.15-.43,.34-.54c.19-.11,.34-.04,.34,.15Z"/>
                    <path class="cls-23" d="M146.8,82.45c0,.19-.15,.43-.34,.54-.19,.11-.34,.04-.34-.15s.15-.43,.34-.54c.19-.11,.34-.04,.34,.15Z"/>
                    <path class="cls-23" d="M148.22,81.63c0,.19-.15,.43-.34,.54-.19,.11-.34,.04-.34-.15s.15-.43,.34-.54,.34-.04,.34,.15Z"/>
                    <polygon class="cls-10" points="147.93 87.17 145.24 88.72 145.24 87.9 147.93 86.34 147.93 87.17"/>
                  </g>
                </g>
                <g>
                  <path class="cls-10" d="M141.72,76.6l-.69,.4s-.06,.02-.06-.02v-.16s.02-.06,.06-.09l.63-.36c.16-.09,.24-.19,.24-.29,0-.13-.06-.16-.18-.14l-.41,.07c-.13,.02-.22,.02-.28-.01-.06-.03-.09-.1-.09-.2,0-.28,.18-.52,.53-.73l.62-.36s.06-.02,.06,.02v.16s-.02,.07-.06,.09l-.55,.32c-.07,.04-.13,.09-.17,.13-.04,.05-.06,.09-.06,.12,0,.1,.06,.13,.19,.11l.41-.06c.13-.03,.22-.02,.27,.02,.05,.04,.07,.11,.07,.22,0,.28-.19,.53-.56,.74Z"/>
                  <path class="cls-10" d="M142.73,74.65l-.18,.1s-.04,.02-.05,.02c-.01-.03-.01-.2-.01-.2,0-.04,.02-.07,.06-.09l.18-.1s.04-.03,.04-.05v-.29s.02-.07,.07-.09l.24-.14s.06-.02,.06,.02v.29s.01,.02,.04,0l.35-.2s.07-.02,.07,.02v.17s-.02,.06-.07,.09l-.35,.2s-.04,.03-.04,.06v.83c0,.16,.09,.18,.28,.07l.15-.08s.07-.02,.07,.02v.17s-.02,.06-.07,.09l-.2,.12c-.18,.11-.33,.15-.43,.12-.1-.03-.16-.12-.16-.27v-.85s-.01-.03-.04-.01Z"/>
                  <path class="cls-10" d="M145.33,74.52l-.81,.47c-.18,.11-.33,.14-.43,.11-.1-.03-.15-.12-.15-.28v-.65c0-.16,.05-.31,.15-.46,.1-.15,.24-.27,.43-.38l.31-.18c.18-.11,.33-.15,.43-.12,.1,.03,.15,.12,.15,.28v.41s-.02,.07-.07,.1l-1,.58s-.04,.03-.04,.06v.14c0,.16,.09,.18,.27,.08l.76-.44s.07-.02,.07,.02v.16s-.02,.06-.07,.09Zm-.99-.33l.67-.39s.04-.03,.04-.05v-.21c0-.08-.02-.13-.06-.14-.04-.01-.11,0-.21,.06l-.21,.12c-.09,.05-.16,.11-.21,.18-.04,.06-.06,.13-.06,.22v.21s.01,.03,.04,.01Z"/>
                  <path class="cls-10" d="M146.12,74.52l-.24,.14s-.06,.02-.06-.02v-2s.02-.07,.06-.09l.24-.14s.06-.02,.06,.02v.12c.07-.16,.2-.29,.39-.4l.19-.11c.18-.1,.32-.14,.41-.11,.1,.03,.14,.13,.14,.29v.65c0,.16-.05,.31-.14,.45-.1,.14-.23,.27-.41,.37l-.19,.11c-.19,.11-.32,.13-.38,.05-.02,0-.02,.58-.02,.58,0,.04-.02,.07-.06,.09Zm.37-.95l.2-.11c.18-.1,.27-.24,.27-.4v-.62c0-.16-.09-.19-.27-.08l-.2,.11c-.2,.12-.31,.27-.31,.45v.55c0,.18,.1,.22,.31,.1Z"/>
                  <path class="cls-10" d="M148.52,71.11v-.19s.02-.07,.05-.11l.39-.43c.05-.05,.09-.09,.12-.11l.22-.13s.06-.02,.06,.02v1.97s-.02,.07-.06,.09l-.24,.14s-.06,.02-.06-.02v-1.69l-.41,.44s-.07,.05-.07,.01Z"/>
                </g>
                <g>
                  <path class="cls-23" d="M137.66,82.32v.83c0,.18,.11,.21,.27,.11,.2-.11,.3-.28,.35-.39v-.91l.17-.1v1.2s-.12,.08-.12,.08l-.03-.15c-.07,.15-.21,.31-.42,.44-.25,.15-.38,.06-.38-.17v-.85l.16-.09Z"/>
                  <path class="cls-23" d="M139.53,82.12c0-.17-.1-.15-.34-.03-.34,.17-.44,.11-.44-.07,0-.22,.17-.46,.47-.63,.34-.2,.47-.1,.47,.14,0,0-.16,.1-.16,.1,0-.17-.07-.24-.31-.11-.19,.11-.3,.25-.3,.38,0,.13,.06,.16,.33,.02,.31-.16,.45-.15,.45,.07s-.17,.47-.48,.65c-.36,.21-.48,.08-.48-.11,0,0,.17-.11,.17-.11,0,.13,.07,.22,.32,.08,.2-.12,.31-.27,.31-.4Z"/>
                  <path class="cls-23" d="M140.12,81.57c0,.26,.12,.36,.37,.21,.25-.15,.36-.35,.36-.48l.16-.09c0,.2-.16,.51-.51,.71-.38,.22-.54,.04-.54-.29v-.05c0-.34,.16-.7,.53-.91,.37-.21,.53-.03,.53,.3v.09l-.89,.51Zm0-.13l.72-.42c0-.26-.12-.36-.36-.22-.24,.14-.35,.37-.36,.64Z"/>
                  <path class="cls-23" d="M141.82,79.9v.15c-.22,.13-.31,.29-.37,.4v.9l-.17,.1v-1.2s.12-.08,.12-.08l.02,.15c.07-.14,.18-.29,.35-.39,.02,0,.03-.02,.04-.02Z"/>
                  <path class="cls-23" d="M142.86,80.53v-.83c0-.18-.11-.21-.27-.11-.2,.11-.29,.28-.35,.39v.91l-.17,.1v-1.2s.12-.08,.12-.08l.02,.16c.07-.15,.21-.32,.42-.44,.25-.14,.38-.06,.38,.17v.85l-.17,.1Z"/>
                  <path class="cls-23" d="M144.08,79.65c-.08,.15-.23,.32-.44,.45-.23,.13-.36,.07-.36-.12,0-.29,.21-.48,.41-.63l.38-.28c0-.24-.07-.31-.29-.18-.24,.14-.29,.3-.29,.46l-.16,.09c0-.2,.08-.47,.45-.69,.35-.2,.46-.08,.46,.19v.78s-.12,.08-.12,.08l-.03-.15Zm-.02-.13v-.33l-.37,.27c-.16,.12-.26,.25-.26,.39,0,.13,.07,.19,.24,.09,.23-.13,.34-.32,.38-.41Z"/>
                  <path class="cls-23" d="M145.98,78.73v-.86c0-.19-.1-.18-.24-.1-.18,.1-.26,.26-.31,.36v.91l-.17,.1v-.86c0-.19-.1-.18-.24-.1-.18,.1-.26,.26-.31,.36v.91l-.17,.1v-1.2s.12-.08,.12-.08l.02,.15c.07-.14,.19-.3,.39-.41,.17-.1,.28-.09,.32,.01,.07-.15,.19-.31,.4-.43,.23-.13,.35-.07,.35,.16v.88l-.17,.1Z"/>
                  <path class="cls-23" d="M146.58,77.84c0,.26,.12,.36,.37,.21s.36-.35,.36-.48l.16-.09c0,.2-.16,.51-.51,.71-.38,.22-.54,.04-.54-.29v-.05c0-.34,.16-.7,.53-.91,.37-.21,.53-.03,.53,.3v.09l-.89,.51Zm0-.13l.72-.42c0-.26-.12-.36-.36-.22-.24,.14-.35,.37-.36,.64Z"/>
                </g>
              </g>
              <g class="cls-59">
                <polygon class="cls-5" points="130.99 50.04 165.95 85 186.93 72.89 186.94 17.74 130.99 50.04"/>
              </g>
            </g>
            <path class="cls-31" d="M149.75,99.06l-3.05,1.76c-.42,.24-.76,.1-.76-.32s.34-.95,.76-1.2l3.05-1.76c.42-.24,.76-.1,.76,.32s-.34,.95-.76,1.2Z"/>
          </g>
          <g>
            <path class="cls-12" d="M188.2,129.27l-15.98-9.22c-.43-.25-1.13-.25-1.56,0l-49.83,28.77c-.21,.12-.31,.27-.32,.43v.85c0,.16,.11,.33,.32,.45l15.98,9.22c.43,.25,1.13,.25,1.56,0l49.83-28.77c.21-.12,.32-.29,.32-.45v-.82c0-.16-.11-.33-.32-.45Z"/>
            <g>
              <path class="cls-66" d="M188.2,130.16l-49.83,28.77c-.43,.25-1.13,.25-1.56,0l-15.98-9.22c-.43-.25-.43-.65,0-.9l49.83-28.77c.43-.25,1.13-.25,1.56,0l15.98,9.22c.43,.25,.43,.65,0,.9Z"/>
              <path class="cls-52" d="M163.59,125.9s0-.05,0-.07c0-.02,0-.05,0-.07-.02-.09,.02-.18,.14-.24l2.05-1.18c.2-.11,.52-.11,.72,0l1.72,.99c.12,.07,.16,.16,.14,.24,0,.02,0,.05,0,.07,0,.02,0,.05,0,.07,.02,.09-.02,.18-.14,.24l-2.05,1.18c-.2,.11-.52,.11-.72,0l-1.72-.99c-.12-.07-.16-.16-.14-.24Zm3.44-1.66l1.72,.99c.2,.11,.52,.11,.72,0l2.05-1.18c.12-.07,.16-.16,.14-.24,0-.02,0-.05,0-.07,0-.02,0-.05,0-.07,.02-.09-.02-.18-.14-.24l-1.72-.99c-.2-.11-.52-.11-.72,0l-2.05,1.18c-.12,.07-.16,.16-.14,.24,0,.02,0,.05,0,.07,0,.02,0,.05,0,.07-.02,.09,.02,.18,.14,.24Zm-6.61,3.81l1.72,.99c.2,.11,.52,.11,.72,0l2.05-1.18c.12-.07,.16-.16,.14-.24,0-.02,0-.05,0-.07,0-.02,0-.05,0-.07,.02-.09-.02-.18-.14-.24l-1.72-.99c-.2-.11-.52-.11-.72,0l-2.05,1.18c-.12,.07-.16,.16-.14,.24,0,.02,0,.05,0,.07,0,.02,0,.05,0,.07-.02,.09,.02,.18,.14,.24Zm-26.63,22.29l1.72,.99c.2,.11,.52,.11,.72,0l2.05-1.18c.12-.07,.16-.16,.14-.24,0-.02,0-.05,0-.07,0-.02,0-.05,0-.07,.02-.09-.02-.18-.14-.24l-1.72-.99c-.2-.11-.52-.11-.72,0l-2.05,1.18c-.12,.07-.16,.16-.14,.24,0,.02,0,.05,0,.07,0,.02,0,.05,0,.07-.02,.09,.02,.18,.14,.24Zm7.21-11.1l1.72,.99c.2,.11,.52,.11,.72,0l2.05-1.18c.12-.07,.16-.16,.14-.24,0-.02,0-.05,0-.07,0-.02,0-.05,0-.07,.02-.09-.02-.18-.14-.24l-1.72-.99c-.2-.11-.52-.11-.72,0l-2.05,1.18c-.12,.07-.16,.16-.14,.24,0,.02,0,.05,0,.07,0,.02,0,.05,0,.07-.02,.09,.02,.18,.14,.24Zm6.61-3.81l1.72,.99c.2,.11,.52,.11,.72,0l2.05-1.18c.12-.07,.16-.16,.14-.24,0-.02,0-.05,0-.07,0-.02,0-.05,0-.07,.02-.09-.02-.18-.14-.24l-1.72-.99c-.2-.11-.52-.11-.72,0l-2.05,1.18c-.12,.07-.16,.16-.14,.24,0,.02,0,.05,0,.07,0,.02,0,.05,0,.07-.02,.09,.02,.18,.14,.24Zm6.61-3.81l1.72,.99c.2,.11,.52,.11,.72,0l3.11-1.8c.12-.07,.16-.16,.14-.24,0-.02,0-.05,0-.07,0-.02,0-.05,0-.07,.02-.09-.02-.18-.14-.24l-1.72-.99c-.2-.11-.52-.11-.72,0l-3.11,1.8c-.12,.07-.16,.16-.14,.24,0,.02,0,.05,0,.07,0,.02,0,.05,0,.07-.02,.09,.02,.18,.14,.24Zm-3.3,1.91l1.72,.99c.2,.11,.52,.11,.72,0l2.05-1.18c.12-.07,.16-.16,.14-.24,0-.02,0-.05,0-.07,0-.02,0-.05,0-.07,.02-.09-.02-.18-.14-.24l-1.72-.99c-.2-.11-.52-.11-.72,0l-2.05,1.18c-.12,.07-.16,.16-.14,.24,0,.02,0,.05,0,.07,0,.02,0,.05,0,.07-.02,.09,.02,.18,.14,.24Zm-6.61,3.81l1.72,.99c.2,.11,.52,.11,.72,0l2.05-1.18c.12-.07,.16-.16,.14-.24,0-.02,0-.05,0-.07,0-.02,0-.05,0-.07,.02-.09-.02-.18-.14-.24l-1.72-.99c-.2-.11-.52-.11-.72,0l-2.05,1.18c-.12,.07-.16,.16-.14,.24,0,.02,0,.05,0,.07,0,.02,0,.05,0,.07-.02,.09,.02,.18,.14,.24Zm14.05-4.61l1.72,.99c.2,.11,.52,.11,.72,0l2.05-1.18c.12-.07,.16-.16,.14-.24,0-.02,0-.05,0-.07,0-.02,0-.05,0-.07,.02-.09-.02-.18-.14-.24l-1.72-.99c-.2-.11-.52-.11-.72,0l-2.05,1.18c-.12,.07-.16,.16-.14,.24,0,.02,0,.05,0,.07,0,.02,0,.05,0,.07-.02,.09,.02,.18,.14,.24Zm-26.43,15.26l1.72,.99c.2,.11,.52,.11,.72,0l2.05-1.18c.12-.07,.16-.16,.14-.24,0-.02,0-.05,0-.07,0-.02,0-.05,0-.07,.02-.09-.02-.18-.14-.24l-1.72-.99c-.2-.11-.52-.11-.72,0l-2.05,1.18c-.12,.07-.16,.16-.14,.24,0,.02,0,.05,0,.07,0,.02,0,.05,0,.07-.02,.09,.02,.18,.14,.24Zm23.13-13.35l1.72,.99c.2,.11,.52,.11,.72,0l2.05-1.18c.12-.07,.16-.16,.14-.24,0-.02,0-.05,0-.07,0-.02,0-.05,0-.07,.02-.09-.02-.18-.14-.24l-1.72-.99c-.2-.11-.52-.11-.72,0l-2.05,1.18c-.12,.07-.16,.16-.14,.24,0,.02,0,.05,0,.07,0,.02,0,.05,0,.07-.02,.09,.02,.18,.14,.24Zm-3.3,1.91l1.72,.99c.2,.11,.52,.11,.72,0l2.05-1.18c.12-.07,.16-.16,.14-.24,0-.02,0-.05,0-.07,0-.02,0-.05,0-.07,.02-.09-.02-.18-.14-.24l-1.72-.99c-.2-.11-.52-.11-.72,0l-2.05,1.18c-.12,.07-.16,.16-.14,.24,0,.02,0,.05,0,.07,0,.02,0,.05,0,.07-.02,.09,.02,.18,.14,.24Zm-3.3,1.91l1.72,.99c.2,.11,.52,.11,.72,0l2.05-1.18c.12-.07,.16-.16,.14-.24,0-.02,0-.05,0-.07,0-.02,0-.05,0-.07,.02-.09-.02-.18-.14-.24l-1.72-.99c-.2-.11-.52-.11-.72,0l-2.05,1.18c-.12,.07-.16,.16-.14,.24,0,.02,0,.05,0,.07,0,.02,0,.05,0,.07-.02,.09,.02,.18,.14,.24Zm-13.21,7.63l1.72,.99c.2,.11,.52,.11,.72,0l2.05-1.18c.12-.07,.16-.16,.14-.24,0-.02,0-.05,0-.07,0-.02,0-.05,0-.07,.02-.09-.02-.18-.14-.24l-1.72-.99c-.2-.11-.52-.11-.72,0l-2.05,1.18c-.12,.07-.16,.16-.14,.24,0,.02,0,.05,0,.07,0,.02,0,.05,0,.07-.02,.09,.02,.18,.14,.24Zm3.3-1.91l1.72,.99c.2,.11,.52,.11,.72,0l2.05-1.18c.12-.07,.16-.16,.14-.24,0-.02,0-.05,0-.07,0-.02,0-.05,0-.07,.02-.09-.02-.18-.14-.24-2.53-1.46-1.68-1.43-4.49,.19-.12,.07-.16,.16-.14,.24,0,.02,0,.05,0,.07,0,.02,0,.05,0,.07-.02,.09,.02,.18,.14,.24Zm3.3-1.91l1.72,.99c.2,.11,.52,.11,.72,0l2.05-1.18c.12-.07,.16-.16,.14-.24,0-.02,0-.05,0-.07,0-.02,0-.05,0-.07,.02-.09-.02-.18-.14-.24l-1.72-.99c-.2-.11-.52-.11-.72,0l-2.05,1.18c-.12,.07-.16,.16-.14,.24,0,.02,0,.05,0,.07,0,.02,0,.05,0,.07-.02,.09,.02,.18,.14,.24Zm3.3-1.91c1.69,.98,1.98,1.26,2.44,.99l2.05-1.18c.12-.07,.16-.16,.14-.24,0-.02,0-.05,0-.07,0-.02,0-.05,0-.07,.02-.09-.02-.18-.14-.24l-1.72-.99c-.2-.11-.52-.11-.72,0l-2.05,1.18c-.12,.07-.16,.16-.14,.24,0,.02,0,.05,0,.07,0,.02,0,.05,0,.07-.02,.09,.02,.18,.14,.24Zm-5.89,12.57s0-.05,0-.07c0-.02,0-.05,0-.07,.02-.09-.02-.18-.14-.24l-1.72-.99c-.2-.11-.52-.11-.72,0l-3.11,1.8c-.12,.07-.16,.16-.14,.24,0,.02,0,.05,0,.07,0,.02,0,.05,0,.07-.02,.09,.02,.18,.14,.24l1.72,.99c.2,.11,.52,.11,.72,0l3.11-1.8c.12-.07,.16-.16,.14-.24Zm-4.14-1.11s0-.05,0-.07c0-.02,0-.05,0-.07,.02-.09-.02-.18-.14-.24l-1.72-.99c-.2-.11-.52-.11-.72,0l-2.05,1.18c-.12,.07-.16,.16-.14,.24,0,.02,0,.05,0,.07,0,.02,0,.05,0,.07-.02,.09,.02,.18,.14,.24l1.72,.99c.2,.11,.52,.11,.72,0l2.05-1.18c.12-.07,.16-.16,.14-.24Zm2.59-10.67c2.48,1.43,1.62,1.47,4.49-.19,.12-.07,.16-.16,.14-.24,0-.02,0-.05,0-.07,0-.02,0-.05,0-.07,.02-.09-.02-.18-.14-.24l-1.72-.99c-.2-.11-.52-.11-.72,0l-2.05,1.18c-.12,.07-.16,.16-.14,.24,0,.02,0,.05,0,.07,0,.02,0,.05,0,.07-.02,.09,.02,.18,.14,.24Zm36.39-8.31s0-.05,0-.07c0-.02,0-.05,0-.07,.02-.09-.02-.18-.14-.24l-1.72-.99c-.2-.11-.52-.11-.72,0l-2.05,1.18c-.12,.07-.16,.16-.14,.24,0,.02,0,.05,0,.07,0,.02,0,.05,0,.07-.02,.09,.02,.18,.14,.24l1.72,.99c.2,.11,.52,.11,.72,0l2.05-1.18c.12-.07,.16-.16,.14-.24Zm-40.84,16.62s0-.05,0-.07c0-.02,0-.05,0-.07,.02-.09-.02-.18-.14-.24l-1.72-.99c-.2-.11-.52-.11-.72,0l-3.11,1.8c-.12,.07-.16,.16-.14,.24,0,.02,0,.05,0,.07,0,.02,0,.05,0,.07-.02,.09,.02,.18,.14,.24l1.72,.99c.2,.11,.52,.11,.72,0l3.11-1.8c.12-.07,.16-.16,.14-.24Zm1.14-6.4l1.72,.99c.2,.11,.52,.11,.72,0l2.05-1.18c.12-.07,.16-.16,.14-.24,0-.02,0-.05,0-.07,0-.02,0-.05,0-.07,.02-.09-.02-.18-.14-.24l-1.72-.99c-.2-.11-.52-.11-.72,0l-2.05,1.18c-.12,.07-.16,.16-.14,.24,0,.02,0,.05,0,.07,0,.02,0,.05,0,.07-.02,.09,.02,.18,.14,.24Zm-3.3,1.91l1.72,.99c.2,.11,.52,.11,.72,0l2.05-1.18c.12-.07,.16-.16,.14-.24,0-.02,0-.05,0-.07,0-.02,0-.05,0-.07,.02-.09-.02-.18-.14-.24l-1.72-.99c-.2-.11-.52-.11-.72,0l-2.05,1.18c-.12,.07-.16,.16-.14,.24,0,.02,0,.05,0,.07,0,.02,0,.05,0,.07-.02,.09,.02,.18,.14,.24Zm-1.98,3.38s0-.05,0-.07c0-.02,0-.05,0-.07,.02-.09-.02-.18-.14-.24l-1.72-.99c-.2-.11-.52-.11-.72,0l-2.05,1.18c-.12,.07-.16,.16-.14,.24,0,.02,0,.05,0,.07,0,.02,0,.05,0,.07-.02,.09,.02,.18,.14,.24l1.72,.99c.2,.11,.52,.11,.72,0l2.05-1.18c.12-.07,.16-.16,.14-.24Zm-1.32-1.48l1.72,.99c.2,.11,.52,.11,.72,0l2.05-1.18c.12-.07,.16-.16,.14-.24,0-.02,0-.05,0-.07,0-.02,0-.05,0-.07,.02-.09-.02-.18-.14-.24l-1.72-.99c-.2-.11-.52-.11-.72,0l-2.05,1.18c-.12,.07-.16,.16-.14,.24,0,.02,0,.05,0,.07,0,.02,0,.05,0,.07-.02,.09,.02,.18,.14,.24Zm55.93-16.24c.02-.09-.02-.18-.14-.24l-1.72-.99c-.2-.11-.52-.11-.72,0l-2.05,1.18c-.12,.07-.16,.16-.14,.24,0,.02,0,.05,0,.07,0,.02,0,.05,0,.07-.02,.09,.02,.18,.14,.24l1.72,.99c.2,.11,.52,.11,.72,0l2.05-1.18c.12-.07,.16-.16,.14-.24,0-.02,0-.05,0-.07,0-.02,0-.05,0-.07Zm-11.93-3.19l-2.27-1.31c-.25-.14-.65-.14-.89,0l-5.18,2.99c-.14,.08-.19,.19-.17,.29,0,.02,0,.05,0,.07,0,.02,0,.05,0,.07-.02,.1,.03,.21,.17,.29l4.52,2.61c.25,.14,.65,.14,.89,0l8.6-4.97c.14-.08,.19-.19,.17-.29,0-.02,0-.05,0-.07,0-.02,0-.05,0-.07,.02-.1-.03-.21-.17-.29l-1.68-.97c-.16-.09-.43-.1-.6,0l-2.89,1.64c-.14,.08-.36,.08-.5,0Zm-2.94,7.94l-1.72-.99c-.2-.11-.52-.11-.72,0l-2.05,1.18c-.12,.07-.16,.16-.14,.24,0,.02,0,.05,0,.07,0,.02,0,.05,0,.07-.02,.09,.02,.18,.14,.24l1.72,.99c.2,.11,.52,.11,.72,0l2.05-1.18c.12-.07,.16-.16,.14-.24,0-.02,0-.05,0-.07,0-.02,0-.05,0-.07,.02-.09-.02-.18-.14-.24Zm8.41-4.83l-1.72-.99c-.2-.11-.52-.11-.72,0l-2.05,1.18c-.12,.07-.16,.16-.14,.24,0,.02,0,.05,0,.07,0,.02,0,.05,0,.07-.02,.09,.02,.18,.14,.24l1.72,.99c.2,.11,.52,.11,.72,0l2.05-1.18c.12-.07,.16-.16,.14-.24,0-.02,0-.05,0-.07,0-.02,0-.05,0-.07,.02-.09-.02-.18-.14-.24Zm-15.01,8.64l-1.72-.99c-.2-.11-.52-.11-.72,0l-2.05,1.18c-.12,.07-.16,.16-.14,.24,0,.02,0,.05,0,.07,0,.02,0,.05,0,.07-.02,.09,.02,.18,.14,.24l1.72,.99c.2,.11,.52,.11,.72,0l2.05-1.18c.12-.07,.16-.16,.14-.24,0-.02,0-.05,0-.07,0-.02,0-.05,0-.07,.02-.09-.02-.18-.14-.24Zm13.69-10.12s0,.05,0,.07c0,.02,0,.05,0,.07-.02,.09,.02,.18,.14,.24l1.72,.99c.2,.11,.52,.11,.72,0l2.05-1.18c.12-.07,.16-.16,.14-.24,0-.02,0-.05,0-.07,0-.02,0-.05,0-.07,.02-.09-.02-.18-.14-.24l-1.72-.99c-.2-.11-.52-.11-.72,0l-2.05,1.18c-.12,.07-.16,.16-.14,.24Zm-26.91,17.75l-1.72-.99c-.2-.11-.52-.11-.72,0l-2.05,1.18c-.12,.07-.16,.16-.14,.24,0,.02,0,.05,0,.07,0,.02,0,.05,0,.07-.02,.09,.02,.18,.14,.24l1.72,.99c.2,.11,.52,.11,.72,0l2.05-1.18c.12-.07,.16-.16,.14-.24,0-.02,0-.05,0-.07,0-.02,0-.05,0-.07,.02-.09-.02-.18-.14-.24Zm6.61-3.81l-1.72-.99c-.2-.11-.52-.11-.72,0l-2.05,1.18c-.12,.07-.16,.16-.14,.24,0,.02,0,.05,0,.07,0,.02,0,.05,0,.07-.02,.09,.02,.18,.14,.24l1.72,.99c.2,.11,.52,.11,.72,0l2.05-1.18c.12-.07,.16-.16,.14-.24,0-.02,0-.05,0-.07,0-.02,0-.05,0-.07,.02-.09-.02-.18-.14-.24Zm-3.3,1.91l-1.72-.99c-.2-.11-.52-.11-.72,0l-2.05,1.18c-.12,.07-.16,.16-.14,.24,0,.02,0,.05,0,.07,0,.02,0,.05,0,.07-.02,.09,.02,.18,.14,.24l1.72,.99c.2,.11,.52,.11,.72,0l2.05-1.18c.12-.07,.16-.16,.14-.24,0-.02,0-.05,0-.07,0-.02,0-.05,0-.07,.02-.09-.02-.18-.14-.24Zm-6.61,3.81l-1.72-.99c-.2-.11-.52-.11-.72,0l-2.05,1.18c-.12,.07-.16,.16-.14,.24,0,.02,0,.05,0,.07,0,.02,0,.05,0,.07-.02,.09,.02,.18,.14,.24l1.72,.99c.2,.11,.52,.11,.72,0l2.05-1.18c.12-.07,.16-.16,.14-.24,0-.02,0-.05,0-.07,0-.02,0-.05,0-.07,.02-.09-.02-.18-.14-.24Zm-3.3,1.91l-1.72-.99c-.2-.11-.52-.11-.72,0l-2.05,1.18c-.12,.07-.16,.16-.14,.24,0,.02,0,.05,0,.07,0,.02,0,.05,0,.07-.02,.09,.02,.18,.14,.24l1.72,.99c.2,.11,.52,.11,.72,0l2.05-1.18c.12-.07,.16-.16,.14-.24,0-.02,0-.05,0-.07,0-.02,0-.05,0-.07,.02-.09-.02-.18-.14-.24Zm16.52-9.54l-1.72-.99c-.2-.11-.52-.11-.72,0l-2.05,1.18c-.12,.07-.16,.16-.14,.24,0,.02,0,.05,0,.07,0,.02,0,.05,0,.07-.02,.09,.02,.18,.14,.24l1.72,.99c.2,.11,.52,.11,.72,0l2.05-1.18c.12-.07,.16-.16,.14-.24,0-.02,0-.05,0-.07,0-.02,0-.05,0-.07,.02-.09-.02-.18-.14-.24Zm6.61-3.81l-1.72-.99c-.2-.11-.52-.11-.72,0l-2.05,1.18c-.12,.07-.16,.16-.14,.24,0,.02,0,.05,0,.07,0,.02,0,.05,0,.07-.02,.09,.02,.18,.14,.24l1.72,.99c.2,.11,.52,.11,.72,0l2.05-1.18c.12-.07,.16-.16,.14-.24,0-.02,0-.05,0-.07,0-.02,0-.05,0-.07,.02-.09-.02-.18-.14-.24Zm-17.97,13.79l-1.72-.99c-.2-.11-.52-.11-.72,0l-2.05,1.18c-.12,.07-.16,.16-.14,.24,0,.02,0,.05,0,.07,0,.02,0,.05,0,.07-.02,.09,.02,.18,.14,.24l1.72,.99c.2,.11,.52,.11,.72,0l2.05-1.18c.12-.07,.16-.16,.14-.24,0-.02,0-.05,0-.07,0-.02,0-.05,0-.07,.02-.09-.02-.18-.14-.24Zm3.3-1.91l-1.72-.99c-.2-.11-.52-.11-.72,0l-2.05,1.18c-.12,.07-.16,.16-.14,.24,0,.02,0,.05,0,.07,0,.02,0,.05,0,.07-.02,.09,.02,.18,.14,.24l1.72,.99c.2,.11,.52,.11,.72,0l2.05-1.18c.12-.07,.16-.16,.14-.24,0-.02,0-.05,0-.07,0-.02,0-.05,0-.07,.02-.09-.02-.18-.14-.24Zm-6.61,3.81l-1.72-.99c-.2-.11-.52-.11-.72,0l-2.05,1.18c-.12,.07-.16,.16-.14,.24,0,.02,0,.05,0,.07,0,.02,0,.05,0,.07-.02,.09,.02,.18,.14,.24l1.72,.99c.2,.11,.52,.11,.72,0l2.05-1.18c.12-.07,.16-.16,.14-.24,0-.02,0-.05,0-.07,0-.02,0-.05,0-.07,.02-.09-.02-.18-.14-.24Zm-3.3,1.91l-1.72-.99c-.2-.11-.52-.11-.72,0l-2.05,1.18c-.12,.07-.16,.16-.14,.24,0,.02,0,.05,0,.07,0,.02,0,.05,0,.07-.02,.09,.02,.18,.14,.24l1.72,.99c.2,.11,.52,.11,.72,0l2.05-1.18c.12-.07,.16-.16,.14-.24,0-.02,0-.05,0-.07,0-.02,0-.05,0-.07,.02-.09-.02-.18-.14-.24Zm24.81-21.24l-1.72-.99c-.2-.11-.52-.11-.72,0l-3.11,1.8c-.12,.07-.16,.16-.14,.24,0,.02,0,.05,0,.07,0,.02,0,.05,0,.07-.02,.09,.02,.18,.14,.24l1.72,.99c.2,.11,.52,.11,.72,0l3.11-1.8c.12-.07,.16-.16,.14-.24,0-.02,0-.05,0-.07,0-.02,0-.05,0-.07,.02-.09-.02-.18-.14-.24Zm5.97,3.47l-1.72-.99c-.2-.11-.52-.11-.72,0l-3.11,1.8c-.12,.07-.16,.16-.14,.24,0,.02,0,.05,0,.07,0,.02,0,.05,0,.07-.02,.09,.02,.18,.14,.24l1.72,.99c.2,.11,.52,.11,.72,0l3.11-1.8c.12-.07,.16-.16,.14-.24,0-.02,0-.05,0-.07,0-.02,0-.05,0-.07,.02-.09-.02-.18-.14-.24Zm8.53-4.83l-1.72-.99c-.2-.11-.52-.11-.72,0l-2.05,1.18c-.12,.07-.16,.16-.14,.24,0,.02,0,.05,0,.07,0,.02,0,.05,0,.07-.02,.09,.02,.18,.14,.24l1.72,.99c.2,.11,.52,.11,.72,0l2.05-1.18c.12-.07,.16-.16,.14-.24,0-.02,0-.05,0-.07,0-.02,0-.05,0-.07,.02-.09-.02-.18-.14-.24Zm-3.3,1.91l-1.72-.99c-.2-.11-.52-.11-.72,0l-2.05,1.18c-.12,.07-.16,.16-.14,.24,0,.02,0,.05,0,.07,0,.02,0,.05,0,.07-.02,.09,.02,.18,.14,.24l1.72,.99c.2,.11,.52,.11,.72,0l2.05-1.18c.12-.07,.16-.16,.14-.24,0-.02,0-.05,0-.07,0-.02,0-.05,0-.07,.02-.09-.02-.18-.14-.24Zm-9.52,5.43l-1.72-.99c-.2-.11-.52-.11-.72,0l-15.3,8.83c-.12,.07-.16,.16-.14,.24,0,.02,0,.05,0,.07,0,.02,0,.05,0,.07-.02,.09,.02,.18,.14,.24l1.72,.99c.2,.11,.52,.11,.72,0l15.3-8.83c.12-.07,.16-.16,.14-.24,0-.02,0-.05,0-.07,0-.02,0-.05,0-.07,.02-.09-.02-.18-.14-.24Zm-12.65,.35l-1.72-.99c-.2-.11-.52-.11-.72,0l-2.05,1.18c-.12,.07-.16,.16-.14,.24,0,.02,0,.05,0,.07,0,.02,0,.05,0,.07-.02,.09,.02,.18,.14,.24l1.72,.99c.2,.11,.52,.11,.72,0l2.05-1.18c.12-.07,.16-.16,.14-.24,0-.02,0-.05,0-.07,0-.02,0-.05,0-.07,.02-.09-.02-.18-.14-.24Zm-3.3,1.91l-1.72-.99c-.2-.11-.52-.11-.72,0l-2.05,1.18c-.12,.07-.16,.16-.14,.24,0,.02,0,.05,0,.07,0,.02,0,.05,0,.07-.02,.09,.02,.18,.14,.24l1.72,.99c.2,.11,.52,.11,.72,0l2.05-1.18c.12-.07,.16-.16,.14-.24,0-.02,0-.05,0-.07,0-.02,0-.05,0-.07,.02-.09-.02-.18-.14-.24Zm6.61-3.81l-1.72-.99c-.2-.11-.52-.11-.72,0l-2.05,1.18c-.12,.07-.16,.16-.14,.24,0,.02,0,.05,0,.07,0,.02,0,.05,0,.07-.02,.09,.02,.18,.14,.24l1.72,.99c.2,.11,.52,.11,.72,0l2.05-1.18c.12-.07,.16-.16,.14-.24,0-.02,0-.05,0-.07,0-.02,0-.05,0-.07,.02-.09-.02-.18-.14-.24Zm11.81-12.49s0,.05,0,.07c0,.02,0,.05,0,.07-.02,.09,.02,.18,.14,.24l1.72,.99c.2,.11,.52,.11,.72,0l2.05-1.18c.12-.07,.16-.16,.14-.24,0-.02,0-.05,0-.07,0-.02,0-.05,0-.07,.02-.09-.02-.18-.14-.24l-1.72-.99c-.2-.11-.52-.11-.72,0l-2.05,1.18c-.12,.07-.16,.16-.14,.24Zm-8.5,10.58l-1.72-.99c-.2-.11-.52-.11-.72,0l-2.05,1.18c-.12,.07-.16,.16-.14,.24,0,.02,0,.05,0,.07,0,.02,0,.05,0,.07-.02,.09,.02,.18,.14,.24l1.72,.99c.2,.11,.52,.11,.72,0l2.05-1.18c.12-.07,.16-.16,.14-.24,0-.02,0-.05,0-.07,0-.02,0-.05,0-.07,.02-.09-.02-.18-.14-.24Zm-13.21,7.63l-1.72-.99c-.2-.11-.52-.11-.72,0l-2.05,1.18c-.12,.07-.16,.16-.14,.24,0,.02,0,.05,0,.07,0,.02,0,.05,0,.07-.02,.09,.02,.18,.14,.24l1.72,.99c.2,.11,.52,.11,.72,0l2.05-1.18c.12-.07,.16-.16,.14-.24,0-.02,0-.05,0-.07,0-.02,0-.05,0-.07,.02-.09-.02-.18-.14-.24Zm-6.61,3.81l-1.72-.99c-.2-.11-.52-.11-.72,0l-2.05,1.18c-.12,.07-.16,.16-.14,.24,0,.02,0,.05,0,.07,0,.02,0,.05,0,.07-.02,.09,.02,.18,.14,.24l1.72,.99c.2,.11,.52,.11,.72,0l2.05-1.18c.12-.07,.16-.16,.14-.24,0-.02,0-.05,0-.07,0-.02,0-.05,0-.07,.02-.09-.02-.18-.14-.24Zm3.3-1.91l-1.72-.99c-.2-.11-.52-.11-.72,0l-2.05,1.18c-.12,.07-.16,.16-.14,.24,0,.02,0,.05,0,.07,0,.02,0,.05,0,.07-.02,.09,.02,.18,.14,.24l1.72,.99c.2,.11,.52,.11,.72,0l2.05-1.18c.12-.07,.16-.16,.14-.24,0-.02,0-.05,0-.07,0-.02,0-.05,0-.07,.02-.09-.02-.18-.14-.24Z"/>
              <path class="cls-10" d="M128.97,148.29l-2.05,1.18c-.2,.11-.52,.11-.72,0l-1.72-.99c-.2-.11-.2-.3,0-.42l2.05-1.18c.2-.11,.52-.11,.72,0l1.72,.99c.2,.11,.2,.3,0,.42Zm3.3-2.32l-1.72-.99c-.2-.11-.52-.11-.72,0l-2.05,1.18c-.2,.11-.2,.3,0,.42l1.72,.99c.2,.11,.52,.11,.72,0l2.05-1.18c.2-.11,.2-.3,0-.42Zm3.3-1.91l-1.72-.99c-.2-.11-.52-.11-.72,0l-2.05,1.18c-.2,.11-.2,.3,0,.42l1.72,.99c.2,.11,.52,.11,.72,0l2.05-1.18c.2-.11,.2-.3,0-.42Zm3.3-1.91l-1.72-.99c-.2-.11-.52-.11-.72,0l-2.05,1.18c-.2,.11-.2,.3,0,.42l1.72,.99c.2,.11,.52,.11,.72,0l2.05-1.18c.2-.11,.2-.3,0-.42Zm3.3-1.91l-1.72-.99c-.2-.11-.52-.11-.72,0l-2.05,1.18c-.2,.11-.2,.3,0,.42l1.72,.99c.2,.11,.52,.11,.72,0l2.05-1.18c.2-.11,.2-.3,0-.42Zm3.3-1.91l-1.72-.99c-.2-.11-.52-.11-.72,0l-2.05,1.18c-.2,.11-.2,.3,0,.42l1.72,.99c.2,.11,.52,.11,.72,0l2.05-1.18c.2-.11,.2-.3,0-.42Zm3.3-1.91l-1.72-.99c-.2-.11-.52-.11-.72,0l-2.05,1.18c-.2,.11-.2,.3,0,.42l1.72,.99c.2,.11,.52,.11,.72,0l2.05-1.18c.2-.11,.2-.3,0-.42Zm3.3-1.91l-1.72-.99c-.2-.11-.52-.11-.72,0l-2.05,1.18c-.2,.11-.2,.3,0,.42l1.72,.99c.2,.11,.52,.11,.72,0l2.05-1.18c.2-.11,.2-.3,0-.42Zm3.3-1.91l-1.72-.99c-.2-.11-.52-.11-.72,0l-2.05,1.18c-.2,.11-.2,.3,0,.42l1.72,.99c.2,.11,.52,.11,.72,0l2.05-1.18c.2-.11,.2-.3,0-.42Zm4.37-2.52l-1.72-.99c-.2-.11-.52-.11-.72,0l-3.11,1.8c-.2,.11-.2,.3,0,.42l1.72,.99c.2,.11,.52,.11,.72,0l3.11-1.8c.2-.11,.2-.3,0-.42Zm14.18,2.27l-1.72-.99c-.2-.11-.52-.11-.72,0l-2.05,1.18c-.2,.11-.2,.3,0,.42l1.72,.99c.2,.11,.52,.11,.72,0l2.05-1.18c.2-.11,.2-.3,0-.42Zm3.3-1.91l-1.72-.99c-.2-.11-.52-.11-.72,0l-2.05,1.18c-.2,.11-.2,.3,0,.42l1.72,.99c.2,.11,.52,.11,.72,0l2.05-1.18c.2-.11,.2-.3,0-.42Zm3.3-1.91l-1.72-.99c-.2-.11-.52-.11-.72,0l-2.05,1.18c-.2,.11-.2,.3,0,.42l1.72,.99c.2,.11,.52,.11,.72,0l2.05-1.18c.2-.11,.2-.3,0-.42Zm-3.59,5.56l-1.72-.99c-.2-.11-.52-.11-.72,0l-2.05,1.18c-.2,.11-.2,.3,0,.42l1.72,.99c.2,.11,.52,.11,.72,0l2.05-1.18c.2-.11,.2-.3,0-.42Zm3.3-1.91l-1.72-.99c-.2-.11-.52-.11-.72,0l-2.05,1.18c-.2,.11-.2,.3,0,.42l1.72,.99c.2,.11,.52,.11,.72,0l2.05-1.18c.2-.11,.2-.3,0-.42Zm3.3-1.91l-1.72-.99c-.2-.11-.52-.11-.72,0l-2.05,1.18c-.2,.11-.2,.3,0,.42l1.72,.99c.2,.11,.52,.11,.72,0l2.05-1.18c.2-.11,.2-.3,0-.42Zm-50.47,18.69l-1.72-.99c-.2-.11-.52-.11-.72,0l-3.11,1.8c-.2,.11-.2,.3,0,.42l1.72,.99c.2,.11,.52,.11,.72,0l3.11-1.8c.2-.11,.2-.3,0-.42Zm3.3-1.91l-1.72-.99c-.2-.11-.52-.11-.72,0l-2.05,1.18c-.2,.11-.2,.3,0,.42l1.72,.99c.2,.11,.52,.11,.72,0l2.05-1.18c.2-.11,.2-.3,0-.42Zm3.3-1.91l-1.72-.99c-.2-.11-.52-.11-.72,0l-2.05,1.18c-.2,.11-.2,.3,0,.42l1.72,.99c.2,.11,.52,.11,.72,0l2.05-1.18c.2-.11,.2-.3,0-.42Zm3.3-1.91l-1.72-.99c-.2-.11-.52-.11-.72,0l-2.05,1.18c-.2,.11-.2,.3,0,.42l1.72,.99c.2,.11,.52,.11,.72,0l2.05-1.18c.2-.11,.2-.3,0-.42Zm3.3-1.91l-1.72-.99c-.2-.11-.52-.11-.72,0l-2.05,1.18c-.2,.11-.2,.3,0,.42l1.72,.99c.2,.11,.52,.11,.72,0l2.05-1.18c.2-.11,.2-.3,0-.42Zm3.3-1.91l-1.72-.99c-.2-.11-.52-.11-.72,0l-2.05,1.18c-.2,.11-.2,.3,0,.42l1.72,.99c.2,.11,.52,.11,.72,0l2.05-1.18c.2-.11,.2-.3,0-.42Zm3.3-1.91l-1.72-.99c-.2-.11-.52-.11-.72,0l-2.05,1.18c-.2,.11-.2,.3,0,.42l1.72,.99c.2,.11,.52,.11,.72,0l2.05-1.18c.2-.11,.2-.3,0-.42Zm3.3-1.91l-1.72-.99c-.2-.11-.52-.11-.72,0l-2.05,1.18c-.2,.11-.2,.3,0,.42l1.72,.99c.2,.11,.52,.11,.72,0l2.05-1.18c.2-.11,.2-.3,0-.42Zm3.3-1.91l-1.72-.99c-.2-.11-.52-.11-.72,0l-2.05,1.18c-.2,.11-.2,.3,0,.42l1.72,.99c.2,.11,.52,.11,.72,0l2.05-1.18c.2-.11,.2-.3,0-.42Zm3.3-1.91l-1.72-.99c-.2-.11-.52-.11-.72,0l-2.05,1.18c-.2,.11-.2,.3,0,.42l1.72,.99c.2,.11,.52,.11,.72,0l2.05-1.18c.2-.11,.2-.3,0-.42Zm-27.87,19.52l-1.72-.99c-.2-.11-.52-.11-.72,0l-2.05,1.18c-.2,.11-.2,.3,0,.42l1.72,.99c.2,.11,.52,.11,.72,0l2.05-1.18c.2-.11,.2-.3,0-.42Zm3.3-1.91l-1.72-.99c-.2-.11-.52-.11-.72,0l-2.05,1.18c-.2,.11-.2,.3,0,.42l1.72,.99c.2,.11,.52,.11,.72,0l2.05-1.18c.2-.11,.2-.3,0-.42Zm3.3-1.91l-1.72-.99c-.2-.11-.52-.11-.72,0l-2.05,1.18c-.2,.11-.2,.3,0,.42l1.72,.99c.2,.11,.52,.11,.72,0l2.05-1.18c.2-.11,.2-.3,0-.42Zm3.3-1.91l-1.72-.99c-.2-.11-.52-.11-.72,0l-2.05,1.18c-.2,.11-.2,.3,0,.42l1.72,.99c.2,.11,.52,.11,.72,0l2.05-1.18c.2-.11,.2-.3,0-.42Zm-3.92,9.18l-1.72-.99c-.2-.11-.52-.11-.72,0l-2.05,1.18c-.2,.11-.2,.3,0,.42l1.72,.99c.2,.11,.52,.11,.72,0l2.05-1.18c.2-.11,.2-.3,0-.42Zm3.3-1.91l-1.72-.99c-.2-.11-.52-.11-.72,0l-2.05,1.18c-.2,.11-.2,.3,0,.42l1.72,.99c.2,.11,.52,.11,.72,0l2.05-1.18c.2-.11,.2-.3,0-.42Zm3.3-1.91l-1.72-.99c-.2-.11-.52-.11-.72,0l-2.05,1.18c-.2,.11-.2,.3,0,.42l1.72,.99c.2,.11,.52,.11,.72,0l2.05-1.18c.2-.11,.2-.3,0-.42Zm3.3-1.91l-1.72-.99c-.2-.11-.52-.11-.72,0l-2.05,1.18c-.2,.11-.2,.3,0,.42l1.72,.99c.2,.11,.52,.11,.72,0l2.05-1.18c.2-.11,.2-.3,0-.42Zm20.87-12.05l-1.72-.99c-.2-.11-.52-.11-.72,0l-3.11,1.8c-.2,.11-.2,.3,0,.42l1.72,.99c.2,.11,.52,.11,.72,0l3.11-1.8c.2-.11,.2-.3,0-.42Zm-23.56,6.68l-1.72-.99c-.2-.11-.52-.11-.72,0l-2.05,1.18c-.2,.11-.2,.3,0,.42l1.72,.99c.2,.11,.52,.11,.72,0l2.05-1.18c.2-.11,.2-.3,0-.42Zm3.3-1.91l-1.72-.99c-.2-.11-.52-.11-.72,0l-2.05,1.18c-.2,.11-.2,.3,0,.42l1.72,.99c.2,.11,.52,.11,.72,0l2.05-1.18c.2-.11,.2-.3,0-.42Zm3.3-1.91l-1.72-.99c-.2-.11-.52-.11-.72,0l-2.05,1.18c-.2,.11-.2,.3,0,.42l1.72,.99c.2,.11,.52,.11,.72,0l2.05-1.18c.2-.11,.2-.3,0-.42Zm3.3-1.91l-1.72-.99c-.2-.11-.52-.11-.72,0l-2.05,1.18c-.2,.11-.2,.3,0,.42l1.72,.99c.2,.11,.52,.11,.72,0l2.05-1.18c.2-.11,.2-.3,0-.42Zm3.3-1.91l-1.72-.99c-.2-.11-.52-.11-.72,0l-2.05,1.18c-.2,.11-.2,.3,0,.42l1.72,.99c.2,.11,.52,.11,.72,0l2.05-1.18c.2-.11,.2-.3,0-.42Zm4.37-2.52l-1.72-.99c-.2-.11-.52-.11-.72,0l-3.11,1.8c-.2,.11-.2,.3,0,.42l1.72,.99c.2,.11,.52,.11,.72,0l3.11-1.8c.2-.11,.2-.3,0-.42Zm-26.66,18.89l-1.72-.99c-.2-.11-.52-.11-.72,0l-3.11,1.8c-.2,.11-.2,.3,0,.42l1.72,.99c.2,.11,.52,.11,.72,0l3.11-1.8c.2-.11,.2-.3,0-.42Zm3.3-1.91l-1.72-.99c-.2-.11-.52-.11-.72,0l-2.05,1.18c-.2,.11-.2,.3,0,.42l1.72,.99c.2,.11,.52,.11,.72,0l2.05-1.18c.2-.11,.2-.3,0-.42Zm3.3-1.91l-1.72-.99c-.2-.11-.52-.11-.72,0l-2.05,1.18c-.2,.11-.2,.3,0,.42l1.72,.99c.2,.11,.52,.11,.72,0l2.05-1.18c.2-.11,.2-.3,0-.42Zm3.3-1.91l-1.72-.99c-.2-.11-.52-.11-.72,0l-2.05,1.18c-.2,.11-.2,.3,0,.42l1.72,.99c.2,.11,.52,.11,.72,0l2.05-1.18c.2-.11,.2-.3,0-.42Zm3.3-1.91l-1.72-.99c-.2-.11-.52-.11-.72,0l-2.05,1.18c-.2,.11-.2,.3,0,.42l1.72,.99c.2,.11,.52,.11,.72,0l2.05-1.18c.2-.11,.2-.3,0-.42Zm15.12-5.28l-1.72-.99c-.2-.11-.52-.11-.72,0l-15.3,8.83c-.2,.11-.2,.3,0,.42l1.72,.99c.2,.11,.52,.11,.72,0l15.3-8.83c.2-.11,.2-.3,0-.42Zm-11.81,3.37l-1.72-.99c-.2-.11-.52-.11-.72,0l-2.05,1.18c-.2,.11-.2,.3,0,.42l1.72,.99c.2,.11,.52,.11,.72,0l2.05-1.18c.2-.11,.2-.3,0-.42Zm3.3-1.91l-1.72-.99c-.2-.11-.52-.11-.72,0l-2.05,1.18c-.2,.11-.2,.3,0,.42l1.72,.99c.2,.11,.52,.11,.72,0l2.05-1.18c.2-.11,.2-.3,0-.42Zm3.3-1.91l-1.72-.99c-.2-.11-.52-.11-.72,0l-2.05,1.18c-.2,.11-.2,.3,0,.42l1.72,.99c.2,.11,.52,.11,.72,0l2.05-1.18c.2-.11,.2-.3,0-.42Zm3.3-1.91l-1.72-.99c-.2-.11-.52-.11-.72,0l-2.05,1.18c-.2,.11-.2,.3,0,.42l1.72,.99c.2,.11,.52,.11,.72,0l2.05-1.18c.2-.11,.2-.3,0-.42Zm3.3-1.91l-1.72-.99c-.2-.11-.52-.11-.72,0l-2.05,1.18c-.2,.11-.2,.3,0,.42l1.72,.99c.2,.11,.52,.11,.72,0l2.05-1.18c.2-.11,.2-.3,0-.42Zm-3.94-8.14l-1.72-.99c-.2-.11-.52-.11-.72,0l-2.05,1.18c-.2,.11-.2,.3,0,.42l1.72,.99c.2,.11,.52,.11,.72,0l2.05-1.18c.2-.11,.2-.3,0-.42Zm3.3-1.91l-1.72-.99c-.2-.11-.52-.11-.72,0l-2.05,1.18c-.2,.11-.2,.3,0,.42l1.72,.99c.2,.11,.52,.11,.72,0l2.05-1.18c.2-.11,.2-.3,0-.42Zm3.3-1.91l-1.72-.99c-.2-.11-.52-.11-.72,0l-2.05,1.18c-.2,.11-.2,.3,0,.42l1.72,.99c.2,.11,.52,.11,.72,0l2.05-1.18c.2-.11,.2-.3,0-.42Zm3.01,1.74l-1.72-.99c-.2-.11-.52-.11-.72,0l-2.05,1.18c-.2,.11-.2,.3,0,.42l1.72,.99c.2,.11,.52,.11,.72,0l2.05-1.18c.2-.11,.2-.3,0-.42Zm2.93,1.61l-1.68-.97c-.16-.09-.43-.1-.6,0l-2.89,1.64c-.14,.08-.36,.08-.5,0l-2.27-1.31c-.25-.14-.65-.14-.89,0l-5.18,2.99c-.25,.14-.25,.37,0,.52l4.52,2.61c.25,.14,.65,.14,.89,0l8.6-4.97c.25-.14,.25-.37,0-.52Z"/>
            </g>
          </g>
          <g>
            <g>
              <polygon class="cls-6" points="194.58 20 164.5 37.37 164.5 76.61 194.61 59.22 194.58 20"/>
              <path class="cls-8" d="M180.92,55.84l4.07-2.35v.35l-4.07,2.35v-.35Zm-1.05,2.33v-.35l-4.56,2.63v.35l4.56-2.63Zm-1.34-.6l2.04-1.18v-.35l-2.04,1.18v.35Zm-.36,.21v-.35l-2.53,1.46v.35l2.53-1.46Zm6.19-4.96l1.52-.87v-.35l-1.52,.87v.35Zm.98,.46v.35l4.23-2.44v-.35l-4.23,2.44Zm-10.39,7.73v-.35l-6.51,3.76v.35l6.51-3.76Zm.33-2.95l4.56-2.63v-.35l-4.56,2.63v.35Zm4.92-2.84l3.8-2.2v-.35l-3.8,2.2v.35Zm-5.27,3.04v-.35l-6.46,3.73v.35l6.46-3.73Zm11.31-6.53l2.89-1.67v-.35l-2.89,1.67v.35Zm-10.95,7.36l-6.84,3.95v.35l6.84-3.95v-.35Zm-6.78,1.5l2.13-1.23v-.35l-2.13,1.23v.35Zm18.39-10.96v.35l2.53-1.46v-.35l-2.53,1.46Zm-4.43,2.9l4.07-2.35v-.35l-4.07,2.35v.35Zm-2.39,1.38l2.04-1.17v-.35l-2.04,1.17v.35Zm-2.89,1.67l2.53-1.46v-.35l-2.53,1.46v.35Zm-6.19,3.57l5.83-3.37v-.35l-5.83,3.37v.35Zm11.93-.98v.35l3.28-1.9v-.35l-3.28,1.9Zm-4.56,4.01v.35l2.53-1.46v-.35l-2.53,1.46Zm4.2-3.81l-4.56,2.63v.35l4.56-2.63v-.35Zm-4.89,5.93v-.35l-4.5,2.6v.35l4.5-2.6Zm5.61-4.97l-2.04,1.18v.35l2.04-1.18v-.35Zm-5.64,2.22v-.35l-9.19,5.31v.35l9.19-5.31Zm1.02,3.2v.35l4.5-2.6v-.35l-4.5,2.6Zm4.98-5.63v.35l4.07-2.35v-.35l-4.07,2.35Zm2.92-3.07v.35l2.04-1.17v-.35l-2.04,1.18Zm.03,3.09l2.66-1.54v-.35l-2.66,1.54v.35Zm-3.07,2.8v.35l1.45-.84v-.35l-1.45,.84Zm-11.71,4.35v-.35l-3.3,1.9v.35l3.3-1.9Zm6.19-3.92l-5.83,3.37v.35l5.83-3.37v-.35Zm.03,1.36v.35l4.56-2.63v-.35l-4.56,2.63Zm8.2-4.73l-3.28,1.9v.35l3.28-1.9v-.35Zm2.72-4.33v.35l1.73-1v-.35l-1.73,1Zm.48,1.1l-1.37,.79v.35l1.37-.79v-.35Zm-17.24,12.71l-3.7,2.14v.35l3.7-2.14v-.35Zm.62-1.39v-.35l-4.32,2.49v.35l4.32-2.49Zm5.49-1.79v-.35l-5.76,3.32v.35l5.76-3.32Z"/>
              <path class="cls-4" d="M183.82,38.44v-2.58c0-2.61-2.13-3.51-4.74-2s-4.74,4.86-4.74,7.47v2.55c-.89,.65-1.57,1.8-1.57,2.72v6.21c0,1.02,.83,1.37,1.85,.78l8.77-5.06c1.02-.59,1.85-1.89,1.85-2.91v-6.21c0-.87-.6-1.24-1.41-.97Zm-4.74-3.47c2-1.16,3.63-.47,3.63,1.53v2.52l-7.26,4.19v-2.52c0-2,1.63-4.57,3.63-5.73Zm.32,10.38v3.02l-.79,.46v-3.02c-.36,.05-.61-.16-.61-.57,0-.56,.45-1.27,1.01-1.59,.56-.32,1.01-.13,1.01,.43,0,.42-.25,.92-.61,1.28Z"/>
              <polygon class="cls-35" points="194.58 20 164.5 37.37 164.5 40.34 194.59 22.97 194.58 20"/>
            </g>
            <g>
              <polygon class="cls-1" points="189.41 25.37 187.5 26.48 187.5 24.56 189.41 23.46 189.41 25.37"/>
              <polygon class="cls-1" points="191.79 24 189.87 25.11 189.87 23.19 191.79 22.08 191.79 24"/>
              <path class="cls-8" d="M190.18,23.32v1.31l1.31-.76v-1.31l-1.31,.76Zm1.08,.46l-.86,.5v-.86l.86-.5v.86Z"/>
              <polygon class="cls-1" points="194.16 22.63 192.25 23.74 192.25 21.82 194.16 20.71 194.16 22.63"/>
              <polygon class="cls-8" points="192.56 22.11 193.07 22.33 192.56 23.14 192.73 23.2 193.24 22.4 193.75 22.61 193.91 22.35 193.4 22.14 193.91 21.33 193.75 21.26 193.24 22.07 192.73 21.85 192.56 22.11"/>
              <polygon class="cls-8" points="189.08 25.26 187.86 25.97 187.86 25.74 189.08 25.03 189.08 25.26"/>
            </g>
          </g>
          <g>
            <g>
              <g>
                <polygon class="cls-6" points="214.69 22.58 184.6 39.95 184.6 71.68 214.71 54.29 214.69 22.58"/>
                <path class="cls-8" d="M203,43.44v.35l3.28-1.9v-.35l-3.28,1.9Zm-6.53,5.15v.35l4.5-2.6v-.35l-4.5,2.6Zm6.17-4.94l-6.53,3.77v.35l6.53-3.77v-.35Zm.72,.96l-2.04,1.18v.35l2.04-1.18v-.35Zm.36-.21v.35l4.07-2.35v-.35l-4.07,2.35Zm2.92-3.07v.35l2.04-1.18v-.35l-2.04,1.18Zm2.39-1.38v.35l1.26-.73v-.35l-1.26,.73Zm.48,1.1l-1.37,.79v.35l1.37-.79v-.35Zm-11.08,8.46v.35l2.53-1.46v-.35l-2.53,1.46Zm4.92-2.84l-2.04,1.18v.35l2.04-1.18v-.35Zm-7.61,7.15v.35l7.49-4.32v-.35l-7.49,4.32Zm7.96-7.36v.35l4.07-2.35v-.35l-4.07,2.35Zm2.95,.02l2.66-1.54v-.35l-2.66,1.54v.35Zm-3.07,2.8v.35l1.45-.84v-.35l-1.45,.84Zm-7.49,2.94v.35l6.55-3.78v-.35l-6.55,3.78Zm10.2-5.89l-3.28,1.9v.35l3.28-1.9v-.35Zm-1.98,3.9l-2.53,1.46v.35l2.53-1.46v-.35Zm5.18-7.13l-1.37,.79v.35l1.37-.79v-.35Zm-4.82,7.27l1.79-1.03v-.35l-1.79,1.03v.35Zm.72-1.79l2.95-1.71v-.35l-2.95,1.71v.35Zm-3.96,3.32l-8.53,4.92v.35l8.53-4.92v-.35Zm-.45,4.85l4.07-2.35v.35l-4.07,2.35v-.35Zm-1.05,2.33v-.35l-4.56,2.63v.35l4.56-2.63Zm-1.34-.6l2.04-1.18v-.35l-2.04,1.18v.35Zm-.36,.21v-.35l-2.53,1.46v.35l2.53-1.46Zm6.19-4.96l1.52-.87v-.35l-1.52,.87v.35Zm.98,.46v.35l4.23-2.44v-.35l-4.23,2.44Zm-10.39,7.73v-.35l-6.51,3.76v.35l6.51-3.76Zm.33-2.95l4.56-2.63v-.35l-4.56,2.63v.35Zm4.92-2.84l3.8-2.2v-.35l-3.8,2.2v.35Zm-5.27,3.04v-.35l-6.46,3.73v.35l6.46-3.73Zm11.31-6.53l2.89-1.67v-.35l-2.89,1.67v.35Zm-10.95,7.36l-6.84,3.95v.35l6.84-3.95v-.35Zm-6.78,1.5l2.13-1.23v-.35l-2.13,1.23v.35Zm18.39-10.96v.35l2.53-1.46v-.35l-2.53,1.46Zm-4.43,2.9l4.07-2.35v-.35l-4.07,2.35v.35Zm-2.39,1.38l2.04-1.17v-.35l-2.04,1.17v.35Zm-2.89,1.67l2.53-1.46v-.35l-2.53,1.46v.35Zm-6.19,3.57l5.83-3.37v-.35l-5.83,3.37v.35Z"/>
                <polygon class="cls-35" points="214.69 22.58 184.6 39.95 184.6 42.91 214.69 25.54 214.69 22.58"/>
              </g>
              <g id="_2" data-name="2">
                <path class="cls-4" d="M206.79,35.29s-.04-.05-.08-.06l-.99-.2c-.09-.02-.2,0-.32,.07l-6.48,3.74c-.23,.13-.46,.17-.62,.1l-.09-.04c-.1-.04-.23-.02-.38,.06l-.69,.4c-.52-.51-1.42-.52-2.46,.07-1.62,.93-2.93,3-2.93,4.61,0,1.62,1.31,2.17,2.92,1.24,1.1-.64,2.06-1.8,2.56-2.99l.82-.47s.08-.06,.12-.11l.48-.71c.06-.09,.14-.17,.22-.21,.04-.02,.1-.05,.15-.08,.12-.06,.26-.14,.41-.23,.15-.08,.31-.17,.45-.25,.21-.12,.39-.22,.45-.26,.09-.06,.41-.37,.6-.55,.09-.08,.18-.14,.27-.16,.18-.04,.48-.11,.66-.15,.02,0,.05-.02,.08-.03,.03-.02,.05-.04,.08-.06,.08-.08,.19-.19,.26-.27,.04-.05,.15-.09,.28-.14,.12-.04,.27-.09,.38-.13,.07-.03,.13-.05,.16-.08,.06-.05,.23-.19,.4-.35,.04-.04,.09-.08,.13-.12,.13-.12,.26-.24,.35-.32,.07-.07,.16-.11,.23-.12,.05,0,.12-.01,.19-.02,.07,0,.15-.01,.23-.02,.16-.01,.31-.03,.4-.03,.05,0,.09-.02,.15-.05,.05-.03,.1-.07,.15-.12l1.33-1.42c.18-.22,.23-.45,.14-.55Zm-13.54,8.77c-.49,.28-.88,.11-.88-.37,0-.49,.4-1.11,.88-1.39,.49-.28,.88-.11,.88,.37,0,.49-.4,1.11-.88,1.39Z"/>
              </g>
            </g>
            <g>
              <polygon class="cls-1" points="209.5 27.94 207.59 29.05 207.59 27.13 209.5 26.03 209.5 27.94"/>
              <polygon class="cls-1" points="211.88 26.57 209.96 27.68 209.96 25.76 211.88 24.66 211.88 26.57"/>
              <path class="cls-8" d="M210.26,25.89v1.31l1.31-.76v-1.31l-1.31,.76Zm1.08,.46l-.86,.5v-.86l.86-.5v.86Z"/>
              <polygon class="cls-1" points="214.25 25.2 212.33 26.31 212.33 24.39 214.25 23.29 214.25 25.2"/>
              <polygon class="cls-8" points="212.65 24.68 213.16 24.9 212.65 25.71 212.81 25.78 213.32 24.97 213.84 25.19 214 24.93 213.49 24.71 214 23.9 213.84 23.83 213.32 24.64 212.81 24.43 212.65 24.68"/>
              <polygon class="cls-8" points="209.17 27.84 207.94 28.54 207.94 28.31 209.17 27.6 209.17 27.84"/>
            </g>
          </g>
          <g>
            <g>
              <polygon class="cls-6" points="121.12 94.76 85.7 115.21 85.7 67.23 121.12 46.78 121.12 94.76"/>
              <polygon class="cls-35" points="121.12 46.98 85.7 67.43 85.7 63.63 121.12 43.18 121.12 46.98"/>
            </g>
            <path class="cls-8" d="M115.83,74.47l-3.17,1.83v-.43l3.17-1.83v.43Zm-1.15,1.93l-3.51,2.03v.43l3.51-2.03v-.43Zm-2.24,2.99l-2.74,1.58v.43l2.74-1.58v-.43Zm-4.72-.23l4.52-2.61v-.43l-4.52,2.61v.43Zm3.03-.48l-2.34,1.35v.43l2.34-1.35v-.43Zm-8.87,3.86l5.42-3.13v-.43l-5.42,3.13v.43Zm6.1-2.26l-5.35,3.09v.43l5.35-3.09v-.43Zm1.3,.94l-3.01,1.74v.43l3.01-1.74v-.43Zm-.73-4.23l5.45-3.15v-.43l-5.45,3.15v.43Zm7.51-4.76l-1.63,.94v.43l1.63-.94v-.43Zm-9.33,12.71l-2.42,1.4v.43l2.42-1.4v-.43Zm8.97-3.49l-3.44,1.98v.43l3.44-1.98v-.43Zm.35-1.89l-3.01,1.74v.43l3.01-1.74v-.43Zm-7.06,5.77l-4.52,2.61v.43l4.52-2.61v-.43Zm-6.51,5.88l2.42-1.4v-.43l-2.42,1.4v.43Zm9.35-7.52l-2.42,1.4v.43l2.42-1.4v-.43Zm-1.06,2.3l-5.45,3.15v.43l5.45-3.15v-.43Zm1.83-4.44l-5.45,3.15v.43l5.45-3.15v-.43Zm-4.48-4.74l-2.42,1.4v.43l2.42-1.4v-.43Zm-4.25,10.2v-.43l-3.01,1.74v.43l3.01-1.74Zm1.97-3.81l-6.93,4v.43l6.93-4v-.43Zm-3.64,.41l-6.84,3.95v.43l6.84-3.95v-.43Zm-3.72,4.26v-.43l-1.38,.8v.43l1.38-.8Zm3.35,9.25l-6.93,4v.43l6.93-4v-.43Zm-.39,2.34v-.43l-5.35,3.09v.43l5.35-3.09Zm-4.78-10.97l-6.16,3.55v.43l6.16-3.55v-.43Zm-6.12,15.14v.43l3.92-2.26v-.43l-3.92,2.26Zm-.02,2.13l5.13-2.96v-.43l-5.13,2.96v.43Zm0-16.68l5.13-2.96v-.43l-5.13,2.96v.43Zm2.54,4.17v-.43l-2.53,1.46v.43l2.53-1.46Zm8.37-10.47v-.43l-5.35,3.09v.43l5.35-3.09Zm-10.92,8l4.4-2.54v-.43l-4.4,2.54v.43Zm11.73-10.16l3.01-1.74v-.43l-3.01,1.74v.43Zm-11.7,6.76l3.92-2.26v-.43l-3.92,2.26v.43Zm4.35-2.51l6.93-4v-.43l-6.93,4v.43Zm3.7,8.15l-8.14,4.7v.43l8.14-4.7v-.43Zm17.61-10.17l-5.03,2.9v.43l5.03-2.9v-.43Zm-8.49,13l4.52-2.61v-.43l-4.52,2.61v.43Zm4.95-2.86l3.17-1.83v-.43l-3.17,1.83v.43Zm1.75-2.7l1.63-.94v-.43l-1.63,.94v.43Zm-16.2,4.64l-7.73,4.46v.43l7.73-4.46v-.43Zm17.26-6.94l2.05-1.18v-.43l-2.05,1.18v.43Zm-14.06,7.69l-10.93,6.31v.43l10.93-6.31v-.43Zm-10.88,11.78l4.4-2.54v-.43l-4.4,2.54v.43Zm4.83-2.79l6.84-3.95v-.43l-6.84,3.95v.43Zm7.27-4.2l5.35-3.09v-.43l-5.35,3.09v.43Zm5.78-3.33l2.34-1.35v-.43l-2.34,1.35v.43Zm-4.38-8.95l-5.42,3.13v.43l5.42-3.13v-.43Zm3.27,7.47l-5.42,3.13v.43l5.42-3.13v-.43Zm.82-2.17l-2.42,1.4v.43l2.42-1.4v-.43Zm-2.84,2.07v-.43l-3.01,1.74v.43l3.01-1.74Zm8.72-5.46l-5.45,3.15v.43l5.45-3.15v-.43Zm-1.79-.66l-4.52,2.61v.43l4.52-2.61v-.43Zm-8.15,2.11l-5.42,3.13v.43l5.42-3.13v-.43Zm10.99-3.75l-2.42,1.4v.43l2.42-1.4v-.43Zm-14.62,.77l-6.93,4v.43l6.93-4v-.43Zm6.82,3.73l-5.42,3.13v.43l5.42-3.13v-.43Zm-9.08-.74l-7.68,4.43v.43l7.68-4.43v-.43Zm3.86-.11v-.43l-3.01,1.74v.43l3.01-1.74Z"/>
            <g>
              <polygon class="cls-1" points="115.09 49.6 112.97 50.83 112.97 48.7 115.09 47.48 115.09 49.6"/>
              <polygon class="cls-1" points="117.72 48.08 115.6 49.31 115.6 47.19 117.72 45.96 117.72 48.08"/>
              <path class="cls-8" d="M115.93,47.33v1.45l1.45-.84v-1.45l-1.45,.84Zm1.2,.51l-.95,.55v-.95l.95-.55v.95Z"/>
              <polygon class="cls-1" points="120.35 46.57 118.23 47.79 118.23 45.67 120.35 44.44 120.35 46.57"/>
              <polygon class="cls-8" points="118.58 45.99 119.14 46.23 118.58 47.13 118.76 47.2 119.32 46.31 119.89 46.55 120.07 46.26 119.51 46.02 120.07 45.13 119.89 45.05 119.32 45.94 118.76 45.71 118.58 45.99"/>
              <polygon class="cls-8" points="114.72 49.48 113.36 50.27 113.36 50.01 114.72 49.22 114.72 49.48"/>
            </g>
          </g>
          <g>
            <g id="Axonometric_Cylinder" data-name="Axonometric Cylinder">
              <path id="Cylinder_face" data-name="Cylinder face" class="cls-42" d="M120.16,142.51c-3.93,2.27-10.31,2.27-14.24,0-3.93-2.27-3.93-5.95,0-8.22,3.93-2.27,10.31-2.27,14.24,0,3.93,2.27,3.93,5.95,0,8.22Z"/>
              <ellipse id="Cylinder_face-2" data-name="Cylinder face" class="cls-20" cx="113.04" cy="138.4" rx="9.01" ry="5.2"/>
              <path class="cls-46" d="M119.41,137.39c-3.52-2.03-9.22-2.03-12.74,0-1.16,.67-1.93,1.48-2.33,2.34,.39,.86,1.16,1.67,2.33,2.34,3.52,2.03,9.22,2.03,12.74,0,1.16-.67,1.93-1.48,2.33-2.34-.39-.86-1.16-1.67-2.33-2.34Z"/>
              <path id="Cylinder_body" data-name="Cylinder body" class="cls-63" d="M123.11,138.34v16.79c.02,1.51-.96,3.02-2.95,4.16-3.93,2.27-10.31,2.27-14.24,0-1.94-1.12-2.93-2.59-2.95-4.06v-16.79c.02,1.47,1.01,2.94,2.95,4.06,3.93,2.27,10.31,2.27,14.24,0,1.99-1.15,2.97-2.66,2.95-4.16Z"/>
              <path class="cls-37" d="M120.16,142.51c-1.68,.97-3.8,1.52-5.98,1.66v16.79c2.19-.14,4.31-.69,5.98-1.66,1.99-1.15,2.97-2.66,2.95-4.16v-16.79c.02,1.51-.96,3.02-2.95,4.16Z"/>
              <path class="cls-36" d="M121.43,141.61v16.79c1.14-.99,1.7-2.13,1.68-3.27v-16.79c.02,1.14-.54,2.28-1.68,3.27Z"/>
            </g>
            <g class="cls-28">
              <path class="cls-65" d="M107.15,155.84c-.09-.26-.42-.59-.88-.85l-.28-.16c-.54-.31-1.08-.43-1.3-.3l-.06,.03-.06,.03-.06,.04-.06,.04-.07,.04-.07,.04-.07,.04-.07,.04-.07,.04-.08,.04-.08,.04-.08,.05-.08,.05-.08,.05-.08,.05-.08,.05-.08,.05-.08,.05-.17,.1s.03-.01,.06-.01c-.02,0-.04,0-.06,.01-.33,.18-.6,.26-.8,.24,.11,.02,2.01,2.49,2.9,1.98l1.85-1.52s.02-.05,.03-.07c0-.05,0-.11-.02-.17Z"/>
              <path class="cls-54" d="M107.15,157.39l-1.43,.83c-1.72,.99-3.12,.19-3.13-1.78l-.02-5.39c-.14,.08-.76-.15-1.39-.51l-.28-.16c-.54-.31-.9-.62-.9-.76v.54s0,.54,0,.54v.54s0,.54,0,.54v.54s0,.54,0,.54v.54s0,.54,0,.54v.54s0,.54,0,.54c.03,1.15,.35,2,1.89,2.92l.28,.16c1.7,.98,2.63,.65,3.5,.18l.08-.05,.08-.05,.08-.05,.08-.05,.08-.05,.08-.05,.08-.05,.08-.05,.08-.05,.08-.04,.08-.04,.07-.04,.07-.04,.07-.04,.07-.04,.07-.04,.06-.04,.06-.04,.06-.03,.06-.03s0,0-.03-.02Z"/>
              <path class="cls-39" d="M107.12,144.59c-.09-.26-.42-.59-.88-.85l-.28-.16c-.54-.31-1.08-.43-1.3-.3l-.06,.03-.06,.03-.06,.04-.06,.04-.07,.04-.07,.04-.07,.04-.07,.04-.07,.04-.08,.04-.08,.04-.08,.05-.08,.05-.08,.05-.08,.05-.08,.05-.08,.05-.08,.05-.08,.05-.08,.05q.11-.07,0,0c-1.82,1.14-3.09,3.34-3.15,5.47,0,.13,.37,.44,.9,.76l.28,.16c.63,.36,1.25,.59,1.39,.51,0-1.97,4.54-6.2,4.54-6.2,.01-.02,.02-.05,.03-.07,0-.05,0-.11-.02-.17Z"/>
              <path class="cls-48" d="M105.69,146.97c.53-.3,1.13-.65,1.46-.84,0-.03,0-.09,0-.09v-.07s0-.07,0-.07v-.07s0-.07,0-.07v-.08s0-.08,0-.08v-.08s0-.08,0-.08v-.08s0-.08,0-.08v-.08s0-.08,0-.08v-.07s0-.07,0-.07v-.07s0-.07,0-.07v-.06s0-.06,0-.06c0,.04,0,.08-.03,.11-.31,.18-.87,.5-1.43,.83-1.72,.99-3.11,3.41-3.11,5.38,0,1.8,.01,3.59,.02,5.39,0,1.97,1.41,2.77,3.13,1.78,.56-.32,1.12-.65,1.43-.83,.03,.02,.03-.05,.03-.05v-.06s0-.07,0-.07v-.07s0-.07,0-.07v-.07s0-.08,0-.08v-.08s0-.08,0-.08v-.08s0-.08,0-.08v-.08s0-.08,0-.08v-.08s0-.07,0-.07v-.07s0-.07,0-.07v-.07s0-.06,0-.06v-.06s0,.08-.03,.11c-.31,.18-.87,.5-1.43,.83-1.1,.63-1.99,.12-1.99-1.14,0-1.8-.01-3.59-.02-5.39,0-1.26,.88-2.79,1.98-3.43Z"/>
            </g>
          </g>
          <g>
            <g>
              <path class="cls-18" d="M175.06,147.85c-.07-.04-.14-.04-.19,0-.18,.15-.03,.48,.15,.58,.09,.05,.16,.03,.2,.02,.06-.02,.09-.08,.09-.17,0-.16-.12-.35-.25-.42Z"/>
              <path class="cls-64" d="M196.59,136.29c-.02-.16-.03-.25-.06-.33-.04-.13-.07-.21-.11-.28,0-.02-.02-.04-.03-.05-.04-.07-.07-.12-.11-.18-.01-.02-.03-.04-.04-.05-.05-.06-.1-.11-.15-.16-.02-.01-.03-.03-.05-.04-.08-.07-.15-.11-.17-.12-.09-.05-.37-.19-.63-.04-.13,.07-10.5,6.06-16.39,9.92-1.97,1.29-2.85,1.95-3.4,2.41,0,0-.05,.05-.08,.07-.04,.04-.06,.1-.06,.19,0,.2,.15,.44,.32,.54,.05,.03,.1,.04,.2,.02,0,0,.03,0,.05-.01,.14-.05,.25-.09,.4-.15,.48-.19,1.26-.54,2.79-1.34,1.44-.75,3.56-1.9,6.71-3.69,4.58-2.6,10.43-6.05,10.53-6.12,.11-.07,.16-.15,.2-.22,.01-.03,.03-.06,.04-.08,.02-.08,.03-.12,.03-.16,0-.02,0-.04,0-.07,0-.02,0-.04,0-.07,0,0,0,0,0,0Z"/>
              <path class="cls-60" d="M175.62,147.45c-.09-.05-.18-.05-.24,0l-.51,.41s.11-.04,.19,0c.14,.08,.25,.27,.25,.42,0,.09-.03,.15-.09,.17l.6-.25c.07-.03,.11-.1,.11-.22,0-.2-.15-.44-.32-.54Z"/>
              <path class="cls-60" d="M175,147.95c-.06-.04-.12-.03-.16,0-.11,.11-.44,.41-.5,.47,.02-.01,.04-.02,.07,0,.05,.03,.09,.09,.09,.15,0,.03-.01,.06-.03,.06,.09-.03,.51-.16,.66-.21,.05-.01,.08-.06,.08-.14,0-.13-.09-.28-.2-.34Z"/>
              <path class="cls-43" d="M174.41,148.42s-.05-.01-.07,0c-.05,.05-.09,.08-.1,.12-.02,.07,.04,.1,.04,.11,.05,.03,.1,0,.18-.02,.02,0,.03-.03,.03-.06,0-.06-.04-.12-.09-.15Z"/>
            </g>
            <polygon class="cls-61" points="195.41 135.97 188.72 139.83 188.17 139.51 194.86 135.65 195.41 135.97"/>
            <g class="cls-28">
              <polygon class="cls-41" points="194.06 136.22 193.62 135.97 194.87 135.7 195.31 135.95 194.06 136.22"/>
              <polygon class="cls-18" points="188.67 139.46 188.23 139.2 188.23 139.08 188.67 139.33 188.67 139.46"/>
              <polygon class="cls-67" points="188.67 139.33 188.23 139.08 193.62 135.97 194.06 136.22 188.67 139.33"/>
              <polygon class="cls-43" points="194.06 136.22 195.31 135.95 193.77 136.84 193.49 136.68 188.67 139.46 188.67 139.33 194.06 136.22"/>
            </g>
          </g>
          <g>
            <path class="cls-50" d="M165.43,149.74l-.58,.53s.01,.04,.04,.03l.91-.33-.38-.22Z"/>
            <g>
              <path class="cls-43" d="M192.59,134.55l-24.04,13.92v.43s24.18-14,24.18-14c-.03-.12-.08-.24-.14-.35Z"/>
              <polygon class="cls-61" points="192.2 134.77 192.2 135.21 194.17 134.07 194.17 133.63 192.2 134.77"/>
              <path class="cls-62" d="M192.32,134.09l-24.04,13.92,.27,.46,24.04-13.92c-.08-.16-.16-.31-.26-.46Z"/>
              <polygon class="cls-13" points="194.17 133.63 193.9 133.17 191.94 134.31 192.2 134.77 194.17 133.63"/>
              <path class="cls-32" d="M192.12,133.77l-24.21,14.02,.38,.22,24.04-13.92c-.07-.1-.13-.21-.2-.32Z"/>
              <polygon class="cls-27" points="193.9 133.17 193.52 132.95 191.56 134.09 191.94 134.31 193.9 133.17"/>
              <path class="cls-29" d="M168.8,147.94l-1.16,.06c-.17,.02-.56,.24-.65,.32l-1.79,1.61c.21-.12,.33,.05,.25,.15,0,0,2.78-1.01,2.78-1.01,.11-.08,.28-.15,.31-.25l.38-.81-.13-.07Z"/>
              <path class="cls-62" d="M167.25,148.16c.07,.17,.33,.07,.44,.14,.14,.1-.53,.47-.11,.54,.2,.03,.46-.1,.65-.15,.06-.02,.15-.02,.17,.01,.06,.1-.2,.2-.16,.38l1.64-.98-.81-.98-1.82,1.05Z"/>
            </g>
            <path class="cls-32" d="M169.07,147.11l-.49,.28-1.32,.77c.07,.16,.33,.07,.43,.14,.02,.04,1.8-.99,1.8-.99l-.42-.19Z"/>
            <path class="cls-43" d="M169.68,147.82l-1.56,.9s.08-.03,.11-.04c.06-.02,.15-.02,.17,.01,.06,.1-.2,.2-.16,.38l1.93-1.11-.49-.15Z"/>
          </g>
          <g>
            <path class="cls-4" d="M111.49,59.88c-.61,.35-1.18,.82-1.71,1.36-.45-.76-1.44-.89-2.59-.23-.12,.07-.24,.15-.35,.23-.14-1.83-1.68-2.46-3.57-1.37-1.77,1.02-3.24,3.21-3.51,5.13-.45,.06-.94,.24-1.45,.54-1.99,1.14-3.6,3.67-3.74,5.77-.41,.07-.85,.23-1.32,.5-1.97,1.14-3.57,3.71-3.56,5.75s1.61,2.77,3.58,1.64l18.24-10.51c2.34-1.35,4.24-4.42,4.23-6.84s-1.91-3.3-4.26-1.95Z"/>
            <g>
              <path class="cls-33" d="M96.78,71.99v2.83s11.69-6.74,11.69-6.74v-2.83s-11.69,6.75-11.69,6.75Zm11.45-4.03l-11.21,6.47v-2.34s11.2-6.47,11.2-6.47v2.34Z"/>
              <polygon class="cls-33" points="105.42 67.61 105.42 69.19 97.36 73.84 97.35 72.26 105.42 67.61"/>
            </g>
            <path class="cls-33" d="M97.58,70.15l.9-.52v.18s-1.09,.63-1.09,.63v-2.19s.19-.11,.19-.11v2.01Zm2.28-1.91v.07c0,.41-.18,.85-.6,1.09-.42,.24-.61,.02-.61-.39v-.07c0-.41,.18-.85,.6-1.09,.42-.24,.61-.02,.61,.39Zm-.19,.11c0-.34-.13-.49-.41-.33-.29,.16-.41,.46-.41,.8v.07c0,.34,.13,.49,.41,.33,.28-.16,.41-.46,.41-.8v-.07Zm1.54-.53l.02,.41-.16,.09-.03-.19c-.09,.18-.26,.39-.51,.53-.26,.15-.42,.07-.42-.17,0-.35,.23-.58,.47-.75l.43-.32c0-.29-.08-.38-.33-.23-.27,.16-.33,.36-.33,.55l-.18,.1c0-.25,.09-.58,.52-.82,.4-.23,.52-.08,.52,.25v.54Zm-.19-.25l-.42,.31c-.18,.14-.3,.3-.29,.47,0,.16,.08,.23,.27,.12,.27-.15,.39-.37,.44-.49v-.41Zm1.65-.59l.02,.41-.16,.09-.03-.18c-.07,.17-.21,.35-.43,.48-.39,.23-.55-.01-.55-.42v-.07c0-.41,.16-.83,.55-1.06,.2-.12,.33-.1,.41-.03v-.93s.19-.11,.19-.11v1.83Zm-.19-.58c-.06-.06-.17-.13-.37-.02-.27,.16-.4,.45-.4,.79v.07c0,.35,.13,.49,.4,.33,.2-.11,.31-.31,.37-.44v-.74Zm.54-1.04l.24-.14v-.25s-.24,.14-.24,.14v.25Zm.03,1.82l.19-.11v-1.49s-.19,.11-.19,.11v1.49Zm1.22-2.22c-.25,.14-.4,.34-.48,.52l-.03-.19-.16,.09,.02,.41v1.07s.19-.11,.19-.11v-1.11c.06-.13,.17-.33,.39-.46,.19-.11,.31-.08,.31,.15v1.01s.19-.11,.19-.11v-1.04c0-.28-.16-.39-.44-.23Zm1.74-.97l.16-.09v.43s-.01,1.08-.01,1.08c0,.33-.15,.67-.56,.9-.42,.24-.56,.07-.56-.24,0-.04,.18-.14,.18-.14,0,.28,.1,.36,.37,.21,.28-.16,.38-.36,.38-.64v-.28c-.08,.16-.21,.32-.41,.43-.39,.23-.55,0-.55-.37v-.06c0-.37,.16-.78,.55-1.01,.22-.13,.35-.1,.43-.02l.03-.22Zm-.05,.4c-.06-.06-.17-.13-.37-.02-.27,.15-.4,.44-.4,.74v.06c0,.31,.13,.44,.4,.28,.2-.11,.31-.31,.37-.44v-.63Zm.54,.8l.24-.14v-.25s-.24,.14-.24,.14v.25Zm.59-.34l.24-.14v-.25s-.24,.14-.24,.14v.25Zm.59-.59v.25s.24-.14,.24-.14v-.25s-.24,.14-.24,.14Z"/>
          </g>
        </g>
      </g>
    </g>
  </g>
</svg>