<?xml version="1.0" encoding="UTF-8"?>
<svg id="_Слой_1" data-name=" Слой 1" xmlns="http://www.w3.org/2000/svg" xmlns:xlink="http://www.w3.org/1999/xlink" viewBox="0 0 1626.5 292.5">
  <defs>
    <style>
      .cls-1 {
        fill: #fff;
      }

      .cls-2 {
        fill: url(#linear-gradient);
      }
    </style>
    <linearGradient id="linear-gradient" x1="101.28" y1="-239.48" x2="297.93" y2="-42.82" gradientTransform="translate(0 336)" gradientUnits="userSpaceOnUse">
      <stop offset="0" stop-color="#fff"/>
      <stop offset=".71" stop-color="#007f67"/>
    </linearGradient>
  </defs>
  <rect class="cls-2" x="99.3" y="98.5" width="200.6" height="192.7"/>
  <polygon class="cls-1" points="0 0 0 27 0 292.5 27 292.5 27 27 300 27 300 0 0 0"/>
  <polygon class="cls-1" points="50 51.5 50 76.5 50 292.5 77 292.5 77 76.5 300 76.5 300 49.5 50 49.5 50 51.5"/>
  <g>
    <path class="cls-1" d="M411.58,97.65c12.5,0,23.63,1.63,33.39,4.88,9.76,3.25,18.07,7.92,24.92,14,6.85,6.08,12.07,13.53,15.67,22.35,3.6,8.82,5.39,18.8,5.39,29.93,0,23.12-7.06,40.76-21.19,52.92-14.13,12.16-33.52,18.24-58.18,18.24h-26.46v50.35h-55.23V97.65h81.69Zm-26.46,95.81h22.6c9.25,0,16.22-2.1,20.94-6.29,4.71-4.19,7.06-10.32,7.06-18.37,0-16.27-9.34-24.4-28-24.4h-22.6v49.06Z"/>
    <path class="cls-1" d="M606.76,97.14l70.13,193.17h-59.08l-9.5-32.88h-62.68l-9.76,32.88h-59.34l72.7-193.17h57.54Zm-48.29,117.39h37.5l-18.24-64.22-19.27,64.22Z"/>
    <path class="cls-1" d="M788.37,97.65c11.82,0,22,1.33,30.57,3.98,8.56,2.66,15.67,6.34,21.32,11.05,5.65,4.71,9.85,10.4,12.59,17.08,2.74,6.68,4.11,14.04,4.11,22.09,0,8.57-1.63,16.05-4.88,22.48-3.25,6.42-8.05,11.35-14.39,14.77,8.22,3.43,14.73,8.69,19.52,15.8,4.79,7.11,7.19,16.14,7.19,27.1,0,8.57-1.33,16.44-3.98,23.63-2.66,7.19-6.94,13.36-12.84,18.49s-13.53,9.12-22.86,11.94c-9.34,2.83-20.59,4.24-33.78,4.24h-86.57V97.65h84Zm-29.28,75.01h27.58c5.45,0,9.49-1.37,12.13-4.11,2.64-2.74,3.96-6.33,3.96-10.79s-1.28-8-3.83-10.66c-2.55-2.65-6.81-3.98-12.77-3.98h-27.07v29.54Zm0,72.44h30.93c7.33,0,12.43-1.41,15.33-4.24,2.9-2.83,4.35-6.72,4.35-11.69s-1.49-9.08-4.47-11.82c-2.98-2.74-8.05-4.11-15.2-4.11h-30.93v31.85Z"/>
    <polygon class="cls-1" points="1061.01 97.65 1059.41 97.65 1006.03 97.65 943.36 206.83 943.36 97.65 888.64 97.65 888.64 290.31 943.36 290.31 1006.29 181.4 1006.29 290.31 1061.01 290.31 1061.01 144.66 1114.12 144.66 1114.12 290.31 1169.35 290.31 1169.35 144.66 1224.32 144.66 1224.32 97.65 1061.01 97.65"/>
    <path class="cls-1" d="M1327.76,90.68c14.04,0,26.75,2.31,38.15,6.94,11.39,4.62,21.15,11.26,29.28,19.91,8.13,8.65,14.39,19.1,18.75,31.34,4.37,12.25,6.55,26.07,6.55,41.49s-2.23,29.24-6.68,41.49c-4.46,12.25-10.7,22.69-18.75,31.34-8.05,8.65-17.77,15.28-29.15,19.91-11.39,4.62-24.11,6.94-38.15,6.94s-26.76-2.31-38.15-6.94c-11.39-4.62-21.11-11.21-29.15-19.78-8.05-8.56-14.26-19.01-18.62-31.34-4.37-12.33-6.55-26.2-6.55-41.61s2.18-29.24,6.55-41.49c4.37-12.24,10.62-22.69,18.75-31.34,8.13-8.65,17.89-15.28,29.28-19.91,11.39-4.62,24.02-6.94,37.89-6.94Zm0,47.78c-11.13,0-20.12,4.28-26.97,12.84-6.85,8.57-10.28,21.58-10.28,39.04s3.51,30.7,10.53,39.17c7.02,8.48,15.93,12.72,26.71,12.72s20.38-4.24,27.23-12.72c6.85-8.48,10.28-21.53,10.28-39.17,0-8.73-.9-16.35-2.7-22.86-1.8-6.51-4.37-11.9-7.71-16.18-3.34-4.28-7.32-7.49-11.94-9.63-4.62-2.14-9.68-3.21-15.16-3.21Z"/>
    <path class="cls-1" d="M1509.87,94.02v72.44h61.65V94.02h54.97v192.66h-54.97v-72.7h-61.65v72.7h-55.23V94.02h55.23Z"/>
  </g>
</svg>