<?xml version="1.0" encoding="UTF-8"?>
<svg id="Layer_1" data-name="Layer 1" xmlns="http://www.w3.org/2000/svg" viewBox="0 0 993.49 805.58">
  <defs>
    <style>
      .cls-1 {
        fill: #fff;
      }

      .cls-2 {
        fill: #d91745;
      }
    </style>
  </defs>
  <g>
    <path class="cls-2" d="M566.2,0h.39c3.08,2.61,6.75,4.34,10.2,6.37,46.47,26.84,92.96,53.63,139.41,80.51,20.12,11.84,33.24,34.75,32.75,58.16,.29,56.91,.05,113.82,.12,170.73-16.31-9.28-32.47-18.81-48.78-28.07-1.72-1.22-4.81-1.94-4.37-4.61-.1-46.37,.03-92.74-.07-139.1-.11-4.84-3.09-9.33-7.24-11.7-40.93-23.72-81.99-47.24-122.87-71.04,.18-20.42-.19-40.85,.46-61.25Z"/>
    <path class="cls-2" d="M284.53,86.51C334.48,57.7,384.38,28.79,434.38,.05c.02,20.42-.02,40.83,.02,61.25-40.98,23.73-82.03,47.34-123.02,71.07-4.43,2.5-7.26,7.47-7.16,12.56-.04,46.73-.01,93.46-.02,140.19-17.68,10.22-35.39,20.41-53.05,30.66-.05-57.26-.01-114.53-.03-171.79,0-23.28,13.23-45.91,33.41-57.48Z"/>
    <path class="cls-2" d="M469.12,98.43c5.81,.08,11.62,.03,17.42,.04,.02,47.41-.02,94.81,.02,142.21-40.14,23.3-80.39,46.4-120.54,69.66-3.21-5.51-6.3-11.09-9.61-16.54,23.22-40.84,46.97-81.38,70.35-122.13,14.17-24.38,28.14-48.88,42.36-73.24Z"/>
    <path class="cls-2" d="M511.52,98.49c6.06-.05,12.11,.02,18.17-.05,37.37,64.47,74.53,129.07,111.83,193.59-3.45,5.92-6.82,11.88-10.29,17.78-39.9-22.96-79.7-46.09-119.63-68.98-.16-47.45-.01-94.9-.08-142.34Z"/>
    <path class="cls-2" d="M378.54,333.09c40.19-23.17,80.38-46.35,120.53-69.6,39.89,23.1,79.88,46.03,119.73,69.2-3.61,6.04-7.01,12.19-10.63,18.22-73.09-.08-146.19-.06-219.28-.01-3.55-5.88-6.87-11.89-10.35-17.81Z"/>
    <path class="cls-2" d="M506.67,469.8c40.78-23.55,81.56-47.09,122.34-70.64,17.7,10.17,35.35,20.44,53.07,30.6-50.47,29.34-101.06,58.47-151.64,87.6-17.21,9.19-38.48,10.25-56.58,3.03-6.75-2.65-12.81-6.68-19.11-10.2-45.84-26.59-91.88-52.86-137.62-79.62,17.03-9.78,34.05-19.6,51.03-29.47,1.01-.57,2.16-1.37,3.22-.4,37.42,21.6,74.83,43.21,112.25,64.8,3.59,1.95,6.96,4.37,10.79,5.86,4.05,1.53,8.62,.65,12.25-1.56Z"/>
  </g>
  <g>
    <path class="cls-1" d="M776.56,599.79c17.8-1.35,35.7-1.3,53.51-.11,9.07,.94,19.32,2.18,25.8,9.34,6.66,8.05,6.79,19.12,7.35,29.05-.11,13.07,.98,26.77-3.92,39.19-3.97,9.33-14.48,12.95-23.82,14.02-19.4,2.07-39.01,2.01-58.45,.52-7.68-.72-15.73-2.05-22.12-6.66-5.44-4.01-7.91-10.73-8.97-17.17-1.56-10.93-1.49-22-1.11-33,.62-9.16,1.22-19.28,7.62-26.49,6.21-6.44,15.65-7.69,24.11-8.69Zm13.52,20.17c-5.42,.47-11.95,.94-15.35,5.83-3.02,5.17-2.28,11.46-2.54,17.21,.18,6.7-.56,13.62,1.42,20.12,1.38,4.56,6.12,6.68,10.48,7.34,8.57,1.36,17.29,.9,25.94,.96,6.32-.21,12.93-.03,18.88-2.51,3.55-1.47,5.6-5.16,6.01-8.85,1.13-7.65,.84-15.42,.61-23.11-.4-4.39-.39-9.46-3.8-12.73-3.95-3.63-9.64-3.87-14.68-4.32-8.98-.41-18-.44-26.97,.06Z"/>
    <path class="cls-1" d="M0,599.85c29.82-.04,59.63-.01,89.45-.02,.02,7.15,.02,14.3,0,21.45-20.72,0-41.44,0-62.16,0,0,23.47,.05,46.93-.02,70.4-9.09,.19-18.18,.28-27.27,.27v-92.1Z"/>
    <path class="cls-1" d="M105.05,599.83h40.91c14.33,.09,28.7-.45,42.97,1.13,7.2,.97,15.21,3.17,19.37,9.65,3.92,6.7,4.22,14.77,4.26,22.35,.03,7.46-.1,15.22-3.15,22.17-2.33,5.29-7.53,8.65-12.94,10.16-6.96,1.99-14.26,2.24-21.45,2.5-14.28,.21-28.56-.04-42.84,.14-.14,7.92,.18,15.85-.19,23.78-8.97,0-17.93-.04-26.9,.02-.26-30.63-.15-61.27-.04-91.9Zm27.11,20.33c-.02,9.09,.02,18.17-.02,27.26,9.97,.06,19.94,0,29.91,.03,6.54-.13,13.35,.34,19.59-1.97,3.33-1.32,3.91-5.26,4.07-8.4,.08-4.2,.46-8.67-1.34-12.59-2.51-3.58-7.43-3.8-11.41-4.18-13.6-.31-27.2-.06-40.8-.15Z"/>
    <path class="cls-1" d="M232.81,646.82c8.63-15.67,16.94-31.53,25.81-47.07,10.46,.21,20.94-.01,31.41,.1,1.21-.1,2.05,.42,2.52,1.57,16.42,30.08,32.81,60.18,49.29,90.22-9.82,.12-19.65,.05-29.47,.04-2.79-5.49-5.61-10.96-8.46-16.41-19.3-.04-38.6,.04-57.89-.05-2.86,5.44-5.54,10.98-8.33,16.46-9.67,.04-19.33,.02-29,0,7.57-15.2,16.16-29.88,24.12-44.87Zm41.78-27.77c-6.34,12.27-12.7,24.56-18.69,37.01,12.66,.06,25.32,.03,37.98,.05-4.86-10.87-10.86-21.2-16.12-31.9-1-1.74-1.61-3.82-3.17-5.16Z"/>
    <path class="cls-1" d="M355.96,599.82c24.33,.02,48.65,.02,72.98,0,7.84,.18,15.81,.21,23.47,2.1,5.78,1.41,11.64,4.99,13.52,10.95,1.99,6.51,1.9,13.63,.07,20.16-1.57,5.28-6.24,8.8-11.16,10.75,5.25,1.47,10.76,4.03,13.13,9.3,3.3,7.45,2.87,16.1,.81,23.83-1.68,6.04-6.68,10.72-12.62,12.5-7.46,2.41-15.42,2.3-23.18,2.29-25.68-.01-51.36,.01-77.05,0-.14-30.63-.2-61.26,.03-91.88Zm26.91,18.93c.01,5.74-.06,11.48,.05,17.23,16.02,.24,32.05,.03,48.08,.11,3.33-.01,7.63-.46,9.21-3.89,.98-3.01,.93-6.39,.06-9.42-1.32-3.19-5.17-4.06-8.28-4.04-16.38,0-32.75-.02-49.12,.01Zm-.01,34.82c.02,6.21-.02,12.41,.03,18.62,16.69,0,33.37,.03,50.06,0,3.88,.04,8.84-.95,10.06-5.26,1.03-4.02,1.12-9.61-2.95-11.98-2.78-1.37-5.99-1.36-9.01-1.41-16.07,.05-32.13-.03-48.19,.04Z"/>
    <path class="cls-1" d="M488.11,599.83c8.91,.01,17.82-.02,26.74,.02,.12,22.96-.18,45.93,.15,68.9,17.99-22.33,35.07-45.41,52.84-67.91,.93-1.41,2.74-.92,4.16-1.04,12.65,.07,25.31,.02,37.97,.03,.17,30.62,.17,61.26,0,91.88-8.9-.02-17.79-.01-26.69,0-.13-23,.23-46.01-.18-69-18.4,22.76-36.05,46.14-54.29,69.02-13.57-.06-27.14-.03-40.7,0-.04-30.63-.04-61.26,0-91.89Z"/>
    <path class="cls-1" d="M627.63,599.83c35.45,0,70.9,.01,106.34,0,.03,6.93,.12,13.86-.06,20.79-13.15-.15-26.3,.03-39.44-.09-.12,23.69-.1,47.38-.01,71.07-9.09,.23-18.17,.03-27.26,.11,0-23.71,0-47.41,0-71.12-13.21-.1-26.41,.08-39.61-.09,.07-6.89,.01-13.78,.04-20.67Z"/>
    <path class="cls-1" d="M878.14,599.86c9.09-.07,18.18,0,27.27-.03,.08,11.23-.05,22.46,.07,33.69,20.24-.08,40.47,.03,60.71-.06,0-11.2-.02-22.41,.02-33.61,9.06-.04,18.13,0,27.21-.02,.09,30.59-.07,61.19,.07,91.79-9.09,.2-18.19,.01-27.28,.1-.1-11.83,.08-23.67-.09-35.5-20.23,0-40.47-.03-60.7,0,.06,11.79-.07,23.58,.07,35.38-9.11,.22-18.23,.01-27.34,.11-.05-30.62-.02-61.24,0-91.86Z"/>
  </g>
  <g>
    <path class="cls-1" d="M175.23,764.86c4.64-.05,9.29,0,13.93-.05,4.72,5.51,9.22,11.21,13.84,16.82,3.94-5,7.86-10.01,11.79-15.01,.66-.69,1.2-1.83,2.31-1.74,4.31-.16,8.62-.01,12.93-.02-6.72,8.96-14.34,17.23-21.41,25.93,.03,4.63,.01,9.27,.02,13.91-3.97,.01-7.94,.05-11.9-.09-.11-4.7,.38-9.44-.21-14.1-6.91-8.69-14.36-16.97-21.3-25.65Z"/>
    <path class="cls-1" d="M124.12,764.83c11.61,.05,23.22-.06,34.83,.04,4.35,.37,10.01,.35,12.47,4.69,2.13,4.94,1.48,12.35-4.32,14.44,3.06,.66,5.91,2.88,6.38,6.13,.48,3.99,.54,8.76-2.58,11.77-2.97,2.56-7.13,2.66-10.85,2.8-11.99,.04-23.97-.03-35.95,.03-.04-13.3-.08-26.6,.02-39.9Zm11.67,8.32c0,2.45,0,4.89-.02,7.36,7.37,.07,14.75,.15,22.12-.02,4.18,.36,4.32-7.54,.14-7.29-7.41-.21-14.83-.05-22.24-.05Zm0,15.09c0,2.66,0,5.32,0,8,6.74,.01,13.48,.01,20.22,.02,1.73-.1,3.69,.07,5.18-1,1.87-2.18,1.3-7.01-2.18-6.93-7.73-.28-15.48-.06-23.22-.09Z"/>
    <path class="cls-1" d="M252.75,767.73c3.08-2.57,7.34-2.57,11.15-2.89,8.03-.14,16.06-.16,24.09,.04,4.09,.41,8.77,.39,12.03,3.26,2.64,3.52,2.04,8.38,1.41,12.46-.62,3.05-3.96,3.57-6.42,4.41,2.66,.89,6.27,1.29,7.22,4.44,.93,3.42,.89,7.2-.14,10.61-1.47,4.06-6.4,4.62-10.07,5.13-8.97,.54-17.97,.35-26.95,.29-4.27-.16-9.04-.14-12.53-2.95-2.95-2.93-2.3-7.48-2.51-11.25,3.69-.02,7.39-.02,11.1,.02,.37,1.86-.28,5.06,2.39,5.32,7.12,.78,14.32,.45,21.47,.25,1.94-.08,4.02-.12,5.66-1.28,.34-1.5,.38-3.07,.13-4.57-.46-1.62-2.41-1.45-3.71-1.63-4.43-.21-8.88-.03-13.31-.08-.01-2.7-.02-5.39-.04-8.07,5.26-.15,10.58,.39,15.76-.75,.37-1.95,1.37-4.19-.15-5.89-2.86-1.52-6.23-1.07-9.35-1.25-5.48,.12-11.01-.36-16.47,.34-2.52,.31-2.05,3.25-2.39,5.09-3.65,.03-7.3,.03-10.95,.01,.34-3.72-.37-8.2,2.58-11.06Z"/>
    <path class="cls-1" d="M309.69,765.13c4.01,0,8.02,0,12.04,.01-.03,10.14,.04,20.29-.04,30.43,9.38,.18,18.77,.03,28.15,.08v9.22h-40.15c0-13.25,0-26.49,0-39.74Z"/>
    <path class="cls-1" d="M365.46,765.7c7.13-1.27,14.4-.92,21.6-.92,4.74,.21,9.67,.24,14.13,2.07,3.68,1.49,5.61,5.4,6,9.17,.64,5.97,.64,12.02,.04,17.99-.33,3.74-2.07,7.71-5.69,9.32-6.47,2.73-13.65,2.01-20.49,2.22-6.53-.21-13.41,.44-19.56-2.23-3.94-1.74-5.68-6.15-5.89-10.2-.42-6.65-.81-13.5,.79-20.01,1-4.21,4.97-6.83,9.07-7.41Zm5.91,8.84c-1.96,.42-3.36,2.06-3.62,4.02-.6,4.07-.5,8.24-.14,12.33,.16,2.31,1.76,4.5,4.17,4.79,6.07,1.02,12.34,.94,18.44,.18,2.22-.17,4.55-1.56,4.84-3.94,.74-4.57,.78-9.33-.06-13.89-.54-3.24-4.32-3.9-7.01-4.12-5.53-.23-11.2-.64-16.62,.63Z"/>
    <path class="cls-1" d="M421.07,767.13c4.3-2.13,9.24-2.11,13.93-2.35,7.65,.08,15.36-.47,22.96,.73,3.21,.54,6.73,1.85,8.25,4.98,.86,2.3,.99,4.81,1.26,7.24-3.86,.05-7.72,.08-11.57-.03-1.16-3.85-5.68-3.79-8.95-3.99-5.51,.06-11.19-.59-16.56,.9-4.11,1.59-3.45,6.77-3.63,10.33,.22,3.48-.58,8.31,3.05,10.33,3.57,1.32,7.49,1.09,11.24,1.23,4.37-.08,8.9,.24,13.13-1.08,2.11-.72,1.79-3.37,2.29-5.13-3.4-.16-6.81-.13-10.21-.19,.02-2.61,.04-5.21,.06-7.81h21.46c-.37,6.08,1.22,12.85-2.12,18.34-4.28,5.05-11.65,4.68-17.67,4.89-8.13-.19-16.45,.69-24.41-1.3-4.02-.91-7.3-4.18-7.95-8.28-.98-6.55-.98-13.23-.28-19.81,.29-3.69,2.3-7.37,5.72-9Z"/>
    <path class="cls-1" d="M476.91,765.17c4.04-.06,8.09-.04,12.14-.04,.01,13.25,.01,26.49,0,39.74-4.05,0-8.09,.02-12.13-.04-.03-13.22-.01-26.44-.01-39.66Z"/>
    <path class="cls-1" d="M501.97,767.94c4.43-2.86,9.97-2.76,15.04-3.15,7.69,.05,15.44-.47,23.07,.71,3.03,.51,6.4,1.57,8.03,4.4,1.48,2.71,1.32,5.92,1.57,8.91-3.87,.35-7.75,.39-11.61,.04,.14-4.46-4.82-4.98-8.15-5.06-5.72,.02-11.63-.64-17.2,.93-4.14,1.54-3.31,6.73-3.5,10.24,.26,3.39-.72,8.06,2.75,10.15,3.16,1.31,6.71,1.1,10.07,1.28,4.52-.04,9.17,.3,13.57-.95,1.88-.59,2.12-2.75,2.72-4.32,3.77,.01,7.55-.02,11.33,.05-.22,3.82,.03,8.53-3.4,11.1-3.86,2.65-8.77,2.97-13.3,3.17-7.3,.14-14.62,.26-21.9-.26-4.55-.48-10.06-1.69-12.14-6.32-2.35-5.63-1.7-11.9-1.74-17.84,.13-4.64,.56-10.23,4.79-13.08Z"/>
    <path class="cls-1" d="M586.41,765.68c8.13-1.4,16.41-.83,24.62-.9,4.73,.32,9.96,.2,14.01,3.05,3.12,2.25,3.21,6.43,3.44,9.91-3.76-.04-7.54,.25-11.29-.12-1.11-1.02-1.64-2.8-3.26-3.09-5.51-1.37-11.26-.8-16.87-.79-3.05,.17-7.26,.31-8.47,3.75-.96,4.93-.94,10.1-.04,15.05,1.13,3.55,5.43,3.56,8.49,3.81,5.83,.14,11.78,.54,17.52-.69,2.63-.39,2.63-3.37,2.96-5.4-3.36-.13-6.71-.11-10.06-.09-.02-2.61-.02-5.2-.05-7.79,7.12-.19,14.24-.04,21.36-.09-.23,5.48,.69,11.19-1.05,16.49-1.8,4.67-7.25,5.97-11.72,6.45-8.3,.49-16.64,.39-24.95,.07-4.6-.4-10.08-1.26-12.79-5.47-1.94-3.25-1.99-7.18-2.33-10.84-.2-5.29-.2-10.71,1.19-15.85,1.14-4.18,5.21-6.78,9.29-7.46Z"/>
    <path class="cls-1" d="M639.71,765.22c12.75,.09,25.51-.1,38.26,.1,3.99,.3,8.86,.73,11.23,4.44,2.03,3.77,1.58,8.3,1.25,12.42-.36,3.64-3.32,6.39-6.82,7.09,2.34,.79,5.37,1.24,6.38,3.87,1.15,3.9,.55,8.07,.65,12.1-3.93-.01-7.86-.01-11.79-.01-.24-3.67,.92-9.61-3.95-10.63-7.71-.97-15.53-.33-23.28-.45,.03,3.69,.04,7.38-.01,11.09-3.98-.01-7.96-.01-11.93-.01,0-13.34-.04-26.67,.01-40.01Zm11.96,8.7c-.01,3.82-.01,7.65,0,11.48,7.1-.06,14.21,.14,21.31-.1,2.14-.16,5.4-.52,5.47-3.33,.17-2.58,.82-6.73-2.52-7.45-8.01-1.24-16.18-.33-24.26-.6Z"/>
    <path class="cls-1" d="M717.91,764.86c8.38-.07,16.91-.63,25.17,1.14,4.07,.73,7.35,4,8.14,8.06,1.12,6.6,1.01,13.38,.37,20.03-.33,3.84-2.22,7.94-6.04,9.39-6.19,2.51-13.04,1.87-19.57,2.1-6.55-.23-13.4,.43-19.61-2.06-3.49-1.3-5.58-4.84-6.04-8.4-.83-5.68-.72-11.45-.35-17.16,.3-3.83,1.3-8.25,4.83-10.4,3.94-2.3,8.67-2.34,13.1-2.7Zm-.75,9.35c-2.1,.33-4.48,1.47-4.84,3.8-.77,4.58-.76,9.33-.06,13.93,.28,2.28,2.5,3.72,4.66,3.9,6.03,.83,12.22,.85,18.24-.07,2.42-.19,4.32-2.26,4.48-4.65,.39-4.35,.55-8.81-.22-13.12-.61-2.86-3.81-3.84-6.36-4.01-5.28-.41-10.64-.52-15.9,.22Z"/>
    <path class="cls-1" d="M762.18,765.23c3.98,0,7.96,0,11.95,.01,.06,7.93-.09,15.87,.06,23.81,.03,2.62,.7,6.06,3.76,6.62,5.96,1.08,12.12,.94,18.13,.33,2.68-.11,5.44-2,5.33-4.94,.47-8.56,.12-17.17,.17-25.74,4.02-.13,8.06-.09,12.09-.08-.06,9.26,.08,18.52-.06,27.78-.03,3.97-1.48,8.43-5.36,10.2-6.66,3-14.18,2.1-21.28,2.36-6.44-.21-13.22,.42-19.25-2.32-3.61-1.62-5.45-5.59-5.46-9.4-.2-9.54-.03-19.09-.08-28.63Z"/>
    <path class="cls-1" d="M824.31,765.24c12.7,.08,25.4-.19,38.1,.15,4.47,.31,10.3,1.11,12.06,5.97,1.68,5.55,1.67,11.73-.02,17.28-1.95,5.19-8.3,5.77-13.06,6-8.41,.31-16.82,.06-25.23,.15,0,3.47,0,6.96-.01,10.44-3.91,0-7.83-.02-11.74,.04-.24-13.34-.04-26.69-.1-40.03Zm11.86,8.68c-.01,3.96-.01,7.92,0,11.89,5.59,0,11.19-.01,16.79,0,3.52-.05,7.26,.37,10.44-1.49,.2-2.84,.75-5.81-.21-8.55-1.88-1.83-4.73-1.65-7.14-1.84-6.63-.08-13.26,0-19.88-.02Z"/>
  </g>
</svg>