<?xml version="1.0" encoding="UTF-8"?>
<svg id="Layer_1" data-name="Layer 1" xmlns="http://www.w3.org/2000/svg" xmlns:xlink="http://www.w3.org/1999/xlink" viewBox="0 0 188.09 73.95">
  <defs>
    <style>
      .cls-1 {
        fill: #fff;
      }

      .cls-2 {
        fill: none;
      }

      .cls-3 {
        fill: url(#linear-gradient);
      }
    </style>
    <linearGradient id="linear-gradient" x1="309.81" y1="237.06" x2="340.64" y2="206.23" gradientTransform="translate(-296 254.25) scale(1 -1)" gradientUnits="userSpaceOnUse">
      <stop offset="0" stop-color="#fff"/>
      <stop offset=".71" stop-color="#007f67"/>
    </linearGradient>
  </defs>
  <path class="cls-3" d="M31.32,39.8c-.08-1.68,0-3.46,.28-5.34,.3-2.28,.84-4.63,1.61-7.05,.77-2.42,1.7-4.76,2.79-7.05,.83-1.74,1.75-3.38,2.76-4.93H15.57v30.21h17.29c-.26-.43-.49-.89-.68-1.4-.49-1.29-.77-2.78-.86-4.46Z"/>
  <polygon class="cls-1" points="47.03 0 0 0 0 4.23 0 45.85 4.23 45.85 4.23 4.23 47.03 4.23 47.03 0"/>
  <path class="cls-1" d="M44.18,9.14c.64-.53,1.29-.98,1.95-1.38H7.84V45.85h4.23V11.99h29.26c.92-1.07,1.86-2.03,2.85-2.85Z"/>
  <g>
    <path class="cls-2" d="M149.25,33.2c.52-.47,.99-1.07,1.41-1.79,.42-.72,.75-1.48,1.01-2.29,.25-.81,.41-1.49,.48-2.06-.34,.24-.76,.68-1.28,1.33-.52,.65-1.03,1.35-1.51,2.09-.49,.74-.91,1.43-1.26,2.06-.35,.64-.53,1.04-.53,1.21,.6,.1,1.17-.08,1.69-.55Z"/>
    <path class="cls-2" d="M107.01,47.53c-.54,.68-1.08,1.36-1.56,2.07-.57,.84-1.07,1.64-1.51,2.42-.44,.77-.75,1.44-.96,2.01-.07,.3,0,.45,.2,.45s.55-.2,1.03-.6c.49-.4,1.04-.96,1.66-1.66,.62-.7,1.29-1.52,2.01-2.44,.18-.23,.36-.48,.53-.72-.57-.39-1.04-.9-1.42-1.53Z"/>
    <path class="cls-2" d="M100.37,67.15c-.64,.72-1.17,1.39-1.59,2.01-.42,.62-.65,1.1-.68,1.43,1.11-.81,2.22-1.93,3.35-3.37,1.12-1.44,2.11-2.87,2.94-4.28-.6,.6-1.27,1.28-1.99,2.01-.72,.74-1.4,1.47-2.04,2.19Z"/>
    <path class="cls-2" d="M84.32,33.2c.52-.47,.99-1.07,1.41-1.79,.42-.72,.75-1.48,1.01-2.29,.25-.81,.41-1.49,.48-2.06-.34,.24-.76,.68-1.28,1.33-.52,.65-1.02,1.35-1.51,2.09-.49,.74-.91,1.43-1.26,2.06-.35,.64-.53,1.04-.53,1.21,.6,.1,1.17-.08,1.69-.55Z"/>
    <path class="cls-2" d="M98.03,34.2c.42-1.01,.73-1.83,.93-2.47,.2-.64,.22-.94,.05-.91-1.61,1.14-3.22,2.55-4.83,4.23-1.61,1.68-3.27,3.73-4.98,6.14,1.17-.3,2.21-.44,3.1-.4,.89,.03,1.82,.12,2.79,.25,.5-1.11,1.01-2.27,1.54-3.5,.52-1.22,.99-2.34,1.41-3.35Z"/>
    <path class="cls-2" d="M166.84,67.07c-.65,.74-1.22,1.43-1.69,2.06-.47,.64-.72,1.12-.75,1.46,.54-.4,1.11-.9,1.71-1.48,.6-.59,1.2-1.23,1.79-1.94,.59-.7,1.15-1.43,1.69-2.16,.54-.74,1.01-1.46,1.41-2.16-.6,.57-1.28,1.23-2.04,1.99s-1.46,1.5-2.11,2.24Z"/>
    <path class="cls-2" d="M123.83,50.61c.6,.1,1.16-.08,1.69-.55,.52-.47,.99-1.07,1.41-1.79,.41-.71,.75-1.47,1-2.26-.38-.1-.72-.24-1.04-.41-.43,.56-.85,1.13-1.26,1.74-.49,.74-.91,1.43-1.26,2.06-.35,.64-.53,1.04-.53,1.21Z"/>
    <path class="cls-2" d="M125.48,40.42c.03-.31,.08-.62,.12-.94-.53,.67-1.09,1.3-1.7,1.87-1.41,1.34-2.68,2.2-3.83,2.57-.87,.28-1.81,.19-2.81-.23-.12,.56-.26,1.14-.44,1.76-.24,.82-.48,1.65-.73,2.49-.25,.84-.5,1.64-.75,2.42-.25,.77-.46,1.44-.63,2.01,1.24-.87,2.32-1.61,3.25-2.22,.23-.15,.46-.28,.69-.43,.03-.08,.06-.15,.09-.22,.64-1.41,1.35-2.74,2.14-3.98,.79-1.24,1.62-2.33,2.49-3.27,.74-.8,1.44-1.4,2.11-1.84Z"/>
    <path class="cls-1" d="M128.59,20.56c-.3-.2-.64-.37-1.01-.5-.37-.13-.77-.25-1.21-.35-.84-.17-1.44-.03-1.81,.4-.14,.2-.3,.47-.48,.81-.18,.34-.39,.74-.63,1.21-.24,.47-.43,.96-.58,1.46-.15,.5-.31,1.01-.48,1.51-.07,.34,.17,.65,.71,.96,.43,.3,.99,.5,1.66,.6,.6,.1,1.06-.03,1.36-.4,.2-.23,.4-.49,.58-.75,.18-.27,.39-.54,.63-.81,.2-.3,.4-.6,.6-.91,.2-.3,.39-.59,.55-.86,.13-.2,.25-.37,.35-.5,.1-.13,.2-.27,.3-.4,.1-.27,.12-.51,.05-.73-.07-.22-.27-.46-.6-.73Z"/>
    <path class="cls-1" d="M103.94,28.09c-.44-.62-1.02-1.12-1.74-1.49-.72-.37-1.54-.57-2.44-.6-.91-.03-1.73,.2-2.47,.71-1.18,.81-2.42,1.82-3.73,3.05-.3,.28-.6,.59-.9,.89-.17,0-.31,.04-.42,.15-.09,.18-.19,.37-.29,.55-.77,.78-1.54,1.58-2.31,2.44-1.31,1.46-2.57,2.99-3.78,4.58-.57,.75-1.11,1.49-1.63,2.23-.26,.2-.53,.39-.78,.57-.99,.67-1.75,.96-2.29,.86-.37-.07-.57-.36-.6-.88-.03-.52,0-1.12,.1-1.79,.1-.67,.25-1.33,.45-1.99,.2-.65,.39-1.15,.55-1.49,.6,.27,1.16,.44,1.66,.5,.5,.07,1.09,.02,1.76-.15,.94-.3,1.79-.9,2.54-1.79,.75-.89,1.39-1.85,1.91-2.87,.52-1.02,.92-2.01,1.21-2.94s.43-1.59,.43-1.96c.07-.77-.3-1.41-1.11-1.91-.57-.33-1.08-.65-1.54-.93-.45-.28-.9-.5-1.33-.65-.44-.15-.86-.22-1.26-.2-.4,.02-.84,.14-1.31,.38-.77,.44-1.59,1.12-2.47,2.06-.87,.94-1.7,2.03-2.49,3.27-.79,1.24-1.5,2.57-2.14,3.98-.56,1.24-.98,2.43-1.29,3.59-.08-.05-.18-.1-.3-.15-.12-.05-.24-.13-.35-.25-.12-.12-.19-.33-.23-.63-.13-1.38-.1-2.82,.1-4.33,.1-1.04,.18-1.81,.25-2.32,.07-.5,.02-.89-.15-1.16-.17-.27-.49-.49-.96-.65-.47-.17-1.17-.43-2.11-.81-.47-.2-.81-.28-1.01-.23-.2,.05-.45,.31-.76,.78-.07,.1-.24,.39-.53,.86-.29,.47-.61,.96-.98,1.46-.4,.6-.86,1.26-1.36,1.96,.54-1.31,1.06-2.47,1.56-3.5,.5-1.02,.97-2.01,1.41-2.94,.23-.5,.19-.95-.13-1.33-.32-.39-.86-.71-1.64-.98-.34-.1-.65-.12-.96-.05-.3,.07-.54,.25-.7,.55-.81,1.38-1.63,2.94-2.47,4.68-.84,1.75-1.63,3.58-2.37,5.51-.23,.61-.44,1.23-.66,1.85-.46,.62-.94,1.26-1.45,1.9-1.04,1.31-2.17,2.61-3.4,3.9-1.23,1.29-2.48,2.43-3.75,3.4-.33,.25-.66,.49-.99,.72-.95,.64-1.9,1.18-2.86,1.6-1.29,.57-2.53,.79-3.7,.65-1.28-.13-2.18-.75-2.72-1.84-.54-1.09-.79-2.47-.76-4.15,.03-1.68,.31-3.57,.83-5.69,.52-2.11,1.19-4.26,2.01-6.44,.82-2.18,1.74-4.3,2.77-6.37,.91-1.84,1.85-3.48,2.8-4.95,.12-.18,.23-.36,.35-.54,1.07-1.59,2.12-2.87,3.15-3.83,1.02-.96,1.94-1.42,2.74-1.38,.81,.07,1.31,.54,1.51,1.41,.2,.87,.2,1.98,0,3.32-.2,1.34-.55,2.81-1.06,4.4-.5,1.59-1.06,3.12-1.66,4.58-.6,1.46-1.19,2.76-1.76,3.9-.57,1.14-1.02,1.93-1.36,2.37-.12,.15-.22,.3-.29,.44v1.11s0,.02,.01,.03c.29,.49,.7,.88,1.26,1.18,.55,.3,1.13,.47,1.74,.5,.6,.03,1.01-.1,1.21-.4,.67-1.14,1.36-2.52,2.06-4.15,.7-1.63,1.34-3.35,1.91-5.16,.57-1.81,1.04-3.64,1.41-5.49,.37-1.85,.55-3.55,.55-5.11s-.23-2.9-.68-4.03c-.45-1.12-1.22-1.85-2.29-2.19-1.71-.57-3.42-.59-5.11-.05-1.01,.32-2,.79-2.96,1.39-.66,.4-1.31,.85-1.95,1.38-.99,.82-1.94,1.78-2.85,2.85-.55,.64-1.08,1.31-1.6,2.03-.33,.46-.65,.94-.97,1.42-1.01,1.54-1.93,3.19-2.76,4.93-1.09,2.28-2.02,4.63-2.79,7.05-.77,2.42-1.31,4.77-1.61,7.05-.27,1.88-.36,3.66-.28,5.34,.08,1.68,.37,3.16,.86,4.46,.19,.5,.42,.96,.68,1.4,.4,.68,.87,1.27,1.43,1.78,.92,.82,2.11,1.3,3.55,1.43,2.25,.27,4.44-.06,6.57-.98,2.13-.92,4.21-2.29,6.24-4.1,1.34-1.19,2.65-2.57,3.93-4.09-.21,.93-.39,1.84-.54,2.73-.07,.37,.08,.72,.45,1.06,.37,.34,.81,.6,1.31,.81,.5,.2,.98,.29,1.43,.28,.45-.02,.73-.21,.83-.58,.74-3.02,1.74-5.66,3.02-7.93,1.27-2.27,2.8-4.37,4.58-6.32,.03,.67,.03,1.33,0,1.99-.03,.65,.03,1.27,.2,1.84,.07,.34,.36,.63,.88,.88,.52,.25,1.08,.45,1.69,.58,.6,.13,1.17,.18,1.69,.15,.27-.02,.47-.07,.62-.15-.29,1.25-.41,2.42-.35,3.49,.07,1.12,.42,2.02,1.06,2.69,.3,.3,.69,.62,1.16,.96,.34,.24,.72,.46,1.11,.66-.87,.46-1.75,.94-2.65,1.48-1.21,.72-2.34,1.47-3.4,2.24-1.06,.77-1.82,1.46-2.29,2.06-.37,.47-.5,1.05-.4,1.74,.1,.69,.32,1.32,.65,1.89,.34,.57,.73,1.03,1.18,1.36,.45,.34,.86,.4,1.23,.2,.03-.54,.3-1.13,.81-1.79,.5-.65,1.06-1.27,1.66-1.84,.6-.57,1.16-1.06,1.66-1.46,.5-.4,.77-.6,.81-.6-1.38,2.68-2.29,5.02-2.74,7-.45,1.98-.63,3.67-.53,5.08,.1,1.41,.39,2.56,.88,3.45,.49,.89,1.01,1.59,1.59,2.09,.13,.1,.31,.18,.53,.23,.22,.05,.42,.05,.6,0,.18-.05,.33-.16,.43-.33,.1-.17,.08-.4-.05-.7-.34-.87-.44-1.91-.33-3.12s.36-2.48,.73-3.83c.37-1.34,.83-2.69,1.38-4.05,.55-1.36,1.11-2.62,1.66-3.8,.55-1.17,1.07-2.2,1.54-3.07,.47-.87,.82-1.48,1.06-1.81,.47-.4,1.15-.76,2.04-1.08,.89-.32,1.79-.55,2.69-.7,.91-.15,1.71-.2,2.42-.15,.7,.05,1.09,.21,1.16,.48-1.31,3.16-2.55,6.28-3.73,9.39-1.18,3.1-2.2,6.22-3.07,9.34-.17,.5,0,.94,.5,1.31,.5,.37,1.09,.6,1.76,.7,.67,.1,1.32,.05,1.96-.15,.64-.2,1.04-.6,1.21-1.21,.5-2.05,1.14-4.28,1.91-6.69,.77-2.42,1.61-4.87,2.52-7.38,.91-2.5,1.85-4.99,2.82-7.48,.97-2.48,1.9-4.81,2.77-7,.37-.94,.77-2.02,1.21-3.25,.44-1.22,.79-2.27,1.06-3.15,.2-.7,.08-1.37-.35-1.99Zm-20.78,4.46c.35-.64,.77-1.32,1.26-2.06,.49-.74,.99-1.43,1.51-2.09,.52-.65,.95-1.1,1.28-1.33-.07,.57-.23,1.26-.48,2.06-.25,.81-.59,1.57-1.01,2.29-.42,.72-.89,1.32-1.41,1.79-.52,.47-1.08,.65-1.69,.55,0-.17,.18-.57,.53-1.21Zm15.8-.81c-.2,.64-.51,1.46-.93,2.47-.42,1.01-.89,2.12-1.41,3.35-.52,1.23-1.03,2.39-1.54,3.5-.97-.13-1.91-.22-2.79-.25-.89-.03-1.92,.1-3.1,.4,1.71-2.42,3.37-4.46,4.98-6.14,1.61-1.68,3.22-3.09,4.83-4.23,.17-.03,.15,.27-.05,.91Z"/>
    <path class="cls-1" d="M187.86,48.47c-.17-.18-.42-.19-.75-.03-.94,.54-1.83,1.08-2.67,1.64-.84,.55-1.88,1.28-3.12,2.19,.17-.6,.39-1.35,.65-2.24,.27-.89,.55-1.83,.86-2.82,.3-.99,.58-1.95,.83-2.89s.43-1.76,.53-2.47c.07-.3-.08-.62-.43-.96-.35-.34-.78-.61-1.28-.83-.5-.22-.99-.33-1.46-.35-.47-.02-.81,.13-1.01,.43-.2,.37-.56,.97-1.08,1.79-.52,.82-1.12,1.75-1.79,2.79-.67,1.04-1.39,2.12-2.17,3.25-.77,1.12-1.51,2.16-2.21,3.1-.7,.94-1.34,1.73-1.91,2.37-.57,.64-1.01,.99-1.31,1.06-.3,.07-.35-.27-.13-1.01,.22-.74,.56-1.61,1.03-2.62,.47-1.01,1-2.01,1.59-3.02,.59-1.01,1.08-1.74,1.49-2.21,.3-.34,.32-.69,.05-1.06-.27-.37-.65-.68-1.13-.93-.49-.25-.99-.41-1.51-.48-.52-.07-.9,.03-1.13,.3-.67,.81-1.31,1.73-1.91,2.77-.11,.2-.22,.4-.33,.61-.14-.02-.25,0-.33,.1-.91,1.28-1.79,2.54-2.64,3.8-.86,1.26-1.7,2.41-2.54,3.45-.84,1.04-1.67,1.93-2.49,2.67-.82,.74-1.65,1.21-2.49,1.41-.81,.2-1.34,.02-1.61-.53-.27-.55-.35-1.32-.25-2.32,.1-.99,.34-2.1,.71-3.32,.37-1.22,.81-2.4,1.33-3.52,.52-1.12,1.07-2.11,1.64-2.94,.57-.84,1.09-1.36,1.56-1.56-.14,.27-.3,.6-.48,.98-.18,.39-.35,.79-.5,1.21-.15,.42-.27,.83-.35,1.23-.08,.4-.13,.75-.13,1.06,0,.54,.15,1,.45,1.38,.3,.39,.65,.7,1.06,.93,.4,.24,.8,.37,1.18,.4,.39,.03,.65-.05,.78-.25-.1-.37-.07-.86,.1-1.48,.17-.62,.44-1.3,.83-2.04,.39-.74,.86-1.48,1.41-2.21,.55-.74,1.15-1.41,1.79-2.01,.23-.2,.24-.51,.02-.93-.22-.42-.54-.82-.96-1.21-.42-.39-.9-.7-1.44-.93-.54-.23-1.01-.25-1.41-.05-.1,.03-.32,.28-.65,.73-.34,.45-.59,.81-.76,1.08-.64-.33-1.12-.59-1.46-.75-.34-.17-.72-.22-1.16-.15-.71,.17-1.44,.57-2.19,1.21-.76,.64-1.49,1.43-2.19,2.37-.71,.94-1.36,1.99-1.96,3.15-.45,.87-.84,1.75-1.2,2.64-.2,.32-.4,.64-.61,.96-.67,1.01-1.37,1.95-2.09,2.82-.72,.87-1.45,1.64-2.19,2.32-.74,.67-1.43,1.19-2.06,1.56,0-.7,.15-1.56,.45-2.57,.3-1.01,.65-2.06,1.06-3.15,.4-1.09,.82-2.13,1.26-3.12s.79-1.82,1.06-2.49c.17-.4,.11-.81-.18-1.23-.09-.13-.21-.25-.32-.37,.06-.03,.12-.03,.17-.06,1.07-.6,2.16-1.38,3.27-2.32,1.11-.94,2.16-1.98,3.17-3.12,1.01-1.14,1.9-2.36,2.69-3.65,.79-1.29,1.4-2.59,1.84-3.9,.13-.24,.15-.46,.05-.68-.1-.22-.25-.39-.45-.53-.2-.13-.41-.22-.63-.25-.22-.03-.4,.02-.53,.15-.64,1.31-1.48,2.65-2.52,4.03-1.04,1.38-2.1,2.61-3.17,3.7-1.07,1.09-2.11,1.97-3.1,2.64s-1.75,.96-2.29,.86c-.37-.07-.57-.36-.6-.88-.03-.52,0-1.12,.1-1.79,.1-.67,.25-1.33,.45-1.99,.2-.65,.39-1.15,.55-1.49,.6,.27,1.16,.44,1.66,.5,.5,.07,1.09,.02,1.76-.15,.94-.3,1.79-.9,2.54-1.79,.75-.89,1.39-1.85,1.91-2.87s.92-2.01,1.21-2.94c.28-.94,.43-1.59,.43-1.96,.07-.77-.3-1.41-1.11-1.91-.57-.33-1.08-.65-1.54-.93-.45-.28-.9-.5-1.33-.65-.44-.15-.86-.22-1.26-.2-.4,.02-.84,.14-1.31,.38-.77,.44-1.6,1.12-2.47,2.06-.87,.94-1.7,2.03-2.49,3.27-.79,1.24-1.5,2.57-2.14,3.98s-1.12,2.77-1.44,4.08c-.32,1.31-.44,2.53-.38,3.65,.07,1.12,.42,2.02,1.06,2.69,.3,.3,.69,.62,1.16,.96,.12,.08,.25,.16,.37,.24-.49,.32-.99,.69-1.51,1.12-.64,.54-1.27,1.14-1.89,1.81-.62,.67-1.24,1.39-1.86,2.16-.62,.77-1.2,1.54-1.74,2.32,.03-.17,.18-.49,.43-.96,.25-.47,.55-1.01,.91-1.64,.35-.62,.72-1.29,1.11-2.01,.39-.72,.75-1.44,1.08-2.14,.1-.27,0-.59-.33-.96-.32-.37-.73-.67-1.23-.91-.5-.23-1.02-.35-1.54-.35s-.9,.24-1.13,.7c-.74,1.29-1.41,2.7-2.04,4.18-.02,.02-.05,.02-.08,.04-.64,1.31-1.48,2.65-2.52,4.03-1.04,1.38-2.1,2.61-3.17,3.7-1.07,1.09-2.11,1.97-3.1,2.64s-1.75,.96-2.29,.86c-.37-.07-.57-.36-.6-.88-.03-.52,0-1.12,.1-1.79,.1-.67,.25-1.33,.45-1.99,.2-.65,.39-1.15,.55-1.49,.6,.27,1.16,.44,1.66,.5,.5,.07,1.09,.02,1.76-.15,.94-.3,1.79-.9,2.54-1.79,.75-.89,1.39-1.85,1.91-2.87,.52-1.02,.92-2.01,1.21-2.94,0-.02,0-.03,.02-.05,.65-.54,1.36-1.3,2.13-2.31,.89-1.17,1.76-2.47,2.62-3.9,.86-1.43,1.64-2.89,2.34-4.38,.7-1.49,1.24-2.84,1.61-4.05,.33-1.14,.37-2.24,.1-3.3-.27-1.06-.69-1.95-1.26-2.69-.57-.74-1.23-1.27-1.99-1.59-.76-.32-1.44-.34-2.04-.08,.97,.74,1.53,1.73,1.66,2.97,.13,1.24,0,2.58-.38,4.03-.39,1.44-.95,2.9-1.71,4.38-.75,1.48-1.52,2.81-2.29,4-.72,1.12-1.39,2.05-1.99,2.79-.37-.22-.72-.43-1.03-.63-.03-.02-.06-.03-.09-.05,.04-.2,.07-.4,.12-.63,.25-1.21,.55-2.47,.91-3.78,.35-1.31,.71-2.54,1.08-3.7,.37-1.16,.67-1.97,.91-2.44,.1-.24,0-.49-.3-.78-.3-.28-.67-.53-1.11-.73-.44-.2-.89-.33-1.36-.38-.47-.05-.82,.04-1.06,.28-.2,.2-.44,.63-.71,1.28-.27,.65-.55,1.46-.83,2.42-.09,.29-.18,.61-.26,.92-3.17,4.4-5.33,6.67-6.46,6.76-1.24,.17,.15-3.15,4.18-9.97,.2-.47,.02-.94-.55-1.41-.67-.47-1.39-.77-2.17-.91-.81-.2-1.38-.13-1.71,.2-1.28,1.85-2.47,4.09-3.57,6.75-.54,1.34-.97,2.53-1.28,3.55-.32,1.02-.53,1.92-.63,2.69,0,.2,.04,.38,.08,.56-.08,0-.15-.03-.23-.03-.45-.02-.83,.09-1.13,.33-.14,.1-.33,.34-.58,.71-.25,.37-.45,.64-.58,.81-.44-.34-.87-.65-1.28-.96,0,0,0,0,0,0,.21-1.19,.5-2.43,.89-3.75,.59-1.96,1.4-4.1,2.44-6.42,1.95-4.56,4.3-8.72,7.05-12.48,3.72-.6,6.96-.67,9.71-.2,2.72,.5,3.98,1.51,3.78,3.02,.3-.17,.51-.38,.63-.63,.12-.25,.21-.61,.28-1.08,.03-.4,0-.82-.12-1.26-.12-.43-.31-.86-.58-1.26-.5-.91-1.38-1.53-2.62-1.86-2.25-.54-4.9-.7-7.95-.5,.07-.07,.13-.12,.18-.15,.05-.03,.11-.08,.18-.15,.54-.64,.57-1.31,.1-2.01-.5-.7-1.18-1.22-2.01-1.56-.87-.4-1.54-.4-2.01,0-.6,.64-1.24,1.38-1.91,2.21-.67,.84-1.34,1.81-2.01,2.92-1.91,.47-3.74,1-5.49,1.59-1.74,.59-3.44,1.25-5.09,1.99-.3,.17-.4,.49-.3,.96,.17,.44,.42,.86,.75,1.26,.4,.54,.81,.91,1.21,1.11,.4,.27,.75,.29,1.06,.05,.77-.5,1.59-.97,2.47-1.41,.87-.43,1.81-.84,2.82-1.21-1.21,2.15-2.32,4.31-3.32,6.49-1.01,2.18-1.95,4.38-2.82,6.59-.84,2.22-1.45,4.15-1.84,5.81-.2,.85-.34,1.64-.43,2.36-.73,.59-1.47,1.28-2.2,2.09-.94,1.04-1.82,2.17-2.64,3.4-.82,1.23-1.54,2.5-2.14,3.83-.6,1.33-1.02,2.59-1.26,3.8-.1,.47,.03,.93,.4,1.38,.37,.45,.83,.83,1.38,1.13,.55,.3,1.13,.5,1.74,.6,.6,.1,1.09,.03,1.46-.2,.6-.4,1.24-.91,1.91-1.51s1.33-1.26,1.99-1.96c.65-.71,1.28-1.41,1.86-2.11,.59-.7,1.12-1.34,1.59-1.91-.24,.67-.52,1.45-.86,2.34-.34,.89-.69,1.67-1.06,2.34-.17,.34-.78,.94-1.84,1.81-1.06,.87-2.26,1.88-3.6,3.02-1.34,1.14-2.68,2.37-4.03,3.7-1.34,1.33-2.4,2.61-3.17,3.85-.6,.97-.76,1.85-.45,2.62,.3,.77,.8,1.41,1.48,1.91,.69,.5,1.44,.86,2.27,1.06,.82,.2,1.44,.24,1.84,.1,.94-.3,1.94-1.04,3-2.21,1.06-1.18,2.11-2.56,3.15-4.15,1.04-1.6,2.02-3.25,2.94-4.96,.92-1.71,1.7-3.26,2.34-4.63,.3-.57,.65-1.01,1.06-1.31,1.04-.87,2.14-1.71,3.3-2.52,.23-.16,.47-.31,.7-.47-.31,1.3-.44,2.5-.37,3.62,.07,1.12,.42,2.02,1.06,2.69,.3,.3,.69,.62,1.16,.96,.47,.34,.99,.63,1.56,.88,.57,.25,1.14,.41,1.71,.48,.57,.07,1.11-.03,1.61-.3,1.07-.6,2.16-1.38,3.27-2.32,1.03-.87,2-1.84,2.94-2.88-.04,.13-.08,.26-.12,.39-.4,1.33-.71,2.39-.91,3.2-.1,.3,.04,.6,.43,.91s.83,.54,1.33,.71c.5,.17,1.01,.24,1.51,.23,.5-.02,.84-.18,1.01-.48,.37-.77,.9-1.74,1.59-2.92,.69-1.17,1.44-2.37,2.27-3.57,.82-1.21,1.65-2.35,2.49-3.42,.84-1.07,1.59-1.9,2.27-2.47-.1,.24-.28,.75-.53,1.54-.25,.79-.5,1.67-.75,2.64-.25,.97-.45,1.95-.58,2.92-.13,.97-.13,1.75,0,2.32,.07,.34,.32,.67,.75,1.01,.44,.34,.94,.6,1.51,.81,.57,.2,1.16,.33,1.76,.38,.6,.05,1.14-.04,1.61-.28,.71-.37,1.47-.99,2.29-1.86,.51-.54,1.02-1.15,1.52-1.78,0,.28-.01,.56,.02,.82,.03,.57,.35,1.13,.93,1.69s1.27,1.02,2.06,1.41c.79,.39,1.61,.67,2.47,.86,.86,.18,1.59,.19,2.19,.02,1.24-.33,2.44-1.07,3.6-2.19,1.16-1.12,2.24-2.38,3.25-3.78,.02-.02,.03-.04,.05-.07-.08,.45,.06,.89,.41,1.32,.37,.45,.83,.83,1.38,1.13s1.13,.5,1.74,.6c.6,.1,1.09,.03,1.46-.2,.6-.4,1.25-.92,1.94-1.56,.69-.64,1.37-1.34,2.04-2.11,.67-.77,1.33-1.58,1.99-2.44,.65-.86,1.23-1.7,1.74-2.54-.1,.37-.25,.81-.45,1.33-.2,.52-.4,1.06-.6,1.61s-.41,1.09-.63,1.61c-.22,.52-.41,.95-.58,1.28-.17,.34-.78,.94-1.84,1.81-1.06,.87-2.27,1.88-3.62,3.02-1.36,1.14-2.71,2.37-4.05,3.7-1.34,1.33-2.4,2.61-3.17,3.85-.6,.97-.78,1.84-.53,2.59,.25,.76,.69,1.38,1.31,1.86,.62,.49,1.32,.82,2.09,1.01,.77,.18,1.38,.19,1.81,.03,1.14-.44,2.3-1.26,3.47-2.47,1.17-1.21,2.3-2.58,3.37-4.1,1.07-1.53,2.06-3.13,2.97-4.81,.91-1.68,1.69-3.2,2.37-4.58,.23-.47,.59-.89,1.06-1.26,1.04-.87,2.12-1.7,3.25-2.49,1.12-.79,2.34-1.58,3.65-2.39,.43-.3,.75-.67,.96-1.11,.2-.43,.31-.83,.33-1.18,.02-.35-.06-.62-.23-.81Zm-39.76-15.93c.35-.64,.77-1.32,1.26-2.06,.49-.74,.99-1.43,1.51-2.09,.52-.65,.95-1.1,1.28-1.33-.07,.57-.23,1.26-.48,2.06-.25,.81-.59,1.57-1.01,2.29-.42,.72-.89,1.32-1.41,1.79-.52,.47-1.08,.65-1.69,.55,0-.17,.18-.57,.53-1.21Zm-40.2,17.24c-.72,.92-1.39,1.74-2.01,2.44-.62,.71-1.18,1.26-1.66,1.66-.49,.4-.83,.6-1.03,.6s-.27-.15-.2-.45c.2-.57,.52-1.24,.96-2.01,.44-.77,.94-1.58,1.51-2.42,.48-.71,1.01-1.4,1.56-2.07,.37,.63,.85,1.14,1.42,1.53-.18,.24-.35,.49-.53,.72Zm-6.44,17.44c-1.12,1.44-2.24,2.57-3.35,3.37,.03-.34,.26-.81,.68-1.43,.42-.62,.95-1.29,1.59-2.01s1.32-1.45,2.04-2.19c.72-.74,1.38-1.41,1.99-2.01-.84,1.41-1.82,2.84-2.94,4.28Zm25.42-21.63c.32,.17,.67,.32,1.04,.41-.25,.79-.58,1.55-1,2.26-.42,.72-.89,1.32-1.41,1.79-.52,.47-1.08,.65-1.69,.55,0-.17,.18-.57,.53-1.21,.35-.64,.77-1.32,1.26-2.06,.41-.62,.83-1.19,1.26-1.74Zm-8.13,3.91c-.03,.08-.06,.15-.09,.22-.23,.15-.46,.28-.69,.43-.92,.6-2.01,1.34-3.25,2.22,.17-.57,.38-1.24,.63-2.01,.25-.77,.5-1.58,.75-2.42,.25-.84,.49-1.67,.73-2.49,.18-.63,.32-1.21,.44-1.76,1.01,.42,1.95,.51,2.81,.23,1.14-.37,2.42-1.22,3.83-2.57,.61-.58,1.17-1.21,1.7-1.87-.05,.32-.09,.64-.12,.94-.67,.44-1.37,1.04-2.11,1.84-.87,.94-1.7,2.03-2.49,3.27-.79,1.24-1.5,2.57-2.14,3.98Zm50.84,15.5c-.54,.74-1.1,1.46-1.69,2.16-.59,.71-1.18,1.35-1.79,1.94-.6,.59-1.17,1.08-1.71,1.48,.03-.34,.29-.82,.75-1.46,.47-.64,1.03-1.33,1.69-2.06,.65-.74,1.36-1.49,2.11-2.24s1.44-1.42,2.04-1.99c-.4,.7-.87,1.43-1.41,2.16Z"/>
  </g>
</svg>