<?xml version="1.0" encoding="UTF-8"?>
<svg xmlns="http://www.w3.org/2000/svg" xmlns:xlink="http://www.w3.org/1999/xlink" viewBox="0 0 608.42 395.86">
  <defs>
    <style>
      .cls-1 {
        fill: url(#radial-gradient-3);
      }

      .cls-1, .cls-2, .cls-3, .cls-4, .cls-5 {
        mix-blend-mode: screen;
      }

      .cls-6 {
        fill: #b055f0;
      }

      .cls-7 {
        fill: url(#linear-gradient-2);
      }

      .cls-8 {
        fill: url(#linear-gradient-18);
      }

      .cls-8, .cls-9, .cls-10, .cls-11, .cls-12, .cls-13 {
        opacity: .64;
      }

      .cls-9 {
        fill: url(#linear-gradient-13);
      }

      .cls-14 {
        fill: url(#linear-gradient-51);
      }

      .cls-10 {
        fill: url(#linear-gradient-20);
      }

      .cls-15, .cls-16, .cls-17 {
        fill: #fff;
      }

      .cls-2 {
        fill: url(#radial-gradient);
      }

      .cls-18 {
        fill: url(#linear-gradient-17);
      }

      .cls-11 {
        fill: url(#linear-gradient-19);
      }

      .cls-19 {
        fill: url(#linear-gradient-64);
      }

      .cls-19, .cls-20, .cls-21, .cls-22, .cls-23, .cls-24, .cls-17, .cls-25, .cls-26, .cls-27, .cls-28 {
        opacity: .44;
      }

      .cls-29 {
        fill: #411859;
      }

      .cls-30 {
        fill: url(#linear-gradient-43);
      }

      .cls-31 {
        fill: url(#linear-gradient-15);
      }

      .cls-32 {
        fill: url(#linear-gradient-58);
      }

      .cls-33 {
        fill: url(#linear-gradient-56);
      }

      .cls-20 {
        fill: url(#linear-gradient-5);
      }

      .cls-34 {
        fill: url(#linear-gradient-28);
      }

      .cls-35 {
        fill: url(#linear-gradient-36);
      }

      .cls-36 {
        stroke: #23023d;
      }

      .cls-36, .cls-37, .cls-38 {
        fill: none;
        stroke-miterlimit: 10;
      }

      .cls-36, .cls-38 {
        stroke-width: .7px;
      }

      .cls-39 {
        fill: url(#linear-gradient-53);
      }

      .cls-40 {
        isolation: isolate;
      }

      .cls-37 {
        opacity: .45;
        stroke-width: .4px;
      }

      .cls-37, .cls-38 {
        stroke: #fff;
      }

      .cls-41 {
        fill: url(#linear-gradient-60);
      }

      .cls-3 {
        fill: url(#radial-gradient-5);
      }

      .cls-16 {
        opacity: .86;
      }

      .cls-42 {
        fill: url(#linear-gradient-35);
      }

      .cls-43 {
        fill: url(#linear-gradient-32);
      }

      .cls-44 {
        fill: url(#linear-gradient-52);
        opacity: .47;
      }

      .cls-45 {
        fill: url(#linear-gradient-50);
      }

      .cls-46 {
        fill: url(#linear-gradient-39);
      }

      .cls-46, .cls-47 {
        opacity: .48;
      }

      .cls-47 {
        fill: url(#linear-gradient-47);
      }

      .cls-48 {
        fill: url(#linear-gradient-10);
      }

      .cls-49 {
        opacity: .58;
      }

      .cls-21 {
        fill: url(#linear-gradient-4);
      }

      .cls-50 {
        fill: url(#linear-gradient-59);
      }

      .cls-22 {
        fill: url(#linear-gradient-46);
      }

      .cls-23 {
        fill: url(#linear-gradient-48);
      }

      .cls-51 {
        fill: url(#linear-gradient-37);
      }

      .cls-24 {
        fill: url(#linear-gradient-55);
      }

      .cls-52 {
        fill: url(#linear-gradient-16);
      }

      .cls-53 {
        fill: url(#linear-gradient-31);
      }

      .cls-54 {
        fill: #a446cf;
      }

      .cls-55 {
        fill: url(#linear-gradient-61);
      }

      .cls-56 {
        fill: url(#linear-gradient-62);
      }

      .cls-57 {
        fill: url(#linear-gradient-41);
      }

      .cls-58 {
        fill: url(#linear-gradient-25);
      }

      .cls-59 {
        fill: url(#linear-gradient-54);
      }

      .cls-25 {
        fill: url(#linear-gradient-40);
      }

      .cls-60 {
        fill: url(#linear-gradient-45);
      }

      .cls-61 {
        fill: url(#linear-gradient-63);
        opacity: .32;
      }

      .cls-62 {
        fill: #2d113d;
      }

      .cls-63 {
        fill: url(#linear-gradient-34);
      }

      .cls-64 {
        fill: url(#linear-gradient-7);
      }

      .cls-65 {
        fill: #6f1b9a;
      }

      .cls-12 {
        fill: url(#linear-gradient-11);
      }

      .cls-4 {
        fill: url(#radial-gradient-2);
      }

      .cls-5 {
        fill: url(#radial-gradient-4);
      }

      .cls-66 {
        fill: url(#linear-gradient-24);
      }

      .cls-67 {
        fill: url(#linear-gradient-9);
      }

      .cls-68 {
        fill: url(#linear-gradient-22);
      }

      .cls-69 {
        fill: url(#linear-gradient-42);
      }

      .cls-70 {
        fill: url(#linear-gradient-21);
        opacity: .8;
      }

      .cls-71 {
        fill: url(#linear-gradient-3);
      }

      .cls-26 {
        fill: url(#linear-gradient-6);
      }

      .cls-72 {
        fill: url(#linear-gradient);
      }

      .cls-73 {
        fill: url(#linear-gradient-27);
      }

      .cls-13 {
        fill: url(#linear-gradient-12);
      }

      .cls-74 {
        fill: #160536;
        opacity: .36;
      }

      .cls-75 {
        fill: url(#linear-gradient-33);
      }

      .cls-76 {
        fill: url(#linear-gradient-38);
      }

      .cls-77 {
        fill: url(#linear-gradient-29);
      }

      .cls-78 {
        fill: #23023d;
      }

      .cls-79 {
        fill: url(#linear-gradient-30);
      }

      .cls-80 {
        fill: url(#linear-gradient-23);
      }

      .cls-81 {
        mix-blend-mode: overlay;
        opacity: .5;
      }

      .cls-82 {
        fill: url(#linear-gradient-8);
      }

      .cls-83 {
        fill: url(#linear-gradient-44);
      }

      .cls-84 {
        fill: url(#linear-gradient-57);
      }

      .cls-27 {
        fill: url(#linear-gradient-14);
      }

      .cls-28 {
        fill: url(#linear-gradient-49);
      }

      .cls-85 {
        fill: url(#linear-gradient-26);
      }
    </style>
    <linearGradient id="linear-gradient" x1="-2.14" y1="13.27" x2="606.03" y2="379.86" gradientUnits="userSpaceOnUse">
      <stop offset=".02" stop-color="#45108a"/>
      <stop offset=".29" stop-color="#3d065f"/>
      <stop offset="1" stop-color="#12054e"/>
      <stop offset="1" stop-color="#10054d"/>
    </linearGradient>
    <linearGradient id="linear-gradient-2" x1="538.36" y1="282.86" x2="369.42" y2="210.53" gradientUnits="userSpaceOnUse">
      <stop offset=".23" stop-color="#c972fd"/>
      <stop offset=".32" stop-color="#bc7afc"/>
      <stop offset=".48" stop-color="#9c90fc"/>
      <stop offset=".69" stop-color="#68b3fb"/>
      <stop offset=".94" stop-color="#21e3fa"/>
      <stop offset="1" stop-color="#11effa"/>
    </linearGradient>
    <linearGradient id="linear-gradient-3" x1="349.57" y1="281.87" x2="110.42" y2="216.93" xlink:href="#linear-gradient-2"/>
    <linearGradient id="linear-gradient-4" x1="205.66" y1="208.69" x2="204.55" y2="258.05" gradientTransform="translate(0 331.03) scale(1 -1)" gradientUnits="userSpaceOnUse">
      <stop offset="0" stop-color="#dfb8ff"/>
      <stop offset="1" stop-color="#dfb8ff" stop-opacity="0"/>
    </linearGradient>
    <linearGradient id="linear-gradient-5" x1="206.07" y1="108.15" x2="204.67" y2="170.62" gradientTransform="matrix(1, 0, 0, 1, 0, 0)" xlink:href="#linear-gradient-4"/>
    <linearGradient id="linear-gradient-6" x1="206.07" y1="56.37" x2="204.67" y2="118.84" gradientTransform="matrix(1, 0, 0, 1, 0, 0)" xlink:href="#linear-gradient-4"/>
    <linearGradient id="linear-gradient-7" x1="169.34" y1="92.45" x2="249.05" y2="150.88" xlink:href="#linear-gradient-2"/>
    <linearGradient id="linear-gradient-8" x1="189.74" y1="109.12" x2="255.99" y2="86.25" gradientUnits="userSpaceOnUse">
      <stop offset="0" stop-color="#b055f0"/>
      <stop offset=".42" stop-color="#880fb6"/>
      <stop offset=".5" stop-color="#7d0da9"/>
      <stop offset=".65" stop-color="#630a89"/>
      <stop offset=".85" stop-color="#380456"/>
      <stop offset="1" stop-color="#13002a"/>
    </linearGradient>
    <linearGradient id="linear-gradient-9" x1="179.73" y1="114.76" x2="183.87" y2="150.22" xlink:href="#linear-gradient-8"/>
    <linearGradient id="linear-gradient-10" x1="180.72" y1="135.4" x2="189.52" y2="147.98" xlink:href="#linear-gradient-8"/>
    <linearGradient id="linear-gradient-11" x1="199.76" y1="134.16" x2="192.36" y2="118.69" gradientTransform="translate(7.57 -10.03) rotate(2.84)" gradientUnits="userSpaceOnUse">
      <stop offset="0" stop-color="#861dd1"/>
      <stop offset="1" stop-color="#c476fd"/>
    </linearGradient>
    <linearGradient id="linear-gradient-12" x1="209.88" y1="128.29" x2="202.47" y2="112.81" gradientTransform="translate(7.31 -10.51) rotate(2.84)" xlink:href="#linear-gradient-11"/>
    <linearGradient id="linear-gradient-13" x1="219.81" y1="122.39" x2="212.41" y2="106.92" gradientTransform="translate(7.04 -10.99) rotate(2.84)" xlink:href="#linear-gradient-11"/>
    <linearGradient id="linear-gradient-14" x1="203.34" y1="85.64" x2="204.4" y2="23.57" gradientTransform="matrix(1, 0, 0, 1, 0, 0)" xlink:href="#linear-gradient-4"/>
    <linearGradient id="linear-gradient-15" x1="169.34" y1="48.74" x2="249.05" y2="107.16" xlink:href="#linear-gradient-2"/>
    <linearGradient id="linear-gradient-16" x1="189.74" y1="65.41" x2="255.99" y2="42.53" xlink:href="#linear-gradient-8"/>
    <linearGradient id="linear-gradient-17" x1="179.73" y1="71.04" x2="183.87" y2="106.5" xlink:href="#linear-gradient-8"/>
    <linearGradient id="linear-gradient-18" x1="197.59" y1="90.5" x2="190.19" y2="75.03" xlink:href="#linear-gradient-11"/>
    <linearGradient id="linear-gradient-19" x1="207.71" y1="84.63" x2="200.31" y2="69.15" gradientTransform="translate(7.31 -10.51) rotate(2.84)" xlink:href="#linear-gradient-11"/>
    <linearGradient id="linear-gradient-20" x1="217.65" y1="78.73" x2="210.24" y2="63.26" gradientTransform="translate(7.04 -10.99) rotate(2.84)" xlink:href="#linear-gradient-11"/>
    <linearGradient id="linear-gradient-21" x1="181.56" y1="183.33" x2="488.82" y2="308.98" gradientUnits="userSpaceOnUse">
      <stop offset=".54" stop-color="#13002a" stop-opacity=".8"/>
      <stop offset="1" stop-color="#160536" stop-opacity="0"/>
    </linearGradient>
    <linearGradient id="linear-gradient-22" x1="346.41" y1="240.05" x2="421.73" y2="309.03" xlink:href="#linear-gradient-8"/>
    <linearGradient id="linear-gradient-23" x1="195.61" y1="190.83" x2="370.53" y2="307.33" xlink:href="#linear-gradient-8"/>
    <linearGradient id="linear-gradient-24" x1="469.93" y1="305.16" x2="144.73" y2="101.73" xlink:href="#linear-gradient-2"/>
    <linearGradient id="linear-gradient-25" x1="214.46" y1="160.01" x2="405.05" y2="249.76" xlink:href="#linear-gradient-8"/>
    <radialGradient id="radial-gradient" cx="374.68" cy="795.57" fx="374.68" fy="795.57" r="27.34" gradientTransform="translate(-504.83 -90.35) rotate(-58.39) scale(.39 1) skewX(.01)" gradientUnits="userSpaceOnUse">
      <stop offset=".03" stop-color="#fffdff"/>
      <stop offset=".11" stop-color="#917dff"/>
      <stop offset=".12" stop-color="#7f6bec"/>
      <stop offset=".17" stop-color="#5e48c9"/>
      <stop offset=".2" stop-color="#4932b3"/>
      <stop offset=".23" stop-color="#422bac"/>
      <stop offset=".27" stop-color="#36238d"/>
      <stop offset=".34" stop-color="#271a68"/>
      <stop offset=".42" stop-color="#1b1147"/>
      <stop offset=".5" stop-color="#110b2d"/>
      <stop offset=".58" stop-color="#090619"/>
      <stop offset=".68" stop-color="#04020a"/>
      <stop offset=".8" stop-color="#000002"/>
      <stop offset="1" stop-color="#000"/>
    </radialGradient>
    <linearGradient id="linear-gradient-26" x1="271.13" y1="159.22" x2="383" y2="159.22" gradientUnits="userSpaceOnUse">
      <stop offset="0" stop-color="#00dafe"/>
      <stop offset=".41" stop-color="#bd7afd"/>
      <stop offset="1" stop-color="#8e1abf"/>
    </linearGradient>
    <linearGradient id="linear-gradient-27" x1="336.6" y1="133.72" x2="384.9" y2="219.51" gradientUnits="userSpaceOnUse">
      <stop offset="0" stop-color="#5c4dff"/>
      <stop offset="1" stop-color="#411859"/>
    </linearGradient>
    <linearGradient id="linear-gradient-28" x1="273.01" y1="89.4" x2="308.12" y2="159.88" xlink:href="#linear-gradient-27"/>
    <linearGradient id="linear-gradient-29" x1="97.16" y1="185.11" x2="187.88" y2="217.77" gradientUnits="userSpaceOnUse">
      <stop offset="0" stop-color="#d79eff"/>
      <stop offset="1" stop-color="#880fb6"/>
    </linearGradient>
    <linearGradient id="linear-gradient-30" x1="129.62" y1="201.48" x2="162.68" y2="237.57" gradientUnits="userSpaceOnUse">
      <stop offset="0" stop-color="#aa42f5"/>
      <stop offset="1" stop-color="#560a73"/>
    </linearGradient>
    <linearGradient id="linear-gradient-31" x1="149.25" y1="200.2" x2="155.44" y2="223.63" xlink:href="#linear-gradient-30"/>
    <linearGradient id="linear-gradient-32" x1="66.46" y1="169.91" x2="134.6" y2="242.89" xlink:href="#linear-gradient-29"/>
    <linearGradient id="linear-gradient-33" x1="114.81" y1="200.2" x2="121" y2="223.63" gradientTransform="translate(243.32) rotate(-180) scale(1 -1)" xlink:href="#linear-gradient-30"/>
    <linearGradient id="linear-gradient-34" x1="136.03" y1="199.46" x2="157.65" y2="213.37" xlink:href="#linear-gradient-30"/>
    <linearGradient id="linear-gradient-35" x1="97.53" y1="177.74" x2="139.36" y2="238.83" xlink:href="#linear-gradient-29"/>
    <linearGradient id="linear-gradient-36" x1="149.37" y1="196.54" x2="159.68" y2="215.84" xlink:href="#linear-gradient-30"/>
    <linearGradient id="linear-gradient-37" x1="114.92" y1="196.54" x2="125.24" y2="215.84" gradientTransform="translate(243.32) rotate(-180) scale(1 -1)" xlink:href="#linear-gradient-30"/>
    <linearGradient id="linear-gradient-38" x1="117.8" y1="179.23" x2="154.93" y2="216.95" xlink:href="#linear-gradient-30"/>
    <linearGradient id="linear-gradient-39" x1="132.22" y1="225.76" x2="200.32" y2="273.27" xlink:href="#linear-gradient-21"/>
    <linearGradient id="linear-gradient-40" x1="138.88" y1="223.08" x2="138.88" y2="141.14" gradientTransform="matrix(1, 0, 0, 1, 0, 0)" xlink:href="#linear-gradient-4"/>
    <linearGradient id="linear-gradient-41" x1="126" y1="263.47" x2="182.87" y2="283.95" xlink:href="#linear-gradient-29"/>
    <linearGradient id="linear-gradient-42" x1="146.35" y1="273.74" x2="167.08" y2="296.36" xlink:href="#linear-gradient-30"/>
    <linearGradient id="linear-gradient-43" x1="106.76" y1="253.95" x2="149.47" y2="299.69" xlink:href="#linear-gradient-29"/>
    <linearGradient id="linear-gradient-44" x1="150.37" y1="272.47" x2="163.92" y2="281.19" xlink:href="#linear-gradient-30"/>
    <linearGradient id="linear-gradient-45" x1="126.24" y1="258.85" x2="152.46" y2="297.15" xlink:href="#linear-gradient-29"/>
    <linearGradient id="linear-gradient-46" x1="152.16" y1="287.27" x2="152.16" y2="235.91" gradientTransform="matrix(1, 0, 0, 1, 0, 0)" xlink:href="#linear-gradient-4"/>
    <linearGradient id="linear-gradient-47" x1="147.98" y1="288.95" x2="190.67" y2="318.74" xlink:href="#linear-gradient-21"/>
    <linearGradient id="linear-gradient-48" x1="430.89" y1="133.22" x2="429.48" y2="90.1" gradientTransform="matrix(1, 0, 0, 1, 0, 0)" xlink:href="#linear-gradient-4"/>
    <linearGradient id="linear-gradient-49" x1="430.97" y1="135.11" x2="429.57" y2="173.94" gradientTransform="matrix(1, 0, 0, 1, 0, 0)" xlink:href="#linear-gradient-4"/>
    <linearGradient id="linear-gradient-50" x1="418.73" y1="107.31" x2="446.53" y2="165.2" gradientTransform="translate(72.6 -140.23) rotate(20.1)" xlink:href="#linear-gradient-8"/>
    <linearGradient id="linear-gradient-51" x1="415.23" y1="102.22" x2="444.26" y2="166.62" gradientTransform="translate(72.66 -139.59) rotate(20.1)" xlink:href="#linear-gradient-26"/>
    <linearGradient id="linear-gradient-52" x1="391.35" y1="161.78" x2="440.71" y2="193.72" xlink:href="#linear-gradient-21"/>
    <radialGradient id="radial-gradient-2" cx="960.1" cy="1159.22" fx="960.1" fy="1159.22" r="27.34" gradientTransform="translate(193.7 700.69) rotate(-132.94) scale(.29 .49) skewX(-.02)" xlink:href="#radial-gradient"/>
    <linearGradient id="linear-gradient-53" x1="457.61" y1="271.64" x2="551.06" y2="302.52" xlink:href="#linear-gradient-8"/>
    <linearGradient id="linear-gradient-54" x1="550.14" y1="310.44" x2="435.32" y2="236.27" xlink:href="#linear-gradient-2"/>
    <linearGradient id="linear-gradient-55" x1="512.76" y1="297.22" x2="511.71" y2="219.43" gradientTransform="matrix(1, 0, 0, 1, 0, 0)" xlink:href="#linear-gradient-4"/>
    <linearGradient id="linear-gradient-56" x1="288.42" y1="68.25" x2="356.27" y2="128.76" xlink:href="#linear-gradient-30"/>
    <linearGradient id="linear-gradient-57" x1="312.66" y1="57.5" x2="322.2" y2="85.78" xlink:href="#linear-gradient-30"/>
    <linearGradient id="linear-gradient-58" x1="298.25" y1="61.52" x2="305.92" y2="117.19" xlink:href="#linear-gradient-29"/>
    <linearGradient id="linear-gradient-59" x1="301.24" y1="80.46" x2="318.35" y2="132.05" xlink:href="#linear-gradient-29"/>
    <linearGradient id="linear-gradient-60" x1="318.42" y1="86.99" x2="321.07" y2="91.27" xlink:href="#linear-gradient-30"/>
    <linearGradient id="linear-gradient-61" x1="328.15" y1="80.45" x2="330.79" y2="84.73" xlink:href="#linear-gradient-30"/>
    <linearGradient id="linear-gradient-62" x1="318.22" y1="69.97" x2="328.31" y2="86.28" gradientUnits="userSpaceOnUse">
      <stop offset="0" stop-color="#6e1a98"/>
      <stop offset="1" stop-color="#560a73"/>
    </linearGradient>
    <linearGradient id="linear-gradient-63" x1="296.12" y1="94.88" x2="353.74" y2="133.29" xlink:href="#linear-gradient-21"/>
    <linearGradient id="linear-gradient-64" x1="320.24" y1="122.69" x2="319.18" y2="31.53" gradientUnits="userSpaceOnUse">
      <stop offset="0" stop-color="#dfb8ff" stop-opacity=".78"/>
      <stop offset="1" stop-color="#dfb8ff" stop-opacity="0"/>
    </linearGradient>
    <radialGradient id="radial-gradient-3" cx="601.69" cy="953.68" fx="601.69" fy="953.68" r="27.34" xlink:href="#radial-gradient"/>
    <radialGradient id="radial-gradient-4" cx="292.92" cy="912.99" fx="292.92" fy="912.99" r="27.34" gradientTransform="translate(1254.62 -25.91) rotate(-117.22) scale(.39 -1) skewX(-.02)" xlink:href="#radial-gradient"/>
    <radialGradient id="radial-gradient-5" cx="422.85" cy="1177.87" fx="422.85" fy="1177.87" r="27.34" gradientTransform="translate(-42.82 456.77) rotate(-90) scale(.39 .49)" xlink:href="#radial-gradient"/>
  </defs>
  <g class="cls-40">
    <g id="BACKGROUND">
      <rect class="cls-72" width="608.42" height="395.86"/>
    </g>
    <g id="OBJECTS">
      <g>
        <g>
          <path class="cls-74" d="M429.37,252.13c0,11.13,16.67,20.16,37.22,20.16s37.22-9.02,37.22-20.16-16.67-20.15-37.22-20.15-37.22,9.02-37.22,20.15Zm6.22,0c0-9.27,13.88-16.79,31-16.79s31,7.52,31,16.79-13.88,16.79-31,16.79-31-7.52-31-16.79Z"/>
          <path class="cls-7" d="M466.04,268.91c-16.86-.16-30.44-7.61-30.44-16.78s13.88-16.79,31-16.79,31,7.52,31,16.79c0,.61-.06,1.21-.18,1.8l6.19,.36c.14-.71,.22-1.43,.22-2.16,0-11.13-16.67-20.16-37.22-20.16s-37.22,9.02-37.22,20.16,16.31,19.95,36.55,20.15l.11-3.37Z"/>
        </g>
        <g>
          <path class="cls-74" d="M266.67,226.17c-47.51,0-86.03,20.85-86.03,46.58s38.52,46.58,86.03,46.58,86.03-20.85,86.03-46.58-38.52-46.58-86.03-46.58Zm0,85.37c-39.57,0-71.64-17.37-71.64-38.79s32.08-38.79,71.64-38.79,71.64,17.37,71.64,38.79-32.08,38.79-71.64,38.79Z"/>
          <path class="cls-71" d="M352.69,272.76c0-25.73-38.52-46.58-86.03-46.58s-86.03,20.85-86.03,46.58c0,.67,.04,1.33,.09,1.99l14.37-.33c-.04-.55-.08-1.1-.08-1.66,0-21.42,32.08-38.79,71.64-38.79s71.64,17.37,71.64,38.79c0,11.16-8.72,21.22-22.66,28.3l9.83,5.68c16.74-8.5,27.21-20.57,27.21-33.98Z"/>
        </g>
      </g>
      <g>
        <g class="cls-81">
          <polygon class="cls-15" points="279.15 165.28 251.11 149.13 301.96 119.78 302.21 120.21 252.12 149.13 279.4 164.84 279.15 165.28"/>
        </g>
        <g class="cls-81">
          <polygon class="cls-15" points="308.35 182.01 308.1 181.58 366.17 148.05 403.84 169.8 403.59 170.24 366.17 148.63 308.35 182.01"/>
        </g>
        <g class="cls-81">
          <polygon class="cls-15" points="387.48 361.65 387.36 361.58 270.94 294.37 313.82 269.79 314.07 270.23 271.95 294.37 387.48 361.08 407.14 350.52 407.38 350.96 387.48 361.65"/>
        </g>
        <g class="cls-81">
          <polygon class="cls-15" points="199.28 269.59 156.26 244.74 156.51 244.31 199.28 269.01 251.89 238.64 252.14 239.08 199.28 269.59"/>
        </g>
        <g>
          <g class="cls-81">
            <path class="cls-15" d="M474.39,311.47l-.12-.07-50.13-28.94,.25-.43,50,28.87,14.52-8.38c-4.26-2.83-6.41-6.21-6.41-10.06,0-8.9,13.28-16.15,29.61-16.15s29.61,7.24,29.61,16.15c0,3.89-2.56,7.64-7.2,10.57l-.27-.42c4.49-2.83,6.97-6.43,6.97-10.15,0-8.63-13.06-15.65-29.11-15.65s-29.11,7.02-29.11,15.65c0,3.76,2.2,7.08,6.53,9.86l.35,.22-15.48,8.94Z"/>
          </g>
          <g class="cls-81">
            <path class="cls-15" d="M512.11,308.6c-3.52,0-6.97-.33-10.24-.99l.1-.49c3.24,.65,6.65,.98,10.14,.98,6.58,0,12.78-1.15,17.95-3.34l.2,.46c-5.23,2.21-11.5,3.38-18.14,3.38Z"/>
          </g>
          <g class="cls-81">
            <path class="cls-15" d="M480.78,298.25c-.94-1.68-1.41-3.44-1.41-5.21,0-3.11,1.48-6.16,4.27-8.84l.35,.36c-2.69,2.58-4.12,5.51-4.12,8.47,0,1.69,.45,3.37,1.35,4.97l-.44,.24Z"/>
          </g>
          <g class="cls-81">
            <path class="cls-15" d="M540.64,284.95c-3.18-3.23-8.28-5.9-14.36-7.5l.13-.48c6.17,1.63,11.36,4.34,14.59,7.64l-.36,.35Z"/>
          </g>
        </g>
      </g>
      <polygon class="cls-21" points="227.61 114.35 182.56 120.65 182.56 54.19 227.61 72.42 227.61 114.35"/>
      <g>
        <polygon class="cls-20" points="227.61 111.43 182.56 128.08 182.56 194.54 227.61 176.31 227.61 111.43"/>
        <polygon class="cls-26" points="227.61 59.64 182.56 76.29 182.56 142.75 227.61 124.52 227.61 59.64"/>
        <g>
          <polygon class="cls-64" points="227.69 91.64 182.56 117.86 182.8 145.89 188.88 142.36 187.69 148.34 193.94 139.43 227.44 119.97 227.69 91.64"/>
          <polygon class="cls-82" points="227.69 91.64 225.66 90.47 180.52 116.68 182.56 117.86 227.69 91.64"/>
          <polygon class="cls-67" points="180.52 116.68 182.56 117.86 182.8 145.89 180.77 144.72 180.52 116.68"/>
          <polygon class="cls-48" points="187.69 148.34 185.66 147.17 186.32 143.85 188.88 142.36 187.69 148.34"/>
          <path class="cls-12" d="M198.94,125.37c-.13,2.6-1.18,4.66-2.35,4.6-1.17-.06-2.01-2.21-1.88-4.81,.13-2.6,1.18-4.66,2.35-4.6,1.17,.06,2.01,2.21,1.88,4.81Z"/>
          <path class="cls-13" d="M209.08,119.52c-.13,2.6-1.18,4.66-2.35,4.6-1.17-.06-2.01-2.21-1.88-4.81,.13-2.6,1.18-4.66,2.35-4.6,1.17,.06,2.01,2.21,1.88,4.81Z"/>
          <path class="cls-9" d="M219.03,113.65c-.13,2.6-1.18,4.66-2.35,4.6-1.17-.06-2.01-2.21-1.88-4.81,.13-2.6,1.18-4.66,2.35-4.6,1.17,.06,2.01,2.21,1.88,4.81Z"/>
          <polygon class="cls-37" points="185.45 118.7 185.68 144.91 228.07 119.99 228.3 93.51 185.45 118.7"/>
        </g>
      </g>
      <g>
        <polygon class="cls-27" points="227.61 22.2 180.52 22.2 180.52 82.59 227.61 64.36 227.61 22.2"/>
        <g>
          <polygon class="cls-31" points="227.69 47.93 182.56 74.14 182.8 102.18 218.26 81.59 221.83 82.52 221.53 79.68 227.44 76.25 227.69 47.93"/>
          <polygon class="cls-52" points="227.69 47.93 225.66 46.76 180.52 72.97 182.56 74.14 227.69 47.93"/>
          <polygon class="cls-18" points="180.52 72.97 182.56 74.14 182.8 102.18 180.77 101.01 180.52 72.97"/>
          <path class="cls-8" d="M198.94,81.66c-.13,2.6-1.18,4.66-2.35,4.6s-2.01-2.21-1.88-4.81c.13-2.6,1.18-4.66,2.35-4.6,1.17,.06,2.01,2.21,1.88,4.81Z"/>
          <path class="cls-11" d="M209.08,75.81c-.13,2.6-1.18,4.66-2.35,4.6-1.17-.06-2.01-2.21-1.88-4.81s1.18-4.66,2.35-4.6c1.17,.06,2.01,2.21,1.88,4.81Z"/>
          <path class="cls-10" d="M219.03,69.94c-.13,2.6-1.18,4.66-2.35,4.6-1.17-.06-2.01-2.21-1.88-4.81s1.18-4.66,2.35-4.6c1.17,.06,2.01,2.21,1.88,4.81Z"/>
          <polygon class="cls-37" points="185.45 74.98 185.68 101.2 228.07 76.28 228.3 49.8 185.45 74.98"/>
        </g>
      </g>
      <g>
        <path class="cls-54" d="M420.94,324.68l-19.52,11.27,10.09,5.83,19.52-11.27-10.09-5.83Z"/>
        <path class="cls-54" d="M444.55,311.05l-19.52,11.27,10.09,5.83,19.52-11.27-10.09-5.83Z"/>
        <polygon class="cls-54" points="464.5 319.97 419.11 346.17 421.86 347.76 467.25 321.55 464.5 319.97"/>
        <polygon class="cls-54" points="472.69 321.19 424.26 349.15 427.02 350.74 475.45 322.78 472.69 321.19"/>
        <polygon class="cls-54" points="429.51 352.18 432.26 353.77 464.57 335.12 461.82 333.53 429.51 352.18"/>
      </g>
      <g>
        <path class="cls-70" d="M381.15,324.99l87.26-50.36c2.65-1.53,2.65-5.36,0-6.89l-185.45-107.07c-3.09-1.78-6.89-1.78-9.97,0l-87.27,50.39c-2.64,1.52-2.64,5.33,0,6.85l185.47,107.08c3.09,1.78,6.89,1.78,9.97,0Z"/>
        <path class="cls-68" d="M183.73,187.4l11.74,2.32,77.51-44.75c3.09-1.78,6.89-1.78,9.98,0l163.56,94.43,23.88,4.73v11.34h0c0,1.35-.65,2.7-1.99,3.47l-87.26,50.36c-3.09,1.78-6.89,1.78-9.97,0l-185.47-107.08c-1.33-.77-1.99-2.12-1.97-3.47h0v-11.34Z"/>
        <path class="cls-80" d="M375.34,310.58c-1.44-.12-2.86-.54-4.15-1.28l-185.47-107.08c-1.33-.77-1.99-2.12-1.97-3.47h0v-11.34l11.74,2.32,1.47-.85,178.39,103.67v18.02Z"/>
        <path class="cls-66" d="M381.15,297.96l87.26-50.36c2.65-1.53,2.65-5.36,0-6.89l-185.45-107.07c-3.09-1.78-6.89-1.78-9.97,0l-87.27,50.39c-2.64,1.52-2.64,5.33,0,6.85l185.47,107.08c3.09,1.78,6.89,1.78,9.97,0Z"/>
        <path class="cls-58" d="M442.98,233.51l-161.87-94.66c-.46-.27-1.04-.27-1.5,0l-80.73,46.61c-1,.57-1,2.01,0,2.59l161.42,93.19c.46,.27,82.69-47.72,82.69-47.72Z"/>
        <path class="cls-36" d="M432.13,255.82c.5,.29,.5,.77,0,1.06l-27.14,15.66c-.5,.29-1.33,.29-1.83,0l-5.02-2.9c-.5-.29-.5-.77,0-1.06l27.14-15.66c.5-.29,1.33-.29,1.83,0l5.02,2.9Z"/>
        <path class="cls-78" d="M248.87,231.65l12.78,7.38c.39,.23,.64,.65,.64,1.1v1.22c0,.66-.71,1.07-1.28,.74l-13.01-7.51c-.39-.23-.64-.65-.64-1.1v-.95c0-.78,.84-1.26,1.51-.87Z"/>
        <path class="cls-78" d="M231.8,221.92l12.78,7.38c.39,.23,.64,.65,.64,1.1v1.22c0,.66-.71,1.07-1.28,.74l-13.01-7.51c-.39-.23-.64-.65-.64-1.1v-.95c0-.78,.84-1.26,1.51-.87Z"/>
        <path class="cls-78" d="M422.38,278.36c-.48,.27-.87,.95-.87,1.5v1.31c0,.55,.39,.77,.87,.5l8.85-5.11c.48-.28,.87-.95,.87-1.5v-1.3c0-.55-.39-.78-.87-.5l-8.85,5.11Z"/>
      </g>
      <g>
        <path class="cls-17" d="M442.98,227.17l-161.87-94.66c-.46-.27-1.04-.27-1.5,0l-80.73,46.61c-1,.57-1,2.01,0,2.59l161.42,93.19c.46,.27,82.69-47.72,82.69-47.72Z"/>
        <path class="cls-38" d="M442.98,220.57l-161.87-94.66c-.46-.27-1.04-.27-1.5,0l-80.73,46.61c-1,.57-1,2.01,0,2.59l161.42,93.19c.46,.27,82.69-47.72,82.69-47.72Z"/>
        <path class="cls-2" d="M251.03,199.33c17.13,10.54,29.84,20.99,28.39,23.34-1.45,2.35-16.51-4.28-33.64-14.82-17.13-10.54-29.84-20.99-28.39-23.34,1.45-2.35,16.51,4.28,33.64,14.82Z"/>
        <g>
          <g class="cls-49">
            <path class="cls-15" d="M305.5,192.5c-.19,0-.35-.16-.35-.35v-.5c0-.19,.16-.35,.35-.35s.35,.16,.35,.35v.5c0,.19-.16,.35-.35,.35Zm0-3.5c-.19,0-.35-.16-.35-.35v-.5c0-.19,.16-.35,.35-.35s.35,.16,.35,.35v.5c0,.19-.16,.35-.35,.35Zm0-3.5c-.19,0-.35-.16-.35-.35v-.5c0-.19,.16-.35,.35-.35s.35,.16,.35,.35v.5c0,.19-.16,.35-.35,.35Zm0-3.5c-.19,0-.35-.16-.35-.35v-.5c0-.19,.16-.35,.35-.35s.35,.16,.35,.35v.5c0,.19-.16,.35-.35,.35Zm0-3.5c-.19,0-.35-.16-.35-.35v-.5c0-.19,.16-.35,.35-.35s.35,.16,.35,.35v.5c0,.19-.16,.35-.35,.35Zm0-3.5c-.19,0-.35-.16-.35-.35v-.5c0-.19,.16-.35,.35-.35s.35,.16,.35,.35v.5c0,.19-.16,.35-.35,.35Zm0-3.5c-.19,0-.35-.16-.35-.35v-.5c0-.19,.16-.35,.35-.35s.35,.16,.35,.35v.5c0,.19-.16,.35-.35,.35Zm0-3.5c-.19,0-.35-.16-.35-.35v-.5c0-.19,.16-.35,.35-.35s.35,.16,.35,.35v.5c0,.19-.16,.35-.35,.35Zm0-3.5c-.19,0-.35-.16-.35-.35v-.5c0-.19,.16-.35,.35-.35s.35,.16,.35,.35v.5c0,.19-.16,.35-.35,.35Z"/>
          </g>
          <g class="cls-49">
            <path class="cls-15" d="M338.31,213.56c-.19,0-.35-.16-.35-.35v-.5c0-.19,.16-.35,.35-.35s.35,.16,.35,.35v.5c0,.19-.16,.35-.35,.35Zm0-3.5c-.19,0-.35-.16-.35-.35v-.5c0-.19,.16-.35,.35-.35s.35,.16,.35,.35v.5c0,.19-.16,.35-.35,.35Zm0-3.5c-.19,0-.35-.16-.35-.35v-.5c0-.19,.16-.35,.35-.35s.35,.16,.35,.35v.5c0,.19-.16,.35-.35,.35Zm0-3.5c-.19,0-.35-.16-.35-.35v-.5c0-.19,.16-.35,.35-.35s.35,.16,.35,.35v.5c0,.19-.16,.35-.35,.35Zm0-3.5c-.19,0-.35-.16-.35-.35v-.5c0-.19,.16-.35,.35-.35s.35,.16,.35,.35v.5c0,.19-.16,.35-.35,.35Zm0-3.5c-.19,0-.35-.16-.35-.35v-.5c0-.19,.16-.35,.35-.35s.35,.16,.35,.35v.5c0,.19-.16,.35-.35,.35Zm0-3.5c-.19,0-.35-.16-.35-.35v-.5c0-.19,.16-.35,.35-.35s.35,.16,.35,.35v.5c0,.19-.16,.35-.35,.35Zm0-3.5c-.19,0-.35-.16-.35-.35v-.5c0-.19,.16-.35,.35-.35s.35,.16,.35,.35v.5c0,.19-.16,.35-.35,.35Zm0-3.5c-.19,0-.35-.16-.35-.35v-.5c0-.19,.16-.35,.35-.35s.35,.16,.35,.35v.5c0,.19-.16,.35-.35,.35Zm0-3.5c-.19,0-.35-.16-.35-.35v-.5c0-.19,.16-.35,.35-.35s.35,.16,.35,.35v.5c0,.19-.16,.35-.35,.35Zm0-3.5c-.19,0-.35-.16-.35-.35v-.5c0-.19,.16-.35,.35-.35s.35,.16,.35,.35v.5c0,.19-.16,.35-.35,.35Zm0-3.5c-.19,0-.35-.16-.35-.35v-.5c0-.19,.16-.35,.35-.35s.35,.16,.35,.35v.5c0,.19-.16,.35-.35,.35Zm0-3.5c-.19,0-.35-.16-.35-.35v-.5c0-.19,.16-.35,.35-.35s.35,.16,.35,.35v.5c0,.19-.16,.35-.35,.35Zm0-3.5c-.19,0-.35-.16-.35-.35v-.5c0-.19,.16-.35,.35-.35s.35,.16,.35,.35v.5c0,.19-.16,.35-.35,.35Zm0-3.5c-.19,0-.35-.16-.35-.35v-.5c0-.19,.16-.35,.35-.35s.35,.16,.35,.35v.5c0,.19-.16,.35-.35,.35Zm0-3.5c-.19,0-.35-.16-.35-.35v-.5c0-.19,.16-.35,.35-.35s.35,.16,.35,.35v.5c0,.19-.16,.35-.35,.35Zm0-3.5c-.19,0-.35-.16-.35-.35v-.5c0-.19,.16-.35,.35-.35s.35,.16,.35,.35v.5c0,.19-.16,.35-.35,.35Zm0-3.5c-.19,0-.35-.16-.35-.35v-.5c0-.19,.16-.35,.35-.35s.35,.16,.35,.35v.5c0,.19-.16,.35-.35,.35Zm0-3.5c-.19,0-.35-.16-.35-.35v-.5c0-.19,.16-.35,.35-.35s.35,.16,.35,.35v.5c0,.19-.16,.35-.35,.35Zm0-3.5c-.19,0-.35-.16-.35-.35v-.5c0-.19,.16-.35,.35-.35s.35,.16,.35,.35v.5c0,.19-.16,.35-.35,.35Zm0-3.5c-.19,0-.35-.16-.35-.35v-.5c0-.19,.16-.35,.35-.35s.35,.16,.35,.35v.5c0,.19-.16,.35-.35,.35Zm0-3.5c-.19,0-.35-.16-.35-.35v-.5c0-.19,.16-.35,.35-.35s.35,.16,.35,.35v.5c0,.19-.16,.35-.35,.35Z"/>
          </g>
          <g class="cls-49">
            <path class="cls-15" d="M384.02,230.44l-.39-.23c-.17-.1-.22-.31-.13-.48,.1-.17,.31-.22,.48-.13,.56,.32,.63,.37,.56,.62l-.67-.18,.34,.09-.18,.3Zm-2.83-1.69c-.06,0-.12-.01-.17-.05l-.43-.25c-.17-.1-.22-.31-.13-.48,.1-.17,.31-.22,.48-.13l.43,.25c.17,.1,.23,.31,.13,.48-.06,.11-.18,.18-.3,.18Zm-3.22-1.8l-.43-.25c-.17-.1-.22-.31-.13-.48,.1-.17,.31-.22,.48-.13l.37,.21-.11,.34-.17,.3Zm-2.87-1.71c-.06,0-.12-.01-.17-.05l-.43-.25c-.17-.1-.22-.31-.13-.48,.1-.17,.31-.22,.48-.13l.43,.25c.17,.1,.22,.31,.13,.48-.06,.11-.18,.17-.3,.17Zm-3.04-1.75c-.06,0-.12-.01-.17-.05l-.43-.25c-.17-.1-.22-.31-.13-.48,.1-.17,.31-.22,.48-.13l.43,.25c.17,.1,.22,.31,.13,.48-.06,.11-.18,.17-.3,.17Zm-3.04-1.75c-.06,0-.12-.01-.18-.05l-.43-.25c-.17-.1-.22-.31-.13-.48,.1-.17,.31-.23,.48-.13l.44,.25c.17,.1,.22,.31,.12,.48-.06,.11-.18,.17-.3,.17Zm-3.04-1.75c-.06,0-.12-.01-.17-.05l-.43-.25c-.17-.1-.22-.31-.13-.48,.1-.17,.31-.23,.48-.13l.43,.25c.17,.1,.22,.31,.13,.48-.06,.11-.18,.17-.3,.17Zm-3.04-1.75c-.06,0-.12-.01-.17-.05l-.43-.25c-.17-.1-.22-.31-.13-.48,.1-.17,.31-.22,.48-.13l.43,.25c.17,.1,.22,.31,.13,.48-.06,.11-.18,.17-.3,.17Zm-3.03-1.75c-.06,0-.12-.01-.17-.05l-.44-.25c-.17-.1-.22-.31-.13-.48,.1-.17,.31-.22,.48-.13l.43,.25c.17,.1,.23,.31,.13,.48-.06,.11-.18,.18-.3,.18Zm-3.04-1.75c-.06,0-.12-.01-.17-.05l-.44-.25c-.17-.1-.22-.31-.13-.48,.1-.17,.31-.22,.48-.13l.43,.25c.17,.1,.23,.31,.13,.48-.06,.11-.18,.18-.3,.18Zm-3.04-1.75c-.06,0-.12-.01-.17-.05l-.43-.25c-.17-.1-.22-.31-.13-.48,.1-.17,.31-.22,.48-.13l.43,.25c.17,.1,.22,.31,.13,.48-.06,.11-.18,.17-.3,.17Zm-3.04-1.75c-.06,0-.12-.01-.18-.05l-.43-.25c-.17-.1-.22-.31-.13-.48,.1-.17,.31-.22,.48-.13l.43,.25c.17,.1,.22,.31,.12,.48-.06,.11-.18,.17-.3,.17Zm-3.03-1.75c-.06,0-.12-.01-.18-.05l-.43-.25c-.17-.1-.22-.31-.13-.48,.1-.17,.31-.22,.48-.13l.44,.25c.17,.1,.22,.31,.12,.48-.06,.11-.18,.17-.3,.17Zm-3.04-1.75c-.06,0-.12-.01-.18-.05l-.43-.25c-.17-.1-.23-.31-.13-.48,.1-.17,.31-.22,.48-.13l.44,.25c.17,.1,.22,.31,.12,.48-.06,.11-.18,.17-.3,.17Zm-3.03-1.75c-.06,0-.12-.01-.17-.05l-.43-.25c-.17-.1-.22-.31-.13-.48,.1-.17,.31-.22,.48-.13l.43,.25c.17,.1,.22,.31,.13,.48-.06,.11-.18,.17-.3,.17Zm-3.03-1.75c-.06,0-.12-.02-.17-.05l-.43-.25c-.17-.1-.22-.31-.13-.48,.1-.17,.31-.22,.48-.13l.43,.25c.17,.1,.22,.31,.13,.48-.06,.11-.18,.17-.3,.17Zm-3.04-1.75c-.06,0-.12-.02-.17-.05l-.43-.25c-.17-.1-.22-.31-.13-.48,.1-.17,.31-.22,.48-.13l.43,.25c.17,.1,.23,.31,.13,.48-.06,.11-.18,.18-.3,.18Zm-3.04-1.75c-.06,0-.12-.02-.17-.05l-.43-.25c-.17-.1-.22-.31-.13-.48,.1-.17,.31-.22,.48-.13l.43,.25c.17,.1,.23,.31,.13,.48-.06,.11-.18,.18-.3,.18Zm-3.03-1.75c-.06,0-.12-.02-.17-.05l-.43-.25c-.17-.1-.22-.31-.13-.48s.31-.22,.48-.13l.43,.25c.17,.1,.23,.31,.13,.48-.06,.11-.18,.18-.3,.18Zm-3.03-1.75c-.06,0-.12-.02-.17-.05l-.43-.25c-.17-.1-.22-.31-.13-.48,.1-.17,.31-.23,.48-.13l.43,.25c.17,.1,.23,.31,.13,.48-.06,.11-.18,.18-.3,.18Zm-3.04-1.76c-.06,0-.12-.02-.18-.05l-.43-.25c-.17-.1-.23-.31-.13-.48,.1-.17,.31-.22,.48-.13l.44,.25c.17,.1,.22,.31,.13,.48-.06,.11-.18,.17-.3,.17Zm-3.04-1.75c-.06,0-.12-.02-.17-.05l-.43-.25c-.17-.1-.22-.31-.13-.48,.1-.17,.31-.23,.48-.13l.43,.25c.17,.1,.23,.31,.13,.48-.06,.11-.18,.18-.3,.18Zm-3.03-1.75c-.06,0-.12-.02-.17-.05l-.43-.25c-.17-.1-.22-.31-.13-.48,.1-.17,.31-.22,.48-.13l.43,.25c.17,.1,.22,.31,.13,.48-.06,.11-.18,.17-.3,.17Zm-3.03-1.75c-.06,0-.12-.02-.17-.05l-.43-.25c-.17-.1-.22-.31-.13-.48,.1-.17,.31-.22,.48-.13l.43,.25c.17,.1,.23,.31,.13,.48-.06,.11-.18,.18-.3,.18Zm-3.04-1.75c-.06,0-.12-.02-.17-.05l-.43-.25c-.17-.1-.22-.31-.13-.48,.1-.17,.31-.23,.48-.13l.43,.25c.17,.1,.23,.31,.13,.48-.06,.11-.18,.18-.3,.18Zm-3.04-1.75c-.06,0-.12-.02-.17-.05l-.43-.25c-.17-.1-.22-.31-.13-.48,.1-.17,.31-.23,.48-.13l.43,.25c.17,.1,.22,.31,.13,.48-.06,.11-.18,.17-.3,.17Zm-3.03-1.75c-.06,0-.12-.02-.17-.05l-.43-.25c-.17-.1-.23-.31-.13-.48,.1-.17,.31-.23,.48-.13l.43,.25c.17,.1,.22,.31,.13,.48-.06,.11-.18,.17-.3,.17Zm-3.04-1.75c-.06,0-.12-.02-.17-.05l-.43-.25c-.17-.1-.23-.31-.13-.48,.1-.17,.31-.23,.48-.13l.43,.25c.17,.1,.22,.31,.13,.48-.06,.11-.18,.17-.3,.17Zm-3.04-1.75c-.06,0-.12-.02-.17-.05l-.43-.25c-.17-.1-.23-.31-.13-.48,.1-.17,.31-.23,.48-.13l.43,.25c.17,.1,.22,.31,.13,.48-.06,.11-.18,.17-.3,.17Zm-3.04-1.75c-.06,0-.12-.02-.17-.05l-.43-.25c-.17-.1-.23-.31-.13-.48,.1-.17,.31-.22,.48-.13l.43,.25c.17,.1,.22,.31,.13,.48-.06,.11-.18,.17-.3,.17Zm-3.04-1.75c-.06,0-.12-.02-.17-.05l-.43-.25c-.17-.1-.23-.31-.13-.48,.1-.17,.31-.22,.48-.13l.43,.25c.17,.1,.22,.31,.13,.48-.06,.11-.18,.17-.3,.17Zm-3.04-1.75c-.06,0-.12-.02-.18-.05l-.43-.25c-.17-.1-.23-.31-.13-.48,.1-.17,.31-.23,.48-.13l.43,.25c.17,.1,.22,.31,.13,.48-.06,.11-.18,.17-.3,.17Zm-3.04-1.75c-.06,0-.12-.02-.17-.05l-.43-.25c-.17-.1-.23-.31-.13-.48,.1-.17,.31-.22,.48-.13l.43,.25c.17,.1,.22,.31,.13,.48-.06,.11-.18,.17-.3,.17Zm-3.04-1.75c-.06,0-.12-.02-.17-.05l-.43-.25c-.17-.1-.22-.31-.13-.48,.1-.17,.31-.23,.48-.13l.43,.25c.17,.1,.23,.31,.13,.48-.06,.11-.18,.18-.3,.18Zm-3.04-1.75c-.06,0-.12-.02-.17-.05l-.43-.25c-.17-.1-.22-.31-.13-.48,.1-.17,.31-.23,.48-.13l.43,.25c.17,.1,.23,.31,.13,.48-.06,.11-.18,.18-.3,.18Zm-3.06-1.76s-.1-.01-.15-.04l-.43-.25c-.17-.1-.23-.31-.13-.48,.1-.17,.31-.23,.48-.13l.37,.21c.17,.1,.26,.33,.16,.5-.07,.12-.18,.19-.29,.19Zm-3.02-1.75c-.06,0-.12-.02-.17-.05l-.43-.25c-.17-.1-.23-.31-.13-.48,.1-.17,.31-.23,.48-.13l.43,.25c.17,.1,.22,.31,.13,.48-.06,.11-.18,.17-.3,.17Zm-3.04-1.76c-.06,0-.12-.02-.17-.05l-.43-.25c-.17-.1-.23-.31-.13-.48,.1-.17,.31-.23,.48-.13l.43,.25c.17,.1,.22,.31,.13,.48-.06,.11-.18,.17-.3,.17Z"/>
          </g>
          <g class="cls-49">
            <path class="cls-15" d="M368.67,200.24c-.06,0-.12-.02-.18-.05l-.13-.08c-.17-.1-.22-.31-.13-.48,.1-.17,.31-.22,.48-.13l.14,.08c.17,.1,.22,.31,.12,.48-.07,.11-.18,.17-.3,.17Zm-2.73-1.58c-.06,0-.12-.02-.17-.05l-.43-.25c-.17-.1-.22-.31-.13-.48,.1-.17,.31-.22,.48-.13l.43,.25c.17,.1,.22,.31,.13,.48-.06,.11-.18,.17-.3,.17Zm-3.03-1.75c-.06,0-.12-.02-.17-.05l-.43-.25c-.17-.1-.22-.31-.13-.48,.1-.17,.31-.22,.48-.13l.43,.25c.17,.1,.22,.31,.13,.48-.06,.11-.18,.17-.3,.17Zm-3.03-1.75c-.06,0-.12-.02-.17-.05l-.43-.25c-.17-.1-.22-.31-.13-.48,.1-.17,.31-.22,.48-.13l.43,.25c.17,.1,.22,.31,.13,.48-.06,.11-.18,.17-.3,.17Zm-3.03-1.75c-.06,0-.12-.02-.17-.05l-.43-.25c-.17-.1-.22-.31-.13-.48,.1-.17,.31-.22,.48-.13l.43,.25c.17,.1,.22,.31,.13,.48-.06,.11-.18,.18-.3,.18Zm-3.04-1.75c-.06,0-.12-.02-.17-.05l-.43-.25c-.17-.1-.22-.31-.13-.48,.1-.17,.31-.22,.48-.13l.43,.25c.17,.1,.22,.31,.13,.48-.06,.11-.18,.17-.3,.17Zm-3.03-1.75c-.06,0-.12-.02-.17-.05l-.43-.25c-.17-.1-.22-.31-.13-.48,.1-.17,.31-.22,.48-.13l.43,.25c.17,.1,.22,.31,.13,.48-.06,.11-.18,.17-.3,.17Zm-3.03-1.75c-.06,0-.12-.02-.17-.05l-.43-.25c-.17-.1-.22-.31-.13-.48,.1-.17,.31-.22,.48-.13l.43,.25c.17,.1,.22,.31,.13,.48-.06,.11-.18,.17-.3,.17Zm-3.03-1.75c-.06,0-.12-.02-.17-.05l-.43-.25c-.17-.1-.22-.31-.13-.48,.1-.17,.31-.22,.48-.13l.43,.25c.17,.1,.22,.31,.13,.48-.06,.11-.18,.17-.3,.17Zm-3.03-1.75c-.06,0-.12-.02-.17-.05l-.43-.25c-.17-.1-.22-.31-.13-.48,.1-.17,.31-.22,.48-.13l.43,.25c.17,.1,.22,.31,.13,.48-.06,.11-.18,.17-.3,.17Zm-3.03-1.75c-.06,0-.12-.02-.17-.05l-.43-.25c-.17-.1-.22-.31-.13-.48,.1-.17,.31-.22,.48-.13l.43,.25c.17,.1,.22,.31,.13,.48-.06,.11-.18,.17-.3,.17Zm-3.03-1.75c-.06,0-.12-.02-.17-.05l-.43-.25c-.17-.1-.22-.31-.13-.48,.1-.17,.31-.22,.48-.13l.43,.25c.17,.1,.23,.31,.13,.48-.06,.11-.18,.18-.3,.18Zm-3.03-1.75c-.06,0-.12-.02-.17-.05l-.43-.25c-.17-.1-.22-.31-.13-.48,.1-.17,.31-.22,.48-.13l.43,.25c.17,.1,.23,.31,.13,.48-.06,.11-.18,.18-.3,.18Zm-3.03-1.75c-.06,0-.12-.02-.17-.05l-.43-.25c-.17-.1-.22-.31-.13-.48,.1-.17,.31-.22,.48-.13l.43,.25c.17,.1,.23,.31,.13,.48-.06,.11-.18,.18-.3,.18Zm-3.04-1.75c-.06,0-.12-.02-.17-.05l-.44-.25c-.17-.1-.23-.31-.13-.48,.1-.17,.31-.23,.48-.13l.44,.25c.17,.1,.22,.31,.13,.48-.06,.11-.18,.18-.3,.18Zm-3.04-1.75c-.06,0-.12-.02-.17-.05l-.43-.25c-.17-.1-.22-.31-.13-.48,.1-.17,.31-.23,.48-.13l.43,.25c.17,.1,.22,.31,.13,.48-.06,.11-.18,.17-.3,.17Zm-3.03-1.75c-.06,0-.12-.02-.17-.05l-.43-.25c-.17-.1-.23-.31-.13-.48,.1-.17,.31-.23,.48-.13l.43,.25c.17,.1,.22,.31,.13,.48-.06,.11-.18,.17-.3,.17Zm-3.03-1.75c-.06,0-.12-.02-.17-.05l-.43-.25c-.17-.1-.22-.31-.13-.48,.1-.17,.31-.23,.48-.13l.43,.25c.17,.1,.23,.31,.13,.48-.06,.11-.18,.18-.3,.18Zm-3.03-1.75c-.06,0-.12-.02-.17-.05l-.43-.25c-.17-.1-.22-.31-.13-.48,.1-.17,.31-.22,.48-.13l.43,.25c.17,.1,.23,.31,.13,.48-.06,.11-.18,.18-.3,.18Zm-3.03-1.75c-.06,0-.12-.02-.17-.05l-.43-.25c-.17-.1-.22-.31-.13-.48,.1-.17,.31-.23,.48-.13l.43,.25c.17,.1,.23,.31,.13,.48-.06,.11-.18,.18-.3,.18Zm-3.03-1.75c-.06,0-.12-.02-.17-.05l-.43-.25c-.17-.1-.22-.31-.13-.48,.1-.17,.31-.23,.48-.13l.43,.25c.17,.1,.22,.31,.13,.48-.06,.11-.18,.17-.3,.17Zm-3.03-1.75c-.06,0-.12-.02-.17-.05l-.43-.25c-.17-.1-.23-.31-.13-.48,.1-.17,.31-.22,.48-.13l.43,.25c.17,.1,.22,.31,.13,.48-.06,.11-.18,.17-.3,.17Zm-3.03-1.75c-.06,0-.12-.02-.17-.05l-.43-.25c-.17-.1-.23-.31-.13-.48,.1-.17,.31-.23,.48-.13l.43,.25c.17,.1,.22,.31,.13,.48-.07,.11-.18,.17-.3,.17Zm-3.03-1.75c-.06,0-.12-.02-.17-.05l-.43-.25c-.17-.1-.23-.31-.13-.48,.1-.17,.31-.23,.48-.13l.43,.25c.17,.1,.22,.31,.13,.48-.06,.11-.18,.17-.3,.17Zm-3.03-1.75c-.06,0-.12-.02-.17-.05l-.43-.25c-.17-.1-.23-.31-.13-.48,.1-.17,.31-.22,.48-.13l.43,.25c.17,.1,.22,.31,.13,.48-.06,.11-.18,.17-.3,.17Zm-3.03-1.75c-.06,0-.12-.02-.17-.05l-.43-.25c-.17-.1-.23-.31-.13-.48,.1-.17,.31-.23,.48-.13l.43,.25c.17,.1,.22,.31,.13,.48-.06,.11-.18,.17-.3,.17Zm-3.03-1.75c-.06,0-.12-.02-.18-.05l-.43-.25c-.17-.1-.23-.31-.13-.48,.1-.17,.31-.23,.48-.13l.43,.25c.17,.1,.22,.31,.13,.48-.06,.11-.18,.17-.3,.17Zm-3.03-1.75c-.06,0-.12-.02-.17-.05l-.43-.25c-.17-.1-.23-.31-.13-.48,.1-.17,.31-.23,.48-.13l.43,.25c.17,.1,.22,.31,.13,.48-.06,.11-.18,.17-.3,.17Zm-3.04-1.75c-.06,0-.12-.02-.17-.05l-.43-.25c-.17-.1-.22-.31-.13-.48,.1-.17,.31-.22,.48-.13l.43,.25c.17,.1,.23,.31,.13,.48-.06,.11-.18,.18-.3,.18Zm-3.04-1.75c-.06,0-.12-.02-.17-.05l-.43-.25c-.17-.1-.22-.31-.13-.48,.1-.17,.31-.22,.48-.13l.43,.25c.17,.1,.23,.31,.13,.48-.06,.11-.18,.18-.3,.18Zm-3.04-1.75c-.06,0-.12-.02-.17-.05l-.43-.25c-.17-.1-.23-.31-.13-.48,.1-.17,.31-.22,.48-.13l.43,.25c.17,.1,.23,.31,.13,.48-.06,.11-.18,.18-.3,.18Zm-3.04-1.75c-.06,0-.12-.02-.17-.05l-.43-.25c-.17-.1-.23-.31-.13-.48,.1-.17,.31-.23,.48-.13l.43,.25c.17,.1,.22,.31,.13,.48-.06,.11-.18,.17-.3,.17Zm-3.04-1.75c-.06,0-.12-.02-.18-.05l-.43-.25c-.17-.1-.23-.31-.13-.48s.31-.22,.48-.13l.43,.25c.17,.1,.22,.31,.13,.48-.06,.11-.18,.17-.3,.17Z"/>
          </g>
          <g>
            <polygon class="cls-85" points="383 224.64 339.2 135.52 306.39 159.96 271.13 88.31 271.13 93.81 305.5 163.65 338.31 139.21 383 230.14 383 224.64"/>
            <polygon class="cls-62" points="383 224.64 385.41 223.24 385.41 228.75 383 230.14 383 224.64"/>
            <polygon class="cls-73" points="339.2 135.52 341.62 134.13 385.41 223.24 383 224.64 339.2 135.52"/>
            <polygon class="cls-34" points="271.13 88.31 273.55 86.91 308.66 158.27 306.39 159.96 271.13 88.31"/>
            <polygon class="cls-29" points="305.5 163.65 307.91 162.26 338.46 139.51 338.31 139.21 305.5 163.65"/>
          </g>
          <g class="cls-49">
            <path class="cls-15" d="M271.13,174.97c-.19,0-.35-.16-.35-.35s.16-.39,.35-.39,.35,.12,.35,.31v.08c0,.19-.16,.35-.35,.35Zm0-3.08c-.19,0-.35-.16-.35-.35v-.5c0-.19,.16-.35,.35-.35s.35,.16,.35,.35v.5c0,.19-.16,.35-.35,.35Zm0-3.5c-.19,0-.35-.16-.35-.35v-.5c0-.19,.16-.35,.35-.35s.35,.16,.35,.35v.5c0,.19-.16,.35-.35,.35Zm0-3.5c-.19,0-.35-.16-.35-.35v-.5c0-.19,.16-.35,.35-.35s.35,.16,.35,.35v.5c0,.19-.16,.35-.35,.35Zm0-3.5c-.19,0-.35-.16-.35-.35v-.5c0-.19,.16-.35,.35-.35s.35,.16,.35,.35v.5c0,.19-.16,.35-.35,.35Zm0-3.5c-.19,0-.35-.16-.35-.35v-.5c0-.19,.16-.35,.35-.35s.35,.16,.35,.35v.5c0,.19-.16,.35-.35,.35Zm0-3.5c-.19,0-.35-.16-.35-.35v-.5c0-.19,.16-.35,.35-.35s.35,.16,.35,.35v.5c0,.19-.16,.35-.35,.35Zm0-3.5c-.19,0-.35-.16-.35-.35v-.5c0-.19,.16-.35,.35-.35s.35,.16,.35,.35v.5c0,.19-.16,.35-.35,.35Zm0-3.5c-.19,0-.35-.16-.35-.35v-.5c0-.19,.16-.35,.35-.35s.35,.16,.35,.35v.5c0,.19-.16,.35-.35,.35Zm0-3.5c-.19,0-.35-.16-.35-.35v-.5c0-.19,.16-.35,.35-.35s.35,.16,.35,.35v.5c0,.19-.16,.35-.35,.35Zm0-3.5c-.19,0-.35-.16-.35-.35v-.5c0-.19,.16-.35,.35-.35s.35,.16,.35,.35v.5c0,.19-.16,.35-.35,.35Zm0-3.5c-.19,0-.35-.16-.35-.35v-.5c0-.19,.16-.35,.35-.35s.35,.16,.35,.35v.5c0,.19-.16,.35-.35,.35Zm0-3.5c-.19,0-.35-.16-.35-.35v-.5c0-.19,.16-.35,.35-.35s.35,.16,.35,.35v.5c0,.19-.16,.35-.35,.35Zm0-3.5c-.19,0-.35-.16-.35-.35v-.5c0-.19,.16-.35,.35-.35s.35,.16,.35,.35v.5c0,.19-.16,.35-.35,.35Zm0-3.5c-.19,0-.35-.16-.35-.35v-.5c0-.19,.16-.35,.35-.35s.35,.16,.35,.35v.5c0,.19-.16,.35-.35,.35Zm0-3.5c-.19,0-.35-.16-.35-.35v-.5c0-.19,.16-.35,.35-.35s.35,.16,.35,.35v.5c0,.19-.16,.35-.35,.35Zm0-3.5c-.19,0-.35-.16-.35-.35v-.5c0-.19,.16-.35,.35-.35s.35,.16,.35,.35v.5c0,.19-.16,.35-.35,.35Zm0-3.5c-.19,0-.35-.16-.35-.35v-.5c0-.19,.16-.35,.35-.35s.35,.16,.35,.35v.5c0,.19-.16,.35-.35,.35Zm0-3.5c-.19,0-.35-.16-.35-.35v-.5c0-.19,.16-.35,.35-.35s.35,.16,.35,.35v.5c0,.19-.16,.35-.35,.35Zm0-3.5c-.19,0-.35-.16-.35-.35v-.5c0-.19,.16-.35,.35-.35s.35,.16,.35,.35v.5c0,.19-.16,.35-.35,.35Zm0-3.5c-.19,0-.35-.16-.35-.35v-.5c0-.19,.16-.35,.35-.35s.35,.16,.35,.35v.5c0,.19-.16,.35-.35,.35Zm0-3.5c-.19,0-.35-.16-.35-.35v-.5c0-.19,.16-.35,.35-.35s.35,.16,.35,.35v.5c0,.19-.16,.35-.35,.35Zm0-3.5c-.19,0-.35-.16-.35-.35v-.5c0-.19,.16-.35,.35-.35s.35,.16,.35,.35v.5c0,.19-.16,.35-.35,.35Z"/>
          </g>
          <g class="cls-49">
            <path class="cls-15" d="M383,237.99c-.19,0-.35-.16-.35-.35v-.5c0-.19,.16-.35,.35-.35s.35,.16,.35,.35v.5c0,.19-.16,.35-.35,.35Zm0-3.5c-.19,0-.35-.16-.35-.35v-.5c0-.19,.16-.35,.35-.35s.35,.16,.35,.35v.5c0,.19-.16,.35-.35,.35Zm0-3.5c-.19,0-.35-.16-.35-.35v-.5c0-.19,.16-.35,.35-.35s.35,.16,.35,.35v.5c0,.19-.16,.35-.35,.35Z"/>
          </g>
        </g>
        <g>
          <path class="cls-16" d="M279.95,204.09l21.04,12.15,2.26-1.3-21.04-12.15-2.26,1.3Zm25.77,12.27l-2.26,1.3,28.34,16.36,2.26-1.3-28.34-16.36Z"/>
          <path class="cls-16" d="M284.47,201.49l8.65,4.99,2.26-1.3-8.65-4.99-2.26,1.3Zm46.3,24.12l-2.26,1.3,13.9,8.02,2.26-1.3-13.9-8.02Zm-35.18-17.71l30.46,17.58,2.26-1.3-30.46-17.58-2.26,1.3Z"/>
          <ellipse class="cls-16" cx="270.86" cy="194.42" rx="6.96" ry="3.56"/>
        </g>
        <g>
          <path class="cls-15" d="M240.05,176.73l4.1,2.37-4.1,2.37-4.1-2.37,4.1-2.37m0-.35l-4.7,2.71,4.7,2.71,4.7-2.71-4.7-2.71h0Z"/>
          <path class="cls-15" d="M245.83,173.32l4.1,2.37-4.1,2.37-4.1-2.37,4.1-2.37m0-.35l-4.7,2.71,4.7,2.71,4.7-2.71-4.7-2.71h0Z"/>
          <polygon class="cls-16" points="246.92 172.28 251.61 169.56 256.31 172.28 251.61 174.99 246.92 172.28"/>
        </g>
      </g>
      <g>
        <g>
          <polygon class="cls-77" points="103.87 200.13 138.88 179.92 173.89 200.13 138.88 220.34 103.87 200.13"/>
          <polygon class="cls-79" points="138.88 223.94 138.88 254.64 172.07 235.47 172.07 204.78 138.88 223.94"/>
          <polygon class="cls-53" points="155.66 244.95 158.02 243.59 158.02 212.89 155.66 214.26 155.66 244.95"/>
          <polygon class="cls-43" points="105.69 204.78 105.69 235.47 138.88 254.64 138.88 223.94 105.69 204.78"/>
          <polygon class="cls-75" points="122.11 244.95 119.75 243.59 119.75 212.89 122.11 214.26 122.11 244.95"/>
          <polygon class="cls-63" points="173.89 200.13 173.89 204.78 138.88 224.99 138.88 220.34 173.89 200.13"/>
          <polygon class="cls-42" points="103.87 200.13 103.87 204.78 138.88 224.99 138.88 220.34 103.87 200.13"/>
          <polygon class="cls-35" points="156.39 214.89 158.75 213.53 158.75 208.88 156.39 210.24 156.39 214.89"/>
          <polygon class="cls-51" points="121.38 214.89 119.02 213.53 119.02 208.88 121.38 210.24 121.38 214.89"/>
          <polygon class="cls-76" points="158.75 208.88 141.24 198.77 156.39 190.02 154.03 188.66 138.88 197.41 123.73 188.66 121.38 190.02 136.52 198.77 119.02 208.88 121.38 210.24 138.88 200.13 156.39 210.24 158.75 208.88"/>
        </g>
        <polygon class="cls-46" points="172.07 235.47 138.88 254.64 188.2 283.11 223.11 264.94 172.07 235.47"/>
        <polygon class="cls-25" points="103.87 199.57 138.88 220.34 173.89 199.57 173.89 134.13 103.87 134.13 103.87 199.57"/>
      </g>
      <g>
        <g>
          <polygon class="cls-57" points="130.21 272.89 152.16 260.22 174.11 272.89 152.16 285.56 130.21 272.89"/>
          <polygon class="cls-69" points="152.16 287.82 152.16 307.06 172.96 295.04 172.96 275.8 152.16 287.82"/>
          <polygon class="cls-30" points="131.35 275.8 131.35 295.04 152.16 307.06 152.16 287.82 131.35 275.8"/>
          <polygon class="cls-83" points="174.11 272.89 174.11 275.8 152.16 288.47 152.16 285.56 174.11 272.89"/>
          <polygon class="cls-60" points="130.21 272.89 130.21 275.8 152.16 288.47 152.16 285.56 130.21 272.89"/>
        </g>
        <polygon class="cls-22" points="130.21 272.54 152.16 285.56 174.11 272.54 174.11 231.51 130.21 231.51 130.21 272.54"/>
        <polygon class="cls-47" points="172.96 295.04 152.16 307.06 183.08 324.91 204.96 313.52 172.96 295.04"/>
      </g>
      <g>
        <path class="cls-54" d="M341.95,370.04c0,.63-1,1.15-2.24,1.15s-2.24-.51-2.24-1.15,1-1.15,2.24-1.15,2.24,.51,2.24,1.15Z"/>
        <ellipse class="cls-54" cx="318.46" cy="366.66" rx="2.24" ry="1.15"/>
        <ellipse class="cls-54" cx="319.38" cy="354.56" rx="2.24" ry="1.15"/>
        <ellipse class="cls-54" cx="298" cy="352.23" rx="2.24" ry="1.15"/>
        <path class="cls-54" d="M316.15,340.62c0,.53-.83,.95-1.86,.95s-1.86-.43-1.86-.95,.83-.95,1.86-.95,1.86,.43,1.86,.95Z"/>
        <ellipse class="cls-54" cx="274.16" cy="346.04" rx="1.86" ry=".95"/>
        <polygon class="cls-54" points="302.5 330.91 298 333.51 331.96 353.08 336.46 350.48 302.5 330.91"/>
        <polygon class="cls-54" points="338.48 351.65 333.99 354.25 349.92 363.43 354.41 360.83 338.48 351.65"/>
        <polygon class="cls-54" points="339.83 370.29 318.15 366.84 319.11 354.78 297.71 352.45 298.74 346.29 274.16 346.29 274.16 345.79 299.34 345.79 298.29 352.01 319.64 354.34 318.69 366.42 339.91 369.79 339.83 370.29"/>
      </g>
      <g>
        <g>
          <polygon class="cls-6" points="375.12 104.55 408.37 123.75 408.37 128.97 375.11 109.75 375.12 104.55"/>
          <polygon class="cls-6" points="388.01 124.21 388.01 129.42 408.37 141.18 408.37 135.96 388.01 124.21"/>
          <polygon class="cls-6" points="381.73 96.16 381.73 101.36 408.37 116.76 408.37 111.54 381.73 96.16"/>
        </g>
        <g>
          <polygon class="cls-23" points="447.35 86.91 412.79 78.61 412.79 129.54 447.35 141.45 447.35 86.91"/>
          <polygon class="cls-28" points="447.36 182.81 413 174.84 412.98 131.59 447.35 141.45 447.36 182.81"/>
          <ellipse class="cls-45" cx="431.87" cy="134.67" rx="16.04" ry="24.33" transform="translate(-19.98 156.64) rotate(-20.1)"/>
          <ellipse class="cls-14" cx="430.09" cy="135.18" rx="16.04" ry="24.33" transform="translate(-20.26 156.06) rotate(-20.1)"/>
          <path class="cls-44" d="M447.35,194.16c-1.41,3.24-10.79,2.26-20.95-2.18-10.16-4.44-17.24-10.66-15.83-13.9,1.41-3.24,10.79-2.26,20.95,2.18,10.16,4.44,17.24,10.66,15.83,13.9Z"/>
          <path class="cls-16" d="M432.34,146.16c0,1.11,.73,2.44,1.62,2.97,.89,.53,1.61,.05,1.61-1.06,0-1.11-.73-2.44-1.62-2.97-.89-.53-1.61-.05-1.61,1.06Zm1.61,.29c.3,.18,.54,.62,.54,.99,0,.37-.24,.53-.54,.35-.3-.18-.54-.62-.54-.99s.24-.53,.54-.35Zm-9.21-4.8c0,1.11,.73,2.44,1.62,2.97,.89,.53,1.61,.05,1.61-1.06,0-1.11-.73-2.44-1.62-2.97-.89-.53-1.61-.05-1.61,1.06Zm1.61,.29c.3,.18,.54,.62,.54,.99,0,.37-.24,.53-.54,.35-.3-.18-.54-.62-.54-.99,0-.37,.24-.53,.54-.35Zm-1.08-4.67h0s0,0,0,0l9.75,5.79c.24,.14,.45,.07,.52-.18l2.14-8.12c.05-.18,.01-.41-.09-.64-.1-.23-.26-.42-.43-.52l-13.14-7.8-.39-2.39c-.06-.34-.27-.69-.53-.84l-3.23-1.91c-.3-.18-.54-.02-.54,.35s.24,.81,.54,.99l2.79,1.66c.07,.42,1.85,11.42,1.95,12.06-.57-.03-.97,.44-.97,1.27,0,1.11,.73,2.44,1.62,2.97l1.08,.64,7.6,4.51,1.08,.64c.3,.18,.54,.02,.54-.35,0-.37-.24-.81-.54-.99l-9.75-5.79c-.3-.18-.54-.62-.54-.99,0-.37,.24-.53,.54-.35Zm2.22-.02l-1.79-1.06-.66-4.09,2.45,1.45v3.7Zm5.3-4.91l3.66,2.17-.73,2.76-2.93-1.74v-3.19Zm0,4.35l2.66,1.58-.84,3.2-1.82-1.08v-3.7Zm-4.38-6.95l3.44,2.04v3.19s-3.44-2.04-3.44-2.04v-3.19Zm0,4.35l3.44,2.04v3.7s-3.44-2.04-3.44-2.04v-3.7Zm-4.17-6.82l3.22,1.91v3.19s-2.65-1.58-2.65-1.58l-.57-3.53Z"/>
        </g>
        <path class="cls-4" d="M415.8,111.49c7.16-6.66,14.11-10.84,15.52-9.33,1.41,1.51-3.26,8.14-10.42,14.8-7.16,6.66-14.11,10.84-15.52,9.33-1.41-1.51,3.26-8.14,10.42-14.8Z"/>
      </g>
      <g>
        <ellipse class="cls-39" cx="512.11" cy="289.65" rx="24.28" ry="13.15"/>
        <ellipse class="cls-59" cx="512.11" cy="285.88" rx="24.28" ry="13.15"/>
        <path class="cls-15" d="M516.29,288.71c.35-.21,.61-.43,.77-.65h0c.17-.22,.27-.44,.3-.64,.03-.19-.03-.41-.18-.65-.15-.25-.31-.46-.47-.64-.16-.17-.42-.39-.77-.66-.37-.27-.65-.48-.87-.62-.23-.15-.56-.36-1-.63-.39-.24-.68-.43-.87-.55-.19-.12-.43-.29-.72-.5-.3-.22-.51-.39-.62-.52-.11-.13-.22-.28-.31-.44-.1-.18-.12-.34-.04-.49,.08-.14,.22-.28,.43-.4,.55-.33,1.38-.48,2.47-.46,1.04,.02,2.13,.21,3.24,.56,.49,.15,.94,.34,1.36,.55,.41,.21,.75,.41,.99,.58,.24,.17,.46,.35,.64,.53,.18,.18,.31,.31,.37,.39,.07,.09,.11,.14,.12,.17,.04,.05,.12,.07,.18,.09,.1,.03,.17,.04,.3,.01l2.96-.53c.14-.02,.21-.05,.17-.14-.02-.04-.05-.1-.09-.16-.04-.06-.14-.19-.32-.38-.17-.19-.39-.38-.63-.56-.24-.18-.6-.4-1.06-.66-.45-.25-.97-.49-1.55-.71l-.22-.08,2.08-1.24c.07-.04,.07-.08,.06-.1-.02-.04-.06-.07-.15-.09l-2.25-.71c-.08-.02-.15-.03-.25-.03-.1,0-.16,.02-.21,.05l-2.11,1.26-.24-.05c-1.89-.4-3.75-.56-5.53-.45-1.76,.1-3.14,.45-4.1,1.02-.28,.17-.51,.35-.68,.53-.17,.18-.29,.36-.36,.52-.07,.16-.09,.34-.04,.53,.05,.2,.11,.38,.18,.54,.07,.15,.21,.33,.41,.53,.2,.21,.38,.38,.54,.52,.16,.14,.39,.31,.69,.52,.3,.21,.55,.37,.73,.49,.19,.12,.44,.28,.75,.49,.45,.28,.78,.49,.98,.64,.21,.14,.46,.33,.76,.56,.31,.24,.5,.43,.6,.59,.09,.15,.12,.32,.11,.49-.02,.19-.15,.35-.38,.49-.63,.38-1.51,.55-2.62,.52-1.06-.03-2.08-.2-3.03-.5-.43-.14-.83-.29-1.2-.46-1.29-.58-2.21-1.31-2.76-2.16l-.02-.05s-.02-.04-.08-.06c-.01,0-.03,0-.04-.01-.17-.04-.24-.03-.27-.03l-3.21,.34c-.15,.02-.23,.05-.21,.15,.01,.04,.04,.11,.09,.19,.05,.09,.17,.25,.35,.47,.18,.22,.42,.45,.69,.69,.27,.23,.67,.5,1.18,.81,.51,.3,1.09,.59,1.74,.85l.2,.08-2.07,1.23s-.06,.06-.04,.1c.02,.04,.06,.07,.14,.09l2.25,.71c.09,.03,.16,.04,.25,.03,.06,0,.13-.01,.21-.05l2.06-1.23,.24,.06c1.88,.43,3.77,.58,5.6,.45,1.83-.13,3.3-.51,4.37-1.15Z"/>
        <path class="cls-24" d="M487.97,212.34v72.16c-.09,.45-.13,.91-.13,1.38,0,7.26,10.87,13.15,24.28,13.15s24.28-5.89,24.28-13.15v-73.54h-48.42Z"/>
      </g>
      <g>
        <g>
          <path class="cls-65" d="M311.35,83.82c-.09-.75-2.11-18.48,2.13-23.24,.7-.79,1.55-1.19,2.51-1.19,5.19,0,5.58,17.13,5.59,17.85h-.5c-.09-4.82-1.19-17.35-5.09-17.35-.82,0-1.52,.33-2.13,1.02-4.09,4.59-2.02,22.67-2,22.85l-.5,.06Z"/>
          <polygon class="cls-33" points="311.31 124.81 313.07 89.12 336.31 74.82 341.18 107.57 311.31 124.81"/>
          <polygon class="cls-84" points="313.07 89.12 309.36 85.14 303.63 83.54 327.33 69.87 330.46 72.7 336.31 74.82 313.07 89.12"/>
          <polygon class="cls-32" points="305.12 119.18 309.36 85.14 303.63 83.54 298.03 116.89 305.12 119.18"/>
          <polygon class="cls-50" points="309.36 85.14 313.07 89.12 311.31 124.81 305.12 119.18 309.36 85.14"/>
          <path class="cls-41" d="M320.71,89.12c.44,0,.8,.7,.8,1.56s-.36,1.56-.8,1.56-.8-.7-.8-1.56,.36-1.56,.8-1.56Z"/>
          <path class="cls-55" d="M330.43,82.58c.44,0,.8,.7,.8,1.56s-.36,1.56-.8,1.56-.8-.7-.8-1.56,.36-1.56,.8-1.56Z"/>
          <path class="cls-56" d="M320.71,90.93c-.12,0-.23-.09-.25-.22-.09-.75-2.11-18.48,2.13-23.24,.7-.79,1.55-1.19,2.51-1.19,5.19,0,5.58,17.13,5.59,17.85,0,.14-.11,.25-.25,.25-.12,0-.25-.11-.25-.25-.09-4.83-1.19-17.36-5.09-17.36-.82,0-1.52,.33-2.13,1.02-4.09,4.59-2.02,22.66-2,22.85,.02,.14-.08,.26-.22,.28-.01,0-.02,0-.03,0Z"/>
        </g>
        <polygon class="cls-61" points="341.18 107.57 311.31 124.81 338.81 140.69 368.67 123.44 341.18 107.57"/>
        <polygon class="cls-19" points="298.03 116.89 305.12 119.18 311.31 124.81 341.18 107.57 341.18 19.09 298.03 19.09 298.03 116.89"/>
      </g>
      <path class="cls-1" d="M431.52,207.7c17.13,10.54,29.84,20.99,28.39,23.34-1.45,2.35-16.51-4.28-33.64-14.82-17.13-10.54-29.84-20.99-28.39-23.34,1.45-2.35,16.51,4.28,33.64,14.82Z"/>
      <path class="cls-5" d="M388.89,286.98c-17.88,9.2-31.36,18.65-30.09,21.11,1.26,2.46,16.79-3.01,34.67-12.21,17.88-9.2,31.36-18.65,30.09-21.11-1.26-2.46-16.79,3.01-34.67,12.21Z"/>
      <ellipse class="cls-3" cx="530.16" cy="293.87" rx="17.72" ry="5" transform="translate(-74.48 250.91) rotate(-24.94)"/>
    </g>
  </g>
</svg>