<?xml version="1.0" encoding="UTF-8"?>
<svg xmlns="http://www.w3.org/2000/svg" xmlns:xlink="http://www.w3.org/1999/xlink" viewBox="0 0 292.82 225">
  <defs>
    <style>
      .cls-1 {
        opacity: .82;
      }

      .cls-2 {
        fill: url(#radial-gradient-3);
      }

      .cls-2, .cls-3, .cls-4, .cls-5, .cls-6, .cls-7 {
        mix-blend-mode: screen;
      }

      .cls-8 {
        opacity: .07;
      }

      .cls-9 {
        fill: url(#New_Gradient_Swatch_copy_25);
      }

      .cls-10 {
        fill: url(#linear-gradient-2);
      }

      .cls-11, .cls-12, .cls-13, .cls-14, .cls-15, .cls-16, .cls-17 {
        mix-blend-mode: color-dodge;
      }

      .cls-11, .cls-18 {
        fill: #3d065f;
      }

      .cls-19, .cls-20, .cls-21 {
        fill: #b4299a;
      }

      .cls-22 {
        fill: #fff;
      }

      .cls-23 {
        fill: #a56ef4;
      }

      .cls-24 {
        fill: #1f0d3d;
      }

      .cls-20 {
        opacity: .1;
      }

      .cls-25, .cls-3 {
        fill: #7514c9;
      }

      .cls-12 {
        fill: url(#Radial_Gradient_1-2);
      }

      .cls-26 {
        opacity: .6;
      }

      .cls-27 {
        fill: url(#New_Gradient_Swatch_copy_9);
      }

      .cls-28 {
        fill: url(#New_Gradient_Swatch_copy_10);
      }

      .cls-13 {
        fill: url(#Radial_Gradient_1-3);
      }

      .cls-3 {
        opacity: .5;
      }

      .cls-29 {
        opacity: .45;
      }

      .cls-30 {
        fill: url(#linear-gradient-6);
      }

      .cls-31 {
        isolation: isolate;
      }

      .cls-32 {
        opacity: .18;
      }

      .cls-33 {
        opacity: .09;
      }

      .cls-34 {
        opacity: .02;
      }

      .cls-35 {
        opacity: .2;
      }

      .cls-36 {
        fill: url(#New_Gradient_Swatch_copy_9-2);
      }

      .cls-37 {
        opacity: .15;
      }

      .cls-38 {
        opacity: 0;
      }

      .cls-14 {
        fill: url(#linear-gradient-13);
      }

      .cls-39 {
        opacity: .1;
      }

      .cls-40 {
        opacity: .25;
      }

      .cls-4, .cls-41 {
        fill: #45108a;
      }

      .cls-42 {
        fill: url(#linear-gradient-11);
      }

      .cls-43 {
        opacity: .36;
      }

      .cls-15 {
        fill: url(#radial-gradient);
      }

      .cls-44 {
        fill: url(#linear-gradient-10);
      }

      .cls-16 {
        fill: url(#Radial_Gradient_1);
      }

      .cls-45 {
        opacity: .22;
      }

      .cls-46 {
        opacity: .3;
      }

      .cls-47 {
        opacity: .2;
      }

      .cls-48 {
        opacity: .64;
      }

      .cls-6 {
        fill: #a421ea;
      }

      .cls-49 {
        fill: url(#New_Gradient_Swatch_copy_9-3);
      }

      .cls-21 {
        opacity: .4;
      }

      .cls-50 {
        fill: url(#linear-gradient-5);
      }

      .cls-51 {
        clip-path: url(#clippath);
      }

      .cls-52 {
        opacity: .12;
      }

      .cls-53 {
        fill: url(#linear-gradient-7);
      }

      .cls-54 {
        opacity: .27;
      }

      .cls-7 {
        fill: url(#radial-gradient-4);
      }

      .cls-55 {
        fill: url(#linear-gradient-9);
      }

      .cls-56 {
        opacity: .73;
      }

      .cls-57 {
        fill: #f745be;
      }

      .cls-58 {
        fill: #e6e7e8;
      }

      .cls-59 {
        fill: url(#linear-gradient-3);
      }

      .cls-60 {
        fill: #7c1dc9;
      }

      .cls-61 {
        fill: url(#linear-gradient);
      }

      .cls-62 {
        opacity: .05;
      }

      .cls-63 {
        opacity: .17;
      }

      .cls-64 {
        opacity: .55;
      }

      .cls-65 {
        fill: url(#New_Gradient_Swatch_copy_13);
      }

      .cls-66 {
        fill: url(#linear-gradient-4);
      }

      .cls-67 {
        opacity: .91;
      }

      .cls-68 {
        opacity: .27;
      }

      .cls-69 {
        fill: url(#linear-gradient-8);
      }

      .cls-17 {
        fill: url(#radial-gradient-2);
      }

      .cls-70 {
        fill: url(#linear-gradient-12);
      }
    </style>
    <clipPath id="clippath">
      <rect class="cls-25" width="292.82" height="225"/>
    </clipPath>
    <linearGradient id="linear-gradient" x1="7187.24" y1="119.66" x2="7357.41" y2="119.66" gradientTransform="translate(7423.68) rotate(-180) scale(1 -1)" gradientUnits="userSpaceOnUse">
      <stop offset="0" stop-color="#2f054a"/>
      <stop offset="1" stop-color="#5824b0"/>
    </linearGradient>
    <linearGradient id="linear-gradient-2" x1="7209.61" y1="118.92" x2="7379.78" y2="118.92" gradientTransform="translate(7423.68) rotate(-180) scale(1 -1)" gradientUnits="userSpaceOnUse">
      <stop offset=".06" stop-color="#2f0d5e"/>
      <stop offset=".28" stop-color="#2f105e"/>
      <stop offset=".47" stop-color="#311b61"/>
      <stop offset=".48" stop-color="#351f65"/>
      <stop offset=".5" stop-color="#422c72"/>
      <stop offset=".51" stop-color="#574188"/>
      <stop offset=".52" stop-color="#755fa6"/>
      <stop offset=".53" stop-color="#8770b8"/>
      <stop offset=".54" stop-color="#7d66ae"/>
      <stop offset=".56" stop-color="#5c458c"/>
      <stop offset=".59" stop-color="#442e74"/>
      <stop offset=".61" stop-color="#351f66"/>
      <stop offset=".63" stop-color="#311b61"/>
      <stop offset=".67" stop-color="#2a1054"/>
      <stop offset=".75" stop-color="#220446"/>
      <stop offset=".81" stop-color="#200041"/>
      <stop offset="1" stop-color="#200041"/>
    </linearGradient>
    <linearGradient id="linear-gradient-3" x1="7187.24" y1="115.25" x2="7357.41" y2="115.25" gradientTransform="translate(7423.68) rotate(-180) scale(1 -1)" gradientUnits="userSpaceOnUse">
      <stop offset="0" stop-color="#58098a"/>
      <stop offset="1" stop-color="#9e3bdb"/>
    </linearGradient>
    <radialGradient id="Radial_Gradient_1" data-name="Radial Gradient 1" cx="139.96" cy="134.08" fx="139.96" fy="134.08" r="64.68" gradientUnits="userSpaceOnUse">
      <stop offset="0" stop-color="#fff"/>
      <stop offset="1" stop-color="#000"/>
    </radialGradient>
    <linearGradient id="linear-gradient-4" x1="7188.94" y1="115.25" x2="7355.71" y2="115.25" gradientTransform="translate(7423.68) rotate(-180) scale(1 -1)" gradientUnits="userSpaceOnUse">
      <stop offset="0" stop-color="#2f054a"/>
      <stop offset="1" stop-color="#5e1d9a"/>
    </linearGradient>
    <linearGradient id="linear-gradient-5" x1="159.84" y1="72.82" x2="130.31" y2="220.5" gradientUnits="userSpaceOnUse">
      <stop offset="0" stop-color="#861eb2"/>
      <stop offset=".43" stop-color="#5f27bd"/>
      <stop offset=".9" stop-color="#3d065f"/>
    </linearGradient>
    <linearGradient id="linear-gradient-6" x1="9603.43" y1="-1091.77" x2="9611.63" y2="-1091.77" gradientTransform="translate(7989.39 -3112.87) rotate(150) scale(1 -1) skewX(49.11)" gradientUnits="userSpaceOnUse">
      <stop offset="0" stop-color="#3d065f"/>
      <stop offset="1" stop-color="#5f27bd"/>
    </linearGradient>
    <linearGradient id="linear-gradient-7" x1="9603.43" y1="-1091.77" x2="9611.63" y2="-1091.77" gradientTransform="translate(7989.39 -3112.87) rotate(150) scale(1 -1) skewX(49.11)" xlink:href="#linear-gradient"/>
    <linearGradient id="linear-gradient-8" x1="9594.5" y1="-1067.47" x2="9591.11" y2="-1061.14" gradientTransform="translate(7989.39 -3112.87) rotate(150) scale(1 -1) skewX(49.11)" gradientUnits="userSpaceOnUse">
      <stop offset=".06" stop-color="#9f79b8"/>
      <stop offset=".26" stop-color="#a07bb9"/>
      <stop offset=".36" stop-color="#a782bf"/>
      <stop offset=".43" stop-color="#b28fc8"/>
      <stop offset=".49" stop-color="#c1a1d5"/>
      <stop offset=".51" stop-color="#c3a5d6"/>
      <stop offset=".52" stop-color="#ccb2dc"/>
      <stop offset=".53" stop-color="#dac8e6"/>
      <stop offset=".55" stop-color="#eee6f4"/>
      <stop offset=".56" stop-color="#fff"/>
      <stop offset=".57" stop-color="#ebdff3"/>
      <stop offset=".58" stop-color="#ddc7ea"/>
      <stop offset=".59" stop-color="#d4b9e4"/>
      <stop offset=".6" stop-color="#d1b4e3"/>
      <stop offset=".66" stop-color="#b294d5"/>
      <stop offset=".72" stop-color="#9b7ccb"/>
      <stop offset=".77" stop-color="#8d6ec5"/>
      <stop offset=".81" stop-color="#8969c3"/>
      <stop offset="1" stop-color="#b086cc"/>
    </linearGradient>
    <linearGradient id="linear-gradient-9" x1="9613.05" y1="-1091.77" x2="9621.25" y2="-1091.77" xlink:href="#linear-gradient-6"/>
    <linearGradient id="linear-gradient-10" x1="9613.05" y1="-1091.77" x2="9621.25" y2="-1091.77" gradientTransform="translate(7989.39 -3112.87) rotate(150) scale(1 -1) skewX(49.11)" xlink:href="#linear-gradient"/>
    <linearGradient id="linear-gradient-11" x1="9601.97" y1="-1063.46" x2="9598.58" y2="-1057.13" xlink:href="#linear-gradient-8"/>
    <radialGradient id="radial-gradient" cx="6365.69" cy="-925.41" fx="6365.69" fy="-925.41" r="30.68" gradientTransform="translate(6562.43 737.59) rotate(180) scale(1 -.66)" gradientUnits="userSpaceOnUse">
      <stop offset="0" stop-color="#972a74"/>
      <stop offset=".04" stop-color="#8a266a"/>
      <stop offset=".19" stop-color="#601a49"/>
      <stop offset=".35" stop-color="#3d112f"/>
      <stop offset=".51" stop-color="#22091a"/>
      <stop offset=".67" stop-color="#0f040b"/>
      <stop offset=".83" stop-color="#030102"/>
      <stop offset="1" stop-color="#000"/>
    </radialGradient>
    <radialGradient id="radial-gradient-2" cx="7922.61" cy="2584.6" fx="7922.61" fy="2584.6" r="15.97" gradientTransform="translate(1838.65 8088.05) rotate(-90) scale(1 -.66)" xlink:href="#radial-gradient"/>
    <linearGradient id="linear-gradient-12" x1="103.11" y1="122.28" x2="136.56" y2="140.66" gradientUnits="userSpaceOnUse">
      <stop offset=".04" stop-color="#ffa98c"/>
      <stop offset=".16" stop-color="#f79990"/>
      <stop offset=".41" stop-color="#e3719c"/>
      <stop offset=".75" stop-color="#c430ae"/>
      <stop offset=".98" stop-color="#ad00bd"/>
    </linearGradient>
    <radialGradient id="Radial_Gradient_1-2" data-name="Radial Gradient 1" cx="123.55" cy="134.5" fx="123.55" fy="134.5" r="13.29" xlink:href="#Radial_Gradient_1"/>
    <linearGradient id="New_Gradient_Swatch_copy_25" data-name="New Gradient Swatch copy 25" x1="-4093.64" y1="2296.96" x2="-4046.28" y2="2296.96" gradientTransform="translate(5997.74 812.5) rotate(30) skewX(-30)" gradientUnits="userSpaceOnUse">
      <stop offset="0" stop-color="#25054d"/>
      <stop offset="1" stop-color="#45108a"/>
    </linearGradient>
    <linearGradient id="New_Gradient_Swatch_copy_9" data-name="New Gradient Swatch copy 9" x1="-4093.64" y1="2261.24" x2="-4031.1" y2="2261.24" gradientTransform="translate(5997.74 812.5) rotate(30) skewX(-30)" gradientUnits="userSpaceOnUse">
      <stop offset=".04" stop-color="#9f19ab"/>
      <stop offset=".24" stop-color="#ae24b0"/>
      <stop offset=".65" stop-color="#d643bf"/>
      <stop offset="1" stop-color="#ff63ce"/>
    </linearGradient>
    <linearGradient id="New_Gradient_Swatch_copy_9-2" data-name="New Gradient Swatch copy 9" x1="-5947.69" y1="2327.6" x2="-5929.23" y2="2327.6" gradientTransform="translate(8789.37 2424.04) rotate(30) skewX(-49.11)" xlink:href="#New_Gradient_Swatch_copy_9"/>
    <linearGradient id="New_Gradient_Swatch_copy_9-3" data-name="New Gradient Swatch copy 9" x1="-4089.9" y1="2327.35" x2="-4072.15" y2="2327.35" xlink:href="#New_Gradient_Swatch_copy_9"/>
    <linearGradient id="New_Gradient_Swatch_copy_10" data-name="New Gradient Swatch copy 10" x1="-4093.42" y1="2261.15" x2="-4072.68" y2="2261.15" gradientTransform="translate(5997.74 812.5) rotate(30) skewX(-30)" gradientUnits="userSpaceOnUse">
      <stop offset=".04" stop-color="#9d9eb3"/>
      <stop offset=".58" stop-color="#d4d1d8"/>
      <stop offset="1" stop-color="#eeebf2"/>
    </linearGradient>
    <radialGradient id="Radial_Gradient_1-3" data-name="Radial Gradient 1" cx="187.35" cy="109.53" fx="187.35" fy="109.53" r="46.27" xlink:href="#Radial_Gradient_1"/>
    <linearGradient id="New_Gradient_Swatch_copy_13" data-name="New Gradient Swatch copy 13" x1="-4123.41" y1="2288.69" x2="-4077" y2="2288.69" gradientTransform="translate(6022.08 822.78) rotate(30) skewX(-30)" gradientUnits="userSpaceOnUse">
      <stop offset=".04" stop-color="#6b24d6"/>
      <stop offset=".29" stop-color="#7733dc"/>
      <stop offset=".79" stop-color="#965bec"/>
      <stop offset="1" stop-color="#a56ef4"/>
    </linearGradient>
    <radialGradient id="radial-gradient-3" cx="109.92" cy="90.33" fx="109.92" fy="90.33" r="5.79" gradientUnits="userSpaceOnUse">
      <stop offset=".1" stop-color="#dc3daa"/>
      <stop offset=".11" stop-color="#bb3198"/>
      <stop offset=".15" stop-color="#5e0f66"/>
      <stop offset=".18" stop-color="#500c57"/>
      <stop offset=".24" stop-color="#37083c"/>
      <stop offset=".31" stop-color="#230526"/>
      <stop offset=".4" stop-color="#130314"/>
      <stop offset=".5" stop-color="#080108"/>
      <stop offset=".64" stop-color="#010001"/>
      <stop offset="1" stop-color="#000"/>
    </radialGradient>
    <radialGradient id="radial-gradient-4" cx="109.92" cy="125.37" fx="109.92" fy="125.37" r="5.79" gradientUnits="userSpaceOnUse">
      <stop offset=".1" stop-color="#fff"/>
      <stop offset=".13" stop-color="#c677cd"/>
      <stop offset=".15" stop-color="#9f19ab"/>
      <stop offset=".17" stop-color="#93179e"/>
      <stop offset=".21" stop-color="#701179"/>
      <stop offset=".26" stop-color="#520c58"/>
      <stop offset=".32" stop-color="#38083c"/>
      <stop offset=".38" stop-color="#230526"/>
      <stop offset=".46" stop-color="#130314"/>
      <stop offset=".55" stop-color="#080108"/>
      <stop offset=".67" stop-color="#010001"/>
      <stop offset="1" stop-color="#000"/>
    </radialGradient>
    <linearGradient id="linear-gradient-13" x1="88.34" y1="39.84" x2="148.57" y2="81.54" gradientUnits="userSpaceOnUse">
      <stop offset="0" stop-color="#972a74"/>
      <stop offset=".04" stop-color="#8a266a"/>
      <stop offset=".19" stop-color="#601a49"/>
      <stop offset=".35" stop-color="#3d112f"/>
      <stop offset=".51" stop-color="#22091a"/>
      <stop offset=".67" stop-color="#0f040b"/>
      <stop offset=".83" stop-color="#030102"/>
      <stop offset="1" stop-color="#000"/>
    </linearGradient>
  </defs>
  <g class="cls-31">
    <g id="_0" data-name="0">
      <g>
        <rect class="cls-25" width="292.82" height="225"/>
        <g class="cls-51">
          <g class="cls-26">
            <polygon class="cls-3" points="369.86 159.52 8.81 -.66 8.81 -20.5 369.86 139.67 369.86 159.52"/>
            <polygon class="cls-3" points="192.73 90.97 91.7 46.15 91.7 5.75 192.73 50.57 192.73 90.97"/>
            <polygon class="cls-3" points="266.02 164.61 2.35 47.64 2.35 37.76 266.02 154.73 266.02 164.61"/>
            <polygon class="cls-6" points="226.3 18.8 169.92 -6.21 169.92 -16.09 226.3 8.92 226.3 18.8"/>
            <polygon class="cls-6" points="79.95 101.22 23.57 76.21 23.57 66.34 79.95 91.35 79.95 101.22"/>
            <polygon class="cls-3" points="263.18 61.05 242.42 51.83 242.42 41.96 263.18 51.17 263.18 61.05"/>
            <polygon class="cls-3" points="36.38 213.92 15.61 204.71 15.61 194.83 36.38 204.05 36.38 213.92"/>
            <polygon class="cls-3" points="184.14 192.74 4.42 113.02 4.42 103.14 184.14 182.87 184.14 192.74"/>
            <polygon class="cls-3" points="309.31 198.64 49.84 83.53 49.84 63.69 309.31 178.8 309.31 198.64"/>
          </g>
        </g>
      </g>
      <g>
        <path class="cls-4" d="M222.57,121.46c-.1,0-.2-.05-.25-.14-.08-.14-.04-.32,.1-.4l1-.59c.14-.08,.32-.04,.4,.1,.08,.14,.04,.32-.1,.4l-1,.59s-.1,.04-.15,.04Zm2-1.18c-.1,0-.2-.05-.25-.14-.08-.14-.04-.32,.1-.4l1-.59c.14-.08,.32-.04,.4,.1,.08,.14,.04,.32-.1,.4l-1,.59s-.1,.04-.15,.04Zm2-1.18c-.1,0-.2-.05-.25-.14-.08-.14-.04-.32,.1-.4l1-.59c.14-.08,.32-.04,.4,.1,.08,.14,.04,.32-.1,.4l-1,.59s-.1,.04-.15,.04Zm2-1.18c-.1,0-.2-.05-.25-.14-.08-.14-.04-.32,.1-.4l1-.59c.14-.08,.32-.04,.4,.1,.08,.14,.04,.32-.1,.4l-1,.59s-.1,.04-.15,.04Zm2-1.18c-.1,0-.2-.05-.25-.14-.08-.14-.04-.32,.1-.4l1-.59c.14-.08,.32-.04,.4,.1,.08,.14,.04,.32-.1,.4l-1,.59s-.1,.04-.15,.04Zm2-1.18c-.1,0-.2-.05-.25-.14-.08-.14-.04-.32,.1-.4l1-.59c.14-.08,.32-.04,.4,.1,.08,.14,.04,.32-.1,.4l-1,.59s-.1,.04-.15,.04Zm2-1.18c-.1,0-.2-.05-.25-.14-.08-.14-.04-.32,.1-.4l1-.59c.14-.08,.32-.04,.4,.1,.08,.14,.04,.32-.1,.4l-1,.59s-.1,.04-.15,.04Zm2-1.18c-.1,0-.2-.05-.25-.14-.08-.14-.04-.32,.1-.4l1-.59c.14-.08,.32-.04,.4,.1,.08,.14,.04,.32-.1,.4l-1,.59s-.1,.04-.15,.04Zm2-1.18c-.1,0-.2-.05-.25-.14-.08-.14-.04-.32,.1-.4l1-.59c.14-.08,.32-.04,.4,.1,.08,.14,.04,.32-.1,.4l-1,.59s-.1,.04-.15,.04Zm2-1.18c-.1,0-.2-.05-.25-.14-.08-.14-.04-.32,.1-.4l1-.59c.14-.08,.32-.04,.4,.1,.08,.14,.04,.32-.1,.4l-1,.59s-.1,.04-.15,.04Zm2-1.18c-.1,0-.2-.05-.25-.14-.08-.14-.04-.32,.1-.4l1-.59c.14-.08,.32-.04,.4,.1,.08,.14,.04,.32-.1,.4l-1,.59s-.1,.04-.15,.04Zm2-1.18c-.1,0-.2-.05-.25-.14-.08-.14-.04-.32,.1-.4l1-.59c.14-.08,.32-.04,.4,.1,.08,.14,.04,.32-.1,.4l-1,.59s-.1,.04-.15,.04Zm2-1.18c-.1,0-.2-.05-.25-.14-.08-.14-.04-.32,.1-.4l1-.59c.14-.08,.32-.04,.4,.1,.08,.14,.04,.32-.1,.4l-1,.59s-.1,.04-.15,.04Zm1.53-1.44c-.16,0-.29-.13-.29-.29v-1.16c0-.16,.13-.29,.29-.29s.29,.13,.29,.29v1.16c0,.16-.13,.29-.29,.29Zm0-2.32c-.16,0-.29-.13-.29-.29v-1.16c0-.16,.13-.29,.29-.29s.29,.13,.29,.29v1.16c0,.16-.13,.29-.29,.29Zm0-2.32c-.16,0-.29-.13-.29-.29v-1.16c0-.16,.13-.29,.29-.29s.29,.13,.29,.29v1.16c0,.16-.13,.29-.29,.29Zm0-2.32c-.16,0-.29-.13-.29-.29v-1.16c0-.16,.13-.29,.29-.29s.29,.13,.29,.29v1.16c0,.16-.13,.29-.29,.29Zm0-2.32c-.16,0-.29-.13-.29-.29v-1.16c0-.16,.13-.29,.29-.29s.29,.13,.29,.29v1.16c0,.16-.13,.29-.29,.29Zm0-2.32c-.16,0-.29-.13-.29-.29v-1.16c0-.16,.13-.29,.29-.29s.29,.13,.29,.29v1.16c0,.16-.13,.29-.29,.29Zm0-2.32c-.16,0-.29-.13-.29-.29v-1.16c0-.16,.13-.29,.29-.29s.29,.13,.29,.29v1.16c0,.16-.13,.29-.29,.29Zm0-2.32c-.16,0-.29-.13-.29-.29v-1.16c0-.16,.13-.29,.29-.29s.29,.13,.29,.29v1.16c0,.16-.13,.29-.29,.29Zm0-2.32c-.16,0-.29-.13-.29-.29v-.19l-.55-.32c-.14-.08-.19-.26-.11-.4,.08-.14,.26-.19,.4-.11l.69,.4c.09,.05,.14,.15,.14,.25v.36c0,.16-.13,.29-.29,.29Zm-1.69-1.34s-.1-.01-.15-.04l-1-.58c-.14-.08-.19-.26-.11-.4,.08-.14,.26-.19,.4-.11l1,.58c.14,.08,.19,.26,.11,.4-.05,.09-.15,.14-.25,.14Zm-2-1.16s-.1-.01-.15-.04l-1-.58c-.14-.08-.19-.26-.11-.4,.08-.14,.26-.19,.4-.11l1,.58c.14,.08,.19,.26,.11,.4-.05,.09-.15,.14-.25,.14Zm-2-1.16s-.1-.01-.15-.04l-1-.58c-.14-.08-.19-.26-.11-.4,.08-.14,.26-.19,.4-.11l1,.58c.14,.08,.19,.26,.11,.4-.05,.09-.15,.14-.25,.14Zm-2-1.16s-.1-.01-.15-.04l-1-.58c-.14-.08-.19-.26-.11-.4,.08-.14,.26-.18,.4-.11l1,.58c.14,.08,.19,.26,.11,.4-.05,.09-.15,.14-.25,.14Zm-2-1.16s-.1-.01-.15-.04l-1-.58c-.14-.08-.19-.26-.11-.4,.08-.14,.26-.18,.4-.11l1,.58c.14,.08,.19,.26,.11,.4-.05,.09-.15,.14-.25,.14Zm-2-1.16s-.1-.01-.15-.04l-1-.58c-.14-.08-.19-.26-.11-.4,.08-.14,.26-.19,.4-.11l1,.58c.14,.08,.19,.26,.11,.4-.05,.09-.15,.14-.25,.14Zm-2-1.16s-.1-.01-.15-.04l-1-.58c-.14-.08-.19-.26-.11-.4,.08-.14,.26-.19,.4-.11l1,.58c.14,.08,.19,.26,.11,.4-.05,.09-.15,.14-.25,.14Zm-2-1.16s-.1-.01-.15-.04l-1-.58c-.14-.08-.19-.26-.11-.4,.08-.14,.26-.19,.4-.11l1,.58c.14,.08,.19,.26,.11,.4-.05,.09-.15,.14-.25,.14Zm-2-1.16s-.1-.01-.15-.04l-1-.58c-.14-.08-.19-.26-.11-.4,.08-.14,.26-.19,.4-.11l1,.58c.14,.08,.19,.26,.11,.4-.05,.09-.15,.14-.25,.14Zm-2-1.16s-.1-.01-.15-.04l-1-.58c-.14-.08-.19-.26-.11-.4,.08-.14,.26-.19,.4-.11l1,.58c.14,.08,.19,.26,.11,.4-.05,.09-.15,.14-.25,.14Zm-2-1.16s-.1-.01-.15-.04l-1-.58c-.14-.08-.19-.26-.11-.4,.08-.14,.26-.18,.4-.11l1,.58c.14,.08,.19,.26,.11,.4-.05,.09-.15,.14-.25,.14Zm-2-1.16s-.1-.01-.15-.04l-1-.58c-.14-.08-.19-.26-.11-.4,.08-.14,.26-.18,.4-.11l1,.58c.14,.08,.19,.26,.11,.4-.05,.09-.15,.14-.25,.14Zm-2-1.16s-.1-.01-.15-.04l-1-.58c-.14-.08-.19-.26-.11-.4,.08-.14,.26-.19,.4-.11l1,.58c.14,.08,.19,.26,.11,.4-.05,.09-.15,.14-.25,.14Zm-2-1.16s-.1-.01-.15-.04l-1-.58c-.14-.08-.19-.26-.11-.4,.08-.14,.26-.19,.4-.11l1,.58c.14,.08,.19,.26,.11,.4-.05,.09-.15,.14-.25,.14Zm-2-1.16s-.1-.01-.15-.04l-1-.58c-.14-.08-.19-.26-.11-.4,.08-.14,.26-.19,.4-.11l1,.58c.14,.08,.19,.26,.11,.4-.05,.09-.15,.14-.25,.14Zm-2-1.16s-.1-.01-.15-.04l-1-.58c-.14-.08-.19-.26-.11-.4,.08-.14,.26-.19,.4-.11l1,.58c.14,.08,.19,.26,.11,.4-.05,.09-.15,.14-.25,.14Zm-2-1.16s-.1-.01-.15-.04l-1-.58c-.14-.08-.19-.26-.11-.4,.08-.14,.26-.19,.4-.11l1,.58c.14,.08,.19,.26,.11,.4-.05,.09-.15,.14-.25,.14Zm-2-1.16s-.1-.01-.15-.04l-1-.58c-.14-.08-.19-.26-.11-.4,.08-.14,.26-.18,.4-.11l1,.58c.14,.08,.19,.26,.11,.4-.05,.09-.15,.14-.25,.14Z"/>
        <path class="cls-4" d="M72.18,124.04l-1-.59c-.14-.08-.18-.26-.1-.4,.08-.14,.26-.18,.4-.1l1,.59c.14,.08,.18,.26,.1,.4-.05,.09-.15,.14-.25,.14-.05,0-.1-.01-.15-.04Zm-2-1.18l-1-.59c-.14-.08-.18-.26-.1-.4,.08-.14,.26-.18,.4-.1l1,.59c.14,.08,.18,.26,.1,.4-.05,.09-.15,.14-.25,.14-.05,0-.1-.01-.15-.04Zm-2-1.18l-1-.59c-.14-.08-.18-.26-.1-.4,.08-.14,.26-.18,.4-.1l1,.59c.14,.08,.18,.26,.1,.4-.05,.09-.15,.14-.25,.14-.05,0-.1-.01-.15-.04Zm-2-1.18l-1-.59c-.14-.08-.18-.26-.1-.4,.08-.14,.26-.18,.4-.1l1,.59c.14,.08,.18,.26,.1,.4-.05,.09-.15,.14-.25,.14-.05,0-.1-.01-.15-.04Zm-2-1.18l-1-.59c-.14-.08-.18-.26-.1-.4,.08-.14,.26-.18,.4-.1l1,.59c.14,.08,.18,.26,.1,.4-.05,.09-.15,.14-.25,.14-.05,0-.1-.01-.15-.04Zm-1.67-1.69v-1.16c0-.16,.13-.29,.29-.29s.29,.13,.29,.29v1.16c0,.16-.13,.29-.29,.29s-.29-.13-.29-.29Zm0-2.32v-1.16c0-.16,.13-.29,.29-.29s.29,.13,.29,.29v1.16c0,.16-.13,.29-.29,.29s-.29-.13-.29-.29Zm0-2.32v-1.16c0-.16,.13-.29,.29-.29s.29,.13,.29,.29v1.16c0,.16-.13,.29-.29,.29s-.29-.13-.29-.29Zm0-2.32v-1.16c0-.16,.13-.29,.29-.29s.29,.13,.29,.29v1.16c0,.16-.13,.29-.29,.29s-.29-.13-.29-.29Zm0-2.32v-1.16c0-.16,.13-.29,.29-.29s.29,.13,.29,.29v1.16c0,.16-.13,.29-.29,.29s-.29-.13-.29-.29Zm0-2.32v-1.16c0-.16,.13-.29,.29-.29s.29,.13,.29,.29v1.16c0,.16-.13,.29-.29,.29s-.29-.13-.29-.29Zm0-2.32v-1.52c0-.1,.05-.2,.14-.25l.69-.4c.14-.08,.32-.03,.4,.11,.08,.14,.03,.32-.11,.4l-.55,.32v1.35c0,.16-.13,.29-.29,.29s-.29-.13-.29-.29Zm1.73-2.36c-.08-.14-.03-.32,.11-.4l1-.58c.14-.08,.32-.03,.4,.11,.08,.14,.03,.32-.11,.4l-1,.58s-.1,.04-.15,.04c-.1,0-.2-.05-.25-.14Zm2-1.16c-.08-.14-.03-.32,.11-.4l1-.58c.14-.08,.32-.03,.4,.11,.08,.14,.03,.32-.11,.4l-1,.58s-.1,.04-.15,.04c-.1,0-.2-.05-.25-.14Zm2-1.16c-.08-.14-.03-.32,.11-.4l1-.58c.14-.08,.32-.03,.4,.11,.08,.14,.03,.32-.11,.4l-1,.58s-.1,.04-.15,.04c-.1,0-.2-.05-.25-.14Z"/>
        <g class="cls-5">
          <g>
            <g>
              <path class="cls-41" d="M195.39,126.72l-15.96,9.21-15.92-9.19,15.96-9.21,15.92,9.19h0Zm1.19,0l-17.12-9.88-17.14,9.9,17.12,9.88,17.14-9.9h0Z"/>
              <polygon class="cls-41" points="177.04 137.93 159.98 128.09 160.68 127.69 177.73 137.53 177.04 137.93"/>
              <polygon class="cls-41" points="175.06 139.08 158.01 129.23 158.7 128.83 175.75 138.68 175.06 139.08"/>
              <polygon class="cls-41" points="165.08 135.64 156 130.39 156.69 129.99 165.78 135.24 165.08 135.64"/>
            </g>
            <g>
              <path class="cls-41" d="M217.49,139.48l-15.96,9.21-15.92-9.19,15.96-9.21,15.92,9.19h0Zm1.19,0l-17.12-9.88-17.14,9.9,17.12,9.88,17.14-9.9h0Z"/>
              <polygon class="cls-41" points="199.13 150.69 182.08 140.84 182.77 140.45 199.82 150.29 199.13 150.69"/>
              <polygon class="cls-41" points="197.15 151.83 180.1 141.99 180.79 141.59 197.84 151.43 197.15 151.83"/>
              <polygon class="cls-41" points="187.18 148.4 178.09 143.15 178.78 142.75 187.87 148 187.18 148.4"/>
            </g>
          </g>
          <g>
            <g>
              <path class="cls-41" d="M165.72,143.85l-15.96,9.21-15.92-9.19,15.96-9.21,15.92,9.19h0Zm1.19,0l-17.12-9.88-17.14,9.9,17.12,9.88,17.14-9.9h0Z"/>
              <polygon class="cls-41" points="147.37 155.06 130.32 145.22 131.01 144.82 148.06 154.66 147.37 155.06"/>
              <polygon class="cls-41" points="145.39 156.21 128.34 146.36 129.03 145.96 146.08 155.81 145.39 156.21"/>
              <polygon class="cls-41" points="135.42 152.77 126.33 147.52 127.02 147.12 136.11 152.37 135.42 152.77"/>
            </g>
            <g>
              <path class="cls-41" d="M187.82,156.61l-15.96,9.21-15.92-9.19,15.96-9.21,15.92,9.19h0Zm1.19,0l-17.12-9.88-17.14,9.9,17.12,9.88,17.14-9.9h0Z"/>
              <polygon class="cls-41" points="169.46 167.82 152.41 157.97 153.1 157.57 170.15 167.42 169.46 167.82"/>
              <polygon class="cls-41" points="167.48 168.96 150.43 159.12 151.12 158.72 168.17 168.56 167.48 168.96"/>
              <polygon class="cls-41" points="157.51 165.52 148.42 160.28 149.11 159.88 158.2 165.13 157.51 165.52"/>
            </g>
          </g>
          <g>
            <g>
              <path class="cls-41" d="M135.92,161.06l-15.96,9.21-15.92-9.19,15.96-9.21,15.92,9.19h0Zm1.19,0l-17.12-9.88-17.14,9.9,17.12,9.88,17.14-9.9h0Z"/>
              <polygon class="cls-41" points="117.57 172.27 100.52 162.42 101.21 162.02 118.26 171.87 117.57 172.27"/>
              <polygon class="cls-41" points="115.59 173.41 98.54 163.57 99.23 163.17 116.28 173.01 115.59 173.41"/>
              <polygon class="cls-41" points="105.62 169.97 96.53 164.73 97.22 164.33 106.31 169.58 105.62 169.97"/>
            </g>
            <g>
              <path class="cls-41" d="M158.02,173.81l-15.96,9.21-15.92-9.19,15.96-9.21,15.92,9.19h0Zm1.19,0l-17.12-9.88-17.14,9.9,17.12,9.88,17.14-9.9h0Z"/>
              <polygon class="cls-41" points="139.66 185.02 122.61 175.18 123.3 174.78 140.35 184.62 139.66 185.02"/>
              <polygon class="cls-41" points="137.68 186.17 120.63 176.32 121.32 175.92 138.37 185.77 137.68 186.17"/>
              <polygon class="cls-41" points="127.71 182.73 118.62 177.48 119.31 177.08 128.4 182.33 127.71 182.73"/>
            </g>
          </g>
          <g>
            <path class="cls-41" d="M188.22,109.57l5.83,3.37c.24,.14,.63,.14,.87,0,.24-.14,.24-.36,0-.5l-5.83-3.37c-.24-.14-.63-.14-.87,0-.24,.14-.24,.36,0,.5Zm5.23,3.71l-5.83-3.37c-.24-.14-.63-.14-.87,0-.24,.14-.24,.36,0,.5l5.83,3.37c.24,.14,.63,.14,.87,0,.24-.14,.24-.36,0-.5Zm-1.46,.84l-5.83-3.37c-.24-.14-.63-.14-.87,0s-.24,.36,0,.5l5.83,3.37c.24,.14,.63,.14,.87,0,.24-.14,.24-.36,0-.5Z"/>
            <path class="cls-41" d="M127.86,193.33l-41.66-24.05c-2.74-1.58-2.76-4.15-.03-5.73l98.1-56.64c2.73-1.57,7.18-1.57,9.92,.02l41.66,24.05c2.74,1.58,2.76,4.15,.03,5.73l-98.1,56.64c-2.73,1.57-7.18,1.57-9.92-.02Zm65.93-86.18c-2.52-1.46-6.62-1.46-9.13-.02l-98.1,56.64c-2.51,1.45-2.5,3.81,.03,5.27l41.66,24.05c2.52,1.46,6.62,1.46,9.13,.02l98.1-56.64c2.51-1.45,2.5-3.81-.03-5.27l-41.66-24.05Z"/>
            <path class="cls-41" d="M228.07,133.84c0,.18-.25,.32-.56,.32-.31,0-.56-.15-.56-.33,0-.18,.25-.32,.56-.32,.31,0,.56,.15,.56,.33Z"/>
            <g>
              <path class="cls-41" d="M227.21,131.25s-.06,0-.09,0v.32s.06,0,.09,0c2.32,0,4.21,1.1,4.22,2.44,0,0,0,0,0,.01h.56s0,0,0,0c0-1.52-2.16-2.76-4.79-2.76Z"/>
              <path class="cls-41" d="M227.22,132.55s-.06,0-.09,0v.32s.06,0,.09,0c1.08,0,1.97,.51,1.97,1.14,0,0,0,0,0,.01h.56s0,0,0,0c0-.8-1.14-1.46-2.53-1.46Z"/>
              <path class="cls-41" d="M227.22,131.9s-.06,0-.09,0v.32s.06,0,.09,0c1.7,0,3.09,.81,3.1,1.79,0,0,0,0,0,.01h.56s0,0,0,0c0-1.16-1.65-2.11-3.66-2.11Z"/>
            </g>
            <polygon class="cls-41" points="216.38 127.88 199.56 118.17 200.65 117.54 217.47 127.25 216.38 127.88"/>
          </g>
        </g>
        <g>
          <g class="cls-35">
            <path class="cls-38" d="M123.26,185.61c2.9,0,5.54-.63,7.62-1.84l106.15-61.1c2.78-1.6,4.37-4.14,4.37-6.96,0-3.09-1.92-5.97-5.26-7.9l-45.79-26.43c-2.63-1.52-5.91-2.35-9.25-2.35-2.9,0-5.54,.63-7.62,1.84l-106.15,61.1c-2.78,1.6-4.37,4.14-4.37,6.96,0,3.09,1.92,5.97,5.26,7.9l45.79,26.43c2.63,1.52,5.91,2.35,9.25,2.35Z"/>
            <path class="cls-33" d="M173.56,81.04l-106.15,61.1c-2.67,1.54-4.18,3.96-4.17,6.64,.01,2.93,1.85,5.67,5.06,7.53l43.75,25.26c.07,.04,2.19,1.25,2.27,1.28,2.7,1.47,6.04,2.22,9.31,2.09,2.64,0,5.62-.91,7.51-2l105.56-60.76c2.67-1.54,4.18-3.96,4.17-6.64-.01-2.93-1.85-5.68-5.06-7.53l-45.51-26.28c-.95-.55-2.27-1.15-3.37-1.5-1.82-.58-3.79-.93-5.79-.95-2.88-.03-5.52,.58-7.58,1.77Z"/>
            <path class="cls-32" d="M173.64,81.22l-106.15,61.1c-2.56,1.48-3.99,3.78-3.96,6.32,.02,2.77,1.78,5.38,4.86,7.15l43.95,25.37c.14,.08,2.13,1.21,2.3,1.26,2.76,1.43,6.18,2.08,9.37,1.82,2.38,0,5.7-1.19,7.4-2.17l104.98-60.43c2.56-1.48,3.99-3.78,3.96-6.32-.02-2.77-1.78-5.38-4.86-7.15l-45.24-26.12c-.85-.49-2.35-1.2-3.34-1.52-1.79-.59-3.75-.98-5.73-1.02-2.86-.06-5.5,.53-7.54,1.71Z"/>
            <path class="cls-68" d="M173.73,81.41l-106.15,61.1c-2.45,1.41-3.8,3.59-3.76,5.99,.04,2.61,1.71,5.08,4.65,6.78l44.15,25.49c.21,.12,2.08,1.16,2.33,1.24,2.83,1.39,6.31,1.95,9.42,1.55,2.11,0,5.78-1.47,7.29-2.34l104.4-60.09c2.45-1.41,3.8-3.59,3.76-5.99-.04-2.61-1.71-5.08-4.65-6.78l-44.96-25.96c-.76-.44-2.42-1.25-3.3-1.55-1.77-.61-3.71-1.03-5.68-1.09-2.83-.08-5.48,.48-7.5,1.65Z"/>
            <path class="cls-43" d="M173.82,81.59l-106.15,61.1c-2.34,1.35-3.6,3.41-3.56,5.67,.05,2.45,1.64,4.78,4.45,6.4l44.36,25.61c.28,.16,2.03,1.12,2.36,1.22,2.9,1.34,6.44,1.81,9.48,1.29,1.85,0,5.85-1.75,7.18-2.51l103.82-59.76c2.34-1.35,3.6-3.41,3.56-5.67-.05-2.45-1.64-4.78-4.45-6.4l-44.69-25.8c-.66-.38-2.5-1.3-3.26-1.57-1.75-.62-3.66-1.08-5.62-1.16-2.81-.11-5.46,.43-7.46,1.58Z"/>
            <path class="cls-29" d="M173.9,81.77l-106.15,61.1c-2.22,1.28-3.41,3.23-3.36,5.34,.06,2.29,1.57,4.48,4.25,6.03l44.56,25.73c.35,.2,1.97,1.08,2.38,1.2,2.97,1.3,6.57,1.68,9.54,1.02,1.58,0,5.93-2.02,7.07-2.68l103.23-59.42c2.22-1.28,3.41-3.23,3.36-5.34-.06-2.29-1.57-4.48-4.25-6.03l-44.42-25.64c-.57-.33-2.58-1.36-3.23-1.6-1.73-.63-3.62-1.13-5.57-1.23-2.78-.14-5.44,.37-7.42,1.52Z"/>
            <path class="cls-64" d="M173.99,81.96l-106.15,61.1c-2.11,1.22-3.22,3.04-3.15,5.02,.07,2.13,1.5,4.18,4.04,5.65l44.77,25.85c.42,.25,1.92,1.03,2.41,1.18,3.04,1.25,6.71,1.55,9.59,.75,1.32,0,6.01-2.3,6.96-2.85l102.65-59.09c2.11-1.22,3.22-3.04,3.15-5.02-.07-2.13-1.5-4.18-4.04-5.65l-44.14-25.49c-.47-.27-2.65-1.42-3.19-1.62-1.71-.64-3.58-1.18-5.51-1.3-2.76-.17-5.42,.32-7.39,1.45Z"/>
            <path class="cls-48" d="M174.07,82.14l-106.15,61.1c-2,1.16-3.03,2.86-2.95,4.7,.08,1.97,1.43,3.88,3.84,5.28l44.97,25.96c.5,.29,1.86,.99,2.44,1.17,3.11,1.21,6.84,1.41,9.65,.49,1.06,0,6.09-2.58,6.85-3.02l102.07-58.75c2-1.16,3.03-2.86,2.95-4.7-.08-1.97-1.43-3.88-3.84-5.28l-43.87-25.33c-.38-.22-2.72-1.48-3.15-1.64-1.69-.65-3.54-1.23-5.46-1.37-2.74-.2-5.4,.27-7.35,1.39Z"/>
            <path class="cls-56" d="M174.16,82.32l-106.15,61.1c-1.89,1.09-2.84,2.68-2.75,4.37,.09,1.81,1.36,3.59,3.64,4.9l45.17,26.08c.57,.33,1.81,.95,2.47,1.15,3.17,1.17,6.97,1.28,9.71,.22,.79,0,6.17-2.86,6.74-3.18l101.49-58.41c1.89-1.09,2.84-2.68,2.75-4.37-.09-1.81-1.36-3.59-3.64-4.9l-43.6-25.17c-.28-.16-2.8-1.54-3.12-1.67-1.67-.67-3.5-1.28-5.4-1.44-2.71-.22-5.38,.22-7.31,1.33Z"/>
            <path class="cls-1" d="M174.24,82.5l-106.15,61.1c-1.78,1.03-2.64,2.5-2.54,4.05,.11,1.65,1.29,3.29,3.44,4.53l45.38,26.2c.64,.37,1.75,.9,2.49,1.13,3.24,1.12,7.1,1.14,9.77-.04,.53,0,6.25-3.13,6.63-3.35l100.9-58.08c1.78-1.03,2.64-2.5,2.54-4.05-.11-1.65-1.29-3.29-3.44-4.53l-43.32-25.01c-.19-.11-2.87-1.6-3.08-1.69-1.65-.68-3.45-1.33-5.35-1.51-2.69-.25-5.36,.16-7.27,1.26Z"/>
            <path class="cls-67" d="M174.33,82.69l-106.15,61.1c-1.67,.96-2.45,2.31-2.34,3.72,.12,1.48,1.22,2.99,3.23,4.15l45.58,26.32c.71,.41,1.7,.86,2.52,1.11,3.31,1.08,7.24,1.01,9.82-.31,.26,0,6.33-3.41,6.52-3.52l100.32-57.74c1.67-.96,2.45-2.31,2.34-3.72-.12-1.48-1.22-2.99-3.23-4.15l-43.05-24.85c-.09-.05-2.94-1.67-3.05-1.71-1.63-.69-3.41-1.38-5.29-1.58-2.67-.28-5.34,.11-7.23,1.2Z"/>
            <path d="M127.37,178.09l106.15-61.1c3.19-1.84,2.79-5.05-.89-7.18l-45.79-26.43c-3.68-2.12-9.24-2.35-12.43-.52l-106.15,61.1c-3.19,1.84-2.79,5.05,.89,7.18l45.79,26.43c3.68,2.12,9.24,2.35,12.43,.52Z"/>
          </g>
          <path class="cls-61" d="M112.33,166.9l-42.81-24.71c-4.83-2.79-4.22-7.66,1.35-10.88l100.66-58.11c5.58-3.22,14.01-3.57,18.84-.78l42.81,24.71c4.83,2.79,4.22,7.66-1.35,10.88l-100.66,58.11c-5.58,3.22-14.01,3.57-18.84,.78Z"/>
          <path class="cls-10" d="M112.33,166.16l-42.81-24.71c-2.16-1.25-3.23-2.91-3.26-4.65,0-.15,0-3.51,.02-3.67,.18-2.02,1.73-.91,4.6-2.56l100.66-58.11c5.58-3.22,14.01-3.57,18.84-.78l42.81,24.71c2.16,1.24,3.23-.95,3.26,.8,0,.15,0,4.15-.02,4.31-.17,2.02-1.73,4.12-4.6,5.77l-100.66,58.11c-5.58,3.22-14.01,3.57-18.84,.78Z"/>
          <path class="cls-59" d="M112.33,162.5l-42.81-24.71c-4.83-2.79-4.22-7.66,1.35-10.88l100.66-58.11c5.58-3.22,14.01-3.57,18.84-.78l42.81,24.71c4.83,2.79,4.22,7.66-1.35,10.88l-100.66,58.11c-5.58,3.22-14.01,3.57-18.84,.78Z"/>
          <path class="cls-16" d="M69.53,137.3l42.81,24.71c4.83,2.79,13.26,2.44,18.84-.78l100.66-58.11c2.93-1.69,4.49-3.85,4.6-5.91,.12,2.21-1.44,4.57-4.6,6.39l-100.66,58.11c-5.58,3.22-14.01,3.57-18.84,.78l-42.81-24.71c-2.29-1.32-3.35-3.11-3.25-4.97,.09,1.68,1.16,3.28,3.25,4.48Z"/>
          <path class="cls-66" d="M72.01,127.63l100.78-58.18c4.89-2.82,12.28-3.13,16.51-.68l42.58,24.58c4.23,2.44,3.7,6.71-1.19,9.53l-100.78,58.18c-4.89,2.82-12.28,3.13-16.51,.68l-42.58-24.58c-4.23-2.44-3.7-6.71,1.19-9.53Z"/>
          <path class="cls-24" d="M73.97,128.47l100.28-57.89c4.09-2.36,10.28-2.62,13.82-.57l41.67,24.06c3.54,2.05,3.1,5.62-.99,7.98l-100.28,57.89c-4.09,2.36-10.28,2.62-13.82,.57l-41.67-24.06c-3.54-2.05-3.1-5.62,.99-7.98Z"/>
          <path class="cls-18" d="M187.7,70.77c-3.34-1.93-8.74-1.94-12.05-.02l-101.38,58.53c-3.32,1.92-3.3,5.03,.04,6.96l40.71,23.5c3.34,1.93,8.74,1.94,12.05,.02l101.38-58.53c3.32-1.92,3.3-5.03-.04-6.96l-40.71-23.5Z"/>
          <path class="cls-50" d="M121.07,160.37c2.12,0,4.11-.47,5.58-1.32l101.38-58.53c1.33-.77,2.07-1.74,2.07-2.75s-.75-2-2.1-2.79l-40.71-23.5c-1.5-.87-3.51-1.34-5.65-1.34s-4.11,.47-5.58,1.32l-101.38,58.53c-1.33,.77-2.07,1.74-2.07,2.74s.75,2,2.1,2.79l40.71,23.5c1.5,.87,3.5,1.34,5.65,1.34Z"/>
          <path class="cls-30" d="M212.82,117.79l4.67-2.69c.58-.34,1.05-1.24,1.05-2.01h0c0-.78-.47-1.13-1.05-.8l-4.67,2.69c-.58,.34-1.05,1.24-1.05,2.01h0c0,.78,.47,1.13,1.05,.8Z"/>
          <path class="cls-53" d="M212.82,117.79l4.67-2.69c.58-.34,1.05-1.24,1.05-2.01h0c0-.78-.47-1.13-1.05-.8l-4.67,2.69c-.58,.34-1.05,1.24-1.05,2.01h0c0,.78,.47,1.13,1.05,.8Z"/>
          <path class="cls-69" d="M212.4,117.64c.08,0,.18-.03,.28-.09l4.67-2.69c.5-.29,.92-1.1,.92-1.78,0-.3-.09-.65-.36-.65-.08,0-.18,.03-.28,.09l-4.67,2.69c-.5,.29-.92,1.1-.92,1.78,0,.3,.09,.65,.36,.65Z"/>
          <path class="cls-55" d="M204.49,122.6l4.67-2.69c.58-.34,1.05-1.24,1.05-2.01h0c0-.78-.47-1.13-1.05-.8l-4.67,2.69c-.58,.34-1.05,1.24-1.05,2.01h0c0,.78,.47,1.13,1.05,.8Z"/>
          <path class="cls-44" d="M204.49,122.6l4.67-2.69c.58-.34,1.05-1.24,1.05-2.01h0c0-.78-.47-1.13-1.05-.8l-4.67,2.69c-.58,.34-1.05,1.24-1.05,2.01h0c0,.78,.47,1.13,1.05,.8Z"/>
          <path class="cls-42" d="M204.07,122.45c.08,0,.18-.03,.28-.09l4.67-2.69c.5-.29,.92-1.1,.92-1.78,0-.3-.09-.65-.36-.65-.08,0-.18,.03-.28,.09l-4.67,2.69c-.5,.29-.92,1.1-.92,1.78,0,.3,.09,.65,.36,.65Z"/>
          <path class="cls-11" d="M163.82,142.95l68-39.44c2.87-1.66,4.42-3.75,4.6-5.77,0-.07,.01-.88,.01-1.79,0,.02,0,4.2-.01,4.35-.17,2.02-1.73,4.12-4.6,5.77l-68,36.87Z"/>
          <ellipse class="cls-15" cx="196.73" cy="123.57" rx="30.68" ry="20.37" transform="translate(-32.42 85.33) rotate(-22.66)"/>
          <ellipse class="cls-17" cx="123.05" cy="165.82" rx="10.6" ry="15.97" transform="translate(-77.1 216.61) rotate(-67.66)"/>
          <path d="M87.02,151.25l7.66,4.42h0c0-1.4-.85-3.03-1.9-3.63l-3.86-2.23c-1.05-.61-1.9,.04-1.9,1.44h0Z"/>
          <path class="cls-23" d="M89.79,130.96c.34,0,.7,.09,1.07,.3,.83,.48,.56,.92-.02,1.29,.07,.07,.02,.19-.12,.27-.07,.04-.16,.06-.26,.06-.11,0-.21-.02-.29-.05-.27,.06-.58,.09-.86,.09-.22,0-.4,.1-.4,.23,0,.21,.12,.42,.32,.61,.26,.25,.21,.58-.16,.79l-.64,.37c-.06,.04-.14,.05-.22,.05s-.16-.02-.23-.05l-3.44-1.98c-.13-.07-.13-.19,0-.26l.64-.37c.22-.12,.5-.19,.78-.19,.2,0,.41,.03,.59,.1,.32,.12,.69,.18,1.05,.18,0,0,0,0,0,0,.22,0,.39-.11,.39-.23,0-.16,.05-.34,.16-.5-.09-.09-.12-.24,.02-.32,.1-.06,.23-.09,.34-.09,.05,0,.09,0,.13,.02,.35-.18,.74-.31,1.16-.31h0Zm0-.46h0c-.4,0-.82,.1-1.23,.3-.02,0-.04,0-.06,0-.2,0-.4,.05-.57,.15-.18,.1-.3,.28-.32,.47-.01,.08,0,.16,.01,.24-.04,.09-.07,.18-.08,.27-.3,0-.59-.06-.85-.16-.23-.08-.48-.12-.74-.12-.38,0-.74,.09-1.01,.25l-.64,.37c-.2,.12-.32,.32-.32,.53s.12,.41,.33,.53l3.44,1.98c.13,.08,.29,.12,.46,.12s.33-.04,.46-.12l.64-.37c.32-.18,.51-.45,.55-.76,.03-.28-.08-.56-.31-.77-.01-.01-.03-.03-.04-.04,.23,0,.45-.04,.66-.08,.1,.02,.2,.03,.3,.03,.19,0,.36-.04,.49-.12,.19-.11,.32-.26,.36-.44,.24-.18,.54-.5,.54-.92,0-.38-.26-.72-.75-1-.42-.24-.85-.36-1.3-.36h0Z"/>
          <path class="cls-23" d="M120.24,149.56l.45,.43c.12-.01,.24-.02,.36-.02s.25,0,.38,.02l.45-.42c.28,.04,.55,.11,.8,.19l-.2,.48c.1,.04,.19,.09,.28,.14,.09,.05,.17,.11,.24,.16l.84-.11c.15,.15,.26,.3,.33,.46l-.73,.26c.04,.14,.04,.28,0,.43l.74,.26c-.07,.16-.18,.32-.33,.46l-.84-.12c-.07,.06-.15,.11-.24,.16-.09,.05-.18,.1-.28,.14l.2,.49c-.25,.09-.52,.15-.8,.19l-.45-.43c-.12,.01-.24,.02-.36,.02s-.25,0-.38-.02l-.45,.42c-.28-.04-.55-.11-.8-.19l.2-.48c-.1-.04-.19-.09-.28-.14-.09-.05-.17-.11-.24-.16l-.84,.11c-.15-.15-.26-.3-.33-.46l.73-.26c-.04-.14-.04-.28,0-.43l-.74-.26c.07-.16,.18-.32,.33-.46l.84,.12c.07-.06,.15-.11,.24-.16,.09-.05,.18-.1,.28-.14l-.2-.49c.25-.09,.52-.15,.8-.19h0Zm.84,2.36c.25,0,.49-.05,.68-.16,.38-.22,.38-.57,0-.79-.19-.11-.44-.17-.69-.17s-.49,.05-.68,.16c-.38,.22-.38,.57,0,.79,.19,.11,.44,.17,.69,.17h0Zm-.84-2.82s-.05,0-.07,0c-.31,.05-.61,.12-.88,.21-.12,.04-.22,.13-.27,.25-.05,.12-.05,.25,0,.37l.04,.09s-.03,.02-.05,.03l-.65-.09s-.04,0-.06,0c-.12,0-.24,.05-.33,.13-.19,.18-.33,.39-.43,.6-.05,.12-.05,.25,0,.37,.05,.12,.15,.21,.27,.25l.11,.04-.1,.04c-.12,.04-.22,.14-.27,.26-.05,.12-.05,.26,0,.37,.1,.21,.24,.42,.43,.6,.09,.09,.2,.13,.33,.13,.02,0,.04,0,.06,0l.65-.09s.04,.02,.05,.04l-.04,.09c-.05,.12-.05,.25,0,.37,.05,.12,.15,.21,.27,.25,.28,.09,.57,.16,.88,.21,.02,0,.05,0,.07,0,.12,0,.23-.04,.32-.13l.3-.28c.07,0,.14,0,.21,0,.06,0,.13,0,.19,0l.31,.29c.09,.08,.2,.13,.32,.13,.02,0,.05,0,.07,0,.31-.05,.61-.12,.88-.21,.12-.04,.22-.13,.27-.25,.05-.12,.05-.25,0-.37l-.04-.09s.03-.02,.05-.03l.65,.09s.04,0,.06,0c.12,0,.24-.05,.33-.13,.19-.18,.33-.39,.43-.6,.05-.12,.05-.25,0-.37-.05-.12-.15-.21-.27-.25l-.11-.04,.1-.04c.12-.04,.22-.14,.27-.26,.05-.12,.05-.26,0-.37-.1-.21-.24-.42-.43-.6-.09-.09-.2-.13-.33-.13-.02,0-.04,0-.06,0l-.65,.09s-.04-.02-.05-.04l.04-.09c.05-.12,.05-.25,0-.37-.05-.12-.15-.21-.27-.25-.28-.09-.57-.16-.88-.21-.02,0-.05,0-.07,0-.12,0-.23,.04-.32,.13l-.3,.28c-.07,0-.14,0-.21,0-.06,0-.13,0-.19,0l-.31-.29c-.09-.08-.2-.13-.32-.13h0Zm.39,2.26c.11-.06,.27-.09,.44-.09s.34,.04,.45,.1c-.11,.06-.27,.09-.44,.09s-.34-.04-.45-.1h0Z"/>
          <path class="cls-23" d="M96.52,137.74l1.05,.61-1.9,1.1-1.05-.61,1.9-1.1h0Zm2.8,.22l1.05,.61-3.11,1.79-1.05-.61,3.11-1.79h0Zm2.8,.22l1.05,.61-4.32,2.49-1.05-.61,4.32-2.49h0Zm-5.6-.9c-.08,0-.16,.02-.23,.06l-1.9,1.1c-.14,.08-.23,.24-.23,.4s.09,.32,.23,.4l1.05,.61c.07,.04,.15,.06,.23,.06,.03,0,.07,0,.1-.01,.03,.11,.11,.2,.21,.26l1.05,.61c.07,.04,.15,.06,.23,.06,.03,0,.07,0,.1-.01,.03,.11,.11,.2,.21,.26l1.05,.61c.07,.04,.15,.06,.23,.06s.16-.02,.23-.06l4.32-2.49c.14-.08,.23-.24,.23-.4s-.09-.32-.23-.4l-1.05-.61c-.07-.04-.15-.06-.23-.06s-.16,.02-.23,.06l-1.08,.63c-.04-.1-.11-.19-.2-.24l-1.05-.61c-.07-.04-.15-.06-.23-.06s-.16,.02-.23,.06l-1.08,.63c-.04-.1-.11-.19-.2-.24l-1.05-.61c-.07-.04-.15-.06-.23-.06h0Z"/>
          <path class="cls-23" d="M109.84,143.09c.42,0,.85,.09,1.18,.28,.45,.26,.59,.63,.41,.96,.16-.03,.32-.04,.49-.04,.42,0,.85,.09,1.17,.28,.65,.37,.65,.98,0,1.35-.51,.3-1.5,.38-2.46,.38-1.22,0-2.39-.14-2.39-.14,0,0-.76-2.12,.42-2.79,.32-.19,.74-.28,1.16-.28h0Zm0-.46v0c-.52,0-1.01,.12-1.39,.34-1.49,.86-.66,3.25-.62,3.35,.06,.17,.21,.28,.38,.3,.05,0,1.2,.14,2.44,.14s2.17-.14,2.69-.44c.45-.26,.71-.65,.71-1.07s-.26-.82-.72-1.08c-.38-.22-.87-.34-1.38-.34-.07-.31-.28-.62-.69-.86-.38-.22-.88-.34-1.41-.34h0Z"/>
        </g>
        <g>
          <g>
            <path class="cls-34" d="M130.57,146.16c-1.78,0-3.37-.38-4.61-1.09l-10.93-6.31-10.93-6.31c-1.5-.86-2.36-2.2-2.36-3.66,0-1.65,1.08-3.22,2.98-4.31,1.59-.92,3.69-1.45,5.74-1.45,1.77,0,3.37,.38,4.6,1.09l10.93,6.31,10.93,6.31c1.5,.86,2.36,2.2,2.36,3.66,0,1.65-1.08,3.22-2.98,4.31-1.59,.92-3.69,1.45-5.74,1.45Z"/>
            <path class="cls-62" d="M105.07,124.72h0c1.56-.9,3.59-1.41,5.59-1.41,1.48,0,2.84,.28,3.95,.8,.17,.08,.37,.18,.53,.28l10.64,6.15,.89,.51,9.75,5.63c.79,.45,1.52,1.15,1.89,1.82,.29,.53,.47,1.09,.49,1.68,.05,1.59-.98,3.13-2.84,4.21h0c-1.56,.9-3.59,1.41-5.59,1.41-1.48,0-2.84-.28-3.95-.8-.17-.08-.37-.18-.53-.28l-10.64-6.15-.89-.51-9.75-5.63c-.79-.45-1.52-1.15-1.89-1.82-.29-.53-.47-1.09-.49-1.68-.05-1.59,.98-3.13,2.84-4.21Z"/>
            <path class="cls-8" d="M105.42,124.97h0c1.52-.88,3.5-1.37,5.44-1.36,1.44,0,2.76,.28,3.84,.79,.15,.07,.37,.19,.51,.27l10.36,5.98,.87,.5,9.49,5.48c.71,.41,1.52,1.14,1.87,1.73,.3,.51,.5,1.04,.54,1.6,.1,1.53-.87,3.04-2.7,4.1h0c-1.52,.88-3.5,1.37-5.44,1.36-1.44,0-2.76-.28-3.84-.79-.15-.07-.37-.19-.51-.27l-10.36-5.98-.87-.5-9.49-5.48c-.71-.41-1.52-1.14-1.87-1.73-.3-.51-.5-1.04-.54-1.6-.1-1.53,.87-3.04,2.7-4.1Z"/>
            <path class="cls-39" d="M105.77,125.22h0c1.48-.85,3.41-1.33,5.29-1.32,1.4,0,2.68,.28,3.73,.78,.14,.06,.37,.19,.49,.26l10.08,5.82,.85,.49,9.23,5.33c.63,.36,1.52,1.12,1.85,1.65,.3,.49,.53,.98,.58,1.52,.15,1.47-.77,2.95-2.56,3.99h0c-1.48,.85-3.41,1.33-5.29,1.32-1.4,0-2.68-.28-3.73-.78-.14-.06-.37-.19-.49-.26l-10.08-5.82-.85-.49-9.23-5.33c-.63-.36-1.52-1.12-1.85-1.65-.3-.49-.53-.98-.58-1.52-.15-1.47,.77-2.95,2.56-3.99Z"/>
            <path class="cls-52" d="M106.12,125.47h0c1.44-.83,3.32-1.29,5.14-1.28,1.36,0,2.61,.28,3.62,.77,.12,.06,.36,.19,.47,.25l9.79,5.65,.82,.47,8.97,5.18c.55,.32,1.53,1.11,1.83,1.56s.56,.93,.63,1.44c.21,1.41-.66,2.86-2.42,3.88h0c-1.44,.83-3.32,1.29-5.14,1.28-1.36,0-2.61-.28-3.62-.77-.12-.06-.36-.19-.48-.25l-9.79-5.65-.82-.47-8.97-5.18c-.55-.32-1.53-1.11-1.83-1.56s-.56-.93-.63-1.44c-.21-1.41,.66-2.86,2.42-3.88Z"/>
            <path class="cls-37" d="M106.47,125.71h0c1.4-.81,3.23-1.25,4.99-1.24,1.32,0,2.53,.28,3.51,.76,.1,.05,.36,.19,.46,.25l9.51,5.49,.8,.46,8.71,5.03c.47,.27,1.54,1.1,1.8,1.48,.31,.45,.59,.88,.68,1.37,.26,1.35-.56,2.77-2.29,3.77h0c-1.4,.81-3.23,1.25-4.99,1.24-1.32,0-2.53-.28-3.51-.76-.1-.05-.36-.19-.46-.25l-9.51-5.49-.8-.46-8.71-5.03c-.47-.27-1.54-1.1-1.8-1.48-.31-.45-.59-.88-.68-1.36-.26-1.35,.56-2.77,2.29-3.77Z"/>
            <path class="cls-63" d="M106.82,125.96h0c1.36-.79,3.14-1.21,4.84-1.19,1.28,.01,2.45,.28,3.4,.75,.08,.04,.36,.19,.44,.24l9.22,5.32,.78,.45,8.45,4.88c.39,.23,1.56,1.08,1.78,1.39,.32,.44,.62,.83,.73,1.29,.31,1.29-.45,2.68-2.15,3.66h0c-1.36,.79-3.14,1.21-4.84,1.19-1.28-.01-2.45-.28-3.4-.75-.08-.04-.36-.19-.44-.24l-9.22-5.32-.78-.45-8.45-4.88c-.39-.23-1.56-1.08-1.78-1.39-.32-.44-.61-.83-.73-1.29-.31-1.29,.45-2.68,2.15-3.66Z"/>
            <path class="cls-47" d="M107.17,126.21h0c1.32-.76,3.04-1.17,4.69-1.15,1.24,.01,2.37,.28,3.29,.73,.07,.03,.36,.2,.42,.23l8.94,5.16,.75,.44,8.19,4.73c.31,.18,1.57,1.06,1.76,1.31,.32,.42,.64,.77,.77,1.21,.37,1.24-.34,2.59-2.01,3.55h0c-1.32,.76-3.04,1.17-4.69,1.15-1.24-.01-2.38-.28-3.29-.74-.07-.03-.36-.2-.42-.23l-8.94-5.16-.75-.44-8.19-4.73c-.31-.18-1.57-1.06-1.76-1.31-.32-.42-.64-.77-.77-1.21-.37-1.24,.34-2.59,2.01-3.55Z"/>
            <path class="cls-45" d="M107.52,126.46h0c1.28-.74,2.95-1.13,4.54-1.11,1.19,.02,2.3,.28,3.18,.72,.05,.03,.36,.2,.41,.23l8.65,5,.73,.42,7.93,4.58c.24,.14,1.63,1.02,1.74,1.22,.4,.34,.67,.72,.82,1.13,.42,1.18-.24,2.5-1.87,3.44h0c-1.28,.74-2.95,1.13-4.54,1.11-1.19-.02-2.3-.28-3.18-.72-.05-.03-.36-.2-.41-.23l-8.65-5-.73-.42-7.93-4.58c-.24-.14-1.63-1.02-1.74-1.22-.4-.34-.67-.72-.82-1.13-.42-1.18,.24-2.5,1.87-3.44Z"/>
            <path class="cls-40" d="M107.87,126.71h0c1.25-.72,2.86-1.09,4.39-1.06,1.15,.02,2.22,.28,3.07,.71,.03,.02,.36,.2,.39,.22l8.37,4.83,.71,.41,7.67,4.43c.16,.09,1.64,1,1.71,1.14,.42,.31,.7,.67,.87,1.05,.48,1.12-.13,2.41-1.74,3.33h0c-1.25,.72-2.86,1.09-4.39,1.06-1.15-.02-2.22-.28-3.07-.71-.03-.02-.36-.2-.39-.22l-8.37-4.83-.71-.41-7.67-4.43c-.16-.09-1.64-1-1.71-1.14-.42-.31-.7-.67-.87-1.05-.48-1.12,.13-2.41,1.74-3.33Z"/>
            <path class="cls-54" d="M108.22,126.95h0c1.21-.7,2.77-1.05,4.24-1.02,1.11,.02,2.14,.28,2.96,.7,.02,0,.36,.2,.37,.21l8.08,4.67,.69,.4,7.41,4.28c.08,.05,1.66,.98,1.69,1.05,.43,.28,.73,.62,.91,.97,.53,1.06-.03,2.32-1.6,3.22h0c-1.21,.7-2.77,1.05-4.24,1.02-1.11-.02-2.14-.28-2.96-.7-.02,0-.36-.2-.37-.21l-8.08-4.67-.69-.4-7.41-4.28c-.08-.05-1.66-.98-1.69-1.05-.43-.28-.73-.62-.91-.97-.53-1.06,.03-2.32,1.6-3.22Z"/>
            <path class="cls-46" d="M125.7,141.39l-8.82-5.09-8.82-5.09c-1.78-1.03-1.56-2.82,.5-4.01h0c2.05-1.19,5.16-1.31,6.94-.29l8.82,5.09,8.82,5.09c1.78,1.03,1.56,2.82-.5,4.01h0c-2.05,1.19-5.16,1.31-6.94,.29Z"/>
          </g>
          <path class="cls-70" d="M126.83,140.81l-21.86-12.62c-2.21-1.27-1.93-3.5,.62-4.97h0c2.55-1.47,6.4-1.63,8.6-.36l21.86,12.62c2.21,1.27,1.93,3.5-.62,4.97h0c-2.55,1.47-6.4,1.63-8.6,.36Z"/>
          <path class="cls-12" d="M135.43,139.88h0c-2.55,1.47-6.4,1.63-8.6,.36l-21.86-12.62c-.88-.51-1.36-1.17-1.46-1.88-.14,.92,.34,1.81,1.46,2.46l21.86,12.62c2.21,1.27,6.06,1.11,8.6-.36h0c1.53-.88,2.23-2.03,2.08-3.09-.13,.88-.83,1.79-2.08,2.51Z"/>
          <g>
            <path class="cls-22" d="M112.34,129.25s.02-.07,.06-.09l4.21-2.43s.1-.04,.16-.04,.11,.01,.16,.04l1.89,1.09c.51,.29,.78,.58,.81,.85,.03,.27-.15,.52-.53,.74-.22,.13-.47,.21-.74,.23-.27,.03-.51,.02-.73-.03,.1,.15,.12,.32,.06,.5-.06,.18-.21,.34-.45,.48-.4,.23-.86,.34-1.38,.32-.52-.02-1.02-.17-1.52-.45l-1.95-1.12s-.07-.05-.07-.09Zm2.59,.75c.23,.13,.46,.2,.71,.2,.25,0,.47-.05,.66-.16,.19-.11,.28-.24,.28-.38,0-.15-.12-.28-.34-.41l-1.07-.62-1.31,.76,1.07,.62Zm1.92-1.18c.22,.13,.45,.2,.67,.2,.23,0,.43-.04,.61-.15,.18-.1,.26-.22,.24-.34-.02-.13-.14-.25-.37-.38l-1.01-.58-1.17,.67,1.01,.58Z"/>
            <path class="cls-22" d="M117.72,131.97c-.03-.36,.26-.71,.86-1.06l2.63-1.52s.1-.04,.16-.04c.06,0,.11,.01,.16,.04l.6,.35s.07,.06,.07,.09c0,.03-.02,.07-.07,.09l-2.63,1.52c-.34,.2-.52,.39-.53,.59,0,.19,.14,.38,.43,.55,.3,.17,.62,.26,.95,.25,.34,0,.67-.11,1.01-.3l2.63-1.52s.1-.04,.16-.04,.11,.01,.16,.04l.6,.35s.07,.06,.07,.09c0,.03-.03,.06-.07,.09l-2.63,1.52c-.6,.35-1.22,.52-1.84,.5-.62-.02-1.22-.19-1.81-.53-.59-.34-.9-.69-.93-1.05Z"/>
            <path class="cls-22" d="M122.99,135.4s.02-.06,.06-.09l1.46-.84,1.17-2.46s.04-.05,.05-.05c.04-.02,.09-.03,.14-.03,.05,0,.1,.01,.13,.03l.59,.34c.08,.05,.11,.11,.08,.19l-.78,1.72,2.98-.45s.1,0,.16,0c.06,0,.11,.02,.16,.05l.59,.34s.06,.05,.06,.08c0,.03-.02,.06-.06,.08-.03,.01-.06,.02-.09,.03l-4.25,.68-1.46,.84s-.1,.04-.16,.04c-.06,0-.11-.02-.16-.04l-.6-.35s-.07-.06-.07-.09Z"/>
          </g>
        </g>
        <path class="cls-60" d="M109.92,89.65c-.16,0-.29-.13-.29-.29v-1.16c0-.16,.13-.29,.29-.29s.29,.13,.29,.29v1.16c0,.16-.13,.29-.29,.29Zm0-2.32c-.16,0-.29-.13-.29-.29v-1.16c0-.16,.13-.29,.29-.29s.29,.13,.29,.29v1.16c0,.16-.13,.29-.29,.29Zm0-2.32c-.16,0-.29-.13-.29-.29v-1.16c0-.16,.13-.29,.29-.29s.29,.13,.29,.29v1.16c0,.16-.13,.29-.29,.29Zm0-2.32c-.16,0-.29-.13-.29-.29v-1.16c0-.16,.13-.29,.29-.29s.29,.13,.29,.29v1.16c0,.16-.13,.29-.29,.29Zm0-2.32c-.16,0-.29-.13-.29-.29v-1.16c0-.16,.13-.29,.29-.29s.29,.13,.29,.29v1.16c0,.16-.13,.29-.29,.29Zm0-2.32c-.16,0-.29-.13-.29-.29v-1.16c0-.16,.13-.29,.29-.29s.29,.13,.29,.29v1.16c0,.16-.13,.29-.29,.29Zm0-2.32c-.16,0-.29-.13-.29-.29v-1.16c0-.16,.13-.29,.29-.29s.29,.13,.29,.29v1.16c0,.16-.13,.29-.29,.29Zm0-2.32c-.16,0-.29-.13-.29-.29v-1.16c0-.16,.13-.29,.29-.29s.29,.13,.29,.29v1.16c0,.16-.13,.29-.29,.29Zm0-2.32c-.16,0-.29-.13-.29-.29v-1.16c0-.16,.13-.29,.29-.29s.29,.13,.29,.29v1.16c0,.16-.13,.29-.29,.29Zm0-2.32c-.16,0-.29-.13-.29-.29v-1.16c0-.16,.13-.29,.29-.29s.29,.13,.29,.29v1.16c0,.16-.13,.29-.29,.29Zm0-2.32c-.16,0-.29-.13-.29-.29v-1.16c0-.16,.13-.29,.29-.29s.29,.13,.29,.29v1.16c0,.16-.13,.29-.29,.29Zm0-2.32c-.16,0-.29-.13-.29-.29v-1.16c0-.16,.13-.29,.29-.29s.29,.13,.29,.29v1.16c0,.16-.13,.29-.29,.29Zm0-2.32c-.16,0-.29-.13-.29-.29v-1.16c0-.16,.13-.29,.29-.29s.29,.13,.29,.29v1.16c0,.16-.13,.29-.29,.29Zm0-2.32c-.16,0-.29-.13-.29-.29v-1.16c0-.16,.13-.29,.29-.29s.29,.13,.29,.29v1.16c0,.16-.13,.29-.29,.29Z"/>
        <path class="cls-23" d="M181.04,74.07l5.83,3.37c.24,.14,.63,.14,.87,0,.24-.14,.24-.36,0-.5l-5.83-3.37c-.24-.14-.63-.14-.87,0-.24,.14-.24,.36,0,.5Zm5.23,3.71l-5.83-3.37c-.24-.14-.63-.14-.87,0-.24,.14-.24,.36,0,.5l5.83,3.37c.24,.14,.63,.14,.87,0,.24-.14,.24-.36,0-.5Zm-1.46,.84l-5.83-3.37c-.24-.14-.63-.14-.87,0-.24,.14-.24,.36,0,.5l5.83,3.37c.24,.14,.63,.14,.87,0,.24-.14,.24-.36,0-.5Z"/>
        <g>
          <g>
            <polygon class="cls-34" points="156.74 145.37 114.44 120.95 195.6 73.86 237.89 98.28 156.74 145.37"/>
            <polygon class="cls-62" points="156.9 144.85 115.19 120.77 195.35 74.25 237.06 98.33 156.9 144.85"/>
            <polygon class="cls-8" points="157.06 144.32 115.94 120.59 195.11 74.64 236.23 98.38 157.06 144.32"/>
            <polygon class="cls-39" points="157.22 143.8 116.7 120.4 194.87 75.03 235.4 98.43 157.22 143.8"/>
            <polygon class="cls-52" points="157.38 143.28 117.45 120.22 194.63 75.42 234.56 98.48 157.38 143.28"/>
            <polygon class="cls-37" points="157.54 142.75 118.2 120.04 194.39 75.81 233.73 98.53 157.54 142.75"/>
            <polygon class="cls-63" points="157.7 142.23 118.95 119.86 194.15 76.21 232.9 98.58 157.7 142.23"/>
            <polygon class="cls-47" points="157.86 141.71 119.7 119.68 193.91 76.6 232.07 98.63 157.86 141.71"/>
            <polygon class="cls-45" points="158.02 141.19 120.45 119.5 193.66 76.99 231.23 98.68 158.02 141.19"/>
            <polygon class="cls-40" points="158.18 140.66 121.2 119.31 193.42 77.38 230.4 98.73 158.18 140.66"/>
            <polygon class="cls-54" points="158.34 140.14 121.96 119.13 193.18 77.77 229.57 98.78 158.34 140.14"/>
            <polygon class="cls-46" points="158.5 139.62 122.71 118.95 192.94 78.16 228.73 98.83 158.5 139.62"/>
          </g>
          <polygon class="cls-9" points="157.27 138.4 116.46 114.83 195.12 69.18 235.94 92.74 157.27 138.4"/>
          <polygon class="cls-27" points="226.72 98.12 185.9 74.56 196.98 68.11 237.79 91.67 226.72 98.12"/>
          <path class="cls-36" d="M158.65,131.4l-11.37-6.56c-1.1-.64-.97-1.75,.31-2.49h0c1.27-.74,3.2-.82,4.31-.18l11.37,6.56c1.1,.64,.97,1.75-.31,2.49h0c-1.27,.74-3.2,.82-4.31,.18Z"/>
          <path class="cls-49" d="M143.53,117.77c1.07,.62,1.08,1.63,.01,2.24-1.07,.62-2.81,.61-3.88,0l-10.72-6.19c-1.07-.62-1.08-1.63-.01-2.24,1.07-.62,2.81-.61,3.88,0l10.72,6.19h0Zm.37-.21l-10.72-6.19c-1.28-.74-3.35-.74-4.63,0s-1.27,1.93,.01,2.67l10.72,6.19c1.28,.74,3.35,.74,4.63,0s1.27-1.93-.01-2.67h0Z"/>
          <path class="cls-60" d="M191.06,84.87l-6.6,3.81-6.72-3.88,6.6-3.81,6.72,3.88h0Zm1.12,0l-7.84-4.53-7.71,4.45,7.84,4.53,7.71-4.45h0Z"/>
          <polygon class="cls-60" points="205.67 95.12 192.28 87.39 192.82 87.08 206.21 94.81 205.67 95.12"/>
          <polygon class="cls-60" points="172.45 127.89 134.25 105.84 134.43 105.74 172.63 127.79 172.45 127.89"/>
          <polygon class="cls-60" points="204.12 96.02 190.72 88.29 191.27 87.98 204.66 95.71 204.12 96.02"/>
          <polygon class="cls-60" points="198.15 94.4 189.14 89.2 189.69 88.89 198.69 94.09 198.15 94.4"/>
          <path class="cls-60" d="M177.03,92.97l-6.6,3.81-6.72-3.88,6.6-3.81,6.72,3.88h0Zm1.12,0l-7.84-4.53-7.71,4.45,7.84,4.53,7.71-4.45h0Z"/>
          <polygon class="cls-60" points="191.64 103.22 178.25 95.49 178.79 95.18 192.18 102.91 191.64 103.22"/>
          <polygon class="cls-60" points="190.09 104.12 176.7 96.39 177.24 96.07 190.63 103.81 190.09 104.12"/>
          <polygon class="cls-60" points="184.12 102.5 175.12 97.3 175.66 96.99 184.66 102.19 184.12 102.5"/>
          <path class="cls-60" d="M162.96,101.09l-6.6,3.81-6.72-3.88,6.6-3.81,6.72,3.88h0Zm1.12,0l-7.84-4.53-7.71,4.45,7.84,4.53,7.71-4.45h0Z"/>
          <polygon class="cls-60" points="177.57 111.35 164.18 103.62 164.72 103.3 178.11 111.03 177.57 111.35"/>
          <polygon class="cls-60" points="176.02 112.24 162.62 104.51 163.17 104.2 176.56 111.93 176.02 112.24"/>
          <polygon class="cls-60" points="170.05 110.62 161.05 105.42 161.59 105.11 170.59 110.31 170.05 110.62"/>
          <g>
            <path class="cls-60" d="M212.4,101.47c-.93-.53-.93-1.4-.01-1.93,.92-.53,2.42-.53,3.35,0,.93,.53,.93,1.4,.01,1.93-.92,.53-2.42,.53-3.35,0Zm3.1-1.79c-.79-.46-2.08-.46-2.87,0-.79,.46-.79,1.2,0,1.66,.79,.46,2.08,.46,2.87,0,.79-.46,.79-1.2,0-1.66Z"/>
            <path class="cls-60" d="M214.41,100.71h.48c.19,0,.34-.09,.34-.19s-.15-.2-.34-.2h-.48s0-.28,0-.28c0-.11-.15-.2-.34-.2-.19,0-.34,.09-.34,.19v.28s-.48,0-.48,0c-.19,0-.34,.09-.34,.19,0,.05,.04,.1,.1,.14s.15,.06,.24,.06h.48s0,.28,0,.28c0,.05,.04,.1,.1,.14s.15,.06,.24,.06c.19,0,.34-.09,.34-.19v-.28Z"/>
          </g>
          <g>
            <path class="cls-60" d="M198.55,109.47c-.93-.53-.93-1.4-.01-1.93,.92-.53,2.42-.53,3.35,0,.93,.53,.93,1.4,.01,1.93s-2.42,.53-3.35,0Zm3.1-1.79c-.79-.46-2.08-.46-2.87,0-.79,.46-.79,1.2,0,1.66s2.08,.46,2.87,0c.79-.46,.79-1.2,0-1.66Z"/>
            <path class="cls-60" d="M200.56,108.7h.48c.19,0,.34-.09,.34-.19,0-.11-.15-.2-.34-.2h-.48s0-.28,0-.28c0-.11-.15-.2-.34-.2-.19,0-.34,.09-.34,.19v.28s-.48,0-.48,0c-.19,0-.34,.09-.34,.19,0,.05,.04,.1,.1,.14s.15,.06,.24,.06h.48s0,.28,0,.28c0,.05,.04,.1,.1,.14,.06,.04,.15,.06,.24,.06,.19,0,.34-.09,.34-.19v-.28Z"/>
          </g>
          <g>
            <path class="cls-60" d="M184.36,117.66c-.93-.53-.93-1.4-.01-1.93s2.42-.53,3.35,0c.93,.53,.93,1.4,.01,1.93-.92,.53-2.42,.53-3.35,0Zm3.1-1.79c-.79-.46-2.08-.46-2.87,0-.79,.46-.78,1.2,0,1.66,.79,.46,2.08,.46,2.87,0,.79-.46,.78-1.2,0-1.66Z"/>
            <path class="cls-60" d="M186.37,116.89h.48c.19,0,.34-.09,.34-.19s-.15-.2-.34-.2h-.48s0-.28,0-.28c0-.11-.15-.2-.34-.2-.19,0-.34,.09-.34,.19v.28s-.48,0-.48,0c-.19,0-.34,.09-.34,.19,0,.05,.04,.1,.1,.14,.06,.04,.15,.06,.24,.06h.48s0,.28,0,.28c0,.05,.04,.1,.1,.14,.06,.04,.15,.06,.24,.06,.19,0,.34-.09,.34-.19v-.28Z"/>
          </g>
          <path class="cls-28" d="M204.13,76.04l-5.15-2.97,.52-.63c.06-.07,.03-.15-.06-.21l-1.5-.87c-.12-.07-.32-.07-.45,0s-.12,.19,0,.26l1.34,.77-2.99,3.65c-.06,.07-.03,.15,.06,.21l.48,.28s-.06,0-.1,0c-.46,0-.83,.21-.83,.48,0,.26,.37,.48,.83,.48,.46,0,.83-.21,.83-.48,0-.02,0-.04-.01-.06l1.04,.6s-.06,0-.1,0c-.46,0-.83,.21-.83,.48,0,.26,.37,.48,.83,.48,.46,0,.83-.21,.83-.48,0-.02,0-.04-.01-.06l.22,.13c.12,.07,.32,.07,.45,0,.12-.07,.12-.19,0-.26l-3.03-1.75,.61-.74,3.69,2.13c.22,.13,.57,.15,.84,.05l2.38-.88c.36-.13,.41-.42,.11-.6Z"/>
          <path class="cls-57" d="M203.48,76.08c-1.12,.65-2.94,.64-4.06,0s-1.13-1.7-.01-2.35c1.12-.65,2.94-.64,4.06,0s1.13,1.7,.01,2.35Z"/>
          <path class="cls-22" d="M201.88,75.02c.11,.09,.15,.19,.13,.3-.02,.11-.11,.2-.25,.29-.1,.06-.21,.1-.33,.12-.12,.02-.24,.03-.37,.02-.13,0-.26-.03-.39-.08-.13-.04-.26-.1-.39-.17-.16-.09-.28-.19-.35-.29-.07-.1-.1-.21-.09-.31l.55-.03c-.01,.07,0,.14,.04,.21,.04,.07,.12,.13,.23,.2,.13,.08,.26,.12,.38,.13,.12,.01,.23-.02,.34-.08,.11-.06,.16-.14,.14-.22-.02-.08-.11-.17-.27-.26l-.09-.05,.32-.18,.1,.06c.13,.08,.26,.12,.4,.13,.13,0,.24-.01,.33-.07,.09-.05,.12-.11,.1-.16-.02-.06-.07-.12-.17-.17-.1-.06-.21-.09-.33-.11-.12-.02-.25-.02-.38,0l.03-.33c.08,0,.17-.01,.26,0,.09,0,.19,.02,.28,.05,.1,.02,.19,.05,.29,.09,.09,.04,.18,.08,.27,.13,.11,.06,.19,.13,.26,.2,.06,.07,.1,.13,.12,.2,.02,.07,0,.13-.03,.19-.03,.06-.09,.12-.18,.16-.06,.04-.13,.07-.21,.09-.08,.02-.16,.04-.24,.04-.08,0-.17,0-.25,0-.08-.01-.16-.03-.23-.06Z"/>
          <path class="cls-58" d="M227.93,92.45h2.01c.17,0,.32-.08,.31-.18,0-.1-.14-.18-.32-.18h-2.01s0-1.16,0-1.16c0-.1-.14-.18-.32-.18-.17,0-.32,.08-.31,.18v1.16s-2,0-2,0c-.17,0-.32,.08-.31,.18,0,.05,.04,.1,.09,.13,.06,.03,.14,.05,.22,.05h2.01s0,1.16,0,1.16c0,.05,.04,.1,.09,.13,.06,.03,.14,.05,.22,.05,.17,0,.32-.08,.31-.18v-1.16Z"/>
          <polygon class="cls-13" points="157.27 137.96 117.09 114.47 116.46 114.83 157.27 138.4 237.7 91.68 237.07 91.61 157.27 137.96"/>
        </g>
        <g>
          <g>
            <polygon class="cls-34" points="195.28 113.81 152.1 88.88 169.26 79.03 212.44 103.96 195.28 113.81"/>
            <polygon class="cls-62" points="195.15 113.43 152.64 88.89 169.36 79.29 211.87 103.83 195.15 113.43"/>
            <polygon class="cls-8" points="195.02 113.05 153.19 88.9 169.46 79.54 211.3 103.7 195.02 113.05"/>
            <polygon class="cls-39" points="194.9 112.67 153.73 88.9 169.57 79.8 210.74 103.57 194.9 112.67"/>
            <polygon class="cls-52" points="194.77 112.29 154.27 88.91 169.67 80.06 210.17 103.44 194.77 112.29"/>
            <polygon class="cls-37" points="194.65 111.91 154.82 88.92 169.77 80.31 209.6 103.31 194.65 111.91"/>
            <polygon class="cls-63" points="194.52 111.53 155.36 88.93 169.88 80.57 209.04 103.18 194.52 111.53"/>
            <polygon class="cls-47" points="194.39 111.16 155.9 88.93 169.98 80.83 208.47 103.05 194.39 111.16"/>
            <polygon class="cls-45" points="194.27 110.78 156.45 88.94 170.08 81.08 207.9 102.92 194.27 110.78"/>
            <polygon class="cls-40" points="194.14 110.4 156.99 88.95 170.19 81.34 207.34 102.79 194.14 110.4"/>
            <polygon class="cls-54" points="194.02 110.02 157.53 88.95 170.29 81.59 206.77 102.66 194.02 110.02"/>
            <polygon class="cls-46" points="193.89 109.64 158.08 88.96 170.39 81.85 206.2 102.53 193.89 109.64"/>
          </g>
          <polygon class="cls-65" points="195.79 109.76 155.61 86.56 169.42 78.58 209.61 101.78 195.79 109.76"/>
          <path class="cls-23" d="M176.81,87.41l-6.5,3.75-6.62-3.82,6.5-3.75,6.62,3.82h0Zm1.1,0l-7.72-4.46-7.6,4.39,7.72,4.46,7.6-4.39h0Z"/>
          <polygon class="cls-23" points="191.2 97.51 178.01 89.9 178.55 89.59 191.73 97.2 191.2 97.51"/>
          <polygon class="cls-23" points="189.67 98.39 176.48 90.78 177.02 90.47 190.2 98.08 189.67 98.39"/>
          <polygon class="cls-23" points="183.79 96.8 174.93 91.68 175.46 91.37 184.33 96.49 183.79 96.8"/>
          <g class="cls-5">
            <path class="cls-23" d="M198,103.66c-.91-.53-.92-1.38-.01-1.9,.91-.52,2.39-.52,3.3,0,.91,.53,.92,1.38,.01,1.9-.91,.52-2.39,.52-3.3,0Zm3.05-1.76c-.78-.45-2.05-.45-2.83,0-.78,.45-.77,1.18,0,1.63,.78,.45,2.05,.45,2.83,0,.78-.45,.77-1.18,0-1.63Z"/>
            <path class="cls-23" d="M199.98,102.9h.47c.18,0,.33-.08,.33-.19,0-.11-.15-.19-.33-.19h-.47s0-.27,0-.27c0-.11-.15-.19-.33-.19-.18,0-.33,.09-.33,.19v.27s-.47,0-.47,0c-.18,0-.33,.09-.33,.19,0,.05,.04,.1,.1,.14,.06,.03,.14,.06,.24,.06h.47s0,.27,0,.27c0,.05,.04,.1,.1,.14,.06,.03,.14,.06,.24,.06,.18,0,.33-.09,.33-.19v-.27Z"/>
          </g>
        </g>
        <g class="cls-5">
          <path class="cls-60" d="M187.01,61.8l-23.78,13.73-26.96-15.57,23.78-13.73,26.96,15.57h0Zm1.19,0l-28.16-16.26-24.96,14.41,28.16,16.26,24.96-14.41h0Z"/>
          <g>
            <path class="cls-60" d="M138.02,66.41l-6.88,3.97-9.9-5.72,6.88-3.97,9.9,5.72h0Zm1.19,0l-11.1-6.41-8.07,4.66,11.1,6.41,8.07-4.66h0Z"/>
            <path class="cls-60" d="M150,73.32l-6.88,3.97-9.9-5.72,6.88-3.97,9.9,5.72h0Zm1.19,0l-11.1-6.41-8.07,4.66,11.1,6.41,8.07-4.66h0Z"/>
            <path class="cls-60" d="M161.97,80.23l-6.88,3.97-9.9-5.72,6.88-3.97,9.9,5.72h0Zm1.19,0l-11.1-6.41-8.07,4.66,11.1,6.41,8.07-4.66h0Z"/>
          </g>
          <polygon class="cls-60" points="148.25 88.72 113.31 68.55 114.4 67.92 149.34 88.09 148.25 88.72"/>
          <polygon class="cls-60" points="145.12 90.53 110.18 70.36 111.28 69.73 146.22 89.9 145.12 90.53"/>
          <polygon class="cls-60" points="125.36 82.79 107 72.19 108.1 71.56 126.46 82.16 125.36 82.79"/>
          <path class="cls-60" d="M78.76,94.33c-.18-.17-.28-.36-.28-.54,0-.11,.16-.21,.36-.21,.26,0,.53-.03,.77-.08,.14,.05,.37,.06,.5,0,.13-.08,.17-.18,.11-.24,.52-.33,.76-.72,.02-1.15-.74-.43-1.42-.29-1.99,.01-.12-.04-.29-.01-.42,.06-.13,.07-.1,.21-.02,.29-.1,.14-.15,.3-.15,.45,0,.11-.16,.21-.36,.21-.33,0-.65-.06-.94-.16-.38-.14-.89-.11-1.22,.08l-.57,.33c-.11,.06-.11,.17,0,.23l3.08,1.78c.11,.06,.29,.06,.4,0l.57-.33c.33-.19,.38-.48,.14-.71Z"/>
          <path class="cls-60" d="M108.79,110.97c.08-.05,.15-.1,.21-.15l.75,.11c.13-.13,.23-.27,.29-.41l-.66-.23c.03-.13,.03-.25,0-.38l.66-.23c-.07-.14-.17-.28-.3-.42l-.75,.1c-.06-.05-.13-.1-.21-.15-.08-.05-.17-.09-.25-.12l.18-.43c-.23-.08-.47-.13-.72-.17l-.4,.38c-.22-.02-.44-.02-.66,0l-.41-.38c-.25,.04-.49,.09-.72,.17l.18,.43c-.09,.04-.17,.08-.25,.12-.08,.05-.15,.1-.21,.15l-.75-.11c-.13,.13-.23,.27-.29,.41l.66,.23c-.03,.13-.03,.25,0,.38l-.66,.23c.07,.14,.17,.28,.3,.42l.75-.1c.06,.05,.13,.1,.21,.15s.17,.09,.25,.12l-.18,.43c.23,.08,.47,.13,.72,.17l.4-.38c.22,.02,.44,.02,.66,0l.41,.38c.25-.04,.49-.09,.72-.17l-.18-.43c.09-.04,.17-.08,.25-.12Zm-2.14-.53c-.34-.2-.34-.51,0-.71,.34-.19,.89-.19,1.23,0,.34,.2,.34,.51,0,.71-.34,.19-.89,.19-1.23,0Z"/>
          <path class="cls-60" d="M83.59,98.88l.94,.54,1.7-.98-.94-.54-1.7,.98Zm1.42,.82l.94,.54,2.78-1.61-.94-.54-2.78,1.61Zm5.29-1.41l-3.86,2.23,.94,.54,3.86-2.23-.94-.54Z"/>
          <path class="cls-60" d="M100.12,104c-.4-.23-.98-.3-1.49-.21,.16-.29,.03-.63-.37-.86-.58-.33-1.52-.34-2.09,0-1.05,.61-.37,2.5-.37,2.5,0,0,3.28,.39,4.33-.22,.58-.33,.57-.87,0-1.21Z"/>
          <g>
            <path class="cls-60" d="M165.48,33.77l5.84,3.37c.24,.14,.63,.14,.87,0,.24-.14,.24-.36,0-.5l-5.84-3.37c-.24-.14-.63-.14-.87,0-.24,.14-.24,.36,0,.5Zm5.24,3.72l-5.84-3.37c-.24-.14-.63-.14-.87,0-.24,.14-.24,.36,0,.5l5.84,3.37c.24,.14,.63,.14,.87,0,.24-.14,.24-.36,0-.5Zm-1.46,.85l-5.84-3.37c-.24-.14-.63-.14-.87,0-.24,.14-.24,.36,0,.5l5.84,3.37c.24,.14,.63,.14,.87,0,.24-.14,.24-.36,0-.5Z"/>
            <path class="cls-60" d="M105.02,117.67l-41.74-24.1c-2.75-1.59-2.76-4.16-.03-5.74L161.52,31.09c2.73-1.58,7.19-1.57,9.94,.02l41.74,24.1c2.75,1.59,2.76,4.16,.03,5.74l-98.27,56.74c-2.73,1.58-7.19,1.57-9.94-.02ZM171.07,31.34c-2.53-1.46-6.63-1.47-9.14-.02L63.65,88.06c-2.51,1.45-2.5,3.82,.03,5.28l41.74,24.1c2.53,1.46,6.63,1.47,9.14,.02l98.27-56.74c2.51-1.45,2.5-3.82-.03-5.28l-41.74-24.1Z"/>
            <path class="cls-60" d="M205.4,58.08c0,.18-.25,.32-.56,.32-.31,0-.56-.15-.56-.33,0-.18,.25-.32,.56-.32,.31,0,.56,.15,.56,.33Z"/>
            <g>
              <path class="cls-60" d="M204.54,55.49s-.06,0-.09,0v.32s.06,0,.09,0c2.32,0,4.22,1.1,4.23,2.44,0,0,0,0,0,.01h.56s0,0,0,0c0-1.52-2.16-2.76-4.79-2.77Z"/>
              <path class="cls-60" d="M204.55,56.78s-.06,0-.09,0v.32s.06,0,.09,0c1.08,0,1.97,.51,1.97,1.14,0,0,0,0,0,.01h.56s0,0,0,0c0-.81-1.14-1.46-2.54-1.47Z"/>
              <path class="cls-60" d="M204.54,56.13s-.06,0-.09,0v.32s.06,0,.09,0c1.7,0,3.1,.81,3.1,1.79,0,0,0,0,0,.01h.56s0,0,0,0c0-1.16-1.65-2.11-3.67-2.12Z"/>
            </g>
            <polygon class="cls-60" points="193.69 52.1 176.84 42.38 177.93 41.75 194.78 51.48 193.69 52.1"/>
          </g>
          <path class="cls-60" d="M114.8,97.49l-16.57-9.57c-2.14-1.24-2.15-3.25-.02-4.48,2.13-1.23,5.61-1.22,7.75,.01l16.57,9.57c2.14,1.24,2.15,3.25,.02,4.48-2.13,1.23-5.61,1.22-7.75-.01Zm-9.44-13.69c-1.81-1.05-4.76-1.05-6.56-.01-1.8,1.04-1.79,2.74,.02,3.79l16.57,9.57c1.81,1.05,4.76,1.05,6.56,.01s1.79-2.74-.02-3.79l-16.57-9.57Z"/>
          <path class="cls-60" d="M175.39,72.18c-.1-.06-.17-.14-.17-.23,0-.18,.25-.32,.56-.32h4.5s-.01-2.59-.01-2.59c0-.18,.25-.32,.56-.32,.31,0,.56,.15,.56,.33l.02,3.25h-5.62c-.16-.01-.3-.05-.4-.11Z"/>
          <path class="cls-60" d="M141.96,52.88c-.1-.06-.17-.14-.17-.23l-.02-3.25h5.62c.31,.01,.56,.16,.56,.34,0,.18-.25,.32-.56,.32h-4.5s.01,2.59,.01,2.59c0,.18-.25,.32-.56,.32-.16,0-.3-.04-.4-.1Z"/>
        </g>
        <g class="cls-5">
          <path class="cls-19" d="M107.33,45.32c0,.35-.48,.63-1.08,.62-.6,0-1.09-.28-1.09-.63,0-.35,.48-.63,1.08-.62,.6,0,1.09,.28,1.09,.63Z"/>
          <path class="cls-19" d="M110.78,47.32c0,.35-.48,.63-1.08,.62s-1.09-.28-1.09-.63c0-.35,.48-.63,1.08-.62,.6,0,1.09,.28,1.09,.63Z"/>
          <path class="cls-19" d="M111.93,47.44l-5.82-3.36,3.45-5.77-2.04-1.18c-.16-.1-.17-.25,0-.34,.16-.09,.43-.09,.6,0l2.42,1.4-3.45,5.77,5.44,3.14c.16,.1,.17,.25,0,.34-.16,.09-.43,.09-.6,0Z"/>
          <path class="cls-19" d="M113.38,46.5l-5.29-3.05c-.16-.1-.17-.25,0-.34,.16-.09,.43-.09,.6,0l5.05,2.91,3.89-1.45-7.6-4.39c-.16-.1-.17-.25,0-.34,.16-.09,.43-.09,.6,0l7.97,4.6c.09,.05,.13,.12,.12,.2-.01,.07-.08,.14-.19,.18l-4.61,1.72c-.17,.06-.39,.05-.53-.03Z"/>
          <path class="cls-19" d="M99.68,49.93c-6.56-3.79-6.6-9.94-.07-13.7,6.52-3.77,17.17-3.75,23.73,.04,6.56,3.79,6.6,9.94,.07,13.7-6.52,3.77-17.17,3.75-23.73-.04Zm22.86-13.2c-6.12-3.54-16.06-3.55-22.14-.04-6.09,3.51-6.05,9.25,.07,12.78,6.12,3.54,16.06,3.55,22.14,.04,6.09-3.51,6.05-9.25-.07-12.78Z"/>
          <path class="cls-21" d="M96.34,51.86c-8.41-4.86-8.46-12.74-.1-17.57,8.36-4.83,22.01-4.8,30.42,.06,8.41,4.86,8.46,12.74,.1,17.56-8.36,4.83-22.01,4.8-30.42-.05Zm29.14-16.82c-7.76-4.48-20.34-4.5-28.04-.05-7.71,4.45-7.67,11.71,.09,16.19,7.76,4.48,20.34,4.5,28.04,.05,7.71-4.45,7.67-11.71-.09-16.19Z"/>
          <path class="cls-20" d="M92.78,53.91c-10.39-6-10.44-15.73-.12-21.69,10.32-5.96,27.18-5.93,37.57,.07,10.39,6,10.44,15.73,.12,21.69-10.32,5.96-27.18,5.93-37.57-.07Zm35.87-20.71c-9.51-5.49-24.94-5.52-34.39-.06-9.45,5.46-9.4,14.36,.11,19.86,9.51,5.49,24.94,5.52,34.39,.06,9.45-5.46,9.4-14.36-.11-19.86Z"/>
        </g>
        <circle class="cls-2" cx="109.92" cy="90.33" r="5.79"/>
        <path class="cls-60" d="M109.92,125.66c-.16,0-.29-.13-.29-.29v-.68c0-.16,.13-.29,.29-.29s.29,.13,.29,.29v.68c0,.16-.13,.29-.29,.29Zm0-1.83c-.16,0-.29-.13-.29-.29v-1.16c0-.16,.13-.29,.29-.29s.29,.13,.29,.29v1.16c0,.16-.13,.29-.29,.29Zm0-2.32c-.16,0-.29-.13-.29-.29v-1.16c0-.16,.13-.29,.29-.29s.29,.13,.29,.29v1.16c0,.16-.13,.29-.29,.29Zm0-2.32c-.16,0-.29-.13-.29-.29v-1.16c0-.16,.13-.29,.29-.29s.29,.13,.29,.29v1.16c0,.16-.13,.29-.29,.29Zm0-2.32c-.16,0-.29-.13-.29-.29v-1.16c0-.16,.13-.29,.29-.29s.29,.13,.29,.29v1.16c0,.16-.13,.29-.29,.29Zm0-2.32c-.16,0-.29-.13-.29-.29v-1.16c0-.16,.13-.29,.29-.29s.29,.13,.29,.29v1.16c0,.16-.13,.29-.29,.29Zm0-2.32c-.16,0-.29-.13-.29-.29v-1.16c0-.16,.13-.29,.29-.29s.29,.13,.29,.29v1.16c0,.16-.13,.29-.29,.29Zm0-2.32c-.16,0-.29-.13-.29-.29v-1.16c0-.16,.13-.29,.29-.29s.29,.13,.29,.29v1.16c0,.16-.13,.29-.29,.29Zm0-2.32c-.16,0-.29-.13-.29-.29v-1.16c0-.16,.13-.29,.29-.29s.29,.13,.29,.29v1.16c0,.16-.13,.29-.29,.29Zm0-2.32c-.16,0-.29-.13-.29-.29v-1.16c0-.16,.13-.29,.29-.29s.29,.13,.29,.29v1.16c0,.16-.13,.29-.29,.29Zm0-2.32c-.16,0-.29-.13-.29-.29v-1.16c0-.16,.13-.29,.29-.29s.29,.13,.29,.29v1.16c0,.16-.13,.29-.29,.29Zm0-2.32c-.16,0-.29-.13-.29-.29v-1.16c0-.16,.13-.29,.29-.29s.29,.13,.29,.29v1.16c0,.16-.13,.29-.29,.29Zm0-2.32c-.16,0-.29-.13-.29-.29v-1.16c0-.16,.13-.29,.29-.29s.29,.13,.29,.29v1.16c0,.16-.13,.29-.29,.29Zm0-2.32c-.16,0-.29-.13-.29-.29v-1.16c0-.16,.13-.29,.29-.29s.29,.13,.29,.29v1.16c0,.16-.13,.29-.29,.29Z"/>
        <circle class="cls-7" cx="109.92" cy="125.37" r="5.79"/>
        <path class="cls-14" d="M171.07,31.34c-2.53-1.46-6.63-1.47-9.14-.02L63.65,88.06c-2.51,1.45-2.5,3.82,.03,5.28l41.74,24.1c2.53,1.46,6.63,1.47,9.14,.02l98.27-56.74c2.51-1.45,2.5-3.82-.03-5.28l-41.74-24.1Z"/>
      </g>
    </g>
  </g>
</svg>