<?xml version="1.0" encoding="UTF-8"?>
<svg xmlns="http://www.w3.org/2000/svg" xmlns:xlink="http://www.w3.org/1999/xlink" viewBox="0 0 491.03 336.27">
  <defs>
    <style>
      .cls-1 {
        fill: url(#Degradado_sin_nombre_1185);
      }

      .cls-1, .cls-2, .cls-3, .cls-4, .cls-5 {
        mix-blend-mode: color-dodge;
      }

      .cls-6, .cls-2, .cls-3, .cls-5 {
        opacity: .7;
      }

      .cls-7 {
        fill: url(#Degradado_sin_nombre_1191);
      }

      .cls-7, .cls-8, .cls-9 {
        mix-blend-mode: overlay;
      }

      .cls-2 {
        fill: url(#Degradado_sin_nombre_7-2);
      }

      .cls-3 {
        fill: url(#Degradado_sin_nombre_7);
      }

      .cls-10, .cls-9 {
        stroke-width: .51px;
      }

      .cls-10, .cls-9, .cls-11, .cls-12 {
        fill: none;
      }

      .cls-10, .cls-9, .cls-12 {
        stroke: #01ffff;
      }

      .cls-10, .cls-11, .cls-12 {
        stroke-linecap: round;
        stroke-linejoin: round;
      }

      .cls-13 {
        fill: url(#Degradado_sin_nombre_1196);
        filter: url(#drop-shadow-1);
      }

      .cls-14 {
        fill: url(#Degradado_sin_nombre_6-3);
      }

      .cls-14, .cls-15, .cls-16, .cls-17 {
        mix-blend-mode: screen;
      }

      .cls-18 {
        fill: #239bd5;
      }

      .cls-19 {
        fill: url(#Degradado_sin_nombre_1195);
      }

      .cls-20 {
        fill: url(#Degradado_sin_nombre_1188);
      }

      .cls-15 {
        fill: url(#Degradado_sin_nombre_6);
      }

      .cls-21 {
        fill: url(#Degradado_sin_nombre_1193-2);
      }

      .cls-22 {
        fill: url(#Degradado_sin_nombre_1187);
      }

      .cls-23 {
        isolation: isolate;
      }

      .cls-24 {
        fill: url(#Degradado_sin_nombre_1193);
      }

      .cls-25 {
        fill: url(#Degradado_sin_nombre_1190);
      }

      .cls-8 {
        fill: #01ffff;
      }

      .cls-26 {
        fill: url(#Degradado_sin_nombre_1192);
      }

      .cls-4 {
        fill: url(#Degradado_sin_nombre_3);
      }

      .cls-9 {
        stroke-miterlimit: 10;
      }

      .cls-5 {
        fill: url(#Degradado_sin_nombre_7-3);
      }

      .cls-17 {
        fill: url(#Degradado_sin_nombre_6-2);
      }

      .cls-11 {
        stroke: #064280;
      }

      .cls-11, .cls-12 {
        stroke-dasharray: 0 0 0 4;
        stroke-width: .75px;
      }

      .cls-27 {
        fill: url(#Degradado_sin_nombre_1189);
      }
    </style>
    <linearGradient id="Degradado_sin_nombre_1196" data-name="Degradado sin nombre 1196" x1="120.28" y1="284.18" x2="406.16" y2="117.03" gradientUnits="userSpaceOnUse">
      <stop offset="0" stop-color="#0182aa"/>
      <stop offset=".49" stop-color="#064280"/>
      <stop offset="1" stop-color="#0d0730"/>
    </linearGradient>
    <filter id="drop-shadow-1" filterUnits="userSpaceOnUse">
      <feOffset dx="-10" dy="8"/>
      <feGaussianBlur result="blur" stdDeviation="4"/>
      <feFlood flood-color="#000" flood-opacity=".5"/>
      <feComposite in2="blur" operator="in"/>
      <feComposite in="SourceGraphic"/>
    </filter>
    <linearGradient id="Degradado_sin_nombre_1195" data-name="Degradado sin nombre 1195" x1="419.2" y1="284.67" x2="110.12" y2="239.95" gradientUnits="userSpaceOnUse">
      <stop offset="0" stop-color="#0182aa"/>
      <stop offset=".17" stop-color="#010333"/>
      <stop offset=".52" stop-color="#00447f"/>
      <stop offset=".71" stop-color="#010333"/>
      <stop offset=".98" stop-color="#01ffff"/>
    </linearGradient>
    <linearGradient id="Degradado_sin_nombre_1193" data-name="Degradado sin nombre 1193" x1="223.2" y1="263.2" x2="325.69" y2="217.26" gradientUnits="userSpaceOnUse">
      <stop offset="0" stop-color="#064280"/>
      <stop offset="1" stop-color="#0d0730"/>
    </linearGradient>
    <linearGradient id="Degradado_sin_nombre_1193-2" data-name="Degradado sin nombre 1193" x1="152.06" y1="206.48" x2="409.13" y2="131.4" xlink:href="#Degradado_sin_nombre_1193"/>
    <linearGradient id="Degradado_sin_nombre_1192" data-name="Degradado sin nombre 1192" x1="155.69" y1="204.51" x2="418.84" y2="129.46" gradientUnits="userSpaceOnUse">
      <stop offset="0" stop-color="#0182aa"/>
      <stop offset="1" stop-color="#0d0730"/>
    </linearGradient>
    <linearGradient id="Degradado_sin_nombre_1191" data-name="Degradado sin nombre 1191" x1="237.89" y1="164.74" x2="128.45" y2="280.12" gradientUnits="userSpaceOnUse">
      <stop offset="0" stop-color="#01ffff"/>
      <stop offset="1" stop-color="#00518b" stop-opacity="0"/>
    </linearGradient>
    <linearGradient id="Degradado_sin_nombre_1190" data-name="Degradado sin nombre 1190" x1="413.6" y1="117.5" x2="116.62" y2="-18.67" gradientUnits="userSpaceOnUse">
      <stop offset="0" stop-color="#064280"/>
      <stop offset=".56" stop-color="#0d0730"/>
      <stop offset="1" stop-color="#010333"/>
    </linearGradient>
    <linearGradient id="Degradado_sin_nombre_1189" data-name="Degradado sin nombre 1189" x1="430.27" y1="-38.53" x2="139.62" y2="134.6" gradientUnits="userSpaceOnUse">
      <stop offset="0" stop-color="#01ffff"/>
      <stop offset=".31" stop-color="#00518b"/>
      <stop offset=".61" stop-color="#012060"/>
      <stop offset="1" stop-color="#00447f"/>
    </linearGradient>
    <linearGradient id="Degradado_sin_nombre_1188" data-name="Degradado sin nombre 1188" x1="420.27" y1="63.31" x2="143.41" y2="-39.56" gradientUnits="userSpaceOnUse">
      <stop offset="0" stop-color="#01ffff"/>
      <stop offset="1" stop-color="#00447f"/>
    </linearGradient>
    <linearGradient id="Degradado_sin_nombre_1187" data-name="Degradado sin nombre 1187" x1="90.41" y1="18.75" x2="443.38" y2="-10.08" gradientUnits="userSpaceOnUse">
      <stop offset="0" stop-color="#00518b"/>
      <stop offset=".17" stop-color="#010333"/>
      <stop offset=".43" stop-color="#00447f"/>
      <stop offset=".71" stop-color="#010333"/>
      <stop offset="1" stop-color="#01ffff"/>
    </linearGradient>
    <linearGradient id="Degradado_sin_nombre_7" data-name="Degradado sin nombre 7" x1="384.4" y1="-43.87" x2="156.58" y2="48.36" gradientUnits="userSpaceOnUse">
      <stop offset="0" stop-color="#7659ff"/>
      <stop offset=".29" stop-color="#748bff"/>
      <stop offset=".48" stop-color="#012060"/>
      <stop offset="1" stop-color="#7659ff"/>
    </linearGradient>
    <linearGradient id="Degradado_sin_nombre_7-2" data-name="Degradado sin nombre 7" x1="401.05" y1="-2.26" x2="173.18" y2="89.99" xlink:href="#Degradado_sin_nombre_7"/>
    <linearGradient id="Degradado_sin_nombre_7-3" data-name="Degradado sin nombre 7" x1="403.6" y1="4.31" x2="175.83" y2="96.52" xlink:href="#Degradado_sin_nombre_7"/>
    <linearGradient id="Degradado_sin_nombre_6" data-name="Degradado sin nombre 6" x1="184.15" y1="50.3" x2="-25.18" y2="175.89" gradientUnits="userSpaceOnUse">
      <stop offset="0" stop-color="#01ffff"/>
      <stop offset=".29" stop-color="#00518b"/>
      <stop offset=".48" stop-color="#012060"/>
      <stop offset=".71" stop-color="#010333"/>
      <stop offset="1" stop-color="#00447f"/>
    </linearGradient>
    <radialGradient id="Degradado_sin_nombre_1185" data-name="Degradado sin nombre 1185" cx="-38.72" cy="152.5" fx="-38.72" fy="152.5" r="252.03" gradientUnits="userSpaceOnUse">
      <stop offset="0" stop-color="#d3ffe6"/>
      <stop offset="1" stop-color="#000" stop-opacity="0"/>
    </radialGradient>
    <linearGradient id="Degradado_sin_nombre_6-2" data-name="Degradado sin nombre 6" x1="493.96" y1="70.06" x2="324.83" y2="308.25" xlink:href="#Degradado_sin_nombre_6"/>
    <linearGradient id="Degradado_sin_nombre_6-3" data-name="Degradado sin nombre 6" x1="204.03" y1="197.61" x2="92.81" y2="345.44" xlink:href="#Degradado_sin_nombre_6"/>
    <radialGradient id="Degradado_sin_nombre_3" data-name="Degradado sin nombre 3" cx="141.34" cy="286.15" fx="141.34" fy="286.15" r="143.18" gradientUnits="userSpaceOnUse">
      <stop offset="0" stop-color="#d3ffe6"/>
      <stop offset=".85" stop-color="#000" stop-opacity="0"/>
    </radialGradient>
  </defs>
  <g class="cls-23">
    <g id="Layer_1" data-name="Layer 1">
      <g>
        <g>
          <g>
            <rect class="cls-13" x="148.75" y="117.12" width="255.57" height="151.39" rx="5.17" ry="5.17"/>
            <path class="cls-19" d="M399.15,265.4H153.92c-2.86,0-5.17-2.32-5.17-5.17v3.12c0,2.86,2.32,5.17,5.17,5.17h245.23c2.86,0,5.17-2.31,5.17-5.17v-3.12c0,2.86-2.31,5.17-5.17,5.17Z"/>
            <rect class="cls-24" x="226.09" y="217.47" width="100.9" height="43.64" rx="6.36" ry="6.36"/>
            <g>
              <rect class="cls-21" x="168.07" y="130.05" width="216.95" height="80.14" rx="6.36" ry="6.36"/>
              <path class="cls-18" d="M245.53,160.63h7.18c.66,.01,1.19-.52,1.19-1.17v-7.18c.01-.66-.52-1.19-1.17-1.19h-7.18c-.66-.01-1.19,.52-1.19,1.17v7.18c-.01,.66,.52,1.19,1.17,1.19Zm-14.47-13.68l8.21,.02c.37,0,.67-.3,.67-.67l.02-8.21c0-.37-.3-.67-.67-.67l-8.21-.02c-.37,0-.67,.3-.67,.67l-.02,8.21c0,.37,.3,.67,.67,.67Zm13.92,27.33l8.23,.02c.37,0,.66-.3,.66-.66l.02-8.23c0-.37-.3-.66-.66-.66l-8.23-.02c-.37,0-.66,.3-.66,.66v8.23c-.02,.37,.28,.66,.65,.66Zm.53,13.65h7.12c.67,.01,1.22-.53,1.22-1.2v-7.12c.01-.67-.53-1.22-1.2-1.22h-7.12c-.67-.01-1.22,.53-1.22,1.2v7.12c-.01,.67,.53,1.22,1.2,1.22Zm13.98,.03h7.12c.67,.01,1.22-.53,1.22-1.2v-7.12c.01-.67-.53-1.22-1.2-1.22h-7.12c-.67-.01-1.22,.53-1.22,1.2v7.12c-.01,.67,.53,1.22,1.2,1.22Zm.02-27.3h7.18c.66,.01,1.19-.52,1.19-1.17v-7.18c.01-.66-.52-1.19-1.17-1.19h-7.18c-.66-.01-1.19,.52-1.19,1.17v7.18c-.01,.66,.52,1.19,1.17,1.19Zm-.55,13.65l8.23,.02c.37,0,.66-.3,.66-.66l.02-8.23c0-.37-.3-.66-.66-.66l-8.23-.02c-.37,0-.66,.3-.66,.66l-.02,8.23c0,.37,.3,.66,.66,.66Zm-83.84-27.46l8.21,.02c.37,0,.67-.3,.67-.67l.02-8.21c0-.37-.3-.67-.67-.67l-8.21-.02c-.37,0-.67,.3-.67,.67v8.21c-.02,.37,.28,.67,.66,.67Zm7.55,45.06h-7.05c-.69-.01-1.25,.55-1.26,1.24v7.05c-.01,.69,.55,1.25,1.24,1.26h7.05c.69,.01,1.25-.55,1.26-1.24v-7.05c.01-.69-.55-1.25-1.24-1.26Zm.06-13.65h-7.12c-.67-.01-1.22,.53-1.22,1.2v7.12c-.01,.67,.53,1.22,1.2,1.22h7.12c.67,.01,1.22-.53,1.22-1.2v-7.12c.01-.67-.53-1.22-1.2-1.22Zm76.28-31.26l8.21,.02c.37,0,.67-.3,.67-.67l.02-8.21c0-.37-.3-.67-.67-.67l-8.21-.02c-.37,0-.67,.3-.67,.67l-.02,8.21c0,.37,.3,.67,.67,.67Zm-27.5,40.9h7.12c.67,.01,1.22-.53,1.22-1.2v-7.12c.01-.67-.53-1.22-1.2-1.22h-7.12c-.67-.01-1.22,.53-1.22,1.2v7.12c-.01,.67,.53,1.22,1.2,1.22Zm-.53-13.65l8.23,.02c.37,0,.66-.3,.66-.66l.02-8.23c0-.37-.3-.66-.66-.66l-8.23-.02c-.37,0-.66,.3-.66,.66v8.23c-.02,.37,.28,.66,.65,.66Zm.55-13.65h7.18c.66,.01,1.19-.52,1.19-1.17v-7.18c.01-.66-.52-1.19-1.17-1.19h-7.18c-.66-.01-1.19,.52-1.19,1.17v7.18c-.01,.66,.52,1.19,1.17,1.19Zm-42.44-13.73l8.21,.02c.37,0,.67-.3,.67-.67l.02-8.21c0-.37-.3-.67-.67-.67l-8.21-.02c-.37,0-.67,.3-.67,.67l-.02,8.21c0,.37,.3,.67,.67,.67Zm153.81,.28h8.21c.37,.02,.67-.28,.67-.66l.02-8.21c0-.37-.3-.67-.67-.67l-8.21-.02c-.37,0-.67,.3-.67,.67v8.21c-.02,.37,.28,.67,.66,.67Zm-41.45,13.57h7.18c.66,.01,1.19-.52,1.19-1.17v-7.18c.01-.66-.52-1.19-1.17-1.19h-7.18c-.66-.01-1.19,.52-1.19,1.17v7.18c-.01,.66,.52,1.19,1.17,1.19Zm-.02,27.3h7.12c.67,.01,1.22-.53,1.22-1.2v-7.12c.01-.67-.53-1.22-1.2-1.22h-7.12c-.67-.01-1.22,.53-1.22,1.2v7.12c-.01,.67,.53,1.22,1.2,1.22Zm-.53-13.65l8.23,.02c.37,0,.66-.3,.66-.66l.02-8.23c0-.37-.3-.66-.66-.66l-8.23-.02c-.37,0-.66,.3-.66,.66l-.02,8.23c0,.37,.3,.66,.66,.66Zm.06-27.3l8.21,.02c.37,0,.67-.3,.67-.67l.02-8.21c0-.37-.3-.67-.67-.67l-8.21-.02c-.37,0-.67,.3-.67,.67l-.02,8.21c0,.37,.3,.67,.67,.67Zm-117.65,17.53l-8.23-.02c-.37,0-.66,.3-.66,.66l-.02,8.23c0,.37,.3,.66,.66,.66l8.23,.02c.37,0,.66-.3,.66-.66l.02-8.23c0-.37-.3-.66-.66-.66Zm160.09-3.8h7.18c.66,.01,1.19-.52,1.19-1.17v-7.18c.01-.66-.52-1.19-1.17-1.19h-7.18c-.66-.01-1.19,.52-1.19,1.17v7.18c-.01,.66,.52,1.19,1.17,1.19Zm-.55,13.65l8.23,.02c.37,0,.66-.3,.66-.66l.02-8.23c0-.37-.3-.66-.66-.66l-8.23-.02c-.37,0-.66,.3-.66,.66l-.02,8.23c0,.37,.3,.66,.66,.66Zm-69.36-13.78h7.18c.66,.01,1.19-.52,1.19-1.17v-7.18c.01-.66-.52-1.19-1.17-1.19h-7.18c-.66-.01-1.19,.52-1.19,1.17v7.18c-.01,.66,.52,1.19,1.17,1.19Zm-.02,27.3h7.12c.67,.01,1.22-.53,1.22-1.2v-7.12c.01-.67-.53-1.22-1.2-1.22h-7.12c-.67-.01-1.22,.53-1.22,1.2v7.12c-.01,.67,.53,1.22,1.2,1.22Zm-.53-13.65l8.23,.02c.37,0,.66-.3,.66-.66l.02-8.23c0-.37-.3-.66-.66-.66l-8.23-.02c-.37,0-.66,.3-.66,.66l-.02,8.23c0,.37,.3,.66,.66,.66Zm14.04-27.28l8.21,.02c.37,0,.67-.3,.67-.67l.02-8.21c0-.37-.3-.67-.67-.67l-8.21-.02c-.37,0-.67,.3-.67,.67v8.21c-.02,.37,.28,.67,.66,.67Zm-13.98-.03l8.21,.02c.37,0,.67-.3,.67-.67l.02-8.21c0-.37-.3-.67-.67-.67l-8.21-.02c-.37,0-.67,.3-.67,.67l-.02,8.21c0,.37,.3,.67,.67,.67Zm14.48,13.68h7.18c.66,.01,1.19-.52,1.19-1.17v-7.18c.01-.66-.52-1.19-1.17-1.19h-7.18c-.66-.01-1.19,.52-1.19,1.17v7.18c-.01,.66,.52,1.19,1.17,1.19Zm-.55,13.65h8.23c.37,.02,.66-.28,.66-.65l.02-8.23c0-.37-.3-.66-.66-.66l-8.23-.02c-.37,0-.66,.3-.66,.66l-.02,8.23c0,.37,.3,.66,.66,.66Zm.53,13.65h7.12c.67,.01,1.22-.53,1.22-1.2v-7.12c.01-.67-.53-1.22-1.2-1.22h-7.12c-.67-.01-1.22,.53-1.22,1.2v7.12c-.01,.67,.53,1.22,1.2,1.22Zm-42.42-41.03l8.21,.02c.37,0,.67-.3,.67-.67l.02-8.21c0-.37-.3-.67-.67-.67l-8.21-.02c-.37,0-.67,.3-.67,.67v8.21c-.02,.37,.28,.67,.66,.67Zm92.12-9.39h-8.21c-.37-.02-.67,.28-.67,.66l-.02,8.21c0,.37,.3,.67,.67,.67l8.21,.02c.37,0,.67-.3,.67-.67v-8.21c.02-.37-.28-.67-.66-.67Zm-.62,40.95h-7.12c-.67-.01-1.22,.53-1.22,1.2v7.12c-.01,.67,.53,1.22,1.2,1.22h7.12c.67,.01,1.22-.53,1.22-1.2v-7.12c.01-.67-.53-1.22-1.2-1.22Zm.08-27.3h-7.18c-.66-.01-1.19,.52-1.19,1.17v7.18c-.01,.66,.52,1.19,1.17,1.19h7.18c.66,.01,1.19-.52,1.19-1.17v-7.18c.01-.66-.52-1.19-1.17-1.19Zm.5,13.65l-8.23-.02c-.37,0-.66,.3-.66,.66l-.02,8.23c0,.37,.3,.66,.66,.66l8.23,.02c.37,0,.66-.3,.66-.66l.02-8.23c0-.37-.3-.66-.66-.66Zm-.64,27.3h-7.05c-.69-.01-1.25,.55-1.26,1.24v7.05c-.01,.69,.55,1.25,1.24,1.26h7.05c.69,.01,1.25-.55,1.26-1.24v-7.05c.01-.69-.55-1.25-1.24-1.26Zm-13.84-40.98h-7.18c-.66-.01-1.19,.52-1.19,1.17v7.18c-.01,.66,.52,1.19,1.17,1.19h7.18c.66,.01,1.19-.52,1.19-1.17v-7.18c.01-.66-.52-1.19-1.17-1.19Zm.5,13.65l-8.23-.02c-.37,0-.66,.3-.66,.66l-.02,8.23c0,.37,.3,.66,.66,.66l8.23,.02c.37,0,.66-.3,.66-.66v-8.23c.02-.37-.28-.66-.65-.66Zm.04-27.3h-8.21c-.37-.02-.67,.28-.67,.66l-.02,8.21c0,.37,.3,.67,.67,.67l8.21,.02c.37,0,.67-.3,.67-.67l.02-8.21c0-.37-.3-.67-.67-.67Zm41.89,36.93c.37,0,.66-.3,.66-.66l.02-8.23c0-.37-.3-.66-.66-.66l-8.23-.02c-.37,0-.66,.3-.66,.66v8.23c-.02,.37,.28,.66,.65,.66h8.23Zm11.39-23.17l-16.95-.03c-1.82,0-3.3,1.47-3.3,3.29v2.96c0,1.82,1.46,3.3,3.28,3.3h7.39c1.82,.02,3.29,1.5,3.29,3.32v7.08c-.02,1.82,1.46,3.3,3.28,3.3h2.96c1.82,0,3.3-1.46,3.3-3.28l.03-16.63c0-1.82-1.47-3.3-3.29-3.3Zm2.65-13.65l-22.5-.04c-.37,0-.67,.3-.67,.67v8.21c-.02,.37,.28,.67,.66,.67l22.5,.04c.37,0,.67-.3,.67-.67l.02-8.21c0-.37-.3-.67-.67-.67Zm-28.65,54.55h-7.05c-.69-.01-1.25,.55-1.26,1.24v7.05c-.01,.69,.55,1.25,1.24,1.26h7.05c.69,.01,1.25-.55,1.26-1.24v-7.05c.01-.69-.55-1.25-1.24-1.26Zm13.98,.03h-7.05c-.69-.01-1.25,.55-1.26,1.24v7.05c-.01,.69,.55,1.25,1.24,1.26h7.05c.69,.01,1.25-.55,1.26-1.24v-7.05c.01-.69-.55-1.25-1.24-1.26Zm14.04-13.62l-34.83-.06c-.67,0-1.22,.54-1.22,1.21v7.12c-.01,.67,.53,1.22,1.2,1.22l34.83,.06c.67,0,1.22-.54,1.22-1.21v-7.12c.01-.67-.53-1.22-1.2-1.22Zm-.06,13.65h-7.05c-.69-.01-1.25,.55-1.26,1.24v7.05c-.01,.69,.55,1.25,1.24,1.26h7.05c.69,.01,1.25-.55,1.26-1.24v-7.05c.01-.69-.55-1.25-1.24-1.26Zm-167.11-54.91h-8.21c-.37-.02-.67,.28-.67,.66l-.02,8.21c0,.37,.3,.67,.67,.67h8.21c.37,.02,.67-.28,.67-.66l.02-8.21c0-.37-.3-.67-.67-.67Zm-.62,40.95h-7.12c-.67-.01-1.22,.53-1.22,1.2v7.12c-.01,.67,.53,1.22,1.2,1.22h7.12c.67,.01,1.22-.53,1.22-1.2v-7.12c.01-.67-.53-1.22-1.2-1.22Zm-.06,13.65h-7.05c-.69-.01-1.25,.55-1.26,1.24v7.05c-.01,.69,.55,1.25,1.24,1.26h7.05c.69,.01,1.25-.55,1.26-1.24v-7.05c.01-.69-.55-1.25-1.24-1.26Zm.64-27.3l-8.23-.02c-.37,0-.66,.3-.66,.66l-.02,8.23c0,.37,.3,.66,.66,.66l8.23,.02c.37,0,.66-.3,.66-.66l.02-8.23c0-.37-.3-.66-.66-.66Zm-.5-13.65h-7.18c-.66-.01-1.19,.52-1.19,1.17v7.18c-.01,.66,.52,1.19,1.17,1.19h7.18c.66,.01,1.19-.52,1.19-1.17v-7.18c.01-.66-.52-1.19-1.17-1.19Zm-14.06,27.28h-7.12c-.67-.01-1.22,.53-1.22,1.2v7.12c-.01,.67,.53,1.22,1.2,1.22h7.12c.67,.01,1.22-.53,1.22-1.2v-7.12c.01-.67-.53-1.22-1.2-1.22Zm125.84,.23h-7.12c-.67-.01-1.22,.53-1.22,1.2v7.12c-.01,.67,.53,1.22,1.2,1.22h7.12c.67,.01,1.22-.53,1.22-1.2v-7.12c.01-.67-.53-1.22-1.2-1.22Zm-125.65-27.53l-21.27-.04c-.66,0-1.19,.53-1.19,1.19v7.18c-.01,.66,.52,1.19,1.17,1.19l21.27,.04c.66,0,1.19-.53,1.19-1.19v-7.18c.01-.66-.52-1.19-1.17-1.19Zm.39,13.65l-8.23-.02c-.37,0-.66,.3-.66,.66l-.02,8.23c0,.37,.3,.66,.66,.66l8.23,.02c.37,0,.66-.3,.66-.66l.02-8.23c0-.37-.3-.66-.66-.66Zm27.46-13.6h-7.18c-.66-.01-1.19,.52-1.19,1.17v7.18c-.01,.66,.52,1.19,1.17,1.19h7.18c.66,.01,1.19-.52,1.19-1.17v-7.18c.01-.66-.52-1.19-1.17-1.19Zm.54-13.65l-8.21-.02c-.37,0-.67,.3-.67,.67l-.02,8.21c0,.37,.3,.67,.67,.67l8.21,.02c.37,0,.67-.3,.67-.67l.02-8.21c0-.37-.3-.67-.67-.67Zm-28.65,54.55h-7.05c-.69-.01-1.25,.55-1.26,1.24v7.05c-.01,.69,.55,1.25,1.24,1.26h7.05c.69,.01,1.25-.55,1.26-1.24v-7.05c.01-.69-.55-1.25-1.24-1.26Zm125.67,.23l-90.77-.17c-.69,0-1.25,.56-1.26,1.25v7.05c-.01,.69,.55,1.25,1.24,1.26l90.77,.17c.69,0,1.25-.56,1.26-1.25v-7.05c.01-.69-.55-1.25-1.24-1.26Zm-97.7-.18h-7.05c-.69-.01-1.25,.55-1.26,1.24v7.05c-.01,.69,.55,1.25,1.24,1.26h7.05c.69,.01,1.25-.55,1.26-1.24v-7.05c.01-.69-.55-1.25-1.24-1.26Zm.06-13.65h-7.12c-.67-.01-1.22,.53-1.22,1.2v7.12c-.01,.67,.53,1.22,1.2,1.22h7.12c.67,.01,1.22-.53,1.22-1.2v-7.12c.01-.67-.53-1.22-1.2-1.22Zm.58-13.65h-8.23c-.37-.02-.66,.28-.66,.65l-.02,8.23c0,.37,.3,.66,.66,.66l8.23,.02c.37,0,.66-.3,.66-.66l.02-8.23c0-.37-.3-.66-.66-.66Z"/>
              <path class="cls-26" d="M244.96,161.2h7.18c.66,.01,1.19-.52,1.19-1.17v-7.18c.01-.66-.52-1.19-1.17-1.19h-7.18c-.66-.01-1.19,.52-1.19,1.17v7.18c-.01,.66,.52,1.19,1.17,1.19Zm-14.47-13.68l8.21,.02c.37,0,.67-.3,.67-.67l.02-8.21c0-.37-.3-.67-.67-.67h-8.21c-.37-.02-.67,.28-.67,.66l-.02,8.21c0,.37,.3,.67,.67,.67Zm13.92,27.33l8.23,.02c.37,0,.66-.3,.66-.66l.02-8.23c0-.37-.3-.66-.66-.66l-8.23-.02c-.37,0-.66,.3-.66,.66v8.23c-.02,.37,.28,.66,.65,.66Zm.53,13.65h7.12c.67,.01,1.22-.53,1.22-1.2v-7.12c.01-.67-.53-1.22-1.2-1.22h-7.12c-.67-.01-1.22,.53-1.22,1.2v7.12c-.01,.67,.53,1.22,1.2,1.22Zm13.98,.03h7.12c.67,.01,1.22-.53,1.22-1.2v-7.12c.01-.67-.53-1.22-1.2-1.22h-7.12c-.67-.01-1.22,.53-1.22,1.2v7.12c-.01,.67,.53,1.22,1.2,1.22Zm.02-27.3h7.18c.66,.01,1.19-.52,1.19-1.17v-7.18c.01-.66-.52-1.19-1.17-1.19h-7.18c-.66-.01-1.19,.52-1.19,1.17v7.18c-.01,.66,.52,1.19,1.17,1.19Zm-.55,13.65l8.23,.02c.37,0,.66-.3,.66-.66l.02-8.23c0-.37-.3-.66-.66-.66l-8.23-.02c-.37,0-.66,.3-.66,.66l-.02,8.23c0,.37,.3,.66,.66,.66Zm-83.84-27.46l8.21,.02c.37,0,.67-.3,.67-.67l.02-8.21c0-.37-.3-.67-.67-.67l-8.21-.02c-.37,0-.67,.3-.67,.67v8.21c-.02,.37,.28,.67,.66,.67Zm7.55,45.06h-7.05c-.69-.01-1.25,.55-1.26,1.24v7.05c-.01,.69,.55,1.25,1.24,1.26h7.05c.69,.01,1.25-.55,1.26-1.24v-7.05c.01-.69-.55-1.25-1.24-1.26Zm.06-13.65h-7.12c-.67-.01-1.22,.53-1.22,1.2v7.12c-.01,.67,.53,1.22,1.2,1.22h7.12c.67,.01,1.22-.53,1.22-1.2v-7.12c.01-.67-.53-1.22-1.2-1.22Zm76.28-31.26h8.21c.37,.02,.67-.28,.67-.66l.02-8.21c0-.37-.3-.67-.67-.67l-8.21-.02c-.37,0-.67,.3-.67,.67l-.02,8.21c0,.37,.3,.67,.67,.67Zm-27.5,40.9h7.12c.67,.01,1.22-.53,1.22-1.2v-7.12c.01-.67-.53-1.22-1.2-1.22h-7.12c-.67-.01-1.22,.53-1.22,1.2v7.12c-.01,.67,.53,1.22,1.2,1.22Zm-.53-13.65l8.23,.02c.37,0,.66-.3,.66-.66l.02-8.23c0-.37-.3-.66-.66-.66l-8.23-.02c-.37,0-.66,.3-.66,.66l-.02,8.23c0,.37,.3,.66,.66,.66Zm.55-13.65h7.18c.66,.01,1.19-.52,1.19-1.17v-7.18c.01-.66-.52-1.19-1.17-1.19h-7.18c-.66-.01-1.19,.52-1.19,1.17v7.18c-.01,.66,.52,1.19,1.17,1.19Zm-42.44-13.73l8.21,.02c.37,0,.67-.3,.67-.67l.02-8.21c0-.37-.3-.67-.67-.67l-8.21-.02c-.37,0-.67,.3-.67,.67l-.02,8.21c0,.37,.3,.67,.67,.67Zm153.81,.28l8.21,.02c.37,0,.67-.3,.67-.67l.02-8.21c0-.37-.3-.67-.67-.67h-8.21c-.37-.02-.67,.28-.67,.66l-.02,8.21c0,.37,.3,.67,.67,.67Zm-41.45,13.57h7.18c.66,.01,1.19-.52,1.19-1.17v-7.18c.01-.66-.52-1.19-1.17-1.19h-7.18c-.66-.01-1.19,.52-1.19,1.17v7.18c-.01,.66,.52,1.19,1.17,1.19Zm-.02,27.3h7.12c.67,.01,1.22-.53,1.22-1.2v-7.12c.01-.67-.53-1.22-1.2-1.22h-7.12c-.67-.01-1.22,.53-1.22,1.2v7.12c-.01,.67,.53,1.22,1.2,1.22Zm-.53-13.65l8.23,.02c.37,0,.66-.3,.66-.66l.02-8.23c0-.37-.3-.66-.66-.66l-8.23-.02c-.37,0-.66,.3-.66,.66l-.02,8.23c0,.37,.3,.66,.66,.66Zm.06-27.3l8.21,.02c.37,0,.67-.3,.67-.67l.02-8.21c0-.37-.3-.67-.67-.67l-8.21-.02c-.37,0-.67,.3-.67,.67l-.02,8.21c0,.37,.3,.67,.67,.67Zm-117.65,17.53h-8.23c-.37-.02-.66,.28-.66,.65l-.02,8.23c0,.37,.3,.66,.66,.66l8.23,.02c.37,0,.66-.3,.66-.66l.02-8.23c0-.37-.3-.66-.66-.66Zm160.09-3.8h7.18c.66,.01,1.19-.52,1.19-1.17v-7.18c.01-.66-.52-1.19-1.17-1.19h-7.18c-.66-.01-1.19,.52-1.19,1.17v7.18c-.01,.66,.52,1.19,1.17,1.19Zm-.55,13.65h8.23c.37,.02,.66-.28,.66-.65l.02-8.23c0-.37-.3-.66-.66-.66l-8.23-.02c-.37,0-.66,.3-.66,.66l-.02,8.23c0,.37,.3,.66,.66,.66Zm-69.36-13.78h7.18c.66,.01,1.19-.52,1.19-1.17v-7.18c.01-.66-.52-1.19-1.17-1.19h-7.18c-.66-.01-1.19,.52-1.19,1.17v7.18c-.01,.66,.52,1.19,1.17,1.19Zm-.02,27.3h7.12c.67,.01,1.22-.53,1.22-1.2v-7.12c.01-.67-.53-1.22-1.2-1.22h-7.12c-.67-.01-1.22,.53-1.22,1.2v7.12c-.01,.67,.53,1.22,1.2,1.22Zm-.53-13.65l8.23,.02c.37,0,.66-.3,.66-.66l.02-8.23c0-.37-.3-.66-.66-.66l-8.23-.02c-.37,0-.66,.3-.66,.66l-.02,8.23c0,.37,.3,.66,.66,.66Zm14.04-27.28l8.21,.02c.37,0,.67-.3,.67-.67v-8.21c.02-.37-.28-.67-.66-.67l-8.21-.02c-.37,0-.67,.3-.67,.67l-.02,8.21c0,.37,.3,.67,.67,.67Zm-13.98-.03l8.21,.02c.37,0,.67-.3,.67-.67l.02-8.21c0-.37-.3-.67-.67-.67h-8.21c-.37-.02-.67,.28-.67,.66l-.02,8.21c0,.37,.3,.67,.67,.67Zm14.48,13.68h7.18c.66,.01,1.19-.52,1.19-1.17v-7.18c.01-.66-.52-1.19-1.17-1.19h-7.18c-.66-.01-1.19,.52-1.19,1.17v7.18c-.01,.66,.52,1.19,1.17,1.19Zm-.55,13.65l8.23,.02c.37,0,.66-.3,.66-.66l.02-8.23c0-.37-.3-.66-.66-.66l-8.23-.02c-.37,0-.66,.3-.66,.66l-.02,8.23c0,.37,.3,.66,.66,.66Zm.53,13.65h7.12c.67,.01,1.22-.53,1.22-1.2v-7.12c.01-.67-.53-1.22-1.2-1.22h-7.12c-.67-.01-1.22,.53-1.22,1.2v7.12c-.01,.67,.53,1.22,1.2,1.22Zm-42.42-41.03l8.21,.02c.37,0,.67-.3,.67-.67v-8.21c.02-.37-.28-.67-.66-.67l-8.21-.02c-.37,0-.67,.3-.67,.67v8.21c-.02,.37,.28,.67,.66,.67Zm92.12-9.39h-8.21c-.37-.02-.67,.28-.67,.66l-.02,8.21c0,.37,.3,.67,.67,.67l8.21,.02c.37,0,.67-.3,.67-.67v-8.21c.02-.37-.28-.67-.66-.67Zm-.62,40.95h-7.12c-.67-.01-1.22,.53-1.22,1.2v7.12c-.01,.67,.53,1.22,1.2,1.22h7.12c.67,.01,1.22-.53,1.22-1.2v-7.12c.01-.67-.53-1.22-1.2-1.22Zm.08-27.3h-7.18c-.66-.01-1.19,.52-1.19,1.17v7.18c-.01,.66,.52,1.19,1.17,1.19h7.18c.66,.01,1.19-.52,1.19-1.17v-7.18c.01-.66-.52-1.19-1.17-1.19Zm.5,13.65l-8.23-.02c-.37,0-.66,.3-.66,.66l-.02,8.23c0,.37,.3,.66,.66,.66l8.23,.02c.37,0,.66-.3,.66-.66l.02-8.23c0-.37-.3-.66-.66-.66Zm-.64,27.3h-7.05c-.69-.01-1.25,.55-1.26,1.24v7.05c-.01,.69,.55,1.25,1.24,1.26h7.05c.69,.01,1.25-.55,1.26-1.24v-7.05c.01-.69-.55-1.25-1.24-1.26Zm-13.84-40.98h-7.18c-.66-.01-1.19,.52-1.19,1.17v7.18c-.01,.66,.52,1.19,1.17,1.19h7.18c.66,.01,1.19-.52,1.19-1.17v-7.18c.01-.66-.52-1.19-1.17-1.19Zm.5,13.65l-8.23-.02c-.37,0-.66,.3-.66,.66l-.02,8.23c0,.37,.3,.66,.66,.66h8.23c.37,.02,.66-.28,.66-.65v-8.23c.02-.37-.28-.66-.65-.66Zm.04-27.3l-8.21-.02c-.37,0-.67,.3-.67,.67l-.02,8.21c0,.37,.3,.67,.67,.67l8.21,.02c.37,0,.67-.3,.67-.67l.02-8.21c0-.37-.3-.67-.67-.67Zm41.89,36.93c.37,0,.66-.3,.66-.66l.02-8.23c0-.37-.3-.66-.66-.66l-8.23-.02c-.37,0-.66,.3-.66,.66l-.02,8.23c0,.37,.3,.66,.66,.66l8.23,.02Zm11.39-23.19l-16.95-.03c-1.82,0-3.3,1.47-3.3,3.29v2.96c0,1.82,1.46,3.3,3.28,3.3h7.39c1.82,.02,3.29,1.5,3.29,3.32v7.08c-.02,1.82,1.46,3.3,3.28,3.3h2.96c1.82,0,3.3-1.46,3.3-3.28l.03-16.63c0-1.82-1.47-3.3-3.29-3.3Zm2.65-13.65l-22.5-.04c-.37,0-.67,.3-.67,.67v8.21c-.02,.37,.28,.67,.66,.67l22.5,.04c.37,0,.67-.3,.67-.67l.02-8.21c0-.37-.3-.67-.67-.67Zm-28.65,54.55h-7.05c-.69-.01-1.25,.55-1.26,1.24v7.05c-.01,.69,.55,1.25,1.24,1.26h7.05c.69,.01,1.25-.55,1.26-1.24v-7.05c.01-.69-.55-1.25-1.24-1.26Zm13.98,.03h-7.05c-.69-.01-1.25,.55-1.26,1.24v7.05c-.01,.69,.55,1.25,1.24,1.26h7.05c.69,.01,1.25-.55,1.26-1.24v-7.05c.01-.69-.55-1.25-1.24-1.26Zm14.04-13.62l-34.83-.06c-.67,0-1.22,.54-1.22,1.21v7.12c-.01,.67,.53,1.22,1.2,1.22l34.83,.06c.67,0,1.22-.54,1.22-1.21v-7.12c.01-.67-.53-1.22-1.2-1.22Zm-.06,13.65h-7.05c-.69-.01-1.25,.55-1.26,1.24v7.05c-.01,.69,.55,1.25,1.24,1.26h7.05c.69,.01,1.25-.55,1.26-1.24v-7.05c.01-.69-.55-1.25-1.24-1.26Zm-167.11-54.91l-8.21-.02c-.37,0-.67,.3-.67,.67l-.02,8.21c0,.37,.3,.67,.67,.67l8.21,.02c.37,0,.67-.3,.67-.67l.02-8.21c0-.37-.3-.67-.67-.67Zm-.62,40.95h-7.12c-.67-.01-1.22,.53-1.22,1.2v7.12c-.01,.67,.53,1.22,1.2,1.22h7.12c.67,.01,1.22-.53,1.22-1.2v-7.12c.01-.67-.53-1.22-1.2-1.22Zm-.06,13.65h-7.05c-.69-.01-1.25,.55-1.26,1.24v7.05c-.01,.69,.55,1.25,1.24,1.26h7.05c.69,.01,1.25-.55,1.26-1.24v-7.05c.01-.69-.55-1.25-1.24-1.26Zm.64-27.3l-8.23-.02c-.37,0-.66,.3-.66,.66l-.02,8.23c0,.37,.3,.66,.66,.66l8.23,.02c.37,0,.66-.3,.66-.66l.02-8.23c0-.37-.3-.66-.66-.66Zm-.5-13.65h-7.18c-.66-.01-1.19,.52-1.19,1.17v7.18c-.01,.66,.52,1.19,1.17,1.19h7.18c.66,.01,1.19-.52,1.19-1.17v-7.18c.01-.66-.52-1.19-1.17-1.19Zm-14.06,27.28h-7.12c-.67-.01-1.22,.53-1.22,1.2v7.12c-.01,.67,.53,1.22,1.2,1.22h7.12c.67,.01,1.22-.53,1.22-1.2v-7.12c.01-.67-.53-1.22-1.2-1.22Zm125.84,.23h-7.12c-.67-.01-1.22,.53-1.22,1.2v7.12c-.01,.67,.53,1.22,1.2,1.22h7.12c.67,.01,1.22-.53,1.22-1.2v-7.12c.01-.67-.53-1.22-1.2-1.22Zm-125.65-27.53l-21.27-.04c-.66,0-1.19,.53-1.19,1.19v7.18c-.01,.66,.52,1.19,1.17,1.19l21.27,.04c.66,0,1.19-.53,1.19-1.19v-7.18c.01-.66-.52-1.19-1.17-1.19Zm.39,13.65l-8.23-.02c-.37,0-.66,.3-.66,.66l-.02,8.23c0,.37,.3,.66,.66,.66l8.23,.02c.37,0,.66-.3,.66-.66l.02-8.23c0-.37-.3-.66-.66-.66Zm27.46-13.6h-7.18c-.66-.01-1.19,.52-1.19,1.17v7.18c-.01,.66,.52,1.19,1.17,1.19h7.18c.66,.01,1.19-.52,1.19-1.17v-7.18c.01-.66-.52-1.19-1.17-1.19Zm.54-13.65l-8.21-.02c-.37,0-.67,.3-.67,.67v8.21c-.02,.37,.28,.67,.66,.67l8.21,.02c.37,0,.67-.3,.67-.67l.02-8.21c0-.37-.3-.67-.67-.67Zm-28.65,54.55h-7.05c-.69-.01-1.25,.55-1.26,1.24v7.05c-.01,.69,.55,1.25,1.24,1.26h7.05c.69,.01,1.25-.55,1.26-1.24v-7.05c.01-.69-.55-1.25-1.24-1.26Zm125.67,.23l-90.77-.17c-.69,0-1.25,.56-1.26,1.25v7.05c-.01,.69,.55,1.25,1.24,1.26l90.77,.17c.69,0,1.25-.56,1.26-1.25v-7.05c.01-.69-.55-1.25-1.24-1.26Zm-97.7-.18h-7.05c-.69-.01-1.25,.55-1.26,1.24v7.05c-.01,.69,.55,1.25,1.24,1.26h7.05c.69,.01,1.25-.55,1.26-1.24v-7.05c.01-.69-.55-1.25-1.24-1.26Zm.06-13.65h-7.12c-.67-.01-1.22,.53-1.22,1.2v7.12c-.01,.67,.53,1.22,1.2,1.22h7.12c.67,.01,1.22-.53,1.22-1.2v-7.12c.01-.67-.53-1.22-1.2-1.22Zm.58-13.65l-8.23-.02c-.37,0-.66,.3-.66,.66l-.02,8.23c0,.37,.3,.66,.66,.66l8.23,.02c.37,0,.66-.3,.66-.66l.02-8.23c0-.37-.3-.66-.66-.66Z"/>
              <g>
                <line class="cls-12" x1="152.82" y1="136.46" x2="152.82" y2="203.8"/>
                <line class="cls-12" x1="154.85" y1="136.46" x2="154.85" y2="203.8"/>
                <line class="cls-12" x1="156.88" y1="136.46" x2="156.88" y2="203.8"/>
                <line class="cls-12" x1="158.91" y1="136.46" x2="158.91" y2="203.8"/>
                <line class="cls-12" x1="160.94" y1="136.46" x2="160.94" y2="203.8"/>
                <line class="cls-12" x1="162.98" y1="136.46" x2="162.98" y2="203.8"/>
              </g>
              <g>
                <line class="cls-11" x1="390.1" y1="136.46" x2="390.1" y2="203.8"/>
                <line class="cls-11" x1="392.13" y1="136.46" x2="392.13" y2="203.8"/>
                <line class="cls-11" x1="394.17" y1="136.46" x2="394.17" y2="203.8"/>
                <line class="cls-11" x1="396.2" y1="136.46" x2="396.2" y2="203.8"/>
                <line class="cls-11" x1="398.23" y1="136.46" x2="398.23" y2="203.8"/>
                <line class="cls-11" x1="400.26" y1="136.46" x2="400.26" y2="203.8"/>
              </g>
            </g>
            <path class="cls-7" d="M153.92,117.12c-2.86,0-5.17,2.32-5.17,5.17v141.05c0,2.86,2.32,5.17,5.17,5.17h116.89L170.99,117.12h-17.07Z"/>
          </g>
          <g>
            <path class="cls-25" d="M399.99,117.12H153.09c-2.41,0-4.51-1.67-5.04-4.02L124.44,9.33c-.74-3.24,1.72-6.32,5.04-6.32H423.59c3.32,0,5.78,3.08,5.04,6.32l-23.6,103.77c-.54,2.35-2.63,4.02-5.04,4.02Z"/>
            <path class="cls-27" d="M153.09,112.12c-.08,0-.15-.05-.17-.13L129.32,8.22s-.02-.08,.03-.14c.05-.06,.1-.06,.13-.06H423.59s.08,0,.13,.06c.05,.06,.04,.11,.03,.14l-23.6,103.77c-.02,.08-.09,.13-.17,.13H153.09Z"/>
            <path class="cls-20" d="M423.73,8.08c-.05-.06-.1-.06-.13-.06H129.49s-.08,0-.13,.06c-.05,.06-.04,.11-.03,.14l.15,.64H422.74s.08,0,.13,.06c.05,.06,.04,.11,.03,.14l-23.44,103.05h.52c.08,0,.15-.05,.17-.13l23.6-103.77s.02-.08-.03-.14Z"/>
            <path class="cls-22" d="M124.53,6.71c.63-2.1,2.56-3.7,4.95-3.7H423.59c2.39,0,4.32,1.6,4.95,3.7l.09-.4c.74-3.24-1.72-6.32-5.04-6.32H129.48c-3.32,0-5.78,3.08-5.04,6.32l.09,.4Z"/>
            <g class="cls-16">
              <g>
                <path class="cls-3" d="M164.87,24.43c-1.18,0-1.77,0-2.95,0,.12,.7,.17,1.05,.29,1.75,1.17,0,1.76,0,2.93,0-.11-.7-.17-1.05-.28-1.75Zm2.33,14.35c-1.14,0-1.71,0-2.86,0,.12,.7,.18,1.05,.3,1.75,1.14,0,1.71,0,2.85,0-.12-.7-.17-1.05-.29-1.75Zm1.19,7.19c-1.12,0-1.69,0-2.81,0,.12,.7,.18,1.05,.3,1.75,1.12,0,1.68,0,2.8,0-.12-.7-.18-1.05-.29-1.75Zm-1.59-9.58c-1.15,0-1.72,0-2.87,0,.12,.7,.18,1.05,.3,1.75,1.14,0,1.72,0,2.86,0-.12-.7-.17-1.05-.29-1.75Zm-.78-4.78c-1.16,0-1.74,0-2.9,0,.12,.7,.18,1.05,.3,1.75,1.16,0,1.73,0,2.89,0-.11-.7-.17-1.05-.28-1.75Zm-.39-2.39c-1.17,0-1.75,0-2.92,0,.12,.7,.18,1.05,.29,1.75,1.16,0,1.74,0,2.9,0-.11-.7-.17-1.05-.28-1.75Zm.78,4.78c-1.15,0-1.73,0-2.89,0,.12,.7,.18,1.05,.3,1.75,1.15,0,1.72,0,2.88,0-.11-.7-.17-1.05-.29-1.75Zm2.38,14.37c-1.12,0-1.68,0-2.8,0,.12,.7,.18,1.05,.31,1.75,1.11,0,1.67,0,2.79,0-.12-.7-.18-1.05-.3-1.75Zm-.8-4.78c-1.13,0-1.7,0-2.83,0,.12,.7,.18,1.05,.3,1.75,1.13,0,1.69,0,2.82,0-.12-.7-.18-1.05-.29-1.75Zm17.31-7.25c-6.36,.02-9.55,.03-15.91,.05,.11,.7,.17,1.05,.28,1.75,6.34-.02,9.51-.03,15.85-.05-.09-.7-.13-1.05-.22-1.75Zm-8.12,2.42c-2.96,0-4.44,.01-7.41,.02,.11,.7,.17,1.05,.28,1.75,2.95,0,4.43-.01,7.38-.02-.1-.7-.15-1.05-.25-1.75Zm10.69,4.76c-6.93,.02-10.4,.03-17.32,.06,.11,.7,.17,1.05,.28,1.75,6.9-.02,10.35-.03,17.26-.06-.09-.7-.13-1.05-.22-1.75Zm-6.73-9.56c-4.85,.02-7.27,.02-12.12,.04,.11,.7,.17,1.05,.28,1.75,4.83-.02,7.24-.02,12.07-.04-.09-.7-.14-1.05-.23-1.75Zm-11.53,19.2c-1.11,0-1.66,0-2.77,0,.12,.7,.19,1.05,.31,1.75,1.1,0,1.65,0,2.76,0-.12-.7-.18-1.05-.3-1.75Zm-.41-2.39c-1.11,0-1.67,0-2.78,0,.12,.7,.18,1.05,.31,1.75,1.11,0,1.66,0,2.77,0-.12-.7-.18-1.05-.3-1.75Zm.81,4.78c-1.1,0-1.65,0-2.75,0,.12,.7,.19,1.05,.31,1.75,1.1,0,1.64,0,2.74,0-.12-.7-.18-1.05-.3-1.75Zm-2.33,2.4c.12,.7,.19,1.05,.31,1.75,1.09,0,1.64,0,2.73,0-.12-.7-.18-1.05-.3-1.75-1.09,0-1.64,0-2.74,0Zm-2.43-31.12c-1.17,0-1.76,0-2.93,0,.12,.7,.18,1.05,.29,1.75,1.17,0,1.75,0,2.92,0-.11-.7-.17-1.05-.28-1.75Zm39.18,11.2c1.59,0,2.38,0,3.97-.01-.05-.7-.08-1.05-.13-1.75-1.59,0-2.39,0-3.98,.01,.06,.7,.09,1.05,.15,1.75Zm-15.43-19.95c-11.24,.04-16.87,.05-28.11,.09,.12,.76,.19,1.14,.31,1.9,11.2-.04,16.8-.05,28-.09-.08-.76-.12-1.14-.2-1.9Zm-20.08,15.28c1.5,0,2.24,0,3.74-.01-.1-.7-.16-1.05-.26-1.75-1.5,0-2.25,0-3.76,.01,.11,.7,.16,1.05,.27,1.75Zm83.78-9.2c-2.33,0-3.49,.01-5.82,.02,0,.7-.01,1.05-.02,1.75,2.32,0,3.48-.01,5.8-.02,.02-.7,.03-1.05,.04-1.75Zm-72.19,5.02c-4.9,.02-7.35,.02-12.24,.04,.11,.7,.16,1.05,.27,1.75,4.88-.02,7.32-.02,12.2-.04-.09-.7-.14-1.05-.23-1.75Zm66.94,1.54c0-.7,.01-1.05,.02-1.75-5.44,.02-8.17,.03-13.61,.04,.01,.7,.02,1.05,.03,1.75,5.42-.02,8.13-.03,13.56-.04Zm18.31-10.98c.04-.76,.06-1.14,.1-1.9-11.26,.04-16.88,.05-28.14,.09,0,.76,0,1.14,0,1.9,11.21-.04,16.81-.05,28.03-.09Zm-24.68,6.86c-1.73,0-2.59,0-4.32,.01,0,.7,.01,1.05,.02,1.75,1.72,0,2.58,0,4.3-.01,0-.7,0-1.05,0-1.75Zm-9.75,.03c.01,.7,.02,1.05,.04,1.75,1.66,0,2.49,0,4.16-.01,0-.7-.01-1.05-.02-1.75-1.67,0-2.5,0-4.17,.01Zm-50.05,21.07c10.08-.03,15.12-.05,25.2-.09-.06-.7-.09-1.05-.15-1.75-10.12,.03-15.18,.05-25.29,.09,.1,.7,.15,1.05,.24,1.75Zm6.4-12c-.08-.7-.12-1.05-.21-1.75-1.97,0-2.96,0-4.93,.02,.09,.7,.14,1.05,.23,1.75,1.96,0,2.94,0,4.91-.02Zm-20.15-11.26c.11,.7,.16,1.05,.27,1.75,2.55,0,3.82-.01,6.37-.02-.1-.7-.15-1.05-.25-1.75-2.56,0-3.83,.01-6.39,.02Zm33.54,11.22c-.06-.7-.09-1.05-.16-1.75-4.38,.01-6.57,.02-10.95,.04,.08,.7,.12,1.05,.2,1.75,4.36-.01,6.55-.02,10.91-.04Zm-23.98-9.49c7.58-.02,11.37-.04,18.94-.06-.07-.7-.1-1.05-.17-1.75-7.61,.02-11.41,.04-19.02,.06,.09,.7,.14,1.05,.24,1.75Zm25.97,11.88c-.06-.7-.09-1.05-.15-1.75-6.37,.02-9.55,.03-15.91,.05,.08,.7,.13,1.05,.21,1.75,6.34-.02,9.51-.03,15.85-.05Zm-25.64-9.49c-.1-.7-.14-1.05-.24-1.75-1.67,0-2.5,0-4.17,.01,.1,.7,.15,1.05,.25,1.75,1.66,0,2.49,0,4.15-.01Zm14.25-1.8c-5.29,.02-7.94,.03-13.23,.04,.09,.7,.14,1.05,.23,1.75,5.27-.02,7.91-.03,13.18-.04-.07-.7-.11-1.05-.18-1.75Zm-19.34,1.82c-.1-.7-.15-1.05-.26-1.75-1.67,0-2.5,0-4.17,.01,.11,.7,.16,1.05,.27,1.75,1.66,0,2.49,0,4.15-.01Zm55.15-8.71c-.02-.76-.03-1.14-.05-1.9-11.25,.04-16.87,.05-28.12,.09,.06,.76,.1,1.14,.16,1.9,11.2-.04,16.8-.05,28.01-.09Zm2.92,6.77c-1.67,0-2.5,0-4.17,.01,.02,.7,.03,1.05,.06,1.75,1.66,0,2.49,0,4.16-.01-.02-.7-.02-1.05-.04-1.75Zm2.03,2.39c-2.45,0-3.68,.01-6.13,.02,.02,.7,.03,1.05,.06,1.75,2.44,0,3.66-.01,6.1-.02-.01-.7-.02-1.05-.03-1.75Zm12.57-4.83c-7.54,.02-11.31,.04-18.85,.06,.02,.7,.03,1.05,.05,1.75,7.51-.02,11.27-.04,18.78-.06,0-.7,0-1.05,.02-1.75Zm-3.91,7.19c-5.89,.02-8.83,.03-14.71,.05,.02,.7,.04,1.05,.06,1.75,5.86-.02,8.79-.03,14.66-.05,0-.7,0-1.05,0-1.75Zm-17.14,4.84c-1.15,0-1.72,0-2.87,0,.03,.7,.05,1.05,.08,1.75,1.14,0,1.72,0,2.86,0-.03-.7-.04-1.05-.07-1.75Zm-.1-2.39c-1.16,0-1.73,0-2.89,0,.03,.7,.05,1.05,.08,1.75,1.15,0,1.73,0,2.88,0-.03-.7-.04-1.05-.07-1.75Zm-.09-2.39c-1.16,0-1.74,0-2.9,0,.03,.7,.05,1.05,.08,1.75,1.16,0,1.74,0,2.89,0-.03-.7-.04-1.05-.07-1.75Zm-2.57,7.19c.03,.7,.05,1.05,.08,1.75,1.14,0,1.71,0,2.85,0-.03-.7-.04-1.05-.07-1.75-1.14,0-1.72,0-2.86,0Zm23.73-3.11c0-.7,0-1.05,0-1.75-1.97,0-2.96,0-4.93,.02,0,.7,0,1.05,0,1.75,1.96,0,2.95,0,4.91-.02Zm-18.29,3.09c.03,.7,.04,1.05,.06,1.75,2.95,0,4.43-.01,7.38-.02-.01-.7-.02-1.05-.04-1.75-2.96,0-4.45,.01-7.41,.02Zm7.37-2.42c.01,.7,.02,1.05,.03,1.75,4.76-.02,7.15-.02,11.91-.04,0-.7,0-1.05,.01-1.75-4.78,.02-7.18,.02-11.96,.04Zm13.43-2.44c0,.7-.01,1.05-.02,1.75,4.37-.01,6.55-.02,10.92-.04,.02-.7,.04-1.05,.06-1.75-4.38,.01-6.58,.02-10.96,.04Zm1.44,2.39c0,.7-.01,1.05-.02,1.75,1.59,0,2.38,0,3.97-.01,.01-.7,.02-1.05,.04-1.75-1.59,0-2.39,0-3.99,.01Zm-5.33-4.77c0,.7,0,1.05,0,1.75,6.99-.02,10.48-.03,17.47-.06,.03-.7,.04-1.05,.07-1.75-7.01,.02-10.52,.03-17.53,.06Zm-19.86-2.33c-1.17,0-1.75,0-2.92,0,.03,.7,.05,1.05,.08,1.75,1.16,0,1.74,0,2.91,0-.03-.7-.04-1.05-.07-1.75Zm9.11,7.15c-2.49,0-3.74,.01-6.23,.02,.02,.7,.04,1.05,.06,1.75,2.48,0,3.73-.01,6.21-.02-.02-.7-.02-1.05-.04-1.75Zm4.13,2.38c0,.7,.01,1.05,.02,1.75,1.68,0,2.52,0,4.19-.01,0-.7,0-1.05,0-1.75-1.68,0-2.52,0-4.21,.01Zm1.68-4.79c-4.85,.02-7.28,.02-12.13,.04,.02,.7,.04,1.05,.06,1.75,4.83-.02,7.25-.02,12.08-.04,0-.7,0-1.05-.01-1.75Zm-46.24,14.52c.08,.7,.12,1.05,.2,1.75,7.54-.03,11.31-.04,18.84-.06-.05-.7-.08-1.05-.13-1.75-7.57,.03-11.35,.04-18.92,.06Zm-3.93,4.8c-1.23,0-1.84,0-3.07,.01,.09,.7,.14,1.05,.24,1.75,1.22,0,1.84,0,3.06-.01-.09-.7-.13-1.05-.22-1.75Zm-7.5-2.37c-3.68,.01-5.52,.02-9.2,.03,.11,.7,.17,1.05,.29,1.75,3.67-.01,5.5-.02,9.17-.03-.1-.7-.15-1.05-.25-1.75Zm2.71,6.53c1.52,0,2.28,0,3.8-.01-.09-.7-.14-1.05-.23-1.75-1.53,0-2.29,0-3.82,.01,.1,.7,.15,1.05,.25,1.75Zm-4.73-4.13c.1,.7,.16,1.05,.26,1.75,1.88,0,2.82,0,4.7-.02-.1-.7-.15-1.05-.24-1.75-1.89,0-2.83,0-4.72,.02Zm-2.79-5.42c1.59,0,2.39,0,3.98-.01-.1-.7-.15-1.05-.25-1.75-1.6,0-2.4,0-4,.01,.11,.7,.16,1.05,.27,1.75Zm23.72-4.23c-1.71,0-2.56,0-4.27,.01,.07,.7,.11,1.05,.19,1.75,1.7,0,2.55,0,4.26-.01-.07-.7-.1-1.05-.17-1.75Zm-22.9,9.65c-1.93,0-2.9,0-4.82,.02,.11,.7,.17,1.05,.29,1.75,1.92,0,2.88,0,4.81-.02-.11-.7-.16-1.05-.27-1.75Zm13.31-4.83c-7.57,.03-11.35,.04-18.91,.06,.11,.7,.17,1.05,.29,1.75,7.53-.03,11.3-.04,18.84-.06-.09-.7-.13-1.05-.21-1.75Zm-15.3-2.34c-1.6,0-2.4,0-4,.01,.11,.7,.17,1.05,.28,1.75,1.59,0,2.39,0,3.98-.01-.11-.7-.16-1.05-.27-1.75Zm-2.04,11.97c.12,.7,.17,1.05,.29,1.75,2.83,0,4.24-.01,7.07-.02-.11-.7-.16-1.05-.26-1.75-2.84,0-4.26,.01-7.1,.02Zm50.69-31.29c-1.17,0-1.76,0-2.93,0,.03,.7,.05,1.05,.08,1.75,1.17,0,1.75,0,2.92,0-.03-.7-.04-1.05-.07-1.75Zm-41.06,24.08c.1,.7,.15,1.05,.24,1.75,9.16-.03,13.74-.05,22.91-.08-.06-.7-.09-1.05-.16-1.75-9.2,.03-13.8,.05-23,.08Zm11.41-7.22c-1.71,0-2.56,0-4.27,.01,.08,.7,.13,1.05,.21,1.75,1.7,0,2.55,0,4.26-.01-.08-.7-.12-1.05-.19-1.75Zm29.56-19.25c-1.18,0-1.77,0-2.95,0,.03,.7,.04,1.05,.08,1.75,1.17,0,1.76,0,2.94,0-.03-.7-.04-1.05-.06-1.75Zm-43.44,14.5c.1,.7,.14,1.05,.24,1.75,11.46-.04,22.92-.08,34.38-.11-.04-.7-.07-1.05-.11-1.75-11.51,.04-23.01,.08-34.52,.11Zm9.32,16.73c.09,.7,.13,1.05,.22,1.75,2.53,0,3.8-.01,6.34-.02-.08-.7-.12-1.05-.2-1.75-2.54,0-3.82,.01-6.36,.02Zm-16.87,.06c.12,.7,.17,1.05,.29,1.75,3.47-.01,5.21-.02,8.68-.03-.1-.7-.15-1.05-.26-1.75-3.49,.01-5.23,.02-8.71,.03Zm10.24,2.36c.1,.7,.15,1.05,.25,1.75,2.76,0,4.15-.01,6.91-.02-.09-.7-.14-1.05-.22-1.75-2.77,0-4.16,.01-6.94,.02Z"/>
                <path class="cls-2" d="M175.24,70.23c-1.06,0-1.6,0-2.66,0,.12,.7,.18,1.05,.31,1.75,1.06,0,1.59,0,2.65,0-.12-.7-.18-1.05-.3-1.75Zm2.47,14.35c-1.03,0-1.54,0-2.57,0,.13,.7,.19,1.05,.32,1.75,1.02,0,1.54,0,2.56,0-.12-.7-.18-1.05-.31-1.75Zm1.26,7.19c-1.01,0-1.52,0-2.53,0,.13,.7,.19,1.05,.32,1.75,1.01,0,1.51,0,2.52,0-.12-.7-.19-1.05-.31-1.75Zm-1.68-9.58c-1.03,0-1.55,0-2.59,0,.13,.7,.19,1.05,.32,1.75,1.03,0,1.55,0,2.58,0-.12-.7-.18-1.05-.31-1.75Zm-.83-4.78c-1.05,0-1.57,0-2.62,0,.13,.7,.19,1.05,.31,1.75,1.04,0,1.56,0,2.61,0-.12-.7-.18-1.05-.3-1.75Zm-.41-2.39c-1.05,0-1.58,0-2.63,0,.12,.7,.19,1.05,.31,1.75,1.05,0,1.57,0,2.62,0-.12-.7-.18-1.05-.3-1.75Zm.82,4.78h-2.6c.13,.71,.19,1.06,.31,1.76,1.04,0,1.55,0,2.59,0-.12-.7-.18-1.05-.3-1.75Zm2.52,14.37c-1.01,0-1.51,0-2.51,0,.13,.7,.19,1.05,.32,1.75,1,0,1.5,0,2.5,0-.13-.7-.19-1.05-.31-1.75Zm-.85-4.78c-1.02,0-1.53,0-2.54,0,.13,.7,.19,1.05,.32,1.75,1.01,0,1.52,0,2.53,0-.12-.7-.19-1.05-.31-1.75Zm15.41-7.25c-5.73,.02-8.6,.03-14.33,.05,.12,.7,.18,1.05,.3,1.75,5.71-.02,8.56-.03,14.27-.05-.09-.7-.14-1.05-.24-1.75Zm-7.26,2.42c-2.67,0-4,.01-6.67,.02,.12,.7,.18,1.05,.3,1.75,2.66,0,3.98-.01,6.64-.02-.11-.7-.16-1.05-.27-1.75Zm9.73,4.76c-6.24,.02-9.35,.03-15.58,.06,.12,.7,.18,1.05,.3,1.75,6.21-.02,9.31-.03,15.52-.06-.09-.7-.14-1.05-.23-1.75Zm-6.28-9.56c-4.37,.02-6.56,.02-10.92,.04,.12,.7,.18,1.05,.29,1.75,4.35-.02,6.53-.02,10.88-.04-.1-.7-.15-1.05-.25-1.75Zm-9.89,19.2c-.99,0-1.49,0-2.48,0,.13,.7,.2,1.05,.33,1.75,.99,0,1.48,0,2.47,0-.13-.7-.19-1.05-.32-1.75Zm-.43-2.39c-1,0-1.5,0-2.5,0,.13,.7,.19,1.05,.32,1.75,.99,0,1.49,0,2.49,0-.13-.7-.19-1.05-.31-1.75Zm.86,4.78c-.99,0-1.48,0-2.47,0,.13,.7,.2,1.05,.33,1.75,.98,0,1.47,0,2.46,0-.13-.7-.19-1.05-.32-1.75Zm-2.02,2.4c.13,.7,.2,1.05,.33,1.75,.98,0,1.47,0,2.44,0-.13-.7-.19-1.05-.32-1.75-.98,0-1.47,0-2.45,0Zm-3.02-31.12c-1.06,0-1.59,0-2.65,0,.12,.7,.19,1.05,.31,1.75,1.05,0,1.58,0,2.64,0-.12-.7-.18-1.05-.3-1.75Zm35.58,11.2c1.43,0,2.14,0,3.57-.01-.06-.7-.09-1.05-.15-1.75-1.44,0-2.15,0-3.59,.01,.07,.7,.1,1.05,.16,1.75Zm-14.31-19.95c-10.18,.04-15.26,.05-25.43,.09,.13,.76,.2,1.14,.33,1.9,10.13-.04,15.19-.05,25.32-.09-.09-.76-.13-1.14-.22-1.9Zm-17.8,15.28c1.35,0,2.02,0,3.37-.01-.11-.7-.17-1.05-.28-1.75-1.36,0-2.03,0-3.39,.01,.12,.7,.18,1.05,.29,1.75Zm75.49-9.2c-2.1,0-3.16,.01-5.26,.02,0,.7,0,1.05,0,1.75,2.1,0,3.14-.01,5.24-.02,.01-.7,.02-1.05,.03-1.75Zm-65.13,5.02c-4.42,.02-6.63,.02-11.05,.04,.12,.7,.17,1.05,.29,1.75,4.4-.02,6.6-.02,11-.04-.1-.7-.15-1.05-.25-1.75Zm60.44,1.54c0-.7,0-1.05,0-1.75-4.91,.02-7.37,.03-12.29,.04,.02,.7,.03,1.05,.05,1.75,4.89-.02,7.34-.03,12.23-.04Zm16.47-10.98c.03-.76,.05-1.14,.08-1.9-10.19,.04-15.28,.05-25.46,.09,.01,.76,.02,1.14,.03,1.9,10.14-.04,15.21-.05,25.35-.09Zm-22.25,6.86c-1.56,0-2.34,0-3.9,.01,.01,.7,.02,1.05,.03,1.75,1.55,0,2.33,0,3.88-.01,0-.7-.01-1.05-.02-1.75Zm-8.8,.03c.02,.7,.03,1.05,.05,1.75,1.5,0,2.25,0,3.75-.01-.02-.7-.02-1.05-.04-1.75-1.51,0-2.26,0-3.77,.01Zm-44.72,21.07c9.06-.03,13.58-.05,22.64-.09-.07-.7-.1-1.05-.16-1.75-9.1,.03-13.65,.05-22.74,.09,.1,.7,.16,1.05,.26,1.75Zm5.48-12c-.09-.7-.13-1.05-.22-1.75-1.78,0-2.66,0-4.44,.02,.1,.7,.15,1.05,.24,1.75,1.77,0,2.65,0,4.42-.02Zm-18.45-11.26c.12,.7,.17,1.05,.29,1.75,2.3,0,3.45-.01,5.75-.02-.11-.7-.16-1.05-.26-1.75-2.31,0-3.46,.01-5.77,.02Zm30.52,11.22c-.07-.7-.1-1.05-.17-1.75-3.95,.01-5.93,.02-9.88,.04,.09,.7,.13,1.05,.21,1.75,3.93-.01,5.9-.02,9.83-.04Zm-21.84-9.49c6.84-.02,10.27-.04,17.11-.06-.07-.7-.11-1.05-.18-1.75-6.87,.02-10.31,.04-17.18,.06,.1,.7,.15,1.05,.25,1.75Zm23.67,11.88c-.07-.7-.1-1.05-.17-1.75-5.74,.02-8.6,.03-14.34,.05,.09,.7,.14,1.05,.23,1.75,5.71-.02,8.57-.03,14.28-.05Zm-23.32-9.49c-.1-.7-.15-1.05-.26-1.75-1.51,0-2.26,0-3.76,.01,.11,.7,.16,1.05,.27,1.75,1.5,0,2.25,0,3.75-.01Zm12.83-1.8c-4.78,.02-7.17,.03-11.95,.04,.1,.7,.15,1.05,.25,1.75,4.76-.02,7.14-.03,11.9-.04-.08-.7-.12-1.05-.2-1.75Zm-17.43,1.82c-.11-.7-.16-1.05-.27-1.75-1.51,0-2.26,0-3.76,.01,.12,.7,.17,1.05,.29,1.75,1.5,0,2.25,0,3.75-.01Zm49.68-8.71c-.03-.76-.04-1.14-.07-1.9-10.18,.04-15.27,.05-25.45,.09,.07,.76,.11,1.14,.18,1.9,10.13-.04,15.2-.05,25.34-.09Zm2.72,6.77c-1.51,0-2.26,0-3.77,.01,.03,.7,.04,1.05,.07,1.75,1.5,0,2.25,0,3.75-.01-.02-.7-.03-1.05-.06-1.75Zm1.86,2.39c-2.21,0-3.32,.01-5.53,.02,.03,.7,.04,1.05,.07,1.75,2.2,0,3.3-.01,5.51-.02-.02-.7-.03-1.05-.05-1.75Zm11.3-4.83c-6.81,.02-10.22,.04-17.03,.06,.03,.7,.04,1.05,.07,1.75,6.78-.02,10.18-.04,16.96-.06,0-.7,0-1.05,0-1.75Zm-3.46,7.19c-5.31,.02-7.96,.03-13.27,.05,.03,.7,.05,1.05,.08,1.75,5.29-.02,7.93-.03,13.22-.05,0-.7-.01-1.05-.02-1.75Zm-15.4,4.84c-1.04,0-1.55,0-2.59,0,.04,.7,.06,1.05,.1,1.75,1.03,0,1.55,0,2.58,0-.04-.7-.05-1.05-.09-1.75Zm-.12-2.39c-1.04,0-1.56,0-2.6,0,.04,.7,.06,1.05,.1,1.75,1.04,0,1.56,0,2.59,0-.04-.7-.05-1.05-.09-1.75Zm-.12-2.39c-1.05,0-1.57,0-2.62,0,.04,.7,.06,1.05,.1,1.75,1.04,0,1.56,0,2.61,0-.03-.7-.05-1.05-.09-1.75Zm-2.22,7.19c.04,.7,.06,1.05,.1,1.75h2.56c-.04-.71-.05-1.06-.09-1.76-1.03,0-1.55,0-2.57,0Zm21.34-3.11c0-.7,0-1.05,0-1.75-1.78,0-2.67,0-4.45,.02,.01,.7,.02,1.05,.03,1.75,1.77,0,2.66,0,4.43-.02Zm-16.45,3.09c.03,.7,.05,1.05,.08,1.75,2.66,0,3.99-.01,6.65-.02-.02-.7-.03-1.05-.05-1.75-2.67,0-4.01,.01-6.68,.02Zm6.61-2.42c.02,.7,.03,1.05,.05,1.75,4.29-.02,6.44-.02,10.73-.04,0-.7,0-1.05,0-1.75-4.31,.02-6.47,.02-10.78,.04Zm12.08-2.44c0,.7,0,1.05,0,1.75,3.94-.01,5.91-.02,9.84-.04,.02-.7,.03-1.05,.04-1.75-3.95,.01-5.93,.02-9.88,.04Zm1.32,2.39c0,.7,0,1.05,0,1.75,1.43,0,2.15,0,3.58-.01,0-.7,.01-1.05,.02-1.75-1.44,0-2.15,0-3.59,.01Zm-4.85-4.77c0,.7,0,1.05,.01,1.75,6.3-.02,9.45-.03,15.75-.06,.02-.7,.03-1.05,.05-1.75-6.33,.02-9.49,.03-15.82,.06Zm-17.95-2.33h-2.63c.04,.71,.06,1.06,.1,1.76,1.05,0,1.57,0,2.62,0-.03-.7-.05-1.05-.08-1.75Zm8.3,7.15c-2.25,0-3.37,.01-5.62,.02,.03,.7,.05,1.05,.08,1.75,2.24,0,3.36-.01,5.59-.02-.02-.7-.03-1.05-.06-1.75Zm3.75,2.38c.02,.7,.02,1.05,.04,1.75,1.51,0,2.26,0,3.77-.01-.01-.7-.02-1.05-.03-1.75-1.52,0-2.27,0-3.79,.01Zm1.46-4.79c-4.37,.02-6.56,.02-10.93,.04,.03,.7,.05,1.05,.08,1.75,4.36-.02,6.53-.02,10.89-.04-.01-.7-.02-1.05-.03-1.75Zm-41.39,14.52c.09,.7,.13,1.05,.22,1.75,6.77-.03,10.15-.04,16.93-.06-.06-.7-.09-1.05-.15-1.75-6.8,.03-10.2,.04-17,.06Zm-3.42,4.8c-1.1,0-1.65,0-2.76,.01,.1,.7,.15,1.05,.25,1.75,1.1,0,1.65,0,2.74-.01-.1-.7-.15-1.05-.24-1.75Zm-6.79-2.37c-3.31,.01-4.96,.02-8.26,.03,.12,.7,.18,1.05,.3,1.75,3.29-.01,4.94-.02,8.23-.03-.11-.7-.16-1.05-.27-1.75Zm2.59,6.53c1.36,0,2.04,0,3.41-.01-.1-.7-.15-1.05-.25-1.75-1.37,0-2.05,0-3.42,.01,.11,.7,.16,1.05,.26,1.75Zm-4.35-4.13c.11,.7,.17,1.05,.28,1.75,1.69,0,2.53,0,4.22-.02-.1-.7-.16-1.05-.26-1.75-1.7,0-2.54,0-4.24,.02Zm-2.65-5.42c1.43,0,2.15,0,3.58-.01-.11-.7-.16-1.05-.27-1.75-1.44,0-2.16,0-3.6,.01,.11,.7,.17,1.05,.28,1.75Zm21.24-4.23c-1.54,0-2.31,0-3.84,.01,.08,.7,.12,1.05,.2,1.75,1.53,0,2.3,0,3.83-.01-.08-.7-.11-1.05-.19-1.75Zm-20.36,9.65c-1.73,0-2.6,0-4.33,.02,.12,.7,.18,1.05,.31,1.75,1.72,0,2.59,0,4.31-.02-.11-.7-.17-1.05-.29-1.75Zm11.83-4.83c-6.8,.03-10.2,.04-16.99,.06,.12,.7,.18,1.05,.3,1.75,6.77-.03,10.15-.04,16.92-.06-.09-.7-.14-1.05-.23-1.75Zm-13.81-2.34c-1.44,0-2.16,0-3.6,.01,.12,.7,.18,1.05,.3,1.75,1.43,0,2.15,0,3.58-.01-.11-.7-.17-1.05-.29-1.75Zm-1.52,11.97c.12,.7,.19,1.05,.31,1.75,2.53,0,3.8-.01,6.33-.02-.11-.7-.17-1.05-.28-1.75-2.54,0-3.82,.01-6.36,.02Zm44.99-31.29c-1.06,0-1.59,0-2.65,0,.04,.7,.06,1.05,.09,1.75,1.06,0,1.58,0,2.64,0-.03-.7-.05-1.05-.08-1.75Zm-36.53,24.08c.1,.7,.16,1.05,.26,1.75,8.22-.03,12.34-.05,20.56-.08-.07-.7-.1-1.05-.17-1.75-8.26,.03-12.39,.05-20.65,.08Zm10.09-7.22c-1.54,0-2.31,0-3.84,.01,.09,.7,.14,1.05,.23,1.75,1.53,0,2.3,0,3.83-.01-.08-.7-.13-1.05-.21-1.75Zm26.33-19.25c-1.07,0-1.6,0-2.66,0,.04,.7,.06,1.05,.09,1.75,1.06,0,1.59,0,2.65,0-.03-.7-.05-1.05-.08-1.75Zm-38.93,14.5c.1,.7,.15,1.05,.26,1.75,10.32-.04,20.64-.08,30.96-.11-.05-.7-.08-1.05-.13-1.75-10.36,.04-20.72,.08-31.09,.11Zm8.76,16.73c.1,.7,.14,1.05,.24,1.75,2.27,0,3.41-.01,5.68-.02-.09-.7-.13-1.05-.22-1.75-2.28,0-3.42,.01-5.7,.02Zm-15.13,.06c.12,.7,.18,1.05,.31,1.75,3.11-.01,4.67-.02,7.78-.03-.11-.7-.16-1.05-.27-1.75-3.13,.01-4.69,.02-7.82,.03Zm9.24,2.36c.11,.7,.16,1.05,.27,1.75,2.48,0,3.71-.01,6.19-.02-.1-.7-.15-1.05-.24-1.75-2.49,0-3.73,.01-6.22,.02Z"/>
                <path class="cls-5" d="M301.81,25.35c-1.18,0-1.77,0-2.94,0-.09,.7-.13,1.05-.21,1.75,1.17,0,1.76,0,2.93,0,.09-.7,.13-1.05,.22-1.75Zm-1.8,14.35c-1.14,0-1.71,0-2.85,0-.08,.7-.12,1.05-.2,1.75,1.14,0,1.71,0,2.84,0,.09-.7,.13-1.05,.22-1.75Zm-.88,7.19c-1.12,0-1.69,0-2.81,0-.08,.7-.12,1.05-.2,1.75,1.12,0,1.68,0,2.8,0,.08-.7,.13-1.05,.21-1.75Zm1.17-9.58c-1.15,0-1.72,0-2.87,0-.08,.7-.12,1.05-.21,1.75,1.14,0,1.71,0,2.86,0,.09-.7,.13-1.05,.22-1.75Zm.6-4.78c-1.16,0-1.74,0-2.9,0-.08,.7-.13,1.05-.21,1.75,1.15,0,1.73,0,2.89,0,.09-.7,.13-1.05,.22-1.75Zm.3-2.39c-1.17,0-1.75,0-2.91,0-.08,.7-.13,1.05-.21,1.75,1.16,0,1.74,0,2.9,0,.09-.7,.13-1.05,.22-1.75Zm-.6,4.78c-1.15,0-1.73,0-2.88,0-.08,.7-.12,1.05-.21,1.75,1.15,0,1.72,0,2.87,0,.09-.7,.13-1.05,.22-1.75Zm-1.76,14.36c-1.12,0-1.68,0-2.79,0-.08,.7-.12,1.05-.2,1.75,1.11,0,1.67,0,2.78,0,.08-.7,.13-1.05,.21-1.75Zm.58-4.78c-1.13,0-1.69,0-2.82,0-.08,.7-.12,1.05-.2,1.75,1.12,0,1.69,0,2.81,0,.08-.7,.13-1.05,.21-1.75Zm19.36-7.25c-6.36,.02-9.54,.03-15.89,.05-.09,.7-.14,1.05-.23,1.75,6.33-.02,9.5-.03,15.83-.05,.11-.7,.17-1.05,.29-1.75Zm-8.8,2.42c-2.96,0-4.44,.01-7.4,.02-.09,.7-.14,1.05-.23,1.75,2.95,0,4.42-.01,7.37-.02,.1-.7,.15-1.05,.25-1.75Zm9.29,4.76c-6.92,.02-10.38,.03-17.31,.06-.09,.7-.13,1.05-.22,1.75,6.9-.02,10.34-.03,17.24-.06,.12-.7,.17-1.05,.29-1.75Zm-3.97-9.56c-4.84,.02-7.26,.02-12.1,.04-.09,.7-.14,1.05-.23,1.75,4.82-.02,7.23-.02,12.06-.04,.11-.7,.16-1.05,.27-1.75Zm-17.03,19.2c-1.11,0-1.66,0-2.76,0-.08,.7-.12,1.05-.2,1.75,1.1,0,1.65,0,2.75,0,.08-.7,.12-1.05,.21-1.75Zm.28-2.39c-1.11,0-1.67,0-2.78,0-.08,.7-.12,1.05-.2,1.75,1.11,0,1.66,0,2.77,0,.08-.7,.12-1.05,.21-1.75Zm-.57,4.78c-1.1,0-1.65,0-2.75,0-.08,.7-.12,1.05-.19,1.75,1.1,0,1.64,0,2.74,0,.08-.7,.12-1.05,.2-1.75Zm-3.01,2.4c-.08,.7-.12,1.05-.19,1.75,1.09,0,1.63,0,2.72,0,.08-.7,.12-1.05,.2-1.75-1.09,0-1.64,0-2.73,0Zm6.53-31.12c-1.17,0-1.76,0-2.93,0-.08,.7-.13,1.05-.21,1.75,1.17,0,1.75,0,2.92,0,.09-.7,.13-1.05,.22-1.75Zm35.88,11.2c1.59,0,2.38,0,3.96-.01,.15-.7,.22-1.05,.37-1.75-1.59,0-2.39,0-3.98,.01-.14,.7-.22,1.05-.36,1.75Zm-9.66-19.95c-11.23,.04-16.85,.05-28.08,.09-.09,.76-.14,1.14-.23,1.9,11.18-.04,16.78-.05,27.97-.09,.14-.76,.21-1.14,.35-1.9Zm-24.44,15.28c1.5,0,2.24,0,3.74-.01,.1-.7,.15-1.05,.24-1.75-1.5,0-2.25,0-3.75,.01-.09,.7-.14,1.05-.23,1.75Zm86.27-9.2c-2.33,0-3.49,.01-5.82,.02-.21,.7-.32,1.05-.53,1.75,2.32,0,3.48-.01,5.79-.02,.22-.7,.33-1.05,.55-1.75Zm-73.49,5.02c-4.89,.02-7.34,.02-12.23,.04-.09,.7-.14,1.05-.23,1.75,4.87-.02,7.31-.02,12.18-.04,.11-.7,.17-1.05,.28-1.75Zm66.36,1.54c.21-.7,.32-1.05,.53-1.75-5.44,.02-8.16,.03-13.6,.04-.19,.7-.29,1.05-.48,1.75,5.42-.02,8.13-.03,13.54-.04Zm21.43-10.98c.26-.76,.39-1.14,.65-1.9-11.24,.04-16.87,.05-28.11,.09-.22,.76-.32,1.14-.54,1.9,11.2-.04,16.8-.05,28-.09Zm-26.6,6.86c-1.72,0-2.59,0-4.31,.01-.2,.7-.29,1.05-.49,1.75,1.72,0,2.58,0,4.3-.01,.2-.7,.3-1.05,.5-1.75Zm-9.74,.03c-.19,.7-.28,1.05-.47,1.75,1.66,0,2.49,0,4.15-.01,.19-.7,.29-1.05,.48-1.75-1.67,0-2.5,0-4.17,.01Zm-56.01,21.07c10.07-.03,15.1-.05,25.17-.09,.14-.7,.21-1.05,.36-1.75-10.11,.03-15.16,.05-25.27,.09-.1,.7-.16,1.05-.26,1.75Zm9.83-12c.12-.7,.18-1.05,.3-1.75-1.97,0-2.95,0-4.92,.02-.11,.7-.17,1.05-.28,1.75,1.96,0,2.94,0,4.9-.02Zm-16.87-11.26c-.09,.7-.14,1.05-.23,1.75,2.54,0,3.82-.01,6.36-.02,.1-.7,.15-1.05,.26-1.75-2.55,0-3.83,.01-6.38,.02Zm30.25,11.22c.14-.7,.21-1.05,.35-1.75-4.38,.01-6.57,.02-10.94,.04-.12,.7-.18,1.05-.31,1.75,4.36-.01,6.54-.02,10.9-.04Zm-21.2-9.49c7.57-.02,11.35-.04,18.93-.06,.14-.7,.2-1.05,.34-1.75-7.6,.02-11.4,.04-19,.06-.11,.7-.16,1.05-.27,1.75Zm22.5,11.88c.14-.7,.21-1.05,.35-1.75-6.36,.02-9.54,.03-15.89,.05-.12,.7-.18,1.05-.29,1.75,6.33-.02,9.5-.03,15.83-.05Zm-22.86-9.49c.11-.7,.16-1.05,.27-1.75-1.67,0-2.5,0-4.16,.01-.1,.7-.15,1.05-.25,1.75,1.66,0,2.49,0,4.15-.01Zm14.74-1.8c-5.29,.02-7.93,.03-13.22,.04-.11,.7-.16,1.05-.27,1.75,5.27-.02,7.9-.03,13.17-.04,.13-.7,.19-1.05,.32-1.75Zm-19.83,1.82c.1-.7,.15-1.05,.25-1.75-1.67,0-2.5,0-4.16,.01-.09,.7-.14,1.05-.23,1.75,1.66,0,2.49,0,4.15-.01Zm57.54-8.71c.2-.76,.3-1.14,.5-1.9-11.24,.04-16.86,.05-28.09,.09-.15,.76-.23,1.14-.39,1.9,11.19-.04,16.79-.05,27.98-.09Zm.97,6.77c-1.67,0-2.5,0-4.17,.01-.18,.7-.27,1.05-.45,1.75,1.66,0,2.49,0,4.15-.01,.19-.7,.28-1.05,.46-1.75Zm1.34,2.39c-2.45,0-3.67,.01-6.12,.02-.18,.7-.27,1.05-.45,1.75,2.44,0,3.66-.01,6.1-.02,.19-.7,.28-1.05,.47-1.75Zm13.93-4.83c-7.53,.02-11.3,.04-18.83,.06-.18,.7-.27,1.05-.45,1.75,7.5-.02,11.25-.04,18.76-.06,.21-.7,.31-1.05,.52-1.75Zm-5.97,7.19c-5.88,.02-8.82,.03-14.7,.05-.18,.7-.27,1.05-.45,1.75,5.86-.02,8.78-.03,14.64-.05,.2-.7,.3-1.05,.5-1.75Zm-18.5,4.84c-1.15,0-1.72,0-2.87,0-.17,.7-.25,1.05-.42,1.75,1.14,0,1.72,0,2.86,0,.17-.7,.26-1.05,.43-1.75Zm.59-2.39c-1.15,0-1.73,0-2.89,0-.17,.7-.25,1.05-.42,1.75,1.15,0,1.72,0,2.87,0,.17-.7,.26-1.05,.43-1.75Zm.59-2.39c-1.16,0-1.74,0-2.9,0-.17,.7-.26,1.05-.43,1.75,1.16,0,1.73,0,2.89,0,.17-.7,.26-1.05,.44-1.75Zm-4.63,7.19c-.17,.7-.25,1.05-.42,1.75,1.14,0,1.71,0,2.84,0,.17-.7,.26-1.05,.43-1.75-1.14,0-1.71,0-2.86,0Zm24.57-3.11c.21-.7,.31-1.05,.51-1.75-1.97,0-2.96,0-4.93,.02-.2,.7-.3,1.05-.49,1.75,1.96,0,2.94,0,4.91-.02Zm-19.14,3.09c-.18,.7-.27,1.05-.44,1.75,2.95,0,4.43-.01,7.38-.02,.19-.7,.28-1.05,.47-1.75-2.96,0-4.44,.01-7.4,.02Zm8.05-2.42c-.19,.7-.28,1.05-.47,1.75,4.76-.02,7.14-.02,11.9-.04,.21-.7,.31-1.05,.52-1.75-4.78,.02-7.17,.02-11.95,.04Zm14.1-2.44c-.21,.7-.31,1.05-.52,1.75,4.36-.01,6.54-.02,10.91-.04,.23-.7,.34-1.05,.56-1.75-4.38,.01-6.57,.02-10.95,.04Zm.75,2.39c-.21,.7-.32,1.05-.53,1.75,1.59,0,2.38,0,3.97-.01,.22-.7,.33-1.05,.54-1.75-1.59,0-2.39,0-3.98,.01Zm-3.95-4.77c-.2,.7-.31,1.05-.51,1.75,6.98-.02,10.47-.03,17.45-.06,.23-.7,.34-1.05,.58-1.75-7.01,.02-10.51,.03-17.52,.06Zm-19.15-2.33c-1.17,0-1.75,0-2.91,0-.17,.7-.26,1.05-.43,1.75,1.16,0,1.74,0,2.9,0,.17-.7,.26-1.05,.44-1.75Zm7.03,7.15c-2.49,0-3.74,.01-6.23,.02-.18,.7-.27,1.05-.44,1.75,2.48,0,3.72-.01,6.2-.02,.19-.7,.28-1.05,.47-1.75Zm3.44,2.38c-.19,.7-.29,1.05-.48,1.75,1.67,0,2.51,0,4.19-.01,.2-.7,.3-1.05,.5-1.75-1.68,0-2.52,0-4.2,.01Zm3.06-4.79c-4.85,.02-7.27,.02-12.11,.04-.18,.7-.27,1.05-.44,1.75,4.83-.02,7.24-.02,12.07-.04,.2-.7,.29-1.05,.49-1.75Zm-50.32,14.52c-.12,.7-.18,1.05-.3,1.75,7.53-.03,11.29-.04,18.82-.06,.15-.7,.22-1.05,.37-1.75-7.56,.03-11.34,.04-18.9,.06Zm-5.3,4.8c-1.23,0-1.84,0-3.07,.01-.11,.7-.16,1.05-.27,1.75,1.22,0,1.83,0,3.06-.01,.11-.7,.17-1.05,.28-1.75Zm-6.81-2.37c-3.68,.01-5.52,.02-9.19,.03-.09,.7-.13,1.05-.22,1.75,3.66-.01,5.49-.02,9.16-.03,.1-.7,.15-1.05,.25-1.75Zm.83,6.53c1.52,0,2.28,0,3.8-.01,.11-.7,.16-1.05,.27-1.75-1.52,0-2.29,0-3.81,.01-.1,.7-.15,1.05-.26,1.75Zm-3.53-4.13c-.1,.7-.15,1.05-.24,1.75,1.88,0,2.82,0,4.7-.02,.1-.7,.16-1.05,.26-1.75-1.89,0-2.83,0-4.72,.02Zm-1.23-5.42c1.59,0,2.39,0,3.98-.01,.1-.7,.15-1.05,.26-1.75-1.6,0-2.4,0-4,.01-.1,.7-.14,1.05-.24,1.75Zm24.89-4.23c-1.71,0-2.56,0-4.27,.01-.13,.7-.19,1.05-.32,1.75,1.7,0,2.55,0,4.25-.01,.13-.7,.2-1.05,.33-1.75Zm-25.62,9.65c-1.93,0-2.89,0-4.82,.02-.09,.7-.13,1.05-.22,1.75,1.92,0,2.88,0,4.8-.02,.09-.7,.14-1.05,.24-1.75Zm14.67-4.83c-7.56,.03-11.34,.04-18.89,.06-.09,.7-.13,1.05-.22,1.75,7.53-.03,11.29-.04,18.82-.06,.12-.7,.18-1.05,.29-1.75Zm-14.6-2.34c-1.6,0-2.4,0-3.99,.01-.09,.7-.13,1.05-.22,1.75,1.59,0,2.39,0,3.98-.01,.09-.7,.14-1.05,.24-1.75Zm-5.48,11.97c-.09,.7-.13,1.05-.21,1.75,2.82,0,4.24-.01,7.06-.02,.1-.7,.14-1.05,.24-1.75-2.84,0-4.25,.01-7.09,.02Zm59.59-31.29c-1.17,0-1.76,0-2.93,0-.17,.7-.26,1.05-.43,1.75,1.17,0,1.75,0,2.92,0,.18-.7,.26-1.05,.44-1.75Zm-47.9,24.08c-.1,.7-.16,1.05-.26,1.75,9.15-.03,13.73-.05,22.88-.08,.14-.7,.21-1.05,.35-1.75-9.19,.03-13.78,.05-22.97,.08Zm13.46-7.22c-1.71,0-2.56,0-4.27,.01-.12,.7-.18,1.05-.3,1.75,1.7,0,2.55,0,4.25-.01,.12-.7,.19-1.05,.31-1.75Zm35.04-19.25c-1.18,0-1.77,0-2.94,0-.17,.7-.26,1.05-.43,1.75,1.17,0,1.76,0,2.93,0,.18-.7,.26-1.05,.44-1.75Zm-47.53,14.5c-.11,.7-.16,1.05-.26,1.75,11.45-.04,22.9-.08,34.35-.11,.16-.7,.24-1.05,.4-1.75-11.49,.04-22.99,.08-34.48,.11Zm4.49,16.73c-.11,.7-.17,1.05-.28,1.75,2.53,0,3.8-.01,6.33-.02,.12-.7,.18-1.05,.31-1.75-2.54,0-3.81,.01-6.35,.02Zm-16.85,.06c-.09,.7-.13,1.05-.21,1.75,3.47-.01,5.2-.02,8.67-.03,.1-.7,.15-1.05,.25-1.75-3.48,.01-5.22,.02-8.7,.03Zm9.54,2.36c-.1,.7-.15,1.05-.25,1.75,2.76,0,4.14-.01,6.9-.02,.11-.7,.17-1.05,.28-1.75-2.77,0-4.16,.01-6.93,.02Z"/>
              </g>
            </g>
          </g>
        </g>
        <g>
          <g class="cls-6">
            <rect class="cls-15" y="57.65" width="170.22" height="104.14"/>
            <rect class="cls-1" x="7.44" y="69.09" width="155.34" height="81.32"/>
            <rect class="cls-8" x="7.44" y="69.09" width="155.34" height="9.56"/>
            <rect class="cls-8" x="11.8" y="84.33" width="13.25" height="13.25"/>
            <rect class="cls-8" x="30.08" y="84.33" width="13.25" height="13.25"/>
            <rect class="cls-8" x="48.36" y="84.33" width="13.25" height="13.25"/>
            <rect class="cls-8" x="11.8" y="103.41" width="49.81" height="40.12"/>
            <rect class="cls-9" x="69.37" y="84.33" width="88.59" height="59.2"/>
            <path class="cls-10" d="M75.23,134.41l7.61-18.03c.57-1.36,2.42-1.54,3.25-.32l10.62,15.71c.93,1.37,3.05,.94,3.36-.69l7.29-37.61c.35-1.82,2.86-2.06,3.55-.34l9.38,23.45c.61,1.51,2.73,1.57,3.41,.09l7.63-16.6c.69-1.49,2.83-1.42,3.42,.11l8.95,23.33c.67,1.73,3.18,1.53,3.55-.29l5.07-24.9"/>
            <line class="cls-9" x1="69.37" y1="94.1" x2="157.96" y2="94.1"/>
            <line class="cls-9" x1="69.37" y1="104.18" x2="157.96" y2="104.18"/>
            <line class="cls-9" x1="69.37" y1="114.25" x2="157.96" y2="114.25"/>
            <line class="cls-9" x1="69.37" y1="124.33" x2="157.96" y2="124.33"/>
            <line class="cls-9" x1="69.37" y1="134.41" x2="157.96" y2="134.41"/>
          </g>
          <g class="cls-6">
            <rect class="cls-17" x="331.77" y="73.95" width="159.26" height="224.76"/>
            <g>
              <rect class="cls-8" x="353.07" y="88.37" width="116.65" height="16.22"/>
              <rect class="cls-8" x="353.07" y="276.18" width="116.65" height="8.11"/>
              <rect class="cls-8" x="353.07" y="120.82" width="32.45" height="17.77"/>
              <rect class="cls-8" x="394.78" y="120.82" width="32.45" height="17.77"/>
              <rect class="cls-8" x="436.49" y="120.82" width="32.45" height="17.77"/>
              <rect class="cls-8" x="353.07" y="147.82" width="115.87" height="4.18"/>
              <rect class="cls-8" x="353.07" y="157.13" width="103.82" height="4.18"/>
              <rect class="cls-8" x="353.07" y="166.44" width="53.2" height="4.18"/>
              <rect class="cls-8" x="353.07" y="175.75" width="87.65" height="4.18"/>
              <rect class="cls-8" x="353.07" y="185.06" width="69.19" height="4.18"/>
              <rect class="cls-8" x="353.07" y="194.37" width="99.01" height="4.18"/>
              <rect class="cls-8" x="353.07" y="203.69" width="110.94" height="4.18"/>
              <rect class="cls-8" x="353.07" y="213" width="53.2" height="4.18"/>
              <rect class="cls-8" x="353.07" y="226.88" width="3.41" height="3.47"/>
              <rect class="cls-8" x="359.03" y="226.88" width="31.63" height="3.47"/>
              <rect class="cls-8" x="392.83" y="226.88" width="13.17" height="3.47"/>
              <rect class="cls-8" x="353.07" y="232.03" width="22.76" height="3.47"/>
              <rect class="cls-8" x="378.67" y="232.03" width="16.86" height="3.47" transform="translate(774.19 467.53) rotate(180)"/>
              <rect class="cls-8" x="353.07" y="237.18" width="8.88" height="3.47"/>
              <rect class="cls-8" x="364.45" y="237.18" width="17.72" height="3.47"/>
              <rect class="cls-8" x="384.89" y="237.18" width="7.03" height="3.47" transform="translate(776.81 477.82) rotate(180)"/>
              <rect class="cls-8" x="353.07" y="242.33" width="3.41" height="3.47"/>
              <rect class="cls-8" x="359.03" y="242.33" width="19.99" height="3.47"/>
              <rect class="cls-8" x="381.89" y="242.33" width="21.59" height="3.47" transform="translate(785.38 488.12) rotate(180)"/>
              <rect class="cls-8" x="353.07" y="247.48" width="15.75" height="3.47"/>
              <rect class="cls-8" x="370.79" y="247.48" width="6.33" height="3.47"/>
              <rect class="cls-8" x="379.01" y="247.48" width="12.19" height="3.47"/>
              <rect class="cls-8" x="353.07" y="252.62" width="21.23" height="3.47"/>
              <rect class="cls-8" x="376.48" y="252.62" width="21.23" height="3.47"/>
              <rect class="cls-8" x="353.07" y="257.77" width="5.96" height="3.47"/>
              <rect class="cls-8" x="360.71" y="257.77" width="12.61" height="3.47"/>
              <rect class="cls-8" x="374.85" y="257.77" width="3.47" height="3.47"/>
              <rect class="cls-8" x="414.26" y="226.88" width="3.41" height="3.47"/>
              <rect class="cls-8" x="420.22" y="226.88" width="31.63" height="3.47"/>
              <rect class="cls-8" x="454.02" y="226.88" width="13.17" height="3.47"/>
              <rect class="cls-8" x="414.26" y="232.03" width="22.76" height="3.47"/>
              <rect class="cls-8" x="439.85" y="232.03" width="16.86" height="3.47" transform="translate(896.57 467.53) rotate(180)"/>
              <rect class="cls-8" x="414.26" y="237.18" width="8.88" height="3.47"/>
              <rect class="cls-8" x="425.64" y="237.18" width="17.72" height="3.47"/>
              <rect class="cls-8" x="446.07" y="237.18" width="7.03" height="3.47" transform="translate(899.18 477.82) rotate(180)"/>
              <rect class="cls-8" x="414.26" y="242.33" width="3.41" height="3.47"/>
              <rect class="cls-8" x="420.22" y="242.33" width="19.99" height="3.47"/>
              <rect class="cls-8" x="443.08" y="242.33" width="21.59" height="3.47" transform="translate(907.75 488.12) rotate(180)"/>
              <rect class="cls-8" x="414.26" y="247.48" width="15.75" height="3.47"/>
              <rect class="cls-8" x="431.98" y="247.48" width="6.33" height="3.47"/>
              <rect class="cls-8" x="440.19" y="247.48" width="12.19" height="3.47"/>
              <rect class="cls-8" x="414.26" y="252.62" width="21.23" height="3.47"/>
              <rect class="cls-8" x="437.67" y="252.62" width="21.23" height="3.47"/>
              <rect class="cls-8" x="414.26" y="257.77" width="5.96" height="3.47"/>
              <rect class="cls-8" x="421.89" y="257.77" width="12.61" height="3.47"/>
              <rect class="cls-8" x="436.03" y="257.77" width="3.47" height="3.47"/>
            </g>
          </g>
          <g class="cls-6">
            <rect class="cls-14" x="85.11" y="218.39" width="117.88" height="117.88"/>
            <path class="cls-4" d="M173.57,263.76c0-16.3-13.22-29.52-29.52-29.52s-29.52,13.22-29.52,29.52c0,9.16,4.17,17.34,10.72,22.76,3.19-8.11,10.4-13.79,18.8-13.79s15.62,5.68,18.8,13.79c6.54-5.42,10.72-13.6,10.72-22.76Zm-29.52,5.88c-5.8,0-10.51-4.7-10.51-10.51s4.71-10.51,10.51-10.51,10.51,4.71,10.51,10.51-4.71,10.51-10.51,10.51Z"/>
            <rect class="cls-8" x="100.51" y="296.79" width="87.08" height="7.14"/>
            <rect class="cls-8" x="100.51" y="310.27" width="87.08" height="7.14"/>
          </g>
        </g>
      </g>
    </g>
  </g>
</svg>