<?xml version="1.0" encoding="utf-8"?>
<!-- Generator: Adobe Illustrator 21.0.0, SVG Export Plug-In . SVG Version: 6.00 Build 0)  -->
<svg version="1.1" id="Layer_1" xmlns="http://www.w3.org/2000/svg" xmlns:xlink="http://www.w3.org/1999/xlink" x="0px" y="0px"
	 viewBox="0 0 77 44" style="enable-background:new 0 0 77 44;" xml:space="preserve">
<style type="text/css">
	.st0{fill:#FFFFFF;}
</style>
<g>
	<path class="st0" d="M68.1,16.7l-3,15.1c-0.3,1.7-2,3.1-3.7,3.1c-1.7,0-2.8-1.4-2.5-3.1l3-15.1H50.8c-2.8,0-5.6,1-8,2.6
		c-1.7-1.6-4.1-2.6-6.9-2.6L34,26.2c1.5,0,2.5,1.2,2.2,2.7l-2.9,14.7h9.4l2.9-14.7c0.3-1.5,1.5-3.2,3.7-3.8c2.1-0.5,8.3-0.6,8.3-0.6
		s-6.1,1.5-7.4,6.7l-0.1,0.5c-1.3,6.5,2.9,11.8,9.4,11.8c6.5,0,12.9-5.3,14.2-11.8l3-15.1H68.1L68.1,16.7z"/>
	<polygon class="st0" points="1.4,18.3 28.3,20.1 0.8,21.4 27.4,23.1 0.2,24.4 22.2,25.8 18.7,43.6 28.2,43.6 33.6,16.5 1.4,18.3 	
		"/>
	<circle class="st0" cx="29.3" cy="6.6" r="6"/>
</g>
</svg>
