<svg id="Layer_1" data-name="Layer 1" xmlns="http://www.w3.org/2000/svg" width="52.66" height="28.4" viewBox="0 0 52.66 28.4">
  <defs>
    <style>
      .cls-1 { fill: #fff; fill-rule: evenodd; }
    </style>
  </defs>
  <path class="cls-1" d="M0 .99h6.78v1.64L0 10.84V.99zM0 14.11l6.78-8.22v21.34H0V14.11zM29.4 16.75l-.1.28-.12.27-.13.27-.13.25-.15.26-.15.25-.17.24-.18.23-.18.23-.19.22-.2.22-.2.2-.23.2-.22.19-.23.19-.24.17-.24.17-.25.15-.27.15-.26.13-.27.14-.27.12-.29.1-.28.1-.3.09-.29.07-.3.07-.31.05-.3.04-.32.03-.31.02-.32.01-.4-.01-.4-.03-.38-.05-.39-.07-.38-.08-.36-.11-.36-.12-.36-.14-.34-.15-.34-.17-.33-.18-.31-.2-.31-.22-.3-.23-.29-.24-.27-.25-.25-.27-.25-.28-.23-.29-.22-.3-.2-.3-.2-.32-.17-.34-.16-.33-.14-.35-.12-.35-.11-.37-.09-.37-.06-.37-.05-.38-.04-.38-.01-.39.01-.4.04-.38.05-.39.06-.38.09-.37.11-.36.12-.35.14-.35.16-.34.17-.34.2-.32.2-.31.22-.3.23-.29.25-.28.25-.26.27-.26.29-.24.3-.23.31-.21.31-.2.33-.18.34-.18.34-.15.36-.14.36-.12.36-.1.38-.09.39-.07.38-.04.4-.04.4-.01.3.01.3.02.3.02.3.04.29.05.29.07.29.07.28.08.27.1.27.09.27.12.26.12.25.13.26.13.25.15.24.15.23.17.22.17.22.18.22.19.21.19.2.2.19.21.18.22.18.21.18.23.16.23.15.25.14.24.14.24.13.26.12.26h6.98l-.15-.6-.16-.59-.2-.59-.21-.57-.24-.55-.27-.55-.28-.53-.31-.52-.33-.5-.35-.5-.38-.47-.39-.46-.41-.44-.42-.43-.46-.4-.46-.39-.48-.38-.49-.35-.51-.33-.53-.3-.54-.3-.56-.26-.56-.25L27 .86l-.59-.19-.61-.18-.6-.14-.63-.13-.63-.09-.64-.07-.65-.05L22 0l-.75.02-.74.06-.73.09-.71.12-.7.16-.69.19-.68.22-.66.26-.64.28-.63.32-.61.34-.59.37-.57.39-.55.43-.53.44-.51.48-.48.49-.46.51-.43.54-.41.56-.38.57-.35.6-.32.61-.29.63-.26.65-.23.66-.2.67-.16.69-.13.7-.09.71-.06.73-.02.73.02.73.06.71.09.71.13.7.16.68.2.67.23.67.26.64.29.62.32.61.35.6.38.58.41.56.43.53.46.52.48.49.51.46.53.46.55.41.57.4.59.38.61.34.63.31.64.29.66.25.68.22.69.19.7.16.71.13.73.09.74.05.75.02.66-.01.66-.04.66-.08.63-.1.64-.12.62-.15.6-.19.6-.19.6-.23.57-.26.55-.28.55-.29.53-.32.52-.34.5-.36.49-.38.46-.4.46-.42.42-.44.42-.46.39-.46.37-.5.35-.5.33-.52.31-.53.28-.55.26-.55.24-.57.21-.59.18-.6.16-.6.14-.62H29.4zM36.63.99h6.74v19.92h9.29l-5.15 6.35H36.63V.99z"/>
</svg>