<svg xmlns="http://www.w3.org/2000/svg" viewBox="0 0 515 132"><g id="Слой_2" data-name="Слой 2"><g id="Слой_1-2" data-name="Слой 1"><path d="M277,44v57.27a6.65,6.65,0,0,1-5.64,6.67A6.51,6.51,0,0,1,264,101.5V44a1,1,0,0,0-1-1H252a1,1,0,0,0-1,1v57c0,10.58,8.22,19.58,18.79,20A19.5,19.5,0,0,0,290,101.5V44a1,1,0,0,0-1-1H278A1,1,0,0,0,277,44Z" style="fill:#0097a7"/><path d="M223,11H179a1,1,0,0,0-1,1V22a1,1,0,0,0,1,1h15.5v97a1,1,0,0,0,1,1h11a1,1,0,0,0,1-1V23H223a1,1,0,0,0,1-1V12A1,1,0,0,0,223,11Z" style="fill:#0097a7"/><path d="M384,51V31c0-10.58-8.22-19.58-18.79-20A19.5,19.5,0,0,0,345,30.5V101c0,10.58,8.22,19.58,18.79,20A19.5,19.5,0,0,0,384,101.5V83a1,1,0,0,0-1-1H372a1,1,0,0,0-1,1v18.27a6.65,6.65,0,0,1-5.64,6.67A6.51,6.51,0,0,1,358,101.5V30.73a6.65,6.65,0,0,1,5.64-6.67A6.51,6.51,0,0,1,371,30.5V51a1,1,0,0,0,1,1h11A1,1,0,0,0,384,51Z" style="fill:#0097a7"/><path d="M238.5,43A19.5,19.5,0,0,0,219,62.5V120a1,1,0,0,0,1,1h11a1,1,0,0,0,1-1V62.5a6.52,6.52,0,0,1,6.5-6.5H244a1,1,0,0,0,1-1V44a1,1,0,0,0-1-1Z" style="fill:#0097a7"/><path d="M316.79,43C306.22,43.39,298,52.39,298,63V101c0,10.58,8.22,19.58,18.79,20A19.5,19.5,0,0,0,337,101.5V99a1,1,0,0,0-1-1H325a1,1,0,0,0-1,1v2.27a6.65,6.65,0,0,1-5.64,6.67A6.51,6.51,0,0,1,311,101.5V91h25a1,1,0,0,0,1-1V62.5A19.5,19.5,0,0,0,316.79,43ZM311,78V62.5a6.5,6.5,0,0,1,13,0V78Z" style="fill:#0097a7"/><path d="M410.5,42.92A19.5,19.5,0,0,0,391,62.42v39a19.5,19.5,0,1,0,39,0v-39A19.5,19.5,0,0,0,410.5,42.92Zm0,65a6.51,6.51,0,0,1-6.5-6.5v-39a6.5,6.5,0,0,1,13,0v39A6.51,6.51,0,0,1,410.5,107.92Z" style="fill:#0097a7"/><path d="M457.5,43H439a1,1,0,0,0-1,1v76a1,1,0,0,0,1,1h11a1,1,0,0,0,1-1V56h6.5a6.53,6.53,0,0,1,6.5,6.5V120a1,1,0,0,0,1,1h11a1,1,0,0,0,1-1V62.5A19.5,19.5,0,0,0,457.5,43Z" style="fill:#0097a7"/><path d="M508.5,24H514a1,1,0,0,0,1-1V12a1,1,0,0,0-1-1h-5.5A19.5,19.5,0,0,0,489,30.5V43h-5a1,1,0,0,0-1,1V55a1,1,0,0,0,1,1h5v64a1,1,0,0,0,1,1h11a1,1,0,0,0,1-1V56h9a1,1,0,0,0,1-1V44a1,1,0,0,0-1-1h-9V30.5A6.52,6.52,0,0,1,508.5,24Z" style="fill:#0097a7"/><path d="M150.27,65.72,135.38,54c2.59-7.12,7.37-23.5,1-33.22-2.17-3.3-6.58-7.22-15.24-7.22s-13.19,4-15.37,7.27c-6.41,9.78-1.49,26.2,1.13,33.27L102.24,58l-11-8c3.2-8.43,9.85-29.45,2-41.36C90.83,4.87,85.84.42,76,.42S61.17,4.87,58.72,8.61c-7.81,11.91-1.16,32.93,2,41.36l-11,8-4.62-3.83c2.62-7.07,7.54-23.49,1.13-33.27-2.18-3.32-6.61-7.27-15.37-7.27s-13.07,3.92-15.24,7.22C9.25,30.54,14,46.92,16.62,54L1.73,65.72A4.49,4.49,0,0,0,.1,70.2a77.62,77.62,0,0,0,151.8,0A4.49,4.49,0,0,0,150.27,65.72ZM9.55,71l15.27-12a4.52,4.52,0,0,0,1.36-5.32c-3.26-7.64-6.95-22-3-28,.52-.78,2.09-3.16,7.72-3.16s7.31,2.41,7.83,3.2c3.94,6,.17,20.31-3.12,27.92A4.49,4.49,0,0,0,36.87,59l5.37,4.45-5.44,4A4.51,4.51,0,0,0,35,71v37.78A68.49,68.49,0,0,1,9.55,71ZM44,114.54V73.34L68.9,55.19a4.5,4.5,0,0,0,1.49-5.43c-2.88-6.65-9.81-27.56-4.13-36.21,1.82-2.78,5-4.12,9.74-4.12s7.92,1.34,9.74,4.12c5.68,8.65-1.25,29.56-4.13,36.21a4.5,4.5,0,0,0,1.49,5.43L108,73.34v41.2a67.94,67.94,0,0,1-64.08,0Zm73.09-5.72V71a4.51,4.51,0,0,0-1.85-3.64l-5.44-4L115.13,59a4.49,4.49,0,0,0,1.26-5.26c-2.22-5.1-7.55-21.17-3.12-27.92.52-.79,2.1-3.2,7.83-3.2s7.2,2.38,7.72,3.16c4,6,.26,20.34-3,28a4.52,4.52,0,0,0,1.36,5.32l15.27,12A68.49,68.49,0,0,1,117.05,108.82Z" style="fill:#0097a7"/><rect width="152" height="132" style="fill:none"/></g></g></svg>