<?xml version="1.0" encoding="utf-8"?>
<!-- Generator: Adobe Illustrator 19.0.1, SVG Export Plug-In . SVG Version: 6.00 Build 0)  -->
<svg version="1.1" id="Layer_1" xmlns="http://www.w3.org/2000/svg" xmlns:xlink="http://www.w3.org/1999/xlink" x="0px" y="0px"
	 viewBox="-108.3 154.3 800 205" style="enable-background:new -108.3 154.3 800 205;" xml:space="preserve">
<style type="text/css">
	.st0{fill:url(#SVGID_1_);}
	.st1{fill:url(#SVGID_2_);}
	.st2{fill:url(#SVGID_3_);}
	.st3{fill:url(#SVGID_4_);}
	.st4{fill:url(#SVGID_5_);}
	.st5{fill:url(#SVGID_6_);}
	.st6{fill:url(#SVGID_7_);}
	.st7{fill:url(#SVGID_8_);}
</style>
<g>
	
		<linearGradient id="SVGID_1_" gradientUnits="userSpaceOnUse" x1="-72.3122" y1="204.2994" x2="655.364" y2="325.2602" gradientTransform="matrix(1 0 0 -1 0 514.8)">
		<stop  offset="0" style="stop-color:#38C4F2"/>
		<stop  offset="1" style="stop-color:#3783C4"/>
	</linearGradient>
	<path class="st0" d="M-25.3,288.2c-7.6-9-20-12.4-31.1-8.4s-18.4,14.6-18.4,26.4s7.4,22.4,18.6,26.4c11.1,4,23.6,0.7,31.1-8.4
		c13-15.4,34.7-20.4,53.1-12.3c-0.6-3.9-0.6-7.7,0-11.6C9.4,308.8-12.3,303.7-25.3,288.2z"/>
	
		<linearGradient id="SVGID_2_" gradientUnits="userSpaceOnUse" x1="-72.8685" y1="207.6483" x2="654.8085" y2="328.6094" gradientTransform="matrix(1 0 0 -1 0 514.8)">
		<stop  offset="0" style="stop-color:#38C4F2"/>
		<stop  offset="1" style="stop-color:#3783C4"/>
	</linearGradient>
	<path class="st1" d="M70.6,278.7c-19.9-3.4-35-19.7-37.1-39.9c-3,2.4-6.4,4.4-10,5.7c16.3,11.9,22.9,33.1,15.9,52.1
		c-4,11.1-0.7,23.6,8.3,31.1c9,7.6,21.9,8.7,32.1,2.9s15.7-17.6,13.6-29.3C91.3,289.8,82.2,280.7,70.6,278.7z"/>
	
		<linearGradient id="SVGID_3_" gradientUnits="userSpaceOnUse" x1="-83.8252" y1="273.5586" x2="643.8511" y2="394.5196" gradientTransform="matrix(1 0 0 -1 0 514.8)">
		<stop  offset="0" style="stop-color:#38C4F2"/>
		<stop  offset="1" style="stop-color:#3783C4"/>
	</linearGradient>
	<path class="st2" d="M14.3,236.7c11.6-2,20.7-11.1,22.9-22.9c2-11.6-3.4-23.3-13.6-29.3c-10.3-5.9-23.1-4.7-32.1,2.9
		c-9,7.6-12.4,20-8.3,31.1c7,19,0.4,40.3-15.9,52.1c3.6,1.4,7,3.3,10,5.7C-20.8,256.4-5.6,240.1,14.3,236.7z"/>
	
		<linearGradient id="SVGID_4_" gradientUnits="userSpaceOnUse" x1="-73.9242" y1="213.9946" x2="653.7511" y2="334.9554" gradientTransform="matrix(1 0 0 -1 0 514.8)">
		<stop  offset="0" style="stop-color:#38C4F2"/>
		<stop  offset="1" style="stop-color:#3783C4"/>
	</linearGradient>
	<path class="st3" d="M159,217.5c16.4-4,33.9,2.1,44.4,15.1l6.9-6.9l6.4-6.4c-17.1-19.9-44.7-26.9-69.3-17.7s-40.9,32.6-40.9,58.7
		s16.3,49.6,40.9,58.7c24.6,9.1,52.1,2,69.3-17.9l-6.4-6.4l-6.9-6.9c-10.6,13.1-27.7,19.1-44.3,15.3c-16.4-3.9-29.3-17-32.9-33.6
		H202v-9.3v-9.3h-75.7C129.9,234.5,142.6,221.5,159,217.5z"/>
	
		<linearGradient id="SVGID_5_" gradientUnits="userSpaceOnUse" x1="-69.3368" y1="186.3995" x2="658.3385" y2="307.3603" gradientTransform="matrix(1 0 0 -1 0 514.8)">
		<stop  offset="0" style="stop-color:#38C4F2"/>
		<stop  offset="1" style="stop-color:#3783C4"/>
	</linearGradient>
	<path class="st4" d="M310.6,216.4h34.6c1.4,0,2.7,0.6,3.7,1.6s1.6,2.3,1.6,3.7v101.4h9.3h9.3V221.7c0-1.4,0.6-2.7,1.6-3.7
		s2.3-1.6,3.7-1.6h34.6v-18.7h-98.3L310.6,216.4L310.6,216.4z"/>
	
		<linearGradient id="SVGID_6_" gradientUnits="userSpaceOnUse" x1="-65.4493" y1="163.0135" x2="662.2263" y2="283.9742" gradientTransform="matrix(1 0 0 -1 0 514.8)">
		<stop  offset="0" style="stop-color:#38C4F2"/>
		<stop  offset="1" style="stop-color:#3783C4"/>
	</linearGradient>
	<path class="st5" d="M474.2,217.5c16.4-4,33.9,2.1,44.4,15.1l6.9-6.9l6.4-6.4c-17.1-19.9-44.7-26.9-69.3-17.7
		c-24.6,9.1-40.9,32.6-40.9,58.7s16.3,49.6,40.9,58.7c24.6,9.1,52.1,2,69.3-17.9l-6.4-6.4l-6.9-6.9c-10.6,13.1-27.7,19.1-44.3,15.3
		c-16.4-3.9-29.3-17-32.9-33.6h77.1v-9.3v-9.3h-77.1C445,234.5,457.8,221.5,474.2,217.5z"/>
	
		<linearGradient id="SVGID_7_" gradientUnits="userSpaceOnUse" x1="-71.0893" y1="196.9379" x2="656.5878" y2="317.899" gradientTransform="matrix(1 0 0 -1 0 514.8)">
		<stop  offset="0" style="stop-color:#38C4F2"/>
		<stop  offset="1" style="stop-color:#3783C4"/>
	</linearGradient>
	<path class="st6" d="M270.7,291.5c-8.3-8.3-12.9-19.4-12.9-31.1v-62.7h-9.3h-9.3v62.7c0,16.6,6.6,32.6,18.4,44.3
		c11.7,11.7,33.4,18.3,50,18.3h3.1v-9.4v-9.3h-3.1C295.9,304.4,278.9,299.7,270.7,291.5z"/>
	
		<linearGradient id="SVGID_8_" gradientUnits="userSpaceOnUse" x1="-62.5302" y1="145.4515" x2="665.1459" y2="266.4124" gradientTransform="matrix(1 0 0 -1 0 514.8)">
		<stop  offset="0" style="stop-color:#38C4F2"/>
		<stop  offset="1" style="stop-color:#3783C4"/>
	</linearGradient>
	<path class="st7" d="M615.5,258.8l40.6-49.4c3.6-4.3,2.9-10.6-1.4-14.1c-4.3-3.6-10.6-2.9-14.1,1.4L602.3,243l-38.1-46.3
		c-3.6-4.3-9.9-4.9-14.1-1.4c-4.3,3.6-4.9,9.9-1.4,14.1l40.6,49.4l-40.6,49.4c-3.6,4.3-2.9,10.6,1.4,14.1c1.9,1.6,4.1,2.3,6.3,2.3
		c2.9,0,5.7-1.3,7.7-3.7l38.1-46.3l38.1,46.3c2,2.4,4.9,3.7,7.7,3.7c2.3,0,4.4-0.7,6.3-2.3c4.3-3.6,4.9-9.9,1.4-14.1L615.5,258.8z"
		/>
</g>
</svg>
