<?xml version="1.0" encoding="UTF-8"?>
<svg id="Layer_1" data-name="Layer 1" xmlns="http://www.w3.org/2000/svg" viewBox="0 0 300 61">
  <defs>
    <style>
      .cls-1 {
        fill: red;
        fill-rule: evenodd;
      }
    </style>
  </defs>
  <path class="cls-1" d="M136.98,19.76h6.85c.23,.26,.21,.58,.21,.89,0,7.15,.01,14.3,0,21.46,0,1.69-.56,3.12-2.17,3.95-.41,.18-.85,.23-1.3,.22-.75,.04-1.5-.09-2.24,.07h-.27c-1-.09-1.76-.63-2.54-1.22-5.44-4.1-10.87-8.22-16.31-12.32-1.8-1.36-3.59-2.74-5.4-4.08-.17-.13-.31-.42-.62-.24-.09,.27-.04,.54-.04,.8,0,5.23,0,10.46,0,15.69,0,.25,0,.49-.01,.74-.02,.37-.16,.56-.58,.56-2.1-.03-4.2,.03-6.3-.03-.26-.24-.22-.57-.22-.88,0-7.28-.01-14.56,0-21.83,0-1.88,.94-3.07,2.89-3.78h.67c.76,.11,1.52,.11,2.28,0h.4c.88,.08,1.59,.55,2.26,1.06,6.56,4.97,13.16,9.89,19.74,14.84,.25,.19,.53,.34,.77,.54,.2,.21,.45,.35,.68,.5,.32,.2,.57,.49,.94,.62,.17-.27,.1-.55,.1-.81,0-5.22,0-10.44,0-15.66,0-.37-.07-.77,.2-1.09Z"/>
  <path class="cls-1" d="M263.72,19.76h.4c.84,.11,1.53,.49,2.12,1.12,.49,.53,.74,1.14,.83,1.83v23.5c-.66,.14-1.32,.05-1.98,.06-1.53,.02-3.06,0-4.58,0-.43-.12-.32-.49-.33-.78-.02-1.05,0-2.1,0-3.16v-15.6c-.78,1.34-1.43,2.58-2.11,3.8-2.39,4.28-4.75,8.57-7.14,12.84-.38,.68-.66,1.43-1.23,1.99-.14,.14-.29,.27-.44,.4-.05,.04-.1,.08-.15,.11-.15,.08-.32,.15-.47,.24-.05,.03-.1,.05-.16,.07-.23,.11-.51,.01-.74,.15h-1.34c-1.18-.16-1.88-.93-2.41-1.91-1.18-2.16-2.38-4.3-3.57-6.45-2.13-3.83-4.25-7.66-6.36-11.5-.25-.47-.6-.66-1.13-.65-1.59,.02-3.17,.01-4.76,0-.95,0-1.11-.19-1.14-1.15-.03-.72,.05-1.43,.19-2.13,.29-1.51,1.37-2.48,3.08-2.8h.13c1.15,.16,2.3,.05,3.45,.06,.64,0,1.29,.1,1.92-.06h.13c1.44,.09,2.28,1,2.92,2.15,1.01,1.82,2.01,3.64,3.01,5.46,1.74,3.15,3.52,6.28,5.28,9.55,.49-.67,.81-1.38,1.18-2.04,2.38-4.27,4.76-8.55,7.11-12.85,.6-1.1,1.38-1.97,2.65-2.27h.54c1.28,.16,2.57,.04,3.85,.06,.42,0,.84,.08,1.25-.06Z"/>
  <path class="cls-1" d="M32.93,40.17v-10.2c.37-.3,.81-.21,1.23-.21,9.34,0,18.69,0,28.03,0,1.85,0,1.66,.19,1.68-1.71,0-.56,0-1.12,0-1.68,0-.42-.19-.61-.61-.61-.22,0-.45,0-.67,0-5.5,0-11,0-16.5,0-.4,0-.81,.02-1.2-.05-.44-.15-.89-.15-1.33,0-1.43,.11-2.86,.04-4.29,.05-1.77,.01-3.53,0-5.3,0-.35,0-.72,.05-1.02-.21v-5.64c.23-.12,.48-.06,.72-.06,2.61,0,5.23,0,7.84,0h18.26c1.17-.04,2.35,.08,3.52-.07h.67c1.01,.16,2.03,.22,2.99,.66,2.2,1.01,3.55,2.64,3.73,5.08,.13,1.83,.17,3.66-.06,5.49-.3,2.39-1.75,3.74-3.96,4.38-1.06,.3-2.14,.45-3.25,.45-7.43,0-14.85,0-22.28,0q-1.26,0-1.27,1.26c0,2.73,0,5.46,0,8.19,0,.35,.08,.73-.23,1.01-2.18,.02-4.36,.05-6.54-.02-.15-.57-.05-1.15-.07-1.73-.05-1.45,.09-2.9-.07-4.34Z"/>
  <path class="cls-1" d="M193.77,19.76c0,3.91,.02,7.82,.02,11.74,0,2.1,0,4.2,0,6.3,0,1.59,.76,2.34,2.35,2.34,6.48,0,12.97,0,19.45,0,1.45,0,2.25-.75,2.25-2.15,0-5.99,0-11.98,0-17.97,0-.09-.02-.18-.03-.26h6.85c.23,.26,.2,.58,.2,.89,0,6.28,.03,12.55-.01,18.83-.02,2.48-1.06,4.48-3.14,5.9-.94,.64-2,.84-3.09,.96h-.54c-.21-.13-.44-.07-.66-.07-7.8,0-15.6,0-23.39,0-.22,0-.45-.06-.66,.07h-.4c-1.67-.13-3.1-.79-4.25-2.02-1.19-1.28-1.86-2.79-1.86-4.55-.01-6.35,0-12.71,0-19.06,0-.33-.04-.68,.2-.96h6.71Z"/>
  <path class="cls-1" d="M66.36,46.21c.46-1.04,1.09-1.99,1.66-2.97,2.47-4.3,4.96-8.58,7.42-12.88,.23-.41,.48-.54,.94-.54,4,.02,8,0,12.12,0-.42-.81-.79-1.56-1.2-2.29-.34-.62-.49-1.5-1.07-1.8-.55-.28-1.35-.09-2.04-.09-1.81,0-3.62-.01-5.43,0-.48,0-.54-.11-.3-.52,.71-1.19,1.39-2.39,2.08-3.59,.56-.97,1.49-1.41,2.47-1.77h.27c1.34,.12,2.68,.12,4.03,0h.4c1.43,.09,2.29,.96,2.95,2.12,3.11,5.43,6.26,10.84,9.38,16.27,1.38,2.4,2.77,4.8,4.17,7.2,.12,.21,.26,.42,.31,.67,.04,.22-.08,.28-.27,.26-2.33,0-4.66,0-6.99,0-.42-.07-.54-.45-.69-.75-1.48-2.86-3.03-5.68-4.47-8.56-.29-.58-.65-.8-1.3-.79-3.55,.03-7.11,.03-10.66,0-.73,0-1.15,.24-1.47,.88-1.45,2.85-2.97,5.66-4.45,8.49-.17,.32-.25,.75-.76,.73-2.14,0-4.29,0-6.43,0-.22,0-.45,.06-.65-.07Z"/>
  <path class="cls-1" d="M161.95,46.21c-.01-.38-.03-.76-.04-1.14,0-6.15,0-12.3,.01-18.45,0-.55-.12-.71-.69-.71-4.65,.02-9.3,0-13.96,.02-.52,0-.71-.12-.66-.66,.05-.6,0-1.21,.01-1.81,.03-1.79,1.04-3.09,2.76-3.58,.09-.03,.17-.03,.21-.13h.54c.21,.13,.44,.07,.65,.07,9.72,0,19.45,0,29.17,0,.22,0,.45,.06,.66-.07h.54c.29,.1,.58,.18,.85,.31,1.39,.67,2.14,1.78,2.2,3.33,.02,.62-.03,1.25,.02,1.88,.04,.55-.16,.66-.68,.66-4.69-.02-9.38,0-14.08-.03-.62,0-.82,.12-.81,.79,.03,6.28,.02,12.56,.02,18.84,0,.22-.01,.45-.02,.67-.23,.14-.48,.07-.71,.07-1.78,0-3.56,0-5.33,0-.22,0-.45,.06-.65-.06Z"/>
  <path class="cls-1" d="M234.02,46.19c-2.05,0-4.11,0-6.16,.03-.56,0-.53-.28-.53-.67,0-4.42,0-8.84,0-13.26,0-.67,.02-1.34,0-2.01-.01-.35,.12-.46,.46-.46,2.08,.02,4.15,.02,6.23,.03,0,5.45,0,10.89,0,16.34Z"/>
</svg>