<?xml version="1.0" encoding="UTF-8" standalone="no"?>
<!-- Created with Inkscape (http://www.inkscape.org/) -->

<svg
   xmlns:dc="http://purl.org/dc/elements/1.1/"
   xmlns:cc="http://creativecommons.org/ns#"
   xmlns:rdf="http://www.w3.org/1999/02/22-rdf-syntax-ns#"
   xmlns:svg="http://www.w3.org/2000/svg"
   xmlns="http://www.w3.org/2000/svg"
   xmlns:sodipodi="http://sodipodi.sourceforge.net/DTD/sodipodi-0.dtd"
   xmlns:inkscape="http://www.inkscape.org/namespaces/inkscape"
   id="svg2"
   sodipodi:version="0.32"
   inkscape:version="0.92.3 (2405546, 2018-03-11)"
   width="100.10416"
   height="104.01332"
   xml:space="preserve"
   sodipodi:docname="wiki_logo.svg"
   inkscape:output_extension="org.inkscape.output.svgz.inkscape"
   version="1.1"><metadata
     id="metadata7"><rdf:RDF><cc:Work
         rdf:about=""><dc:format>image/svg+xml</dc:format><dc:type
           rdf:resource="http://purl.org/dc/dcmitype/StillImage" /><dc:title></dc:title></cc:Work></rdf:RDF></metadata><defs
     id="defs5"><inkscape:perspective
       sodipodi:type="inkscape:persp3d"
       inkscape:vp_x="-50 : 600 : 1"
       inkscape:vp_y="0 : 1000 : 0"
       inkscape:vp_z="700 : 600 : 1"
       inkscape:persp3d-origin="300 : 400 : 1"
       id="perspective9" /><filter
       style="color-interpolation-filters:sRGB"
       inkscape:label="Color Shift"
       id="filter4702"><feColorMatrix
         type="hueRotate"
         values="330"
         result="color1"
         id="feColorMatrix4698" /><feColorMatrix
         type="saturate"
         values="0.0537634"
         result="fbSourceGraphic"
         id="feColorMatrix4700" /><feColorMatrix
         result="fbSourceGraphicAlpha"
         in="fbSourceGraphic"
         values="0 0 0 -1 0 0 0 0 -1 0 0 0 0 -1 0 0 0 0 1 0"
         id="feColorMatrix4704" /><feColorMatrix
         id="feColorMatrix4706"
         type="hueRotate"
         values="330"
         result="color1"
         in="fbSourceGraphic" /><feColorMatrix
         id="feColorMatrix4708"
         type="saturate"
         values="0.05"
         result="color2" /></filter></defs><sodipodi:namedview
     inkscape:cy="72.210822"
     inkscape:cx="134.73303"
     inkscape:zoom="4.911941"
     inkscape:window-height="1754"
     inkscape:window-width="3198"
     inkscape:pageshadow="2"
     inkscape:pageopacity="0.0"
     guidetolerance="10.0"
     gridtolerance="10.0"
     objecttolerance="10.0"
     borderopacity="1.0"
     bordercolor="#666666"
     pagecolor="#ffffff"
     id="base"
     showgrid="false"
     inkscape:window-x="0"
     inkscape:window-y="44"
     inkscape:current-layer="g11"
     fit-margin-top="0"
     fit-margin-left="0"
     fit-margin-right="0"
     fit-margin-bottom="0"
     inkscape:window-maximized="0" /><g
     id="g11"
     inkscape:groupmode="layer"
     inkscape:label="Alt_linux_logo"
     transform="matrix(1.25,0,0,-1.25,-133.74189,527.81434)"><path
   d="m 119.72719,401.86927 v -49.69138 h 53.05064 v 49.69138 z"
   style="fill:#fdd005;fill-opacity:1;fill-rule:nonzero;stroke:none;stroke-width:1.01469803"
   id="path13"
   inkscape:connector-curvature="0" /><path
   d="m 164.9512,383.4238 c -0.7198,-0.1435 -1.9434,-0.7197 -2.7364,-1.08 -0.1435,-0.0723 -0.1435,-0.2881 0,-0.2881 0.2168,-0.0723 0.3614,-0.1436 0.504,-0.2881 0.3613,-0.4317 0.7929,-0.792 0.7929,-1.3682 0,-0.6474 -0.3603,-0.8633 -0.2881,-1.4394 0.2159,-1.1524 1.1514,-2.3037 1.1514,-3.5284 -0.0713,-0.9355 -0.9355,-0.9355 -1.4395,-1.5839 -0.1445,-0.2159 -0.2167,-0.4317 -0.2167,-0.7198 0,-0.2881 -0.0713,-0.792 0.2167,-0.792 0.3594,-0.0722 0.4317,0.6475 0.792,0.6475 0.5039,-0.0713 0.4327,-0.792 0.8643,-0.792 h 18.9355 c -0.0722,0.2168 -0.2158,0.5039 -0.3593,0.5762 -0.9366,0.8642 -3.3125,2.0166 -3.7442,3.3838 -0.7207,2.0888 0.2158,4.7519 0.5039,7.0566 1.0078,6.6953 0.6485,10.3682 -0.5761,15.9121 -0.6485,3.168 -1.1524,5.9756 -2.0879,9.0713 -0.1446,0.5762 -0.9356,1.3682 -1.2246,1.8721 -0.2159,0.3603 -0.4317,1.0088 -0.5039,1.4404 -0.5039,2.376 -0.2872,4.6797 -2.0157,6.6963 -0.6484,0.7197 -1.872,0.792 -2.664,1.2959 -1.5117,0.792 -3.0235,1.584 -4.5362,2.5195 -0.2158,0.1446 -0.8642,0.3604 -1.2236,0.1446 1.7275,-1.2247 2.8799,-2.6641 3.3838,-4.8243 0.2158,-1.0078 0.5039,-1.7998 -0.5039,-2.3759 -0.2881,-0.1446 -2.1602,-1.3682 -3.0244,-3.4561 -0.2158,-0.4316 -1.4395,-3.2402 -2.8799,-5.9043 -1.7275,0.9365 -3.4561,1.0078 -4.6797,1.0078 -1.2959,0 -3.6006,-0.1435 -4.6807,-0.9355 -2.3027,-1.7285 -3.3115,-3.96 -4.0312,-6.4805 -0.5762,-1.9434 -0.9356,-3.96 -1.0801,-5.9756 -0.1445,-2.7363 0.1445,-5.7597 0.4317,-8.4961 0.2167,-1.7998 0.4316,-3.5283 0.5761,-5.3281 0.3594,-1.9434 0.2881,-3.4561 0.2158,-3.8154 -0.6474,-2.0166 -1.6552,-2.7364 -3.5996,-3.0967 -0.2881,0 -0.4326,-0.1436 -0.3603,-0.2881 1.8008,0 3.5996,0 5.4004,0 v 0 h 6.624 c 0.5752,0 0.7197,0.2881 1.2959,0.792 0.792,0.792 -0.2881,2.1602 0,3.96 0.6484,4.4648 2.5918,8.4961 3.5273,12.8164 0.1446,0.5039 0.2168,1.1523 0.2891,1.872 0.3594,-1.7285 0.8633,-3.3838 1.3672,-5.04 0.5039,-1.7275 1.0078,-2.6641 1.8008,-3.0957 v 0 c -0.0723,0 -0.1446,0 -0.2168,-0.0723 z"
   style="fill:#231f20;fill-opacity:1;fill-rule:nonzero;stroke:none"
   id="path15"
   inkscape:connector-curvature="0" /><path
   d="m 168.6953,372.4082 c 0.3604,1.2236 0.5762,2.0879 0.1445,3.3838 -0.289,1.0078 -1.1523,1.7998 -1.5117,2.8076 -0.4326,1.3682 -0.0722,2.8799 -0.7929,4.1045 -0.1436,0.2881 -0.5039,0.5762 -0.8633,0.792 -0.8643,0.5039 -1.1524,0.792 -1.5117,1.6553 -0.1446,0.2881 -0.2891,0.5761 -0.3614,0.8642 -0.791,2.3037 -1.3672,4.6797 -1.7988,6.9844 -0.2168,-1.2246 -0.3604,-2.376 -0.5762,-3.6006 -0.3603,-1.3672 -0.7207,-2.664 -1.1523,-3.9599 -0.9356,-2.7354 -1.8721,-5.544 -2.3047,-8.4239 -0.0713,-0.5761 -0.0713,-1.0801 0,-1.6562 0.0723,-0.5039 0.5049,-1.584 0,-2.1592 -0.5039,-0.5762 -0.6475,-0.7207 -1.1514,-0.792 -1.6552,0 -3.6006,0 -5.2558,0 0.3603,0.1436 0.7197,0.4316 0.9365,0.792 0.6475,1.3672 -1.0088,5.6875 -1.3691,7.2715 -0.2872,1.3681 -0.9356,2.664 -1.1514,4.0322 -0.0723,0.9356 -0.2158,3.8154 -0.0723,4.5361 0,0.2159 0.1436,0.2881 0.2881,0 0.1445,-1.2246 -0.2158,-3.9599 0.4316,-5.3281 0.1446,-0.3603 0.793,-0.1445 1.0079,0.1436 0.5761,0.7207 0.8652,1.584 1.1523,2.4482 0.4316,1.5117 0.793,2.376 1.0078,4.3916 0.2168,1.9443 -0.2148,2.5928 0,4.5361 0.1445,0.792 -0.0722,1.6563 0.3604,2.9522 0.5039,1.5117 0.9365,2.5205 2.0166,3.456 0.8633,0.8643 2.2314,1.0801 3.455,1.2247 3.3125,0 2.8809,-3.6006 3.6006,-5.4727 0.2159,-0.6475 0.8643,-2.2314 1.2237,-2.8799 0.2881,-0.6474 0.792,-1.7998 1.1523,-2.8799 0.2881,-0.792 0.2158,-1.9443 0,-2.3759 -0.2168,-0.3604 0.1445,-0.5762 0.4317,-0.2881 0.3603,0.5761 0.3603,1.0078 0.5761,1.6562 0.2158,0.6475 0.3594,1.6563 0.5762,2.2315 0.3594,1.0088 1.0801,1.9443 1.2959,3.0244 0.2158,1.0078 0.0713,2.0156 -0.2881,3.0234 -0.2158,0.3604 -1.0078,2.6641 -1.4394,3.3125 -1.0079,1.0801 -1.8008,1.2237 -3.4571,2.5196 -0.2871,0.2167 -0.6474,0.4326 -1.0078,0.6484 0.8643,2.0156 2.0166,3.8164 2.8086,5.832 0.6484,1.6563 1.7275,2.5196 2.9512,3.4561 2.0879,-1.2237 1.9453,-1.2959 2.2324,-3.7442 -0.0723,-1.2959 0.0723,-2.5918 0,-3.8164 0,-0.5039 -0.3594,-1.6552 -0.3594,-2.1592 0.0723,-0.7919 0,-1.08 0.1436,-1.9443 0.0713,-0.6484 0.7197,-1.2236 0.5761,-1.8721 -0.4326,-2.8798 -1.6562,-5.5439 -1.7275,-8.4238 -0.0723,-2.8086 0.4317,-6.624 2.8067,-8.4961 0.289,-0.2158 0.8652,0.1436 0.9365,0.5039 0.3603,1.6563 -0.1436,3.4561 0.0722,5.1123 0.1436,1.0801 0.4327,2.3037 0.792,3.3838 0.2881,0.8643 1.0078,2.8799 1.584,3.5283 0.1445,0.2881 0.5039,0.0713 0.3594,-0.1445 -0.0713,0 -1.2949,-2.6641 -1.7988,-4.6797 -0.5762,-2.1601 -1.0801,-5.3281 0.2871,-7.2724 0.4316,-0.7198 1.3681,-1.4395 2.0156,-2.5196 0.3613,-0.6484 0.5762,-3.5283 0.4326,-4.248 -0.2881,-2.0156 -2.7353,-5.2559 -5.1123,-5.4717 -0.8633,0 -1.7275,0 -2.5918,0 z"
   style="fill:#ffffff;fill-opacity:1;fill-rule:nonzero;stroke:none"
   id="path17"
   inkscape:connector-curvature="0" /><path
   d="m 164.4473,381.4082 v 0.1436 c -0.0723,0.0722 -0.2871,0.2158 -0.2871,0.2158 -0.2891,0.2881 -0.1446,0.8642 0.2871,0.9365 0.7207,0.2158 1.5117,0 1.7285,-0.6484 0.2158,-0.5762 -0.1445,-1.2959 -0.6485,-1.7276 -0.4316,-0.4326 -1.1523,-0.0722 -1.4394,-0.1445 -0.1445,-0.0723 -0.1445,-0.1436 -0.0723,-0.2158 0.2881,-0.1436 0.792,-0.1436 1.2237,-0.1436 0.288,0 0.5761,0.1436 0.792,0.0713 0.1445,-0.0713 0.2167,-0.3594 0.2167,-0.5039 0,-0.3594 -0.2167,-0.7197 -0.2167,-1.0078 0.0722,-0.2158 0.288,-0.2158 0.4316,-0.3604 0.6484,-1.0078 0.5762,-1.5839 0.7207,-2.5195 0.1445,-1.1523 1.2959,-1.4404 1.2246,-1.7285 0,-0.0713 -0.0723,-0.1436 -0.2168,-0.0713 -0.3594,0.3594 -1.0078,0.3594 -1.5117,0.2881 -0.2881,0 -0.4317,-0.4326 -0.792,-0.5049 -0.1436,-0.0713 -0.4326,0 -0.5049,0.2168 -0.2148,0.2881 0.1445,0.792 -0.0713,1.0801 -0.1435,0.2158 -0.7197,0.2881 -0.7197,0.7197 0,1.1524 -0.793,2.2315 -1.0801,3.3115 -0.0722,0.2881 -0.0722,0.4326 0,0.7207 0.2158,0.5039 0.3594,1.1514 0,1.6553 -0.1445,0.2168 0.6485,-0.0713 0.9356,0.2168 z"
   style="fill:#ffffff;fill-opacity:1;fill-rule:nonzero;stroke:none"
   id="path19"
   inkscape:connector-curvature="0" /><path
   d="m 165.959,421.7998 c 1.2246,-0.6484 2.7363,-2.9521 3.5283,-4.1758 0.3604,-0.5039 0.8643,-0.0722 0.6475,0.3594 -1.2227,1.7285 -2.6631,3.168 -4.1758,3.8164 v 0 m -6.1192,-18.9355 c 0.9356,-0.2168 2.1602,-1.1524 2.4473,-2.0166 0.2891,-0.8643 0.3604,-1.3682 0,-3.8877 0,-0.1446 0.2891,-0.2881 0.3604,0 0.0713,0.6474 0,0 0.0713,0.288 0.0722,0.4317 0.3613,0.3594 0.5048,0.1436 -0.2881,0.8643 -0.0722,1.6563 1.0078,1.584 0.5762,-0.0723 0.504,-0.5039 1.4405,-0.7197 0.2871,-0.0723 0.9355,0.1435 1.0801,0.6474 0.3593,1.0801 0,2.0166 -0.8643,2.7363 -0.5049,0.4327 -1.1523,0.6485 -1.7998,0.2159 -0.1445,-0.1436 -0.3604,-0.5752 -0.3604,-0.792 0.1436,-0.9356 -0.3603,-0.6475 -0.7197,0 -0.5039,0.792 -2.1601,1.9443 -3.168,1.8008 v 0 m 5.9756,-13.6807 c 0.4326,1.3682 -0.0713,3.3838 -0.3603,4.8965 -0.1436,0.5039 0.5039,0.6474 0.6484,0.1435 0.4317,-2.0156 0.3594,-3.5283 -0.2881,-5.04 v 0 m 2.376,25.9199 c -0.1445,-0.0713 -0.7197,-0.5039 -1.0801,-0.7197 0.792,-0.1436 1.8721,-0.7197 2.376,-1.6563 0.3604,-0.792 0.6475,-1.9433 0.792,-2.7353 0,0.5039 -0.0723,2.7353 0.1445,3.0234 0.3594,0.4326 1.0801,0.0723 1.584,-0.1435 0.3594,-0.1446 0.5762,-0.5762 0.9356,-0.792 0.3603,-0.1446 0.7207,-0.2158 1.08,-0.0723 0.3594,0.0723 0.7207,0.3604 0.8643,0.7197 0.2158,0.6485 -0.4326,3.2403 -1.8721,2.6641 -0.5761,-0.2158 -0.6484,-1.0801 -1.1523,-1.5117 -0.2871,-0.2158 -0.5762,-0.2881 -0.9356,-0.2158 -0.3603,0 -0.7929,0.2158 -1.1523,0.5039 -0.5039,0.3593 -1.0078,0.792 -1.584,0.9355 z"
   style="fill:#f57215;fill-opacity:1;fill-rule:nonzero;stroke:none"
   id="path21"
   inkscape:connector-curvature="0" /><path
   d="m 165.0957,382.3438 c 0.2158,0 0.5039,-0.2881 0.4316,-0.3604 -0.1445,-0.1436 -0.2158,0.0723 -0.5039,0.0723 -0.2158,0 -0.4316,-0.0723 -0.4316,0.0722 0,0.1436 0.2158,0.2159 0.5039,0.2159 z"
   style="fill:#231f20;fill-opacity:1;fill-rule:nonzero;stroke:none"
   id="path23"
   inkscape:connector-curvature="0" /><path
   d="m 112.4409,384.252 -4.5625,0.4687 c 0.1719,0.7988 0.4204,1.4277 0.7451,1.8867 0.3243,0.458 0.7915,0.8555 1.4019,1.1934 0.438,0.2422 1.04,0.4306 1.8066,0.5644 0.7666,0.1328 1.5957,0.1993 2.4873,0.1993 1.4317,0 2.5816,-0.0801 3.4497,-0.2403 0.8682,-0.1601 1.5914,-0.4941 2.1705,-1.001 0.4062,-0.3515 0.727,-0.8496 0.9619,-1.4931 0.2343,-0.6446 0.352,-1.2598 0.352,-1.8447 v -5.4932 c 0,-0.5859 0.0371,-1.044 0.1113,-1.376 0.0743,-0.332 0.2364,-0.7549 0.4864,-1.2705 h -4.4702 c -0.1797,0.3213 -0.2964,0.5664 -0.3511,0.7344 -0.0547,0.1679 -0.1089,0.4336 -0.1636,0.7939 -0.6269,-0.6035 -1.2495,-1.0342 -1.8677,-1.292 -0.8462,-0.3457 -1.8291,-0.5175 -2.9487,-0.5175 -1.4883,0 -2.6177,0.3437 -3.3892,1.0312 -0.7714,0.6875 -1.1572,1.5361 -1.1572,2.5449 0,0.9453 0.2779,1.7227 0.834,2.333 0.5562,0.6094 1.5825,1.0625 3.0786,1.3604 1.7935,0.3594 2.9566,0.6113 3.4893,0.7558 0.5322,0.1446 1.0962,0.334 1.6919,0.5684 0,0.5781 -0.1221,0.9844 -0.3653,1.2148 -0.2431,0.2325 -0.6709,0.3477 -1.2832,0.3477 -0.7851,0 -1.3735,-0.125 -1.7661,-0.373 -0.3061,-0.1944 -0.5532,-0.5596 -0.7417,-1.0957 m 4.1563,-2.5 c -0.6602,-0.2344 -1.3472,-0.4405 -2.062,-0.6192 -0.9742,-0.2578 -1.5909,-0.5117 -1.8501,-0.7607 -0.2671,-0.2569 -0.4004,-0.5498 -0.4004,-0.877 0,-0.374 0.1313,-0.6806 0.3945,-0.918 0.2632,-0.2373 0.6499,-0.3564 1.1606,-0.3564 0.5342,0 1.0308,0.1289 1.4908,0.3857 0.4594,0.2569 0.7856,0.5713 0.978,0.9415 0.1924,0.3701 0.2886,0.8505 0.2886,1.4443 z"
   style="fill:#231f20;fill-opacity:1;fill-rule:nonzero;stroke:none"
   id="path25"
   inkscape:connector-curvature="0" /><path
   d="m 124.2612,393.0332 h 4.7813 v -17.1875 h -4.7813 z"
   style="fill:#231f20;fill-opacity:1;fill-rule:nonzero;stroke:none"
   id="path27"
   inkscape:connector-curvature="0" /><path
   d="m 137.8472,393.0332 v -4.75 h 2.625 v -3.5 h -2.625 v -4.3975 c 0,-0.5283 0.0507,-0.8789 0.1528,-1.0498 0.1567,-0.2646 0.4312,-0.3964 0.8237,-0.3964 0.3531,0 0.8472,0.1015 1.4829,0.3027 l 0.3531,-3.291 c -1.1817,-0.2578 -2.2852,-0.3867 -3.3096,-0.3867 -1.1895,0 -2.0659,0.1523 -2.6294,0.455 -0.5635,0.3047 -0.98,0.7657 -1.25,1.3848 -0.27,0.6191 -0.4048,1.623 -0.4048,3.0098 v 4.3691 h -1.75 v 3.5 h 1.75 v 2.293 z"
   style="fill:#231f20;fill-opacity:1;fill-rule:nonzero;stroke:none"
   id="path29"
   inkscape:connector-curvature="0" /><path
   d="m 124.2656,373.3066 h 4.7813 v -17.1875 h -4.7813 z"
   style="fill:#231f20;fill-opacity:1;fill-rule:nonzero;stroke:none"
   id="path31"
   inkscape:connector-curvature="0" /><path
   d="m 132.2891,373.3066 h 4.7812 v -3.25 h -4.7812 v 3.25 m 0,-4.75 h 4.7812 v -12.4375 h -4.7812 z"
   style="fill:#231f20;fill-opacity:1;fill-rule:nonzero;stroke:none"
   id="path33"
   inkscape:connector-curvature="0" /><path
   d="m 140.0938,368.5566 h 4.4521 v -2.0341 c 0.6631,0.831 1.3335,1.4248 2.0122,1.7802 0.6787,0.3575 1.5054,0.5352 2.4805,0.5352 1.3178,0 2.3491,-0.3926 3.0942,-1.1777 0.7446,-0.7842 1.1172,-1.9961 1.1172,-3.6358 v -7.9053 h -4.7812 v 6.8291 c 0,0.7793 -0.1446,1.3311 -0.4332,1.6543 -0.289,0.3233 -0.6948,0.4854 -1.2172,0.4854 -0.5777,0 -1.0459,-0.2188 -1.4048,-0.6543 -0.3594,-0.4375 -0.5386,-1.2207 -0.5386,-2.3516 v -5.9629 h -4.7812 z"
   style="fill:#231f20;fill-opacity:1;fill-rule:nonzero;stroke:none"
   id="path35"
   inkscape:connector-curvature="0" /><path
   d="m 169.2266,356.1191 h -4.4639 v 2.0118 c -0.6631,-0.8272 -1.332,-1.4161 -2.0068,-1.7666 -0.6748,-0.3506 -1.503,-0.5264 -2.4854,-0.5264 -1.3105,0 -2.3384,0.3926 -3.083,1.1767 -0.7451,0.7842 -1.1172,1.9932 -1.1172,3.625 v 7.917 h 4.7813 v -6.8437 c 0,-0.7813 0.144,-1.3359 0.4331,-1.6641 0.2885,-0.3281 0.6943,-0.4922 1.2173,-0.4922 0.5693,0 1.0356,0.2188 1.3989,0.6563 0.3628,0.4375 0.5444,1.2226 0.5444,2.3555 v 5.9882 h 4.7813 z"
   style="fill:#231f20;fill-opacity:1;fill-rule:nonzero;stroke:none"
   id="path37"
   inkscape:connector-curvature="0" /><path
   d="m 171.0781,368.5566 h 5.6563 l 1.9531,-3.4668 2.2969,3.4668 h 5.25 l -4.2359,-5.9257 4.5484,-6.5118 h -5.5625 l -2.2969,4.0059 -2.7031,-4.0059 h -5.1563 l 4.5215,6.5118 z"
   style="fill:#231f20;fill-opacity:1;fill-rule:nonzero;stroke:none"
   id="path39"
   inkscape:connector-curvature="0" /><path
   inkscape:connector-curvature="0"
   id="path897"
   style="font-style:normal;font-variant:normal;font-weight:normal;font-stretch:normal;font-size:8.53333378px;line-height:15.25;font-family:'Arial Black';-inkscape-font-specification:'Arial Black, ';letter-spacing:0px;word-spacing:0px;fill:#000000;fill-opacity:1;stroke:none;stroke-width:0.80000001"
   d="m 111.36851,340.15748 h -2.15 l -0.29584,-1.00833 h -1.92916 l 2.29583,6.10833 h 2.05833 l 2.29584,-6.10833 h -1.975 z m -0.39584,1.32084 -0.675,2.19583 -0.67083,-2.19583 z" /><path
   inkscape:connector-curvature="0"
   id="path899"
   style="font-style:normal;font-variant:normal;font-weight:normal;font-stretch:normal;font-size:8.53333378px;line-height:15.25;font-family:'Arial Black';-inkscape-font-specification:'Arial Black, ';letter-spacing:0px;word-spacing:0px;fill:#000000;fill-opacity:1;stroke:none;stroke-width:0.80000001"
   d="m 114.24351,345.25748 h 1.8875 v -4.60416 h 2.94583 v -1.50417 h -4.83333 z" /><path
   inkscape:connector-curvature="0"
   id="path901"
   style="font-style:normal;font-variant:normal;font-weight:normal;font-stretch:normal;font-size:8.53333378px;line-height:15.25;font-family:'Arial Black';-inkscape-font-specification:'Arial Black, ';letter-spacing:0px;word-spacing:0px;fill:#000000;fill-opacity:1;stroke:none;stroke-width:0.80000001"
   d="m 119.08101,345.25748 h 5.7375 v -1.50833 h -1.925 v -4.6 h -1.8875 v 4.6 h -1.925 z" /><path
   inkscape:connector-curvature="0"
   id="path903"
   style="font-style:normal;font-variant:normal;font-weight:normal;font-stretch:normal;font-size:8.53333378px;line-height:15.25;font-family:'Arial Black';-inkscape-font-specification:'Arial Black, ';letter-spacing:0px;word-spacing:0px;fill:#000000;fill-opacity:1;stroke:none;stroke-width:0.80000001"
   d="m 128.52684,345.25748 h 1.8875 v -4.60416 h 2.94583 v -1.50417 h -4.83333 z" /><path
   inkscape:connector-curvature="0"
   id="path905"
   style="font-style:normal;font-variant:normal;font-weight:normal;font-stretch:normal;font-size:8.53333378px;line-height:15.25;font-family:'Arial Black';-inkscape-font-specification:'Arial Black, ';letter-spacing:0px;word-spacing:0px;fill:#000000;fill-opacity:1;stroke:none;stroke-width:0.80000001"
   d="m 134.30184,345.25748 h 1.89167 v -6.10833 h -1.89167 z" /><path
   inkscape:connector-curvature="0"
   id="path907"
   style="font-style:normal;font-variant:normal;font-weight:normal;font-stretch:normal;font-size:8.53333378px;line-height:15.25;font-family:'Arial Black';-inkscape-font-specification:'Arial Black, ';letter-spacing:0px;word-spacing:0px;fill:#000000;fill-opacity:1;stroke:none;stroke-width:0.80000001"
   d="m 137.55601,345.25748 h 1.7625 l 2.3,-3.37916 v 3.37916 h 1.77916 v -6.10833 h -1.77916 l -2.2875,3.35417 v -3.35417 h -1.775 z" /><path
   inkscape:connector-curvature="0"
   id="path909"
   style="font-style:normal;font-variant:normal;font-weight:normal;font-stretch:normal;font-size:8.53333378px;line-height:15.25;font-family:'Arial Black';-inkscape-font-specification:'Arial Black, ';letter-spacing:0px;word-spacing:0px;fill:#000000;fill-opacity:1;stroke:none;stroke-width:0.80000001"
   d="m 148.63518,345.25748 h 1.88333 v -3.64166 q 0,-0.54167 -0.17083,-1.025 -0.16667,-0.47917 -0.52917,-0.84167 -0.35833,-0.35833 -0.75417,-0.50417 -0.55,-0.20416 -1.32083,-0.20416 -0.44583,0 -0.975,0.0625 -0.525,0.0625 -0.87917,0.24583 -0.35416,0.1875 -0.65,0.52917 -0.29166,0.34166 -0.4,0.70416 -0.175,0.58334 -0.175,1.03334 v 3.64166 h 1.88334 v -3.72916 q 0,-0.5 0.275,-0.78334 0.27916,-0.27916 0.77083,-0.27916 0.4875,0 0.7625,0.275 0.27917,0.27916 0.27917,0.7875 z" /><path
   inkscape:connector-curvature="0"
   id="path911"
   style="font-style:normal;font-variant:normal;font-weight:normal;font-stretch:normal;font-size:8.53333378px;line-height:15.25;font-family:'Arial Black';-inkscape-font-specification:'Arial Black, ';letter-spacing:0px;word-spacing:0px;fill:#000000;fill-opacity:1;stroke:none;stroke-width:0.80000001"
   d="m 151.35601,345.25748 h 2.07916 l 1.08334,-1.87916 1.05,1.87916 h 2.05833 l -1.9,-2.95833 2.07917,-3.15 h -2.12084 l -1.20416,1.9625 -1.20834,-1.9625 h -2.10833 l 2.10833,3.18333 z" /><path
   inkscape:connector-curvature="0"
   id="path913"
   style="font-style:normal;font-variant:normal;font-weight:normal;font-stretch:normal;font-size:8.53333378px;line-height:15.25;font-family:'Arial Black';-inkscape-font-specification:'Arial Black, ';letter-spacing:0px;word-spacing:0px;fill:#000000;fill-opacity:1;stroke:none;stroke-width:0.80000001"
   d="m 160.83101,345.25748 h 5.7375 v -1.50833 h -1.925 v -4.6 h -1.8875 v 4.6 h -1.925 z" /><path
   inkscape:connector-curvature="0"
   id="path915"
   style="font-style:normal;font-variant:normal;font-weight:normal;font-stretch:normal;font-size:8.53333378px;line-height:15.25;font-family:'Arial Black';-inkscape-font-specification:'Arial Black, ';letter-spacing:0px;word-spacing:0px;fill:#000000;fill-opacity:1;stroke:none;stroke-width:0.80000001"
   d="m 167.42268,345.25748 h 5.05833 v -1.30416 h -3.16667 v -0.97084 h 2.9375 v -1.24583 h -2.9375 v -1.20417 h 3.25834 v -1.38333 h -5.15 z" /><path
   inkscape:connector-curvature="0"
   id="path917"
   style="font-style:normal;font-variant:normal;font-weight:normal;font-stretch:normal;font-size:8.53333378px;line-height:15.25;font-family:'Arial Black';-inkscape-font-specification:'Arial Black, ';letter-spacing:0px;word-spacing:0px;fill:#000000;fill-opacity:1;stroke:none;stroke-width:0.80000001"
   d="m 177.35184,340.15748 h -2.15 l -0.29583,-1.00833 h -1.92917 l 2.29584,6.10833 h 2.05833 l 2.29583,-6.10833 h -1.975 z m -0.39583,1.32084 -0.675,2.19583 -0.67083,-2.19583 z" /><path
   inkscape:connector-curvature="0"
   id="path919"
   style="font-style:normal;font-variant:normal;font-weight:normal;font-stretch:normal;font-size:8.53333378px;line-height:15.25;font-family:'Arial Black';-inkscape-font-specification:'Arial Black, ';letter-spacing:0px;word-spacing:0px;fill:#000000;fill-opacity:1;stroke:none;stroke-width:0.80000001"
   d="m 180.20601,345.25748 h 2.48333 l 0.95833,-3.71666 0.95417,3.71666 h 2.475 v -6.10833 h -1.54166 v 4.65833 l -1.19584,-4.65833 h -1.39583 l -1.19167,4.65833 v -4.65833 h -1.54583 z" />
</g></svg>